<svg width="26" height="26" viewBox="0 0 26 26" fill="none" xmlns="http://www.w3.org/2000/svg">
<path d="M24.2936 9.89219C24.1919 9.57225 23.9959 9.2905 23.7313 9.08389C23.4667 8.87728 23.1459 8.75545 22.8108 8.73438L16.778 8.31797L14.5436 2.68125C14.4216 2.37088 14.2093 2.10428 13.934 1.91596C13.6588 1.72764 13.3334 1.62628 12.9999 1.625V1.625C12.6664 1.62628 12.341 1.72764 12.0657 1.91596C11.7905 2.10428 11.5781 2.37088 11.4561 2.68125L9.18113 8.34844L3.18895 8.73438C2.8543 8.75682 2.53409 8.87916 2.26974 9.08557C2.00538 9.29198 1.80905 9.57297 1.70613 9.89219C1.60045 10.2163 1.59427 10.5646 1.68841 10.8923C1.78254 11.2199 1.97266 11.5119 2.23426 11.7305L6.8452 15.6305L5.4741 21.0234C5.37924 21.3883 5.39631 21.7732 5.5231 22.1282C5.64989 22.4832 5.88052 22.7919 6.18504 23.0141C6.48062 23.2262 6.83277 23.3453 7.19644 23.3562C7.56011 23.367 7.91874 23.2691 8.22645 23.075L12.9897 20.0586H13.01L18.1389 23.2984C18.402 23.4694 18.7088 23.5611 19.0225 23.5625C19.2787 23.5605 19.531 23.4998 19.7601 23.385C19.9892 23.2702 20.1888 23.1044 20.3438 22.9004C20.4988 22.6964 20.6049 22.4596 20.654 22.2081C20.7032 21.9567 20.694 21.6973 20.6272 21.45L19.1749 15.5492L23.7655 11.7305C24.0271 11.5119 24.2172 11.2199 24.3114 10.8923C24.4055 10.5646 24.3993 10.2163 24.2936 9.89219Z" fill="black"/>
</svg>
