<svg width="28" height="28" viewBox="0 0 28 28" fill="none" xmlns="http://www.w3.org/2000/svg">
<path d="M14 2.625C11.7502 2.625 9.551 3.29213 7.68039 4.54203C5.80978 5.79193 4.35182 7.56847 3.49088 9.64698C2.62993 11.7255 2.40467 14.0126 2.84357 16.2192C3.28248 18.4257 4.36584 20.4525 5.95667 22.0433C7.54749 23.6342 9.57432 24.7175 11.7809 25.1564C13.9874 25.5953 16.2745 25.3701 18.353 24.5091C20.4315 23.6482 22.2081 22.1902 23.458 20.3196C24.7079 18.449 25.375 16.2498 25.375 14C25.3692 10.9849 24.1689 8.09502 22.037 5.96305C19.905 3.83107 17.0151 2.63078 14 2.625ZM19.4141 12.0094L13.0047 18.1344C12.839 18.2902 12.6197 18.3764 12.3922 18.375C12.281 18.3766 12.1706 18.3561 12.0673 18.3148C11.9641 18.2736 11.87 18.2122 11.7906 18.1344L8.58594 15.0719C8.49706 14.9943 8.42477 14.8996 8.37342 14.7934C8.32208 14.6872 8.29274 14.5717 8.28716 14.4539C8.28159 14.3361 8.29989 14.2183 8.34098 14.1077C8.38207 13.9972 8.44509 13.8961 8.52626 13.8105C8.60743 13.7249 8.70507 13.6566 8.8133 13.6097C8.92154 13.5628 9.03814 13.5382 9.1561 13.5376C9.27406 13.5369 9.39094 13.56 9.49971 13.6057C9.60849 13.6513 9.70691 13.7185 9.78907 13.8031L12.3922 16.2859L18.2109 10.7406C18.3811 10.5922 18.602 10.5153 18.8275 10.5259C19.0531 10.5366 19.2657 10.634 19.4211 10.7979C19.5765 10.9617 19.6625 11.1793 19.6612 11.405C19.6599 11.6308 19.5713 11.8474 19.4141 12.0094Z" fill="black"/>
</svg>
