<svg width="88" height="77" viewBox="0 0 88 77" fill="none" xmlns="http://www.w3.org/2000/svg">
<g clip-path="url(#clip0_56_3780)">
<path d="M65.7469 0.801392C55.4183 18.6611 49.7117 27.5674 43.9578 27.5674C38.204 27.5674 32.4973 18.6611 22.2159 0.801392C32.4973 18.6611 37.4022 28.0857 34.5253 33.0337C31.6484 37.9816 21.0368 38.5 0.426758 38.5C21.7914 38.5 32.403 39.0183 34.8083 44.4846C37.0721 49.5739 32.1672 58.9514 22.2159 76.1985C32.5445 58.3388 38.2512 49.4325 44.005 49.4325C49.7588 49.4325 55.4655 58.3388 65.7941 76.1985C54.8524 57.2079 50.0418 47.7832 54.0978 43.0709C57.6821 38.9241 68.2466 38.5 87.5832 38.5C65.7941 38.5 55.1825 37.9345 53.0602 32.1383C51.1265 26.9548 56.0314 17.6244 65.7469 0.801392Z" fill="black"/>
</g>
<defs>
<clipPath id="clip0_56_3780">
<rect width="87.1093" height="75.3971" fill="white" transform="translate(0.426758 0.801514)"/>
</clipPath>
</defs>
</svg>
