<svg width="34" height="26" viewBox="0 0 34 26" fill="none" xmlns="http://www.w3.org/2000/svg">
<path d="M8.50405 24.7273C12.5717 25.6883 17.2203 25.1296 21.406 23.5451C25.5912 21.9608 29.3362 19.3425 31.587 16.1582C33.1087 14.0073 33.5154 11.817 32.9684 9.80281C32.4229 7.79402 30.9371 5.99074 28.7319 4.58815C27.3997 3.73396 26.0087 2.97346 24.2682 2.8943L24.2681 2.89429C24.0063 2.88253 23.7193 3.06063 23.7143 3.36426C23.695 3.66037 23.9542 3.86839 24.2097 3.88075L24.2102 3.88078C25.7055 3.94894 26.9004 4.62024 28.1322 5.40301C30.1263 6.67194 31.4366 8.27792 31.9175 10.0288C32.397 11.7741 32.0606 13.6934 30.7034 15.6151C28.5757 18.6193 25.0231 21.1166 21.0271 22.6335C17.0316 24.1503 12.615 24.6784 8.76845 23.7702L8.76824 23.7701C8.60306 23.7313 8.43328 23.6931 8.25984 23.654C6.60011 23.2801 4.60553 22.8307 3.10225 21.0923L3.10222 21.0923C1.57507 19.3271 1.62705 17.2248 2.34306 15.2375L2.34321 15.2371C3.07362 13.1957 4.48716 11.3074 5.61827 10.0895C8.09027 7.43341 11.8083 4.89247 16.0309 3.33587C20.2531 1.77947 24.9652 1.2123 29.432 2.48202L29.4352 2.48288C29.6983 2.55296 30.0057 2.44027 30.1004 2.16454C30.1954 1.88805 30.0221 1.61466 29.7541 1.53775L29.7536 1.53761C25.0526 0.201609 20.1058 0.793417 15.6956 2.40709C11.2859 4.02056 7.39791 6.66079 4.80797 9.44331L4.80767 9.44363C3.37891 10.9854 1.492 13.5757 0.950502 16.2754L0.950409 16.2759C0.582998 18.1306 0.840285 20.0457 2.26848 21.7101L2.26879 21.7105C3.98073 23.6961 6.26873 24.2171 8.03424 24.6191C8.19548 24.6559 8.35236 24.6916 8.50405 24.7273ZM8.50405 24.7273L8.54992 24.5332L8.50415 24.7274C8.50411 24.7274 8.50408 24.7273 8.50405 24.7273Z" fill="black" stroke="black" stroke-width="0.4"/>
<path d="M7.7002 12.9039C7.7002 11.8399 7.87753 10.9113 8.2322 10.1179C8.5962 9.32461 9.1002 8.70395 9.7442 8.25595C10.3975 7.79861 11.1582 7.56995 12.0262 7.56995C12.9035 7.56995 13.6642 7.79861 14.3082 8.25595C14.9615 8.70395 15.4655 9.32461 15.8202 10.1179C16.1842 10.9113 16.3662 11.8399 16.3662 12.9039C16.3662 13.9586 16.1935 14.8826 15.8482 15.6759C15.5029 16.4693 15.0082 17.0853 14.3642 17.5239C13.7202 17.9626 12.9409 18.1819 12.0262 18.1819C11.1302 18.1819 10.3555 17.9626 9.7022 17.5239C9.0582 17.0853 8.56353 16.4693 8.2182 15.6759C7.87286 14.8826 7.7002 13.9586 7.7002 12.9039ZM9.4642 12.9039C9.4642 13.6879 9.56686 14.3599 9.7722 14.9199C9.97753 15.4706 10.2715 15.8906 10.6542 16.1799C11.0369 16.4599 11.4942 16.5999 12.0262 16.5999C12.5769 16.5999 13.0389 16.4599 13.4122 16.1799C13.7949 15.8906 14.0889 15.4706 14.2942 14.9199C14.4995 14.3599 14.6022 13.6879 14.6022 12.9039C14.6022 12.0919 14.4995 11.4106 14.2942 10.8599C14.0889 10.2999 13.7949 9.87528 13.4122 9.58595C13.0389 9.29661 12.5769 9.15195 12.0262 9.15195C11.4942 9.15195 11.0369 9.29661 10.6542 9.58595C10.2715 9.87528 9.97753 10.2999 9.7722 10.8599C9.56686 11.4106 9.4642 12.0919 9.4642 12.9039Z" fill="black"/>
<path d="M24.2493 7.76595V17.9999H22.5553V7.76595H24.2493ZM17.3613 14.4859L21.9953 7.76595H23.8853L19.1813 14.5979L17.3613 14.4859ZM25.4953 16.0539H17.3613V14.4859H25.4953V16.0539Z" fill="black"/>
</svg>
