<svg width="34" height="26" viewBox="0 0 34 26" fill="none" xmlns="http://www.w3.org/2000/svg">
<path d="M8.50405 24.7273C12.5717 25.6883 17.2203 25.1296 21.406 23.5451C25.5912 21.9608 29.3362 19.3425 31.587 16.1582C33.1087 14.0073 33.5154 11.817 32.9684 9.80281C32.4229 7.79402 30.9371 5.99074 28.7319 4.58815C27.3997 3.73396 26.0087 2.97346 24.2682 2.8943L24.2681 2.89429C24.0063 2.88253 23.7193 3.06063 23.7143 3.36426C23.695 3.66037 23.9542 3.86839 24.2097 3.88075L24.2102 3.88078C25.7055 3.94894 26.9004 4.62024 28.1322 5.40301C30.1263 6.67194 31.4366 8.27792 31.9175 10.0288C32.397 11.7741 32.0606 13.6934 30.7034 15.6151C28.5757 18.6193 25.0231 21.1166 21.0271 22.6335C17.0316 24.1503 12.615 24.6784 8.76845 23.7702L8.76824 23.7701C8.60306 23.7313 8.43328 23.6931 8.25984 23.654C6.60011 23.2801 4.60553 22.8307 3.10225 21.0923L3.10222 21.0923C1.57507 19.3271 1.62705 17.2248 2.34306 15.2375L2.34321 15.2371C3.07362 13.1957 4.48716 11.3074 5.61827 10.0895C8.09027 7.43341 11.8083 4.89247 16.0309 3.33587C20.2531 1.77947 24.9652 1.2123 29.432 2.48202L29.4352 2.48288C29.6983 2.55296 30.0057 2.44027 30.1004 2.16454C30.1954 1.88805 30.0221 1.61466 29.7541 1.53775L29.7536 1.53761C25.0526 0.201609 20.1058 0.793417 15.6956 2.40709C11.2859 4.02056 7.39791 6.66079 4.80797 9.44331L4.80767 9.44363C3.37891 10.9854 1.492 13.5757 0.950502 16.2754L0.950409 16.2759C0.582998 18.1306 0.840285 20.0457 2.26848 21.7101L2.26879 21.7105C3.98073 23.6961 6.26873 24.2171 8.03424 24.6191C8.19548 24.6559 8.35236 24.6916 8.50405 24.7273ZM8.50405 24.7273L8.54992 24.5332L8.50415 24.7274C8.50411 24.7274 8.50408 24.7273 8.50405 24.7273Z" fill="black" stroke="black" stroke-width="0.4"/>
<path d="M8.10352 12.9039C8.10352 11.8399 8.28085 10.9113 8.63552 10.1179C8.99952 9.32461 9.50352 8.70395 10.1475 8.25595C10.8008 7.79861 11.5615 7.56995 12.4295 7.56995C13.3068 7.56995 14.0675 7.79861 14.7115 8.25595C15.3648 8.70395 15.8688 9.32461 16.2235 10.1179C16.5875 10.9113 16.7695 11.8399 16.7695 12.9039C16.7695 13.9586 16.5968 14.8826 16.2515 15.6759C15.9062 16.4693 15.4115 17.0853 14.7675 17.5239C14.1235 17.9626 13.3442 18.1819 12.4295 18.1819C11.5335 18.1819 10.7588 17.9626 10.1055 17.5239C9.46152 17.0853 8.96685 16.4693 8.62152 15.6759C8.27618 14.8826 8.10352 13.9586 8.10352 12.9039ZM9.86752 12.9039C9.86752 13.6879 9.97018 14.3599 10.1755 14.9199C10.3808 15.4706 10.6748 15.8906 11.0575 16.1799C11.4402 16.4599 11.8975 16.5999 12.4295 16.5999C12.9802 16.5999 13.4422 16.4599 13.8155 16.1799C14.1982 15.8906 14.4922 15.4706 14.6975 14.9199C14.9028 14.3599 15.0055 13.6879 15.0055 12.9039C15.0055 12.0919 14.9028 11.4106 14.6975 10.8599C14.4922 10.2999 14.1982 9.87528 13.8155 9.58595C13.4422 9.29661 12.9802 9.15195 12.4295 9.15195C11.8975 9.15195 11.4402 9.29661 11.0575 9.58595C10.6748 9.87528 10.3808 10.2999 10.1755 10.8599C9.97018 11.4106 9.86752 12.0919 9.86752 12.9039Z" fill="black"/>
<path d="M25.1146 17.9859L18.0166 17.9999V16.6559L21.3626 13.8279C21.7079 13.5386 21.9973 13.2726 22.2306 13.0299C22.4733 12.7873 22.6646 12.5586 22.8046 12.3439C22.9446 12.1293 23.0473 11.9146 23.1126 11.6999C23.1779 11.4853 23.2106 11.2519 23.2106 10.9999C23.2106 10.4213 23.0613 9.97328 22.7626 9.65595C22.4639 9.33861 22.0439 9.17995 21.5026 9.17995C20.9426 9.17995 20.4993 9.36661 20.1726 9.73995C19.8459 10.1133 19.6779 10.6266 19.6686 11.2799H17.8906C17.8999 10.5333 18.0539 9.88461 18.3526 9.33395C18.6513 8.77395 19.0713 8.34461 19.6126 8.04595C20.1539 7.73795 20.7839 7.58395 21.5026 7.58395C22.2306 7.58395 22.8559 7.71928 23.3786 7.98995C23.9106 8.25128 24.3213 8.62928 24.6106 9.12395C24.8999 9.61861 25.0446 10.2113 25.0446 10.9019C25.0446 11.2566 24.9933 11.5973 24.8906 11.9239C24.7973 12.2413 24.6526 12.5539 24.4566 12.8619C24.2606 13.1606 24.0179 13.4639 23.7286 13.7719C23.4393 14.0799 23.0986 14.4019 22.7066 14.7379L20.2146 16.8659L19.5706 16.3199H25.1146V17.9859Z" fill="black"/>
</svg>
