<svg width="32" height="32" viewBox="0 0 32 32" fill="none" xmlns="http://www.w3.org/2000/svg">
<path d="M15.2911 8.92891L17.766 6.45403C18.2766 5.94292 18.883 5.53742 19.5504 5.26071C20.2178 4.98399 20.9331 4.84148 21.6556 4.84131C22.3781 4.84114 23.0935 4.98332 23.7611 5.25973C24.4286 5.53613 25.0351 5.94135 25.546 6.45222C26.0569 6.9631 26.4621 7.56962 26.7385 8.23714C27.0149 8.90466 27.1571 9.6201 27.1569 10.3426C27.1567 11.0651 27.0142 11.7804 26.7375 12.4478C26.4608 13.1152 26.0553 13.7216 25.5442 14.2322L22.0086 17.7677C21.4979 18.2785 20.8916 18.6836 20.2243 18.96C19.557 19.2364 18.8418 19.3787 18.1196 19.3787C17.3973 19.3787 16.6821 19.2364 16.0148 18.96C15.3475 18.6836 14.7412 18.2785 14.2305 17.7677" stroke="#0D0E10" stroke-width="2" stroke-linecap="round" stroke-linejoin="round"/>
<path d="M16.7056 23.0708L14.2307 25.5457C13.7201 26.0568 13.1138 26.4623 12.4464 26.739C11.779 27.0158 11.0636 27.1583 10.3411 27.1584C9.61864 27.1586 8.9032 27.0164 8.23568 26.74C7.56815 26.4636 6.96163 26.0584 6.45076 25.5475C5.93988 25.0367 5.53467 24.4301 5.25826 23.7626C4.98186 23.0951 4.83968 22.3796 4.83984 21.6572C4.84001 20.9347 4.98253 20.2193 5.25924 19.5519C5.53596 18.8845 5.94146 18.2782 6.45257 17.7675L9.9881 14.232C10.4988 13.7213 11.1051 13.3162 11.7724 13.0398C12.4397 12.7634 13.1549 12.6211 13.8772 12.6211C14.5995 12.6211 15.3147 12.7634 15.9819 13.0398C16.6492 13.3162 17.2556 13.7213 17.7663 14.232" stroke="#0D0E10" stroke-width="2" stroke-linecap="round" stroke-linejoin="round"/>
</svg>
