<svg width="57" height="51" viewBox="0 0 57 51" fill="none" xmlns="http://www.w3.org/2000/svg">
<path fill-rule="evenodd" clip-rule="evenodd" d="M52.6468 33.9019C51.2896 38.7385 50.6049 43.8022 49.9776 48.7143C49.8462 49.7723 50.5799 50.7546 51.6138 50.8302C52.6483 50.9813 53.5945 50.2252 53.726 49.2428C54.3298 44.4818 54.9759 39.5701 56.2825 34.9602C56.5659 33.9778 55.9825 32.9194 54.9789 32.6171C53.9761 32.3148 52.931 32.9195 52.6468 33.9019Z" fill="black"/>
<path fill-rule="evenodd" clip-rule="evenodd" d="M33.4044 19.242C25.4611 27.0259 18.5402 35.7921 10.3838 43.4248C9.62208 44.105 9.58127 45.3141 10.2924 46.0698C11.0043 46.8255 12.2013 46.9008 12.9631 46.1451C21.1429 38.5124 28.0864 29.7461 36.0531 21.9623C36.7967 21.2066 36.8073 19.9977 36.0758 19.242C35.345 18.5619 34.148 18.4863 33.4044 19.242Z" fill="black"/>
<path fill-rule="evenodd" clip-rule="evenodd" d="M2.85076 4.65525C7.39713 4.42854 11.9435 4.20227 16.4906 3.97555C17.532 3.97555 18.3361 3.06826 18.2854 2.01026C18.234 0.952261 17.3476 0.196992 16.3055 0.196992C11.7515 0.423706 7.19838 0.649977 2.64521 0.876691C1.60384 0.952262 0.805047 1.85927 0.861726 2.91726C0.918404 3.89969 1.81015 4.73083 2.85076 4.65525Z" fill="black"/>
</svg>
