<svg width="67" height="59" viewBox="0 0 67 59" fill="none" xmlns="http://www.w3.org/2000/svg">
<g clip-path="url(#clip0_149_1436)">
<path d="M50.3768 0.97168C42.5511 14.5034 38.2274 21.2514 33.8679 21.2514C29.5084 21.2514 25.1846 14.5034 17.3947 0.97168C25.1846 14.5034 28.9009 21.6442 26.7211 25.393C24.5414 29.1419 16.5013 29.5347 0.885742 29.5347C17.0731 29.5347 25.1131 29.9274 26.9356 34.0691C28.6508 37.9251 24.9345 45.0301 17.3947 58.0977C25.2203 44.566 29.5441 37.818 33.9036 37.818C38.2631 37.818 42.5869 44.566 50.4125 58.0977C42.1223 43.7091 38.4775 36.5683 41.5506 32.9979C44.2664 29.856 52.2707 29.5347 66.9215 29.5347C50.4125 29.5347 42.3725 29.1062 40.7645 24.7147C39.2994 20.7873 43.0157 13.7179 50.3768 0.97168Z" fill="white"/>
</g>
<defs>
<clipPath id="clip0_149_1436">
<rect width="66" height="57.126" fill="white" transform="translate(0.885742 0.97168)"/>
</clipPath>
</defs>
</svg>
