<svg width="34" height="26" viewBox="0 0 34 26" fill="none" xmlns="http://www.w3.org/2000/svg">
<path d="M8.50405 25.0379C12.5717 25.9988 17.2203 25.4401 21.406 23.8556C25.5912 22.2714 29.3362 19.653 31.587 16.4688C33.1087 14.3178 33.5154 12.1275 32.9684 10.1134C32.4229 8.10457 30.9371 6.30129 28.7319 4.8987C27.3997 4.04451 26.0087 3.284 24.2682 3.20484L24.2681 3.20484C24.0063 3.19308 23.7193 3.37118 23.7143 3.67481C23.695 3.97091 23.9542 4.17894 24.2097 4.1913L24.2102 4.19133C25.7055 4.25949 26.9004 4.93078 28.1322 5.71356C30.1263 6.98249 31.4366 8.58847 31.9175 10.3393C32.397 12.0846 32.0606 14.004 30.7034 15.9256C28.5757 18.9299 25.0231 21.4272 21.0271 22.9441C17.0316 24.4608 12.615 24.989 8.76845 24.0807L8.76824 24.0807C8.60306 24.0419 8.43328 24.0036 8.25984 23.9645C6.60011 23.5906 4.60553 23.1412 3.10225 21.4029L3.10222 21.4028C1.57507 19.6377 1.62705 17.5354 2.34306 15.5481L2.34321 15.5477C3.07362 13.5062 4.48716 11.618 5.61827 10.4001C8.09027 7.74396 11.8083 5.20302 16.0309 3.64642C20.2531 2.09001 24.9652 1.52285 29.432 2.79257L29.4352 2.79342C29.6983 2.86351 30.0057 2.75082 30.1004 2.47509C30.1954 2.1986 30.0221 1.9252 29.7541 1.84829L29.7536 1.84816C25.0526 0.512156 20.1058 1.10396 15.6956 2.71763C11.2859 4.33111 7.39791 6.97134 4.80797 9.75386L4.80767 9.75418C3.37891 11.296 1.492 13.8863 0.950502 16.5859L0.950409 16.5864C0.582998 18.4412 0.840285 20.3562 2.26848 22.0207L2.26879 22.021C3.98073 24.0066 6.26873 24.5276 8.03424 24.9297C8.19548 24.9664 8.35236 25.0021 8.50405 25.0379ZM8.50405 25.0379L8.54992 24.8437L8.50415 25.0379C8.50411 25.0379 8.50408 25.0379 8.50405 25.0379Z" fill="black" stroke="black" stroke-width="0.4"/>
<path d="M8.93652 14.2145C8.93652 13.1505 9.11386 12.2218 9.46852 11.4285C9.83252 10.6352 10.3365 10.0145 10.9805 9.56649C11.6339 9.10916 12.3945 8.88049 13.2625 8.88049C14.1399 8.88049 14.9005 9.10916 15.5445 9.56649C16.1979 10.0145 16.7019 10.6352 17.0565 11.4285C17.4205 12.2218 17.6025 13.1505 17.6025 14.2145C17.6025 15.2692 17.4299 16.1932 17.0845 16.9865C16.7392 17.7798 16.2445 18.3958 15.6005 18.8345C14.9565 19.2732 14.1772 19.4925 13.2625 19.4925C12.3665 19.4925 11.5919 19.2732 10.9385 18.8345C10.2945 18.3958 9.79986 17.7798 9.45452 16.9865C9.10919 16.1932 8.93652 15.2692 8.93652 14.2145ZM10.7005 14.2145C10.7005 14.9985 10.8032 15.6705 11.0085 16.2305C11.2139 16.7812 11.5079 17.2012 11.8905 17.4905C12.2732 17.7705 12.7305 17.9105 13.2625 17.9105C13.8132 17.9105 14.2752 17.7705 14.6485 17.4905C15.0312 17.2012 15.3252 16.7812 15.5305 16.2305C15.7359 15.6705 15.8385 14.9985 15.8385 14.2145C15.8385 13.4025 15.7359 12.7212 15.5305 12.1705C15.3252 11.6105 15.0312 11.1858 14.6485 10.8965C14.2752 10.6072 13.8132 10.4625 13.2625 10.4625C12.7305 10.4625 12.2732 10.6072 11.8905 10.8965C11.5079 11.1858 11.2139 11.6105 11.0085 12.1705C10.8032 12.7212 10.7005 13.4025 10.7005 14.2145Z" fill="black"/>
<path d="M20.9216 10.6865H18.6816V9.07649H22.6296V19.3105H20.9216V10.6865Z" fill="black"/>
</svg>
