<svg width="20" height="20" viewBox="0 0 20 20" fill="none" xmlns="http://www.w3.org/2000/svg">
<path d="M10.0003 1.66699C12.2645 1.66699 12.547 1.67533 13.4353 1.71699C14.3228 1.75866 14.927 1.89783 15.4587 2.10449C16.0087 2.31616 16.472 2.60283 16.9353 3.06533C17.3591 3.48191 17.687 3.98582 17.8962 4.54199C18.102 5.07283 18.242 5.67783 18.2837 6.56533C18.3228 7.45366 18.3337 7.73616 18.3337 10.0003C18.3337 12.2645 18.3253 12.547 18.2837 13.4353C18.242 14.3228 18.102 14.927 17.8962 15.4587C17.6876 16.0151 17.3596 16.5192 16.9353 16.9353C16.5186 17.3589 16.0148 17.6868 15.4587 17.8962C14.9278 18.102 14.3228 18.242 13.4353 18.2837C12.547 18.3228 12.2645 18.3337 10.0003 18.3337C7.73616 18.3337 7.45366 18.3253 6.56533 18.2837C5.67783 18.242 5.07366 18.102 4.54199 17.8962C3.9856 17.6874 3.4816 17.3594 3.06533 16.9353C2.6415 16.5188 2.3136 16.0149 2.10449 15.4587C1.89783 14.9278 1.75866 14.3228 1.71699 13.4353C1.67783 12.547 1.66699 12.2645 1.66699 10.0003C1.66699 7.73616 1.67533 7.45366 1.71699 6.56533C1.75866 5.67699 1.89783 5.07366 2.10449 4.54199C2.31302 3.98548 2.641 3.48143 3.06533 3.06533C3.48172 2.64135 3.98568 2.31343 4.54199 2.10449C5.07366 1.89783 5.67699 1.75866 6.56533 1.71699C7.45366 1.67783 7.73616 1.66699 10.0003 1.66699ZM10.0003 5.83366C8.89526 5.83366 7.83545 6.27265 7.05405 7.05405C6.27265 7.83545 5.83366 8.89526 5.83366 10.0003C5.83366 11.1054 6.27265 12.1652 7.05405 12.9466C7.83545 13.728 8.89526 14.167 10.0003 14.167C11.1054 14.167 12.1652 13.728 12.9466 12.9466C13.728 12.1652 14.167 11.1054 14.167 10.0003C14.167 8.89526 13.728 7.83545 12.9466 7.05405C12.1652 6.27265 11.1054 5.83366 10.0003 5.83366ZM15.417 5.62533C15.417 5.34906 15.3072 5.08411 15.1119 4.88876C14.9165 4.69341 14.6516 4.58366 14.3753 4.58366C14.0991 4.58366 13.8341 4.69341 13.6388 4.88876C13.4434 5.08411 13.3337 5.34906 13.3337 5.62533C13.3337 5.90159 13.4434 6.16654 13.6388 6.3619C13.8341 6.55725 14.0991 6.66699 14.3753 6.66699C14.6516 6.66699 14.9165 6.55725 15.1119 6.3619C15.3072 6.16654 15.417 5.90159 15.417 5.62533ZM10.0003 7.50033C10.6634 7.50033 11.2993 7.76372 11.7681 8.23256C12.2369 8.7014 12.5003 9.33728 12.5003 10.0003C12.5003 10.6634 12.2369 11.2993 11.7681 11.7681C11.2993 12.2369 10.6634 12.5003 10.0003 12.5003C9.33728 12.5003 8.7014 12.2369 8.23256 11.7681C7.76372 11.2993 7.50033 10.6634 7.50033 10.0003C7.50033 9.33728 7.76372 8.7014 8.23256 8.23256C8.7014 7.76372 9.33728 7.50033 10.0003 7.50033Z" fill="black"/>
</svg>
