<svg width="100" height="100" viewBox="0 0 100 100" fill="none" xmlns="http://www.w3.org/2000/svg">
<g clip-path="url(#clip0_306_14535)">
<path fill-rule="evenodd" clip-rule="evenodd" d="M46.418 41.6357C46.5014 42.0689 46.6684 42.5013 46.8353 42.9328C47.5865 45.2624 48.4213 47.9792 49.9238 49.9849C51.927 52.615 54.1804 53.6316 56.434 53.6091C59.6058 53.5748 62.8607 51.2353 64.8639 48.0293C66.8671 44.8525 67.7021 40.8745 66.4501 37.6702C65.6154 35.4742 63.7791 33.6003 60.6074 32.5787C57.0183 31.4002 53.5961 32.3642 50.5913 34.4417C49.4228 35.2213 48.4213 36.1594 47.4197 37.1928C47.1693 35.8331 46.9186 34.4601 46.6682 33.0678C46.0005 28.5097 45.8334 23.7187 46.0838 19.1238C46.3342 13.0457 47.5867 7.23141 49.9238 1.61407C50.0907 1.0949 49.8401 0.500624 49.3393 0.286948C48.8385 0.0741027 48.2546 0.321188 48.0042 0.840353C45.5836 6.67888 44.2475 12.7219 43.9971 19.0387C43.8302 23.7671 43.9143 28.6966 44.6655 33.3875C44.9994 35.3306 45.3331 37.2378 45.7504 39.1234C43.8307 41.5973 42.3281 44.3459 41.4099 46.683C35.5673 62.3172 43.1624 83.3701 50.6745 97.5369C50.9249 98.0327 51.5096 98.2214 52.0104 97.9593C52.5112 97.6964 52.6782 97.0812 52.4278 96.5854C45.1661 82.8735 37.6538 62.5325 43.3295 47.4008C43.9973 45.6213 45.0825 43.5788 46.418 41.6357ZM48.0042 39.6125C48.1711 40.5056 48.421 41.3928 48.7549 42.2776C49.5061 44.4127 50.1737 46.9217 51.5091 48.7588C53.0115 50.7445 54.6815 51.5933 56.3509 51.5766C59.0218 51.5491 61.5255 49.5375 63.1114 46.9442C64.7807 44.3225 65.6156 41.0556 64.5305 38.4105C63.8628 36.7078 62.4435 35.3031 60.0229 34.511C57.0181 33.5402 54.1807 34.4016 51.7602 36.1135C50.3413 37.0659 49.0892 38.2795 48.0042 39.6125Z" fill="white"/>
<path fill-rule="evenodd" clip-rule="evenodd" d="M51.6747 97.6918C51.2574 97.3971 50.8401 96.9564 50.4227 96.5149C49.5881 95.666 48.8367 94.7663 48.169 94.2922C44.1625 91.3725 39.3216 87.9211 34.564 86.3903C34.0632 86.2176 33.4789 86.5106 33.312 87.0447C33.1451 87.5781 33.3953 88.1515 33.9796 88.3243C38.4868 89.7933 43.078 93.1362 47.0009 95.9382C47.6686 96.4506 48.5863 97.5357 49.421 98.4054C50.1722 99.1433 50.9235 99.7317 51.6747 99.9454C52.0921 100.096 52.8433 99.9287 53.3441 98.9889C54.0118 97.6567 54.5966 93.9575 54.68 93.5994C55.5147 89.9719 56.3492 86.7801 59.521 84.4898C59.9383 84.1601 60.0216 83.5232 59.7712 83.07C59.4373 82.6168 58.7694 82.5166 58.3521 82.8472C54.763 85.458 53.5946 89.0329 52.6765 93.1679C52.6765 93.4316 52.3426 95.6427 51.8418 97.1793C51.7584 97.3454 51.7582 97.5282 51.6747 97.6918Z" fill="white"/>
</g>
<defs>
<clipPath id="clip0_306_14535">
<rect width="100" height="100" fill="white" transform="translate(100.001 100) rotate(-180)"/>
</clipPath>
</defs>
</svg>
