<svg width="98" height="98" viewBox="0 0 98 98" fill="none" xmlns="http://www.w3.org/2000/svg">
<g clip-path="url(#clip0_270_5117)">
<path fill-rule="evenodd" clip-rule="evenodd" d="M28.8794 61.42C29.4769 61.6324 29.9905 61.8183 30.2614 61.918C31.9085 62.5286 36.1835 63.5489 38.9111 65.2687C40.9925 66.5801 42.182 68.3015 41.2697 70.4424C40.4405 72.3883 38.1964 73.2967 35.2934 73.4144C29.0456 73.6676 19.7073 70.405 17.1407 68.6907C16.8607 68.5035 16.785 68.1258 16.9723 67.8457C17.1587 67.5668 17.5363 67.4912 17.8164 67.6785C20.2798 69.3229 29.2464 72.4409 35.2444 72.1979C37.5888 72.1026 39.4799 71.5364 40.1495 69.9643C40.811 68.4131 39.7711 67.2498 38.2622 66.2991C35.608 64.6248 31.442 63.6538 29.8379 63.0601C28.8326 62.6874 24.958 61.3742 24.6531 61.1817C24.271 60.9409 24.3434 60.5937 24.3758 60.4816C24.4007 60.3947 24.5531 59.9692 25.1014 60.0449C32.9215 61.1184 45.6645 57.353 55.0124 50.1677C64.2783 43.0456 70.212 32.5221 64.4657 19.9302C64.3268 19.6241 64.4619 19.2626 64.7667 19.1227C65.0729 18.9837 65.4344 19.1188 65.5734 19.4249C71.594 32.6185 65.4623 43.6717 55.7554 51.1329C47.5746 57.4215 36.8564 61.1282 28.8794 61.42Z" fill="white"/>
<path fill-rule="evenodd" clip-rule="evenodd" d="M65.2286 20.3719C64.8655 21.7611 64.5482 23.1558 64.0769 24.5175C62.822 28.1457 60.7496 31.6498 57.9314 34.2768C57.6842 34.5062 57.2992 34.4918 57.0702 34.2468C56.8408 33.9996 56.8552 33.6146 57.1002 33.3856C59.7764 30.8939 61.735 27.5619 62.9253 24.1196C63.464 22.5606 63.7986 20.9561 64.2356 19.3688C64.2584 19.2898 64.4272 18.5943 64.5032 18.4573C64.6782 18.1373 64.9551 18.1165 65.0844 18.1234C65.1926 18.1278 65.321 18.1589 65.454 18.253C65.5627 18.3308 65.7343 18.5269 65.908 18.838C66.4675 19.8326 67.4396 22.3397 67.6428 22.7343C69.9704 27.2585 72.8955 31.0767 75.8744 35.1736C76.0712 35.4462 76.0114 35.8278 75.74 36.0255C75.4685 36.2232 75.0879 36.1621 74.8902 35.8907C71.8731 31.7422 68.9164 27.8715 66.5612 23.292C66.4206 23.0212 65.7251 21.4787 65.2286 20.3719Z" fill="white"/>
</g>
<defs>
<clipPath id="clip0_270_5117">
<rect width="69.4054" height="69.4054" fill="white" transform="matrix(0.600501 -0.799624 -0.799624 -0.600501 55.499 97.4982)"/>
</clipPath>
</defs>
</svg>
