<svg width="32" height="32" viewBox="0 0 32 32" fill="none" xmlns="http://www.w3.org/2000/svg">
<g style="mix-blend-mode:luminosity">
<path d="M26.1047 11.0847C25.987 11.1534 23.1866 12.6017 23.1866 15.8129C23.3185 19.4751 26.7206 20.7594 26.779 20.7594C26.7206 20.828 26.2654 22.5089 24.9168 24.2709C23.8465 25.7887 22.6586 27.319 20.8547 27.319C19.1389 27.319 18.5229 26.3075 16.5431 26.3075C14.4169 26.3075 13.8153 27.319 12.1874 27.319C10.3835 27.319 9.10765 25.7068 7.97904 24.2032C6.51281 22.2353 5.26656 19.1471 5.22256 16.1818C5.19291 14.6106 5.51619 13.066 6.33682 11.7541C7.49508 9.92252 9.56292 8.67922 11.8211 8.63822C13.5513 8.58385 15.0912 9.74516 16.1471 9.74516C17.159 9.74516 19.0509 8.63822 21.1914 8.63822C22.1153 8.63911 24.5791 8.89847 26.1047 11.0847ZM16.0008 8.32449C15.6928 6.88956 16.5431 5.45463 17.335 4.53931C18.3469 3.43236 19.9452 2.68103 21.3234 2.68103C21.4114 4.11596 20.8538 5.52326 19.8572 6.54821C18.9629 7.65516 17.423 8.48849 16.0008 8.32449Z" fill="white"/>
</g>
</svg>
