<svg width="34" height="26" viewBox="0 0 34 26" fill="none" xmlns="http://www.w3.org/2000/svg">
<path d="M8.50405 24.7273C12.5717 25.6883 17.2203 25.1296 21.406 23.5451C25.5912 21.9608 29.3362 19.3425 31.587 16.1582C33.1087 14.0073 33.5154 11.817 32.9684 9.80281C32.4229 7.79402 30.9371 5.99074 28.7319 4.58815C27.3997 3.73396 26.0087 2.97346 24.2682 2.8943L24.2681 2.89429C24.0063 2.88253 23.7193 3.06063 23.7143 3.36426C23.695 3.66037 23.9542 3.86839 24.2097 3.88075L24.2102 3.88078C25.7055 3.94894 26.9004 4.62024 28.1322 5.40301C30.1263 6.67194 31.4366 8.27792 31.9175 10.0288C32.397 11.7741 32.0606 13.6934 30.7034 15.6151C28.5757 18.6193 25.0231 21.1166 21.0271 22.6335C17.0316 24.1503 12.615 24.6784 8.76845 23.7702L8.76824 23.7701C8.60306 23.7313 8.43328 23.6931 8.25984 23.654C6.60011 23.2801 4.60553 22.8307 3.10225 21.0923L3.10222 21.0923C1.57507 19.3271 1.62705 17.2248 2.34306 15.2375L2.34321 15.2371C3.07362 13.1957 4.48716 11.3074 5.61827 10.0895C8.09027 7.43341 11.8083 4.89247 16.0309 3.33587C20.2531 1.77947 24.9652 1.2123 29.432 2.48202L29.4352 2.48288C29.6983 2.55296 30.0057 2.44027 30.1004 2.16454C30.1954 1.88805 30.0221 1.61466 29.7541 1.53775L29.7536 1.53761C25.0526 0.201609 20.1058 0.793417 15.6956 2.40709C11.2859 4.02056 7.39791 6.66079 4.80797 9.44331L4.80767 9.44363C3.37891 10.9854 1.492 13.5757 0.950502 16.2754L0.950409 16.2759C0.582998 18.1306 0.840285 20.0457 2.26848 21.7101L2.26879 21.7105C3.98073 23.6961 6.26873 24.2171 8.03424 24.6191C8.19548 24.6559 8.35236 24.6916 8.50405 24.7273ZM8.50405 24.7273L8.54992 24.5332L8.50415 24.7274C8.50411 24.7274 8.50408 24.7273 8.50405 24.7273Z" fill="black" stroke="black" stroke-width="0.4"/>
<path d="M7.76074 12.9039C7.76074 11.8399 7.93808 10.9113 8.29274 10.1179C8.65674 9.32461 9.16074 8.70395 9.80474 8.25595C10.4581 7.79861 11.2187 7.56995 12.0867 7.56995C12.9641 7.56995 13.7247 7.79861 14.3687 8.25595C15.0221 8.70395 15.5261 9.32461 15.8807 10.1179C16.2447 10.9113 16.4267 11.8399 16.4267 12.9039C16.4267 13.9586 16.2541 14.8826 15.9087 15.6759C15.5634 16.4693 15.0687 17.0853 14.4247 17.5239C13.7807 17.9626 13.0014 18.1819 12.0867 18.1819C11.1907 18.1819 10.4161 17.9626 9.76274 17.5239C9.11874 17.0853 8.62408 16.4693 8.27874 15.6759C7.93341 14.8826 7.76074 13.9586 7.76074 12.9039ZM9.52474 12.9039C9.52474 13.6879 9.62741 14.3599 9.83274 14.9199C10.0381 15.4706 10.3321 15.8906 10.7147 16.1799C11.0974 16.4599 11.5547 16.5999 12.0867 16.5999C12.6374 16.5999 13.0994 16.4599 13.4727 16.1799C13.8554 15.8906 14.1494 15.4706 14.3547 14.9199C14.5601 14.3599 14.6627 13.6879 14.6627 12.9039C14.6627 12.0919 14.5601 11.4106 14.3547 10.8599C14.1494 10.2999 13.8554 9.87528 13.4727 9.58595C13.0994 9.29661 12.6374 9.15195 12.0867 9.15195C11.5547 9.15195 11.0974 9.29661 10.7147 9.58595C10.3321 9.87528 10.0381 10.2999 9.83274 10.8599C9.62741 11.4106 9.52474 12.0919 9.52474 12.9039Z" fill="black"/>
<path d="M24.2408 9.19395L20.5448 12.5959L19.3688 11.7699L22.9528 8.47995L22.6448 9.34795H17.7448V7.76595H24.2408V9.19395ZM20.6148 12.9319H19.3688V11.7699C19.5462 11.6299 19.7795 11.5366 20.0688 11.4899C20.3582 11.4339 20.6288 11.4059 20.8808 11.4059C21.3662 11.4059 21.8282 11.4806 22.2668 11.6299C22.7055 11.7793 23.0928 11.9986 23.4288 12.2879C23.7742 12.5679 24.0448 12.9179 24.2408 13.3379C24.4368 13.7486 24.5348 14.2199 24.5348 14.7519C24.5348 15.4519 24.3715 16.0586 24.0448 16.5719C23.7182 17.0853 23.2702 17.4819 22.7008 17.7619C22.1408 18.0419 21.5155 18.1819 20.8248 18.1819C20.1528 18.1819 19.5462 18.0513 19.0048 17.7899C18.4728 17.5193 18.0482 17.1273 17.7308 16.6139C17.4228 16.1006 17.2688 15.4753 17.2688 14.7379H19.0328C19.0328 15.3259 19.1962 15.7833 19.5228 16.1099C19.8588 16.4273 20.3022 16.5859 20.8528 16.5859C21.4128 16.5859 21.8608 16.4179 22.1968 16.0819C22.5422 15.7366 22.7148 15.2839 22.7148 14.7239C22.7148 14.2106 22.5422 13.7859 22.1968 13.4499C21.8515 13.1046 21.3242 12.9319 20.6148 12.9319Z" fill="black"/>
</svg>
