<svg width="168" height="29" viewBox="0 0 168 29" fill="none" xmlns="http://www.w3.org/2000/svg">
<path d="M57.472 8.06607C58.984 8.06607 60.2347 8.39274 61.224 9.04607C62.232 9.6994 62.988 10.5581 63.492 11.6221C64.0147 12.6861 64.276 13.8714 64.276 15.1781V22.4301H60.3V15.8501C60.3 15.1221 60.188 14.4687 59.964 13.8901C59.7587 13.2927 59.4227 12.8167 58.956 12.4621C58.508 12.1074 57.92 11.9301 57.192 11.9301C56.464 11.9301 55.876 12.1074 55.428 12.4621C54.98 12.7981 54.644 13.2647 54.42 13.8621C54.2147 14.4407 54.112 15.0847 54.112 15.7941V22.4301H50.136V15.8221C50.136 15.0941 50.0333 14.4407 49.828 13.8621C49.6227 13.2647 49.2867 12.7981 48.82 12.4621C48.3533 12.1074 47.7653 11.9301 47.056 11.9301C46.3093 11.9301 45.712 12.1074 45.264 12.4621C44.816 12.8167 44.4893 13.2927 44.284 13.8901C44.0787 14.4687 43.976 15.1127 43.976 15.8221V22.4301H40V15.1781C40 13.8901 40.252 12.7141 40.756 11.6501C41.26 10.5674 42.0067 9.6994 42.996 9.04607C44.004 8.39274 45.2547 8.06607 46.748 8.06607C47.9427 8.06607 48.9693 8.29007 49.828 8.73807C50.7053 9.1674 51.3773 9.77407 51.844 10.5581C52.3293 11.3234 52.5813 12.2194 52.6 13.2461H51.704C51.7227 12.2194 51.984 11.3234 52.488 10.5581C52.992 9.77407 53.6733 9.1674 54.532 8.73807C55.3907 8.29007 56.3707 8.06607 57.472 8.06607Z" fill="black"/>
<path d="M67.1972 8.57007H71.1732V22.4301H67.1972V8.57007ZM69.1852 6.49807C68.7372 6.49807 68.3172 6.3954 67.9252 6.19007C67.5519 5.96607 67.2532 5.6674 67.0292 5.29407C66.8239 4.90207 66.7212 4.48207 66.7212 4.03407C66.7212 3.58607 66.8239 3.1754 67.0292 2.80207C67.2532 2.42874 67.5519 2.13007 67.9252 1.90607C68.3172 1.68207 68.7372 1.57007 69.1852 1.57007C69.6332 1.57007 70.0439 1.68207 70.4172 1.90607C70.7905 2.13007 71.0799 2.42874 71.2852 2.80207C71.5092 3.1754 71.6212 3.58607 71.6212 4.03407C71.6212 4.48207 71.5092 4.90207 71.2852 5.29407C71.0799 5.6674 70.7905 5.96607 70.4172 6.19007C70.0439 6.3954 69.6332 6.49807 69.1852 6.49807Z" fill="black"/>
<path d="M74.5844 2.18607H78.5604V22.4301H74.5844V2.18607Z" fill="black"/>
<path d="M88.3263 22.7941C86.8889 22.7941 85.5916 22.4861 84.4342 21.8701C83.2956 21.2354 82.3996 20.3674 81.7463 19.2661C81.0929 18.1461 80.7663 16.8487 80.7663 15.3741C80.7663 14.0487 81.0649 12.8354 81.6623 11.7341C82.2783 10.6141 83.1276 9.7274 84.2103 9.07407C85.2929 8.40207 86.5436 8.06607 87.9623 8.06607C89.4369 8.06607 90.6876 8.39274 91.7143 9.04607C92.7409 9.68074 93.5249 10.5301 94.0663 11.5941C94.6263 12.6581 94.9062 13.8247 94.9062 15.0941V16.2701H83.9303L84.5462 15.2901C84.5089 16.0741 84.6396 16.7741 84.9383 17.3901C85.2556 18.0061 85.6942 18.4914 86.2542 18.8461C86.8329 19.1821 87.5143 19.3501 88.2983 19.3501C89.0449 19.3501 89.7169 19.1727 90.3143 18.8181C90.9303 18.4634 91.3969 17.9687 91.7143 17.3341L94.7663 18.8741C94.1689 20.1247 93.3102 21.0954 92.1903 21.7861C91.0889 22.4581 89.8009 22.7941 88.3263 22.7941ZM84.7703 14.0581H90.9583C90.9023 13.5727 90.7342 13.1434 90.4543 12.7701C90.1929 12.3781 89.8476 12.0794 89.4183 11.8741C88.9889 11.6501 88.4943 11.5381 87.9342 11.5381C87.3556 11.5381 86.8423 11.6501 86.3943 11.8741C85.9649 12.0981 85.6102 12.4061 85.3302 12.7981C85.0689 13.1714 84.8823 13.5914 84.7703 14.0581Z" fill="black"/>
<path d="M102.27 22.8221C100.814 22.8221 99.5818 22.5607 98.5738 22.0381C97.5845 21.4967 96.8005 20.7127 96.2218 19.6861L99.1618 18.0341C99.4791 18.5941 99.8711 19.0047 100.338 19.2661C100.804 19.5087 101.383 19.6301 102.074 19.6301C102.503 19.6301 102.867 19.5834 103.166 19.4901C103.483 19.3781 103.726 19.2287 103.894 19.0421C104.08 18.8367 104.174 18.5941 104.174 18.3141C104.174 17.9407 103.987 17.6701 103.614 17.5021C103.24 17.3154 102.764 17.1661 102.186 17.0541C101.626 16.9421 101.019 16.8114 100.366 16.6621C99.7125 16.5127 99.0965 16.2981 98.5178 16.0181C97.9391 15.7381 97.4631 15.3367 97.0898 14.8141C96.7351 14.2727 96.5578 13.5541 96.5578 12.6581C96.5578 11.8181 96.7818 11.0621 97.2298 10.3901C97.6965 9.71807 98.3498 9.18607 99.1898 8.79407C100.03 8.40207 101.019 8.20607 102.158 8.20607C103.166 8.20607 104.034 8.34607 104.762 8.62607C105.49 8.90607 106.096 9.27007 106.582 9.71807C107.086 10.1661 107.478 10.6607 107.758 11.2021L104.818 12.8541C104.612 12.3501 104.267 11.9767 103.782 11.7341C103.315 11.4914 102.802 11.3701 102.242 11.3701C101.924 11.3701 101.635 11.4261 101.374 11.5381C101.112 11.6314 100.907 11.7714 100.758 11.9581C100.608 12.1261 100.534 12.3314 100.534 12.5741C100.534 12.9474 100.711 13.2367 101.066 13.4421C101.439 13.6287 101.915 13.7781 102.494 13.8901C103.072 14.0021 103.688 14.1327 104.342 14.2821C104.995 14.4314 105.602 14.6554 106.162 14.9541C106.74 15.2341 107.216 15.6354 107.59 16.1581C107.963 16.6807 108.15 17.3714 108.15 18.2301C108.15 19.1634 107.879 19.9754 107.338 20.6661C106.796 21.3381 106.078 21.8701 105.182 22.2621C104.286 22.6354 103.315 22.8221 102.27 22.8221Z" fill="black"/>
<path d="M117.052 22.8221C115.727 22.8221 114.617 22.5794 113.72 22.0941C112.843 21.5901 112.18 20.8994 111.732 20.0221C111.285 19.1261 111.061 18.0994 111.061 16.9421V5.04207H115.036V16.8301C115.036 17.5954 115.251 18.1927 115.68 18.6221C116.11 19.0514 116.688 19.2661 117.416 19.2661C117.827 19.2661 118.266 19.2101 118.732 19.0981C119.199 18.9861 119.601 18.8181 119.937 18.5941V22.1501C119.582 22.3554 119.134 22.5141 118.592 22.6261C118.07 22.7567 117.556 22.8221 117.052 22.8221ZM119.937 11.9301H108.512V8.57007H119.937V11.9301Z" fill="black"/>
<path d="M128.479 22.7941C127.06 22.7941 125.781 22.4674 124.643 21.8141C123.523 21.1421 122.627 20.2554 121.955 19.1541C121.301 18.0341 120.975 16.8021 120.975 15.4581C120.975 14.1141 121.301 12.8914 121.955 11.7901C122.627 10.6887 123.532 9.8114 124.671 9.15807C125.809 8.48607 127.079 8.15007 128.479 8.15007C129.916 8.15007 131.195 8.48607 132.315 9.15807C133.453 9.8114 134.349 10.6981 135.003 11.8181C135.675 12.9194 136.011 14.1327 136.011 15.4581C136.011 16.8021 135.675 18.0341 135.003 19.1541C134.349 20.2554 133.453 21.1421 132.315 21.8141C131.176 22.4674 129.897 22.7941 128.479 22.7941ZM128.479 19.0701C129.169 19.0701 129.776 18.9114 130.299 18.5941C130.84 18.2581 131.26 17.8194 131.559 17.2781C131.876 16.7367 132.035 16.1394 132.035 15.4861C132.035 14.8327 131.876 14.2354 131.559 13.6941C131.26 13.1527 130.84 12.7234 130.299 12.4061C129.776 12.0701 129.169 11.9021 128.479 11.9021C127.807 11.9021 127.2 12.0701 126.659 12.4061C126.136 12.7234 125.716 13.1527 125.399 13.6941C125.1 14.2354 124.951 14.8327 124.951 15.4861C124.951 16.1394 125.1 16.7367 125.399 17.2781C125.716 17.8194 126.136 18.2581 126.659 18.5941C127.2 18.9114 127.807 19.0701 128.479 19.0701Z" fill="black"/>
<path d="M144.899 12.0421C144.152 12.0421 143.536 12.2287 143.051 12.6021C142.566 12.9567 142.211 13.4327 141.987 14.0301C141.763 14.6087 141.651 15.2621 141.651 15.9901V22.4301H137.675V15.5141C137.675 14.1701 137.936 12.9474 138.459 11.8461C139 10.7261 139.803 9.8394 140.867 9.18607C141.931 8.51407 143.275 8.17807 144.899 8.17807C146.523 8.17807 147.867 8.51407 148.931 9.18607C150.014 9.8394 150.826 10.7167 151.367 11.8181C151.908 12.9194 152.179 14.1514 152.179 15.5141V22.4301H148.203V15.9901C148.203 15.2807 148.082 14.6274 147.839 14.0301C147.596 13.4327 147.232 12.9567 146.747 12.6021C146.28 12.2287 145.664 12.0421 144.899 12.0421Z" fill="black"/>
<path d="M161.383 22.7941C159.946 22.7941 158.649 22.4861 157.491 21.8701C156.353 21.2354 155.457 20.3674 154.803 19.2661C154.15 18.1461 153.823 16.8487 153.823 15.3741C153.823 14.0487 154.122 12.8354 154.719 11.7341C155.335 10.6141 156.185 9.7274 157.267 9.07407C158.35 8.40207 159.601 8.06607 161.019 8.06607C162.494 8.06607 163.745 8.39274 164.771 9.04607C165.798 9.68074 166.582 10.5301 167.123 11.5941C167.683 12.6581 167.963 13.8247 167.963 15.0941V16.2701H156.987L157.603 15.2901C157.566 16.0741 157.697 16.7741 157.995 17.3901C158.313 18.0061 158.751 18.4914 159.311 18.8461C159.89 19.1821 160.571 19.3501 161.355 19.3501C162.102 19.3501 162.774 19.1727 163.371 18.8181C163.987 18.4634 164.454 17.9687 164.771 17.3341L167.823 18.8741C167.226 20.1247 166.367 21.0954 165.247 21.7861C164.146 22.4581 162.858 22.7941 161.383 22.7941ZM157.827 14.0581H164.015C163.959 13.5727 163.791 13.1434 163.511 12.7701C163.25 12.3781 162.905 12.0794 162.475 11.8741C162.046 11.6501 161.551 11.5381 160.991 11.5381C160.413 11.5381 159.899 11.6501 159.451 11.8741C159.022 12.0981 158.667 12.4061 158.387 12.7981C158.126 13.1714 157.939 13.5914 157.827 14.0581Z" fill="black"/>
<circle cx="7.94629" cy="7.37549" r="7" fill="black"/>
<circle cx="21.9463" cy="7.37549" r="6.37793" stroke="black" stroke-width="1.24413"/>
<circle cx="21.9463" cy="21.3755" r="6.37793" stroke="black" stroke-width="1.24413"/>
<circle cx="7.94629" cy="21.3755" r="7" fill="black"/>
</svg>
