<svg width="33" height="32" viewBox="0 0 33 32" fill="none" xmlns="http://www.w3.org/2000/svg">
<g style="mix-blend-mode:luminosity">
<path d="M26.4533 11.0846C26.3357 11.1532 23.5352 12.6015 23.5352 15.8127C23.6672 19.4749 27.0693 20.7592 27.1276 20.7592C27.0693 20.8279 26.614 22.5088 25.2654 24.2708C24.1951 25.7886 23.0072 27.3189 21.2034 27.3189C19.4875 27.3189 18.8715 26.3073 16.8917 26.3073C14.7655 26.3073 14.1639 27.3189 12.536 27.3189C10.7322 27.3189 9.45628 25.7066 8.32767 24.2031C6.86144 22.2352 5.61519 19.147 5.57119 16.1817C5.54154 14.6104 5.86482 13.0659 6.68545 11.7539C7.84371 9.9224 9.91155 8.67909 12.1697 8.6381C13.8999 8.58373 15.4398 9.74504 16.4957 9.74504C17.5077 9.74504 19.3995 8.6381 21.54 8.6381C22.464 8.63899 24.9278 8.89834 26.4533 11.0846ZM16.3494 8.32437C16.0414 6.88944 16.8917 5.45451 17.6836 4.53919C18.6956 3.43224 20.2938 2.68091 21.672 2.68091C21.76 4.11584 21.2024 5.52314 20.2058 6.54809C19.3115 7.65504 17.7716 8.48836 16.3494 8.32437Z" fill="black"/>
</g>
</svg>
