<svg width="322" height="6" viewBox="0 0 322 6" fill="none" xmlns="http://www.w3.org/2000/svg">
<path d="M0.900391 3.05273C4.45595 0.386068 8.0115 0.386068 11.5671 3.05273C15.1226 5.7194 18.6782 5.7194 22.2337 3.05273C25.7893 0.386068 29.3448 0.386068 32.9004 3.05273C36.4559 5.7194 40.0115 5.7194 43.5671 3.05273C47.1226 0.386068 50.6782 0.386068 54.2337 3.05273C57.7893 5.7194 61.3448 5.7194 64.9004 3.05273C68.4559 0.386068 72.0115 0.386068 75.5671 3.05273C79.1226 5.7194 82.6782 5.7194 86.2337 3.05273C89.7893 0.386068 93.3448 0.386068 96.9004 3.05273C100.456 5.7194 104.012 5.7194 107.567 3.05273C111.123 0.386068 114.678 0.386068 118.234 3.05273C121.789 5.7194 125.345 5.7194 128.9 3.05273C132.456 0.386068 136.012 0.386068 139.567 3.05273C143.123 5.7194 146.678 5.7194 150.234 3.05273C153.789 0.386068 157.345 0.386068 160.9 3.05273C164.456 5.7194 168.012 5.7194 171.567 3.05273C175.123 0.386068 178.678 0.386068 182.234 3.05273C185.789 5.7194 189.345 5.7194 192.9 3.05273C196.456 0.386068 200.012 0.386068 203.567 3.05273C207.123 5.7194 210.678 5.7194 214.234 3.05273C217.789 0.386068 221.345 0.386068 224.9 3.05273C228.456 5.7194 232.012 5.7194 235.567 3.05273C239.123 0.386068 242.678 0.386068 246.234 3.05273C249.789 5.7194 253.345 5.7194 256.9 3.05273C260.456 0.386068 264.012 0.386068 267.567 3.05273C271.123 5.7194 274.678 5.7194 278.234 3.05273C281.789 0.386068 285.345 0.386068 288.9 3.05273C292.456 5.7194 296.012 5.7194 299.567 3.05273C303.123 0.386068 306.678 0.386068 310.234 3.05273C313.789 5.7194 317.345 5.7194 320.9 3.05273" stroke="black"/>
</svg>
