<svg width="23" height="24" viewBox="0 0 23 24" fill="none" xmlns="http://www.w3.org/2000/svg">
<path fill-rule="evenodd" clip-rule="evenodd" d="M12.0716 21.4504C9.09947 20.7361 6.23734 20.7828 3.22269 20.6972C2.63394 20.6806 2.14447 21.1325 2.12674 21.7062C2.10901 22.2801 2.57363 22.7591 3.16238 22.7761C6.02098 22.8572 8.74124 22.7917 11.5644 23.4696C12.1354 23.6069 12.7135 23.2655 12.8518 22.7082C12.9937 22.1512 12.6426 21.5873 12.0716 21.4504Z" fill="white"/>
<path fill-rule="evenodd" clip-rule="evenodd" d="M17.8307 15.3815C13.2981 10.5355 7.46743 5.96945 1.57998 2.77801C1.06572 2.4997 0.416651 2.68098 0.132919 3.18285C-0.150814 3.68471 0.0336284 4.31828 0.547892 4.59659C6.24027 7.68266 11.8795 12.0986 16.2596 16.7846C16.6568 17.2081 17.3307 17.2375 17.7634 16.8504C18.1961 16.4633 18.228 15.8051 17.8307 15.3815Z" fill="white"/>
<path fill-rule="evenodd" clip-rule="evenodd" d="M22.782 14.1539C23.5304 9.72171 22.2536 5.15326 20.4484 1.12307C20.2107 0.597288 19.583 0.357438 19.0474 0.58723C18.5083 0.817368 18.2636 1.43119 18.4977 1.95698C20.1433 5.62741 21.3634 9.77855 20.6824 13.8153C20.5867 14.3817 20.9804 14.9172 21.5585 15.0104C22.1366 15.104 22.6863 14.7199 22.782 14.1539Z" fill="white"/>
</svg>
