<svg width="34" height="26" viewBox="0 0 34 26" fill="none" xmlns="http://www.w3.org/2000/svg">
<path d="M8.50405 24.7274C12.5717 25.6883 17.2203 25.1296 21.406 23.5451C25.5912 21.9609 29.3362 19.3425 31.587 16.1583C33.1087 14.0073 33.5154 11.817 32.9684 9.80288C32.4229 7.79408 30.9371 5.9908 28.7319 4.58821C27.3997 3.73402 26.0087 2.97352 24.2682 2.89436L24.2681 2.89435C24.0063 2.88259 23.7193 3.0607 23.7143 3.36433C23.695 3.66043 23.9542 3.86845 24.2097 3.88081L24.2102 3.88084C25.7055 3.949 26.9004 4.6203 28.1322 5.40307C30.1263 6.672 31.4366 8.27798 31.9175 10.0288C32.397 11.7742 32.0606 13.6935 30.7034 15.6151C28.5757 18.6194 25.0231 21.1167 21.0271 22.6336C17.0316 24.1503 12.615 24.6785 8.76845 23.7703L8.76824 23.7702C8.60306 23.7314 8.43328 23.6931 8.25984 23.6541C6.60011 23.2801 4.60553 22.8307 3.10225 21.0924L3.10222 21.0923C1.57507 19.3272 1.62705 17.2249 2.34306 15.2376L2.34321 15.2372C3.07362 13.1957 4.48716 11.3075 5.61827 10.0896C8.09027 7.43347 11.8083 4.89253 16.0309 3.33594C20.2531 1.77953 24.9652 1.21236 29.432 2.48209L29.4352 2.48294C29.6983 2.55302 30.0057 2.44033 30.1004 2.1646C30.1954 1.88812 30.0221 1.61472 29.7541 1.53781L29.7536 1.53767C25.0526 0.20167 20.1058 0.793478 15.6956 2.40715C11.2859 4.02063 7.39791 6.66085 4.80797 9.44337L4.80767 9.44369C3.37891 10.9855 1.492 13.5758 0.950502 16.2755L0.950409 16.2759C0.582998 18.1307 0.840285 20.0457 2.26848 21.7102L2.26879 21.7105C3.98073 23.6961 6.26873 24.2172 8.03424 24.6192C8.19548 24.6559 8.35236 24.6916 8.50405 24.7274ZM8.50405 24.7274L8.54992 24.5332L8.50415 24.7274C8.50411 24.7274 8.50408 24.7274 8.50405 24.7274Z" fill="black" stroke="black" stroke-width="0.4"/>
<path d="M8.02832 12.904C8.02832 11.84 8.20565 10.9113 8.56032 10.118C8.92432 9.32468 9.42832 8.70401 10.0723 8.25601C10.7257 7.79867 11.4863 7.57001 12.3543 7.57001C13.2317 7.57001 13.9923 7.79867 14.6363 8.25601C15.2897 8.70401 15.7937 9.32468 16.1483 10.118C16.5123 10.9113 16.6943 11.84 16.6943 12.904C16.6943 13.9587 16.5217 14.8827 16.1763 15.676C15.831 16.4693 15.3363 17.0853 14.6923 17.524C14.0483 17.9627 13.269 18.182 12.3543 18.182C11.4583 18.182 10.6837 17.9627 10.0303 17.524C9.38632 17.0853 8.89165 16.4693 8.54632 15.676C8.20099 14.8827 8.02832 13.9587 8.02832 12.904ZM9.79232 12.904C9.79232 13.688 9.89499 14.36 10.1003 14.92C10.3057 15.4707 10.5997 15.8907 10.9823 16.18C11.365 16.46 11.8223 16.6 12.3543 16.6C12.905 16.6 13.367 16.46 13.7403 16.18C14.123 15.8907 14.417 15.4707 14.6223 14.92C14.8277 14.36 14.9303 13.688 14.9303 12.904C14.9303 12.092 14.8277 11.4107 14.6223 10.86C14.417 10.3 14.123 9.87534 13.7403 9.58601C13.367 9.29667 12.905 9.15201 12.3543 9.15201C11.8223 9.15201 11.365 9.29667 10.9823 9.58601C10.5997 9.87534 10.3057 10.3 10.1003 10.86C9.89499 11.4107 9.79232 12.092 9.79232 12.904Z" fill="black"/>
<path d="M21.4274 18.168C20.7181 18.168 20.0927 18.028 19.5514 17.748C19.0194 17.4587 18.6041 17.0573 18.3054 16.544C18.0161 16.0213 17.8714 15.4147 17.8714 14.724H19.6354C19.6354 15.3027 19.7987 15.7553 20.1254 16.082C20.4521 16.4087 20.9001 16.572 21.4694 16.572C21.8707 16.572 22.2161 16.4927 22.5054 16.334C22.8041 16.166 23.0327 15.928 23.1914 15.62C23.3594 15.312 23.4434 14.9527 23.4434 14.542C23.4434 14.15 23.3641 13.8047 23.2054 13.506C23.0561 13.198 22.8367 12.96 22.5474 12.792C22.2581 12.624 21.9081 12.54 21.4974 12.54C21.1054 12.54 20.7414 12.6287 20.4054 12.806C20.0787 12.974 19.8221 13.1933 19.6354 13.464L18.0534 13.128L19.3134 7.76601H24.6474V9.41801H20.1394L20.7414 8.85801L19.9154 12.12L19.3134 12.372C19.5374 11.9427 19.8734 11.616 20.3214 11.392C20.7787 11.1587 21.2921 11.042 21.8614 11.042C22.5427 11.042 23.1354 11.1867 23.6394 11.476C24.1527 11.7653 24.5494 12.1667 24.8294 12.68C25.1187 13.184 25.2634 13.772 25.2634 14.444C25.2634 15.1813 25.1001 15.83 24.7734 16.39C24.4561 16.95 24.0081 17.3887 23.4294 17.706C22.8601 18.014 22.1927 18.168 21.4274 18.168Z" fill="black"/>
</svg>
