<svg width="164" height="32" viewBox="0 0 164 32" fill="none" xmlns="http://www.w3.org/2000/svg">
<g clip-path="url(#clip0_1041_23501)">
<path d="M49.2744 24.9989V8.19922H52.4226V22.119H60.0546V24.9989H49.2744Z" fill="white"/>
<path d="M66.8519 25.3375C65.6753 25.3375 64.6179 25.0975 63.6799 24.6174C62.7417 24.1375 62.0023 23.4415 61.4618 22.5295C60.9212 21.6176 60.6509 20.5216 60.6509 19.2416V18.8576C60.6509 17.5776 60.9212 16.4816 61.4618 15.5696C62.0023 14.6577 62.7417 13.9617 63.6799 13.4816C64.6179 13.0017 65.6753 12.7617 66.8519 12.7617C68.0285 12.7617 69.0859 13.0017 70.024 13.4816C70.9621 13.9617 71.7014 14.6577 72.2421 15.5696C72.7827 16.4816 73.053 17.5776 73.053 18.8576V19.2416C73.053 20.5216 72.7827 21.6176 72.2421 22.5295C71.7014 23.4415 70.9621 24.1375 70.024 24.6174C69.0859 25.0975 68.0285 25.3375 66.8519 25.3375ZM66.8519 22.6495C67.7741 22.6495 68.5373 22.3535 69.1416 21.7615C69.7457 21.1535 70.0479 20.2895 70.0479 19.1696V18.9296C70.0479 17.8096 69.7457 16.9536 69.1416 16.3616C68.5532 15.7537 67.79 15.4496 66.8519 15.4496C65.9297 15.4496 65.1665 15.7537 64.5623 16.3616C63.958 16.9536 63.656 17.8096 63.656 18.9296V19.1696C63.656 20.2895 63.958 21.1535 64.5623 21.7615C65.1665 22.3535 65.9297 22.6495 66.8519 22.6495Z" fill="white"/>
<path d="M74.1812 19.0976V18.7136C74.1812 17.4656 74.4276 16.4016 74.9205 15.5216C75.4134 14.6257 76.0653 13.9457 76.8762 13.4816C77.703 13.0017 78.6014 12.7617 79.5713 12.7617C80.6525 12.7617 81.4714 12.9537 82.0278 13.3377C82.5844 13.7217 82.9898 14.1216 83.2442 14.5376H83.6736V13.0977H86.631V27.1134C86.631 27.9294 86.3925 28.5774 85.9154 29.0574C85.4384 29.5534 84.8025 29.8013 84.0074 29.8013H76.0892V27.1614H82.958C83.4033 27.1614 83.6258 26.9214 83.6258 26.4414V23.3455H83.1965C83.0376 23.6015 82.8149 23.8654 82.5287 24.1375C82.2426 24.3934 81.861 24.6095 81.3839 24.7855C80.9069 24.9614 80.3028 25.0495 79.5713 25.0495C78.6014 25.0495 77.703 24.8174 76.8762 24.3535C76.0653 23.8735 75.4134 23.1935 74.9205 22.3135C74.4276 21.4176 74.1812 20.3455 74.1812 19.0976ZM80.43 22.4095C81.3521 22.4095 82.1233 22.1135 82.7434 21.5215C83.3635 20.9295 83.6736 20.0976 83.6736 19.0256V18.7856C83.6736 17.6976 83.3635 16.8656 82.7434 16.2896C82.1391 15.6976 81.368 15.4016 80.43 15.4016C79.5077 15.4016 78.7366 15.6976 78.1164 16.2896C77.4963 16.8656 77.1862 17.6976 77.1862 18.7856V19.0256C77.1862 20.0976 77.4963 20.9295 78.1164 21.5215C78.7366 22.1135 79.5077 22.4095 80.43 22.4095Z" fill="white"/>
<path d="M94.5185 25.3375C93.3419 25.3375 92.2845 25.0975 91.3464 24.6174C90.4083 24.1375 89.6689 23.4415 89.1284 22.5295C88.5878 21.6176 88.3174 20.5216 88.3174 19.2416V18.8576C88.3174 17.5776 88.5878 16.4816 89.1284 15.5696C89.6689 14.6577 90.4083 13.9617 91.3464 13.4816C92.2845 13.0017 93.3419 12.7617 94.5185 12.7617C95.6951 12.7617 96.7524 13.0017 97.6906 13.4816C98.6287 13.9617 99.368 14.6577 99.9087 15.5696C100.449 16.4816 100.72 17.5776 100.72 18.8576V19.2416C100.72 20.5216 100.449 21.6176 99.9087 22.5295C99.368 23.4415 98.6287 24.1375 97.6906 24.6174C96.7524 25.0975 95.6951 25.3375 94.5185 25.3375ZM94.5185 22.6495C95.4407 22.6495 96.2039 22.3535 96.8081 21.7615C97.4123 21.1535 97.7144 20.2895 97.7144 19.1696V18.9296C97.7144 17.8096 97.4123 16.9536 96.8081 16.3616C96.2198 15.7537 95.4566 15.4496 94.5185 15.4496C93.5962 15.4496 92.8331 15.7537 92.2289 16.3616C91.6247 16.9536 91.3226 17.8096 91.3226 18.9296V19.1696C91.3226 20.2895 91.6247 21.1535 92.2289 21.7615C92.8331 22.3535 93.5962 22.6495 94.5185 22.6495Z" fill="white"/>
<path d="M102.42 24.9989V13.0952H105.426V24.9989H102.42ZM103.923 11.7033C103.382 11.7033 102.921 11.5272 102.539 11.1752C102.174 10.8232 101.991 10.3592 101.991 9.78324C101.991 9.20726 102.174 8.74326 102.539 8.39127C102.921 8.03928 103.382 7.86328 103.923 7.86328C104.48 7.86328 104.941 8.03928 105.306 8.39127C105.672 8.74326 105.855 9.20726 105.855 9.78324C105.855 10.3592 105.672 10.8232 105.306 11.1752C104.941 11.5272 104.48 11.7033 103.923 11.7033Z" fill="white"/>
<path d="M107.683 29.8013V13.0977H110.64V14.5376H111.069C111.339 14.0737 111.76 13.6657 112.333 13.3136C112.905 12.9457 113.724 12.7617 114.79 12.7617C115.743 12.7617 116.626 13.0017 117.437 13.4816C118.248 13.9457 118.9 14.6336 119.392 15.5456C119.885 16.4576 120.132 17.5616 120.132 18.8576V19.2416C120.132 20.5376 119.885 21.6415 119.392 22.5535C118.9 23.4654 118.248 24.1614 117.437 24.6415C116.626 25.1054 115.743 25.3375 114.79 25.3375C114.075 25.3375 113.47 25.2495 112.977 25.0734C112.5 24.9135 112.111 24.7054 111.808 24.4494C111.522 24.1774 111.292 23.9055 111.116 23.6335H110.687V29.8013H107.683ZM113.883 22.6975C114.822 22.6975 115.593 22.4015 116.196 21.8095C116.816 21.2015 117.127 20.3216 117.127 19.1696V18.9296C117.127 17.7776 116.816 16.9056 116.196 16.3136C115.576 15.7056 114.805 15.4016 113.883 15.4016C112.961 15.4016 112.19 15.7056 111.569 16.3136C110.949 16.9056 110.64 17.7776 110.64 18.9296V19.1696C110.64 20.3216 110.949 21.2015 111.569 21.8095C112.19 22.4015 112.961 22.6975 113.883 22.6975Z" fill="white"/>
<path d="M126.731 25.3375C125.188 25.3375 123.925 25.0014 122.939 24.3295C121.954 23.6575 121.357 22.6975 121.15 21.4495L123.916 20.7295C124.028 21.2896 124.211 21.7295 124.466 22.0495C124.735 22.3695 125.061 22.6015 125.444 22.7455C125.84 22.8735 126.27 22.9375 126.731 22.9375C127.431 22.9375 127.948 22.8175 128.281 22.5775C128.615 22.3215 128.782 22.0095 128.782 21.6415C128.782 21.2735 128.623 20.9936 128.305 20.8015C127.987 20.5936 127.478 20.4256 126.779 20.2976L126.111 20.1775C125.284 20.0175 124.529 19.8015 123.846 19.5296C123.161 19.2416 122.613 18.8496 122.2 18.3535C121.786 17.8576 121.579 17.2176 121.579 16.4337C121.579 15.2496 122.009 14.3457 122.868 13.7217C123.726 13.0817 124.855 12.7617 126.254 12.7617C127.574 12.7617 128.671 13.0576 129.546 13.6497C130.42 14.2417 130.992 15.0176 131.263 15.9777L128.473 16.8416C128.345 16.2337 128.083 15.8016 127.685 15.5456C127.303 15.2896 126.826 15.1616 126.254 15.1616C125.681 15.1616 125.245 15.2657 124.942 15.4736C124.64 15.6657 124.489 15.9377 124.489 16.2896C124.489 16.6736 124.648 16.9616 124.966 17.1536C125.284 17.3296 125.713 17.4656 126.254 17.5616L126.922 17.6816C127.812 17.8415 128.615 18.0576 129.33 18.3296C130.062 18.5856 130.634 18.9616 131.048 19.4576C131.477 19.9376 131.692 20.5936 131.692 21.4255C131.692 22.6735 131.239 23.6415 130.333 24.3295C129.442 25.0014 128.242 25.3375 126.731 25.3375Z" fill="white"/>
<path d="M137.76 25.1935C136.838 25.1935 136.027 24.9855 135.327 24.5695C134.643 24.1375 134.111 23.5455 133.729 22.7935C133.347 22.0415 133.157 21.1776 133.157 20.2015V13.0977H136.162V19.9615C136.162 20.8575 136.376 21.5295 136.806 21.9775C137.251 22.4255 137.879 22.6495 138.69 22.6495C139.612 22.6495 140.328 22.3455 140.836 21.7375C141.345 21.1135 141.6 20.2495 141.6 19.1456V13.0977H144.605V25.0014H141.647V23.4415H141.218C141.028 23.8415 140.669 24.2334 140.145 24.6174C139.62 25.0014 138.825 25.1935 137.76 25.1935Z" fill="white"/>
<path d="M146.875 24.9981V13.0943H149.833V14.3903H150.262C150.469 13.9903 150.811 13.6463 151.288 13.3583C151.765 13.0543 152.393 12.9023 153.172 12.9023C154.015 12.9023 154.691 13.0704 155.2 13.4063C155.708 13.7263 156.097 14.1503 156.368 14.6783H156.797C157.068 14.1663 157.449 13.7423 157.942 13.4063C158.435 13.0704 159.134 12.9023 160.041 12.9023C160.772 12.9023 161.433 13.0623 162.021 13.3824C162.625 13.6863 163.102 14.1583 163.452 14.7983C163.818 15.4223 164 16.2142 164 17.1743V24.9981H160.995V17.3902C160.995 16.7343 160.828 16.2463 160.495 15.9263C160.161 15.5903 159.691 15.4223 159.087 15.4223C158.404 15.4223 157.871 15.6462 157.489 16.0943C157.123 16.5262 156.941 17.1502 156.941 17.9662V24.9981H153.936V17.3902C153.936 16.7343 153.769 16.2463 153.434 15.9263C153.1 15.5903 152.632 15.4223 152.027 15.4223C151.343 15.4223 150.81 15.6462 150.429 16.0943C150.063 16.5262 149.881 17.1502 149.881 17.9662V24.9981H146.875Z" fill="white"/>
<path d="M39.7502 16.0001C39.7502 11.7566 38.075 7.68689 35.093 4.6863C32.1111 1.68572 28.0668 5.56465e-07 23.8497 0C19.6327 -5.56463e-07 15.5883 1.68572 12.6064 4.6863C9.62445 7.68689 7.94922 11.7566 7.94922 16.0001H12.9182C14.5648 16.0001 15.8489 14.6116 16.452 13.0698C16.8479 12.0576 17.4488 11.1273 18.228 10.3431C19.719 8.84287 21.7412 8.00002 23.8497 8.00002C25.9582 8.00002 27.9805 8.84287 29.4714 10.3431C30.9624 11.8434 31.7999 13.8783 31.7999 16.0001H39.7502Z" fill="white"/>
<path opacity="0.6" d="M30.5908 22.1229C31.3899 20.1817 31.8012 18.1011 31.8012 16H39.7506C39.7506 24.8366 32.6317 31.9999 23.8501 31.9999C22.4749 31.9999 21.1403 31.8243 19.8677 31.494C20.5877 31.3074 21.2955 31.0696 21.9855 30.7821C23.9147 29.978 25.6675 28.7995 27.144 27.3137C28.6206 25.828 29.7918 24.0641 30.5908 22.1229Z" fill="white"/>
<path d="M0 16C-2.98719e-07 18.1012 0.411278 20.1818 1.21035 22.123C2.00943 24.0642 3.18065 25.8281 4.65715 27.3138C6.13364 28.7995 7.8865 29.9781 9.81564 30.7822C11.7448 31.5862 13.8124 32.0001 15.9005 32.0001C17.9885 32.0001 20.0562 31.5862 21.9853 30.7822C23.9145 29.9781 25.6673 28.7995 27.1438 27.3138C28.6204 25.8281 29.7915 24.0642 30.5906 22.123C31.3897 20.1818 31.801 18.1012 31.801 16H26.832C25.1855 16 23.9014 17.3885 23.2983 18.9302C23.2811 18.9741 23.2635 19.0178 23.2456 19.0616C22.846 20.0321 22.2604 20.9141 21.5221 21.6569C20.7839 22.3997 19.9074 22.9891 18.9429 23.3911C17.9784 23.7932 16.9446 24.0001 15.9005 24.0001C14.8565 24.0001 13.8226 23.7932 12.8581 23.3911C11.8935 22.9891 11.0171 22.3997 10.2788 21.6569C9.54057 20.9141 8.95496 20.0321 8.55543 19.0616C8.15588 18.0909 7.95025 17.0506 7.95025 16H0Z" fill="white"/>
<path opacity="0.6" d="M0.00146484 16.0001C0.00146484 7.16343 7.12034 0 15.9019 0C17.2768 0 18.611 0.175595 19.8835 0.505727C17.153 1.21353 14.6342 2.64594 12.6064 4.68631C9.62451 7.68687 7.9493 11.7566 7.9493 16.0001H0.00146484Z" fill="white"/>
</g>
<defs>
<clipPath id="clip0_1041_23501">
<rect width="164" height="32" fill="white"/>
</clipPath>
</defs>
</svg>
