<svg width="136" height="32" viewBox="0 0 136 32" fill="none" xmlns="http://www.w3.org/2000/svg">
<g clip-path="url(#clip0_1041_23450)">
<path d="M41.1475 22.3999H50.7573V19.5199H44.563V8.67188H41.1475V22.3999Z" fill="white"/>
<path d="M56.4507 20.48C55.0806 20.48 54.3666 19.2896 54.3666 17.504C54.3666 15.7184 55.0806 14.5088 56.4507 14.5088C57.8208 14.5088 58.5541 15.7184 58.5541 17.504C58.5541 19.2896 57.8208 20.48 56.4507 20.48ZM56.47 22.7072C59.654 22.7072 61.7381 20.4608 61.7381 17.504C61.7381 14.5472 59.654 12.3008 56.47 12.3008C53.3053 12.3008 51.1826 14.5472 51.1826 17.504C51.1826 20.4608 53.3053 22.7072 56.47 22.7072Z" fill="white"/>
<path d="M67.2494 25.7981C68.716 25.7981 70.0089 25.4717 70.8772 24.7037C71.6684 23.9933 72.1894 22.9181 72.1894 21.4397V12.5693H69.1791V13.6253H69.1405C68.5616 12.7997 67.6739 12.2812 66.3617 12.2812C63.911 12.2812 62.2129 14.3165 62.2129 17.1965C62.2129 20.2109 64.2777 21.8621 66.4968 21.8621C67.6932 21.8621 68.4458 21.3821 69.0247 20.7293H69.1019V21.7085C69.1019 22.8989 68.5423 23.5901 67.2108 23.5901C66.1688 23.5901 65.6477 23.1485 65.4741 22.6301H62.4252C62.7339 24.6845 64.5285 25.7981 67.2494 25.7981ZM67.2301 19.5389C66.053 19.5389 65.2811 18.5789 65.2811 17.1005C65.2811 15.6029 66.053 14.6429 67.2301 14.6429C68.5423 14.6429 69.237 15.7565 69.237 17.0813C69.237 18.4637 68.6002 19.5389 67.2301 19.5389Z" fill="white"/>
<path d="M78.3794 20.48C77.0093 20.48 76.2953 19.2896 76.2953 17.504C76.2953 15.7184 77.0093 14.5088 78.3794 14.5088C79.7495 14.5088 80.4828 15.7184 80.4828 17.504C80.4828 19.2896 79.7495 20.48 78.3794 20.48ZM78.3987 22.7072C81.5827 22.7072 83.6668 20.4608 83.6668 17.504C83.6668 14.5472 81.5827 12.3008 78.3987 12.3008C75.234 12.3008 73.1113 14.5472 73.1113 17.504C73.1113 20.4608 75.234 22.7072 78.3987 22.7072Z" fill="white"/>
<path d="M84.585 22.3999H87.7304V12.5695H84.585V22.3999ZM84.585 11.2063H87.7304V8.67188H84.585V11.2063Z" fill="white"/>
<path d="M89.0957 25.6445H92.2411V21.3821H92.2797C92.8972 22.2077 93.8042 22.7069 95.0778 22.7069C97.6635 22.7069 99.381 20.6717 99.381 17.4845C99.381 14.5277 97.7793 12.2812 95.1549 12.2812C93.8042 12.2812 92.8393 12.8765 92.1639 13.7597H92.106V12.5693H89.0957V25.6445ZM94.2673 20.2877C92.9165 20.2877 92.1446 19.1933 92.1446 17.5997C92.1446 16.0061 92.8393 14.7965 94.2094 14.7965C95.5602 14.7965 96.197 15.9101 96.197 17.5997C96.197 19.2701 95.4637 20.2877 94.2673 20.2877Z" fill="white"/>
<path d="M104.502 22.7069C107.088 22.7069 108.998 21.5933 108.998 19.4429C108.998 16.9277 106.952 16.4861 105.216 16.1981C103.961 15.9677 102.842 15.8717 102.842 15.1805C102.842 14.5661 103.44 14.2781 104.212 14.2781C105.081 14.2781 105.679 14.5469 105.795 15.4301H108.689C108.535 13.4909 107.03 12.2812 104.232 12.2812C101.897 12.2812 99.9669 13.3565 99.9669 15.4301C99.9669 17.7341 101.8 18.1949 103.518 18.4829C104.83 18.7133 106.026 18.8093 106.026 19.6925C106.026 20.3261 105.428 20.6717 104.482 20.6717C103.44 20.6717 102.784 20.1917 102.669 19.2125H99.6968C99.7933 21.3821 101.607 22.7069 104.502 22.7069Z" fill="white"/>
<path d="M113.271 22.6887C114.641 22.6887 115.509 22.1511 116.223 21.1911H116.281V22.4007H119.291V12.5703H116.146V18.0615C116.146 19.2327 115.49 20.0391 114.409 20.0391C113.406 20.0391 112.923 19.4439 112.923 18.3687V12.5703H109.797V19.0215C109.797 21.2103 110.994 22.6887 113.271 22.6887Z" fill="white"/>
<path d="M120.659 22.3997H123.805V16.8893C123.805 15.7181 124.383 14.8925 125.368 14.8925C126.313 14.8925 126.757 15.5069 126.757 16.5629V22.3997H129.902V16.8893C129.902 15.7181 130.462 14.8925 131.465 14.8925C132.411 14.8925 132.855 15.5069 132.855 16.5629V22.3997H136V16.0061C136 13.7981 134.881 12.2812 132.643 12.2812C131.369 12.2812 130.308 12.8189 129.536 14.0093H129.497C128.995 12.9533 128.011 12.2812 126.718 12.2812C125.29 12.2812 124.345 12.9533 123.727 13.9709H123.67V12.5693H120.659V22.3997Z" fill="white"/>
<path fill-rule="evenodd" clip-rule="evenodd" d="M16.0808 32C24.962 32 32.1616 24.8366 32.1616 16C32.1616 7.16345 24.962 0 16.0808 0C7.1996 0 0 7.16345 0 16C0 24.8366 7.1996 32 16.0808 32ZM21.0974 7.45348C21.3416 6.59044 20.4999 6.08011 19.7311 6.62504L8.99971 14.2317C8.166 14.8226 8.29714 16 9.1967 16H12.0226V15.9782H17.5301L13.0425 17.5537L11.0642 24.5466C10.82 25.4096 11.6616 25.9199 12.4305 25.375L23.1619 17.7684C23.9956 17.1774 23.8644 16 22.9649 16H18.6795L21.0974 7.45348Z" fill="white"/>
</g>
<defs>
<clipPath id="clip0_1041_23450">
<rect width="136" height="32" fill="white"/>
</clipPath>
</defs>
</svg>
