<svg width="158" height="32" viewBox="0 0 158 32" fill="none" xmlns="http://www.w3.org/2000/svg">
<path d="M15.9047 0H0V16H15.9047V0Z" fill="white"/>
<path opacity="0.6" d="M15.9047 16H0V32H15.9047V16Z" fill="white"/>
<path d="M41.9883 22.5142H52.6508V19.5933H45.5099V5.75781H41.9883V22.5142Z" fill="white"/>
<path d="M59.875 22.7576C63.6651 22.7576 66.0238 20.1476 66.0238 16.2776C66.0238 12.3831 63.6651 9.78125 59.875 9.78125C56.0852 9.78125 53.7266 12.3831 53.7266 16.2776C53.7266 20.1476 56.0852 22.7576 59.875 22.7576ZM59.8912 20.0576C58.1427 20.0576 57.2482 18.4458 57.2482 16.2531C57.2482 14.0604 58.1427 12.4404 59.8912 12.4404C61.6073 12.4404 62.5021 14.0604 62.5021 16.2531C62.5021 18.4458 61.6073 20.0576 59.8912 20.0576Z" fill="white"/>
<path d="M73.2175 27.4867C76.7881 27.4867 79.3255 25.8503 79.3255 22.6349V9.9449H75.8853V12.0558H75.7552C75.2914 11.0331 74.2748 9.78125 72.1846 9.78125C69.4439 9.78125 67.126 11.9249 67.126 16.204C67.126 20.3849 69.3787 22.3322 72.1929 22.3322C74.1854 22.3322 75.2997 21.3258 75.7552 20.2867H75.9015V22.5858C75.9015 24.3122 74.8035 24.9831 73.2989 24.9831C71.7698 24.9831 70.9972 24.3122 70.7125 23.5513L67.5083 23.9849C67.9231 25.9649 69.8504 27.4867 73.2175 27.4867ZM73.2909 19.714C71.5911 19.714 70.6638 18.3558 70.6638 16.1876C70.6638 14.0522 71.5748 12.5549 73.2909 12.5549C74.9743 12.5549 75.9178 13.9867 75.9178 16.1876C75.9178 18.4049 74.9581 19.714 73.2909 19.714Z" fill="white"/>
<path d="M87.04 22.7576C90.8301 22.7576 93.1888 20.1476 93.1888 16.2776C93.1888 12.3831 90.8301 9.78125 87.04 9.78125C83.25 9.78125 80.8916 12.3831 80.8916 16.2776C80.8916 20.1476 83.25 22.7576 87.04 22.7576ZM87.0563 20.0576C85.3077 20.0576 84.4132 18.4458 84.4132 16.2531C84.4132 14.0604 85.3077 12.4404 87.0563 12.4404C88.7724 12.4404 89.6672 14.0604 89.6672 16.2531C89.6672 18.4458 88.7724 20.0576 87.0563 20.0576Z" fill="white"/>
<path d="M94.7546 22.5144H98.2193V9.94715H94.7546V22.5144ZM96.4952 8.32715C97.5281 8.32715 98.3739 7.53352 98.3739 6.55989C98.3739 5.59441 97.5281 4.80078 96.4952 4.80078C95.4703 4.80078 94.6245 5.59441 94.6245 6.55989C94.6245 7.53352 95.4703 8.32715 96.4952 8.32715Z" fill="white"/>
<path d="M100.307 27.2249H103.772V20.4994H103.878C104.357 21.5467 105.406 22.7167 107.424 22.7167C110.27 22.7167 112.49 20.4503 112.49 16.2449C112.49 11.9249 110.172 9.78125 107.432 9.78125C105.342 9.78125 104.341 11.0331 103.878 12.0558H103.723V9.9449H100.307V27.2249ZM103.699 16.2285C103.699 13.9867 104.642 12.5549 106.326 12.5549C108.042 12.5549 108.953 14.0522 108.953 16.2285C108.953 18.4213 108.025 19.9431 106.326 19.9431C104.658 19.9431 103.699 18.4703 103.699 16.2285Z" fill="white"/>
<path d="M124.508 13.5285C124.199 11.2131 122.344 9.78125 119.189 9.78125C115.992 9.78125 113.886 11.2703 113.894 13.6922C113.886 15.574 115.065 16.7931 117.505 17.284L119.669 17.7176C120.758 17.9385 121.255 18.3394 121.271 18.9694C121.255 19.714 120.449 20.2458 119.238 20.2458C118.001 20.2458 117.18 19.714 116.968 18.6913L113.561 18.8713C113.886 21.2767 115.919 22.7576 119.229 22.7576C122.466 22.7576 124.784 21.0967 124.792 18.6176C124.784 16.8012 123.605 15.7131 121.181 15.214L118.92 14.7558C117.757 14.5022 117.326 14.1013 117.334 13.4958C117.326 12.7431 118.172 12.2522 119.246 12.2522C120.449 12.2522 121.165 12.9149 121.336 13.7249L124.508 13.5285Z" fill="white"/>
<path d="M134.298 17.1617C134.306 18.8471 133.159 19.7308 131.915 19.7308C130.605 19.7308 129.76 18.8062 129.751 17.3253V9.94531H126.287V17.9471C126.295 20.8844 128.003 22.6762 130.516 22.6762C132.395 22.6762 133.745 21.7026 134.306 20.2299H134.436V22.5126H137.762V9.94531H134.298V17.1617Z" fill="white"/>
<path d="M139.847 22.5122H143.312V14.9685C143.312 13.5776 144.19 12.6531 145.345 12.6531C146.483 12.6531 147.248 13.4385 147.248 14.674V22.5122H150.607V14.8376C150.607 13.5367 151.347 12.6531 152.608 12.6531C153.714 12.6531 154.543 13.3485 154.543 14.7476V22.5122H158V14.0604C158 11.3358 156.389 9.78125 154.064 9.78125C152.234 9.78125 150.81 10.7222 150.298 12.1622H150.168C149.769 10.7058 148.492 9.78125 146.776 9.78125C145.093 9.78125 143.816 10.6812 143.295 12.1622H143.149V9.9449H139.847V22.5122Z" fill="white"/>
<path opacity="0.6" d="M23.8571 16C28.2491 16 31.8095 12.4183 31.8095 8C31.8095 3.58172 28.2491 0 23.8571 0C19.4652 0 15.9048 3.58172 15.9048 8C15.9048 12.4183 19.4652 16 23.8571 16Z" fill="white"/>
<path d="M23.8571 32C28.2491 32 31.8095 28.4183 31.8095 24C31.8095 19.5817 28.2491 16 23.8571 16C19.4652 16 15.9048 19.5817 15.9048 24C15.9048 28.4183 19.4652 32 23.8571 32Z" fill="white"/>
<path d="M41.9883 22.5142H52.6508V19.5933H45.5099V5.75781H41.9883V22.5142Z" fill="white"/>
<path d="M59.875 22.7576C63.6651 22.7576 66.0238 20.1476 66.0238 16.2776C66.0238 12.3831 63.6651 9.78125 59.875 9.78125C56.0852 9.78125 53.7266 12.3831 53.7266 16.2776C53.7266 20.1476 56.0852 22.7576 59.875 22.7576ZM59.8912 20.0576C58.1427 20.0576 57.2482 18.4458 57.2482 16.2531C57.2482 14.0604 58.1427 12.4404 59.8912 12.4404C61.6073 12.4404 62.5021 14.0604 62.5021 16.2531C62.5021 18.4458 61.6073 20.0576 59.8912 20.0576Z" fill="white"/>
<path d="M73.2175 27.4867C76.7881 27.4867 79.3255 25.8503 79.3255 22.6349V9.9449H75.8853V12.0558H75.7552C75.2914 11.0331 74.2748 9.78125 72.1846 9.78125C69.4439 9.78125 67.126 11.9249 67.126 16.204C67.126 20.3849 69.3787 22.3322 72.1929 22.3322C74.1854 22.3322 75.2997 21.3258 75.7552 20.2867H75.9015V22.5858C75.9015 24.3122 74.8035 24.9831 73.2989 24.9831C71.7698 24.9831 70.9972 24.3122 70.7125 23.5513L67.5083 23.9849C67.9231 25.9649 69.8504 27.4867 73.2175 27.4867ZM73.2909 19.714C71.5911 19.714 70.6638 18.3558 70.6638 16.1876C70.6638 14.0522 71.5748 12.5549 73.2909 12.5549C74.9743 12.5549 75.9178 13.9867 75.9178 16.1876C75.9178 18.4049 74.9581 19.714 73.2909 19.714Z" fill="white"/>
<path d="M87.04 22.7576C90.8301 22.7576 93.1888 20.1476 93.1888 16.2776C93.1888 12.3831 90.8301 9.78125 87.04 9.78125C83.25 9.78125 80.8916 12.3831 80.8916 16.2776C80.8916 20.1476 83.25 22.7576 87.04 22.7576ZM87.0563 20.0576C85.3077 20.0576 84.4132 18.4458 84.4132 16.2531C84.4132 14.0604 85.3077 12.4404 87.0563 12.4404C88.7724 12.4404 89.6672 14.0604 89.6672 16.2531C89.6672 18.4458 88.7724 20.0576 87.0563 20.0576Z" fill="white"/>
<path d="M94.7546 22.5144H98.2193V9.94715H94.7546V22.5144ZM96.4952 8.32715C97.5281 8.32715 98.3739 7.53352 98.3739 6.55989C98.3739 5.59441 97.5281 4.80078 96.4952 4.80078C95.4703 4.80078 94.6245 5.59441 94.6245 6.55989C94.6245 7.53352 95.4703 8.32715 96.4952 8.32715Z" fill="white"/>
<path d="M100.307 27.2249H103.772V20.4994H103.878C104.357 21.5467 105.406 22.7167 107.424 22.7167C110.27 22.7167 112.49 20.4503 112.49 16.2449C112.49 11.9249 110.172 9.78125 107.432 9.78125C105.342 9.78125 104.341 11.0331 103.878 12.0558H103.723V9.9449H100.307V27.2249ZM103.699 16.2285C103.699 13.9867 104.642 12.5549 106.326 12.5549C108.042 12.5549 108.953 14.0522 108.953 16.2285C108.953 18.4213 108.025 19.9431 106.326 19.9431C104.658 19.9431 103.699 18.4703 103.699 16.2285Z" fill="white"/>
<path d="M124.508 13.5285C124.199 11.2131 122.344 9.78125 119.189 9.78125C115.992 9.78125 113.886 11.2703 113.894 13.6922C113.886 15.574 115.065 16.7931 117.505 17.284L119.669 17.7176C120.758 17.9385 121.255 18.3394 121.271 18.9694C121.255 19.714 120.449 20.2458 119.238 20.2458C118.001 20.2458 117.18 19.714 116.968 18.6913L113.561 18.8713C113.886 21.2767 115.919 22.7576 119.229 22.7576C122.466 22.7576 124.784 21.0967 124.792 18.6176C124.784 16.8012 123.605 15.7131 121.181 15.214L118.92 14.7558C117.757 14.5022 117.326 14.1013 117.334 13.4958C117.326 12.7431 118.172 12.2522 119.246 12.2522C120.449 12.2522 121.165 12.9149 121.336 13.7249L124.508 13.5285Z" fill="white"/>
<path d="M134.298 17.1617C134.306 18.8471 133.159 19.7308 131.915 19.7308C130.605 19.7308 129.76 18.8062 129.751 17.3253V9.94531H126.287V17.9471C126.295 20.8844 128.003 22.6762 130.516 22.6762C132.395 22.6762 133.745 21.7026 134.306 20.2299H134.436V22.5126H137.762V9.94531H134.298V17.1617Z" fill="white"/>
<path d="M139.847 22.5122H143.312V14.9685C143.312 13.5776 144.19 12.6531 145.345 12.6531C146.483 12.6531 147.248 13.4385 147.248 14.674V22.5122H150.607V14.8376C150.607 13.5367 151.347 12.6531 152.608 12.6531C153.714 12.6531 154.543 13.3485 154.543 14.7476V22.5122H158V14.0604C158 11.3358 156.389 9.78125 154.064 9.78125C152.234 9.78125 150.81 10.7222 150.298 12.1622H150.168C149.769 10.7058 148.492 9.78125 146.776 9.78125C145.093 9.78125 143.816 10.6812 143.295 12.1622H143.149V9.9449H139.847V22.5122Z" fill="white"/>
</svg>
