<svg width="136" height="32" viewBox="0 0 136 32" fill="none" xmlns="http://www.w3.org/2000/svg">
<path d="M41.1475 23.2007H50.7573V20.3207H44.563V9.47266H41.1475V23.2007Z" fill="white"/>
<path d="M56.4507 21.2808C55.0806 21.2808 54.3666 20.0904 54.3666 18.3048C54.3666 16.5192 55.0806 15.3096 56.4507 15.3096C57.8207 15.3096 58.554 16.5192 58.554 18.3048C58.554 20.0904 57.8207 21.2808 56.4507 21.2808ZM56.47 23.508C59.654 23.508 61.738 21.2616 61.738 18.3048C61.738 15.348 59.654 13.1016 56.47 13.1016C53.3053 13.1016 51.1826 15.348 51.1826 18.3048C51.1826 21.2616 53.3053 23.508 56.47 23.508Z" fill="white"/>
<path d="M67.2494 26.5988C68.7159 26.5988 70.0088 26.2724 70.8772 25.5044C71.6684 24.794 72.1894 23.7188 72.1894 22.2404V13.37H69.1791V14.426H69.1405C68.5616 13.6004 67.6739 13.082 66.3617 13.082C63.911 13.082 62.2129 15.1172 62.2129 17.9972C62.2129 21.0116 64.2777 22.6628 66.4968 22.6628C67.6932 22.6628 68.4458 22.1828 69.0247 21.53H69.1019V22.5092C69.1019 23.6996 68.5423 24.3908 67.2108 24.3908C66.1688 24.3908 65.6477 23.9492 65.4741 23.4308H62.4252C62.7339 25.4852 64.5285 26.5988 67.2494 26.5988ZM67.2301 20.3396C66.053 20.3396 65.2811 19.3796 65.2811 17.9012C65.2811 16.4036 66.053 15.4436 67.2301 15.4436C68.5423 15.4436 69.237 16.5572 69.237 17.882C69.237 19.2644 68.6002 20.3396 67.2301 20.3396Z" fill="white"/>
<path d="M78.3789 21.2808C77.0088 21.2808 76.2948 20.0904 76.2948 18.3048C76.2948 16.5192 77.0088 15.3096 78.3789 15.3096C79.749 15.3096 80.4819 16.5192 80.4819 18.3048C80.4819 20.0904 79.749 21.2808 78.3789 21.2808ZM78.3982 23.508C81.5818 23.508 83.6659 21.2616 83.6659 18.3048C83.6659 15.348 81.5818 13.1016 78.3982 13.1016C75.2335 13.1016 73.1108 15.348 73.1108 18.3048C73.1108 21.2616 75.2335 23.508 78.3982 23.508Z" fill="white"/>
<path d="M84.585 23.2007H87.7303V13.3703H84.585V23.2007ZM84.585 12.0071H87.7303V9.47266H84.585V12.0071Z" fill="white"/>
<path d="M89.0947 26.4452H92.2401V22.1828H92.2787C92.8962 23.0084 93.8032 23.5076 95.0768 23.5076C97.6625 23.5076 99.38 21.4724 99.38 18.2852C99.38 15.3284 97.7783 13.082 95.1539 13.082C93.8032 13.082 92.8383 13.6772 92.1629 14.5604H92.105V13.37H89.0947V26.4452ZM94.2663 21.0884C92.9155 21.0884 92.1436 19.994 92.1436 18.4004C92.1436 16.8068 92.8383 15.5972 94.2084 15.5972C95.5592 15.5972 96.196 16.7108 96.196 18.4004C96.196 20.0708 95.4627 21.0884 94.2663 21.0884Z" fill="white"/>
<path d="M104.501 23.5076C107.087 23.5076 108.997 22.394 108.997 20.2436C108.997 17.7284 106.952 17.2868 105.215 16.9988C103.961 16.7684 102.842 16.6724 102.842 15.9812C102.842 15.3668 103.44 15.0788 104.212 15.0788C105.08 15.0788 105.678 15.3476 105.794 16.2308H108.689C108.534 14.2916 107.029 13.082 104.231 13.082C101.896 13.082 99.9664 14.1572 99.9664 16.2308C99.9664 18.5348 101.8 18.9956 103.517 19.2836C104.829 19.514 106.026 19.61 106.026 20.4932C106.026 21.1268 105.427 21.4724 104.482 21.4724C103.44 21.4724 102.784 20.9924 102.668 20.0132H99.6963C99.7928 22.1828 101.607 23.5076 104.501 23.5076Z" fill="white"/>
<path d="M113.27 23.4895C114.64 23.4895 115.508 22.9519 116.222 21.9919H116.28V23.2015H119.29V13.3711H116.145V18.8623C116.145 20.0335 115.489 20.8399 114.408 20.8399C113.405 20.8399 112.922 20.2447 112.922 19.1695V13.3711H109.796V19.8223C109.796 22.0111 110.993 23.4895 113.27 23.4895Z" fill="white"/>
<path d="M120.659 23.2004H123.805V17.69C123.805 16.5188 124.383 15.6932 125.368 15.6932C126.313 15.6932 126.757 16.3076 126.757 17.3636V23.2004H129.902V17.69C129.902 16.5188 130.462 15.6932 131.465 15.6932C132.411 15.6932 132.855 16.3076 132.855 17.3636V23.2004H136V16.8068C136 14.5988 134.881 13.082 132.643 13.082C131.369 13.082 130.308 13.6196 129.536 14.81H129.497C128.995 13.754 128.011 13.082 126.718 13.082C125.29 13.082 124.345 13.754 123.727 14.7716H123.669V13.37H120.659V23.2004Z" fill="white"/>
<path fill-rule="evenodd" clip-rule="evenodd" d="M16.0807 32C24.9619 32 32.1614 24.8366 32.1614 16C32.1614 7.16345 24.9619 0 16.0807 0C7.19958 0 0 7.16345 0 16C0 24.8366 7.19958 32 16.0807 32ZM18.5628 12.3621C19.9335 10.9981 19.9335 8.78686 18.5628 7.42293C17.192 6.05903 14.9695 6.05903 13.5987 7.42293C12.228 8.78686 12.228 10.9981 13.5987 12.3621L16.0807 14.8316L18.5628 12.3621ZM19.7371 18.4696C21.1079 19.8335 23.3303 19.8335 24.7011 18.4696C26.0718 17.1057 26.0718 14.8944 24.7011 13.5305C23.3303 12.1666 21.1079 12.1666 19.7371 13.5305L17.2551 16.0001L19.7371 18.4696ZM18.5628 24.5771C19.9335 23.2132 19.9335 21.0019 18.5628 19.638L16.0807 17.1685L13.5987 19.638C12.228 21.0019 12.228 23.2132 13.5987 24.5771C14.9695 25.941 17.192 25.941 18.5628 24.5771ZM7.46036 18.4696C6.0896 17.1057 6.0896 14.8944 7.46036 13.5305C8.83118 12.1666 11.0536 12.1666 12.4244 13.5305L14.9064 16.0001L12.4244 18.4696C11.0536 19.8335 8.83118 19.8335 7.46036 18.4696Z" fill="white"/>
</svg>
