<svg width="136" height="32" viewBox="0 0 136 32" fill="none" xmlns="http://www.w3.org/2000/svg">
<g clip-path="url(#clip0_1041_23526)">
<path d="M39.6396 22.7983H49.4023V19.9183H43.1095V9.07031H39.6396V22.7983Z" fill="white"/>
<path d="M55.1863 20.8784C53.7944 20.8784 53.0691 19.688 53.0691 17.9024C53.0691 16.1168 53.7944 14.9072 55.1863 14.9072C56.5781 14.9072 57.3231 16.1168 57.3231 17.9024C57.3231 19.688 56.5781 20.8784 55.1863 20.8784ZM55.2059 23.1056C58.4405 23.1056 60.5577 20.8592 60.5577 17.9024C60.5577 14.9456 58.4405 12.6992 55.2059 12.6992C51.9909 12.6992 49.8345 14.9456 49.8345 17.9024C49.8345 20.8592 51.9909 23.1056 55.2059 23.1056Z" fill="white"/>
<path d="M66.1566 26.1965C67.6465 26.1965 68.9599 25.8701 69.8421 25.1021C70.6458 24.3917 71.1751 23.3165 71.1751 21.8381V12.9677H68.117V14.0237H68.0777C67.4896 13.1981 66.5879 12.6797 65.2548 12.6797C62.7652 12.6797 61.04 14.7149 61.04 17.5949C61.04 20.6093 63.1376 22.2605 65.3921 22.2605C66.6075 22.2605 67.372 21.7805 67.9601 21.1277H68.0385V22.1069C68.0385 23.2973 67.47 23.9885 66.1174 23.9885C65.0588 23.9885 64.5295 23.5469 64.3531 23.0285H61.2557C61.5693 25.0829 63.3925 26.1965 66.1566 26.1965ZM66.137 19.9373C64.9412 19.9373 64.157 18.9773 64.157 17.4989C64.157 16.0013 64.9412 15.0413 66.137 15.0413C67.47 15.0413 68.1758 16.1549 68.1758 17.4797C68.1758 18.8621 67.5288 19.9373 66.137 19.9373Z" fill="white"/>
<path d="M77.4631 20.8784C76.0713 20.8784 75.3459 19.688 75.3459 17.9024C75.3459 16.1168 76.0713 14.9072 77.4631 14.9072C78.855 14.9072 79.5999 16.1168 79.5999 17.9024C79.5999 19.688 78.855 20.8784 77.4631 20.8784ZM77.4827 23.1056C80.7173 23.1056 82.8348 20.8592 82.8348 17.9024C82.8348 14.9456 80.7173 12.6992 77.4827 12.6992C74.2677 12.6992 72.1113 14.9456 72.1113 17.9024C72.1113 20.8592 74.2677 23.1056 77.4827 23.1056Z" fill="white"/>
<path d="M83.7676 22.7983H86.963V12.9679H83.7676V22.7983ZM83.7676 11.6047H86.963V9.07031H83.7676V11.6047Z" fill="white"/>
<path d="M88.3491 26.0429H91.5445V21.7805H91.5837C92.211 22.6061 93.1324 23.1053 94.4263 23.1053C97.0532 23.1053 98.7979 21.0701 98.7979 17.8829C98.7979 14.9261 97.1708 12.6797 94.5047 12.6797C93.1324 12.6797 92.1522 13.2749 91.4661 14.1581H91.4073V12.9677H88.3491V26.0429ZM93.6029 20.6861C92.2306 20.6861 91.4465 19.5917 91.4465 17.9981C91.4465 16.4045 92.1522 15.1949 93.5441 15.1949C94.9163 15.1949 95.5633 16.3085 95.5633 17.9981C95.5633 19.6685 94.8183 20.6861 93.6029 20.6861Z" fill="white"/>
<path d="M104.001 23.1053C106.628 23.1053 108.569 21.9917 108.569 19.8413C108.569 17.3261 106.491 16.8845 104.726 16.5965C103.452 16.3661 102.315 16.2701 102.315 15.5789C102.315 14.9645 102.923 14.6765 103.707 14.6765C104.589 14.6765 105.197 14.9453 105.314 15.8285H108.255C108.098 13.8893 106.569 12.6797 103.726 12.6797C101.354 12.6797 99.3941 13.7549 99.3941 15.8285C99.3941 18.1325 101.256 18.5933 103.001 18.8813C104.334 19.1117 105.55 19.2077 105.55 20.0909C105.55 20.7245 104.942 21.0701 103.981 21.0701C102.923 21.0701 102.256 20.5901 102.139 19.6109H99.1196C99.2176 21.7805 101.06 23.1053 104.001 23.1053Z" fill="white"/>
<path d="M112.909 23.0872C114.3 23.0872 115.183 22.5496 115.908 21.5896H115.967V22.7992H119.025V12.9688H115.829V18.46C115.829 19.6312 115.163 20.4376 114.065 20.4376C113.046 20.4376 112.556 19.8424 112.556 18.7672V12.9688H109.38V19.42C109.38 21.6088 110.595 23.0872 112.909 23.0872Z" fill="white"/>
<path d="M120.415 22.7981H123.61V17.2877C123.61 16.1165 124.199 15.2909 125.198 15.2909C126.159 15.2909 126.61 15.9053 126.61 16.9613V22.7981H129.805V17.2877C129.805 16.1165 130.374 15.2909 131.393 15.2909C132.354 15.2909 132.805 15.9053 132.805 16.9613V22.7981H136V16.4045C136 14.1965 134.863 12.6797 132.589 12.6797C131.295 12.6797 130.217 13.2173 129.433 14.4077H129.394C128.884 13.3517 127.884 12.6797 126.571 12.6797C125.12 12.6797 124.159 13.3517 123.532 14.3693H123.473V12.9677H120.415V22.7981Z" fill="white"/>
<path fill-rule="evenodd" clip-rule="evenodd" d="M6.98603 2.87829C5.81744 3.67858 4.76072 4.62478 3.84339 5.68992C7.59202 5.34906 12.3545 5.90564 17.8837 8.61335C23.7882 11.5047 28.5427 11.6025 31.8517 10.9773C31.5514 10.087 31.1734 9.23135 30.7257 8.41791C26.9378 8.80919 22.0819 8.29127 16.4226 5.51998C12.8289 3.76014 9.66114 3.03521 6.98603 2.87829ZM28.513 5.33332C25.5217 2.06 21.1747 0 16.3363 0C14.9155 0 13.5369 0.177686 12.2226 0.511584C14.0026 0.987269 15.8935 1.68319 17.8837 2.65781C22.0271 4.68682 25.6043 5.34013 28.513 5.33332ZM32.5591 14.1025C28.5616 14.8756 23.0415 14.7168 16.4226 11.4755C10.2347 8.44527 5.30968 8.48343 1.98806 9.20639C1.81661 9.24367 1.64919 9.28287 1.48582 9.32367C1.05094 10.25 0.703799 11.2241 0.454725 12.2356C0.72075 12.166 0.995645 12.0998 1.27927 12.0381C5.30897 11.161 11.0026 11.1991 17.8837 14.5689C24.0717 17.5991 28.9967 17.561 32.3184 16.838C32.4322 16.8133 32.5443 16.7877 32.6546 16.7613C32.6667 16.509 32.6727 16.2552 32.6727 16C32.6727 15.358 32.6342 14.7248 32.5591 14.1025ZM32.1212 20.1378C28.1625 20.8157 22.8031 20.5555 16.4226 17.431C10.2347 14.4008 5.30968 14.439 1.98806 15.1619C1.25075 15.3223 0.587488 15.5178 0.00239328 15.7241C0.000798033 15.8158 0 15.9078 0 16C0 24.8366 7.31403 32 16.3363 32C23.8977 32 30.2593 26.9687 32.1212 20.1378Z" fill="white"/>
</g>
<defs>
<clipPath id="clip0_1041_23526">
<rect width="136" height="32" fill="white"/>
</clipPath>
</defs>
</svg>
