<svg width="134" height="32" viewBox="0 0 134 32" fill="none" xmlns="http://www.w3.org/2000/svg">
<path d="M39.3018 22.4233H48.896V19.5433H42.7117V8.69531H39.3018V22.4233Z" fill="white"/>
<path d="M54.5798 20.5034C53.2119 20.5034 52.4991 19.313 52.4991 17.5274C52.4991 15.7418 53.2119 14.5322 54.5798 14.5322C55.9476 14.5322 56.6797 15.7418 56.6797 17.5274C56.6797 19.313 55.9476 20.5034 54.5798 20.5034ZM54.5991 22.7306C57.7779 22.7306 59.8585 20.4842 59.8585 17.5274C59.8585 14.5706 57.7779 12.3242 54.5991 12.3242C51.4395 12.3242 49.3203 14.5706 49.3203 17.5274C49.3203 20.4842 51.4395 22.7306 54.5991 22.7306Z" fill="white"/>
<path d="M65.3613 25.8215C66.8255 25.8215 68.1163 25.4951 68.9832 24.7271C69.7731 24.0167 70.2933 22.9415 70.2933 21.4631V12.5927H67.2878V13.6487H67.2493C66.6714 12.8231 65.7851 12.3047 64.4751 12.3047C62.0284 12.3047 60.333 14.3399 60.333 17.2199C60.333 20.2343 62.3944 21.8855 64.6099 21.8855C65.8044 21.8855 66.5558 21.4055 67.1337 20.7527H67.2108V21.7319C67.2108 22.9223 66.6521 23.6135 65.3228 23.6135C64.2824 23.6135 63.7623 23.1719 63.5889 22.6535H60.5449C60.8532 24.7079 62.6449 25.8215 65.3613 25.8215ZM65.342 19.5623C64.1668 19.5623 63.3962 18.6023 63.3962 17.1239C63.3962 15.6263 64.1668 14.6663 65.342 14.6663C66.6521 14.6663 67.3456 15.7799 67.3456 17.1047C67.3456 18.4871 66.7099 19.5623 65.342 19.5623Z" fill="white"/>
<path d="M76.4724 20.5034C75.1045 20.5034 74.3917 19.313 74.3917 17.5274C74.3917 15.7418 75.1045 14.5322 76.4724 14.5322C77.8402 14.5322 78.5723 15.7418 78.5723 17.5274C78.5723 19.313 77.8402 20.5034 76.4724 20.5034ZM76.4916 22.7306C79.6704 22.7306 81.7507 20.4842 81.7507 17.5274C81.7507 14.5706 79.6704 12.3242 76.4916 12.3242C73.3321 12.3242 71.2129 14.5706 71.2129 17.5274C71.2129 20.4842 73.3321 22.7306 76.4916 22.7306Z" fill="white"/>
<path d="M82.6689 22.4233H85.8092V12.5929H82.6689V22.4233ZM82.6689 11.2297H85.8092V8.69531H82.6689V11.2297Z" fill="white"/>
<path d="M87.1709 25.6679H90.3112V21.4055H90.3497C90.9662 22.2311 91.8717 22.7303 93.1432 22.7303C95.7248 22.7303 97.4394 20.6951 97.4394 17.5079C97.4394 14.5511 95.8404 12.3047 93.2203 12.3047C91.8717 12.3047 90.9084 12.8999 90.2341 13.7831H90.1763V12.5927H87.1709V25.6679ZM92.3341 20.3111C90.9855 20.3111 90.2148 19.2167 90.2148 17.6231C90.2148 16.0295 90.9084 14.8199 92.2763 14.8199C93.6248 14.8199 94.2606 15.9335 94.2606 17.6231C94.2606 19.2935 93.5285 20.3111 92.3341 20.3111Z" fill="white"/>
<path d="M102.552 22.7303C105.134 22.7303 107.041 21.6167 107.041 19.4663C107.041 16.9511 104.999 16.5095 103.265 16.2215C102.013 15.9911 100.895 15.8951 100.895 15.2039C100.895 14.5895 101.492 14.3015 102.263 14.3015C103.13 14.3015 103.727 14.5703 103.843 15.4535H106.733C106.578 13.5143 105.076 12.3047 102.282 12.3047C99.9511 12.3047 98.0246 13.3799 98.0246 15.4535C98.0246 17.7575 99.8548 18.2183 101.569 18.5063C102.879 18.7367 104.074 18.8327 104.074 19.7159C104.074 20.3495 103.477 20.6951 102.533 20.6951C101.492 20.6951 100.837 20.2151 100.722 19.2359H97.7549C97.8512 21.4055 99.6622 22.7303 102.552 22.7303Z" fill="white"/>
<path d="M111.307 22.7122C112.674 22.7122 113.541 22.1746 114.254 21.2146H114.312V22.4242H117.317V12.5938H114.177V18.085C114.177 19.2562 113.522 20.0626 112.443 20.0626C111.442 20.0626 110.96 19.4674 110.96 18.3922V12.5938H107.839V19.045C107.839 21.2338 109.033 22.7122 111.307 22.7122Z" fill="white"/>
<path d="M118.684 22.4231H121.824V16.9127C121.824 15.7415 122.402 14.9159 123.384 14.9159C124.328 14.9159 124.771 15.5303 124.771 16.5863V22.4231H127.912V16.9127C127.912 15.7415 128.47 14.9159 129.472 14.9159C130.416 14.9159 130.859 15.5303 130.859 16.5863V22.4231H134V16.0295C134 13.8215 132.882 12.3047 130.647 12.3047C129.376 12.3047 128.316 12.8423 127.546 14.0327H127.507C127.006 12.9767 126.024 12.3047 124.733 12.3047C123.307 12.3047 122.363 12.9767 121.747 13.9943H121.689V12.5927H118.684V22.4231Z" fill="white"/>
<path d="M20.1425 0.843088L16.9854 0L14.3248 9.89566L11.9228 0.961792L8.76557 1.80488L11.3608 11.4573L4.89671 5.01519L2.5855 7.31854L9.67579 14.3848L0.845961 12.0269L0 15.1733L9.64769 17.7496C9.53723 17.2748 9.4788 16.7801 9.4788 16.2717C9.4788 12.6737 12.4055 9.75686 16.0159 9.75686C19.6262 9.75686 22.553 12.6737 22.553 16.2717C22.553 16.7768 22.4953 17.2685 22.3862 17.7405L31.1542 20.0818L32.0001 16.9354L22.314 14.3489L31.1444 11.9908L30.2984 8.84438L20.6128 11.4308L27.0769 4.98874L24.7656 2.68539L17.7737 9.65358L20.1425 0.843088Z" fill="white"/>
<path d="M22.3772 17.7773C22.1065 18.9178 21.5351 19.9424 20.751 20.7633L27.103 27.0938L29.4142 24.7904L22.3772 17.7773Z" fill="white"/>
<path d="M20.6867 20.8281C19.8931 21.6359 18.8902 22.2387 17.7656 22.5493L20.077 31.1461L23.2341 30.303L20.6867 20.8281Z" fill="white"/>
<path d="M17.6483 22.5804C17.1265 22.7141 16.5796 22.7851 16.0161 22.7851C15.4122 22.7851 14.8275 22.7035 14.2724 22.5508L11.959 31.1554L15.1161 31.9985L17.6483 22.5804Z" fill="white"/>
<path d="M14.1603 22.5201C13.0529 22.194 12.0678 21.5835 11.2905 20.7734L4.92285 27.1194L7.23406 29.4228L14.1603 22.5201Z" fill="white"/>
<path d="M11.2375 20.7185C10.4735 19.9033 9.91696 18.8924 9.65206 17.7695L0.855469 20.1186L1.70142 23.265L11.2375 20.7185Z" fill="white"/>
</svg>
