<svg width="164" height="32" viewBox="0 0 164 32" fill="none" xmlns="http://www.w3.org/2000/svg">
<g clip-path="url(#clip0_1041_25382)">
<path d="M49.2744 24.9989V8.19922H52.4226V22.119H60.0547V24.9989H49.2744Z" fill="white"/>
<path d="M66.8524 25.3336C65.6758 25.3336 64.6184 25.0936 63.6803 24.6135C62.7422 24.1336 62.0028 23.4376 61.4622 22.5256C60.9217 21.6137 60.6514 20.5177 60.6514 19.2377V18.8537C60.6514 17.5737 60.9217 16.4777 61.4622 15.5657C62.0028 14.6538 62.7422 13.9578 63.6803 13.4777C64.6184 12.9978 65.6758 12.7578 66.8524 12.7578C68.029 12.7578 69.0864 12.9978 70.0245 13.4777C70.9626 13.9578 71.7019 14.6538 72.2426 15.5657C72.7832 16.4777 73.0535 17.5737 73.0535 18.8537V19.2377C73.0535 20.5177 72.7832 21.6137 72.2426 22.5256C71.7019 23.4376 70.9626 24.1336 70.0245 24.6135C69.0864 25.0936 68.029 25.3336 66.8524 25.3336ZM66.8524 22.6456C67.7746 22.6456 68.5378 22.3496 69.1421 21.7576C69.7462 21.1496 70.0484 20.2856 70.0484 19.1657V18.9257C70.0484 17.8057 69.7462 16.9497 69.1421 16.3577C68.5537 15.7497 67.7905 15.4457 66.8524 15.4457C65.9302 15.4457 65.167 15.7497 64.5628 16.3577C63.9585 16.9497 63.6565 17.8057 63.6565 18.9257V19.1657C63.6565 20.2856 63.9585 21.1496 64.5628 21.7576C65.167 22.3496 65.9302 22.6456 66.8524 22.6456Z" fill="white"/>
<path d="M74.1816 19.0937V18.7097C74.1816 17.4617 74.428 16.3977 74.921 15.5177C75.4139 14.6218 76.0658 13.9418 76.8767 13.4777C77.7035 12.9978 78.6018 12.7578 79.5718 12.7578C80.653 12.7578 81.4718 12.9498 82.0283 13.3338C82.5849 13.7178 82.9903 14.1177 83.2447 14.5337H83.6741V13.0937H86.6315V27.1095C86.6315 27.9255 86.393 28.5734 85.9159 29.0535C85.4389 29.5495 84.803 29.7974 84.0079 29.7974H76.0897V27.1575H82.9585C83.4038 27.1575 83.6263 26.9175 83.6263 26.4375V23.3416H83.197C83.038 23.5976 82.8154 23.8615 82.5292 24.1336C82.2431 24.3895 81.8614 24.6056 81.3844 24.7815C80.9074 24.9575 80.3032 25.0456 79.5718 25.0456C78.6018 25.0456 77.7035 24.8135 76.8767 24.3496C76.0658 23.8696 75.4139 23.1896 74.921 22.3096C74.428 21.4137 74.1816 20.3416 74.1816 19.0937ZM80.4304 22.4056C81.3526 22.4056 82.1237 22.1096 82.7439 21.5176C83.364 20.9256 83.6741 20.0937 83.6741 19.0217V18.7817C83.6741 17.6937 83.364 16.8617 82.7439 16.2857C82.1396 15.6937 81.3685 15.3977 80.4304 15.3977C79.5082 15.3977 78.737 15.6937 78.1169 16.2857C77.4968 16.8617 77.1867 17.6937 77.1867 18.7817V19.0217C77.1867 20.0937 77.4968 20.9256 78.1169 21.5176C78.737 22.1096 79.5082 22.4056 80.4304 22.4056Z" fill="white"/>
<path d="M94.5185 25.3336C93.3419 25.3336 92.2845 25.0936 91.3464 24.6135C90.4083 24.1336 89.6689 23.4376 89.1284 22.5256C88.5878 21.6137 88.3174 20.5177 88.3174 19.2377V18.8537C88.3174 17.5737 88.5878 16.4777 89.1284 15.5657C89.6689 14.6538 90.4083 13.9578 91.3464 13.4777C92.2845 12.9978 93.3419 12.7578 94.5185 12.7578C95.6951 12.7578 96.7524 12.9978 97.6906 13.4777C98.6287 13.9578 99.368 14.6538 99.9087 15.5657C100.449 16.4777 100.72 17.5737 100.72 18.8537V19.2377C100.72 20.5177 100.449 21.6137 99.9087 22.5256C99.368 23.4376 98.6287 24.1336 97.6906 24.6135C96.7524 25.0936 95.6951 25.3336 94.5185 25.3336ZM94.5185 22.6456C95.4407 22.6456 96.2039 22.3496 96.8081 21.7576C97.4123 21.1496 97.7144 20.2856 97.7144 19.1657V18.9257C97.7144 17.8057 97.4123 16.9497 96.8081 16.3577C96.2198 15.7497 95.4566 15.4457 94.5185 15.4457C93.5962 15.4457 92.8331 15.7497 92.2289 16.3577C91.6247 16.9497 91.3226 17.8057 91.3226 18.9257V19.1657C91.3226 20.2856 91.6247 21.1496 92.2289 21.7576C92.8331 22.3496 93.5962 22.6456 94.5185 22.6456Z" fill="white"/>
<path d="M102.42 24.9989V13.0952H105.425V24.9989H102.42ZM103.923 11.7033C103.381 11.7033 102.921 11.5272 102.539 11.1752C102.173 10.8232 101.99 10.3592 101.99 9.78324C101.99 9.20726 102.173 8.74326 102.539 8.39127C102.921 8.03928 103.381 7.86328 103.923 7.86328C104.479 7.86328 104.941 8.03928 105.306 8.39127C105.671 8.74326 105.855 9.20726 105.855 9.78324C105.855 10.3592 105.671 10.8232 105.306 11.1752C104.941 11.5272 104.479 11.7033 103.923 11.7033Z" fill="white"/>
<path d="M107.683 29.7974V13.0937H110.64V14.5337H111.069C111.339 14.0698 111.76 13.6617 112.333 13.3097C112.905 12.9418 113.724 12.7578 114.79 12.7578C115.743 12.7578 116.626 12.9978 117.437 13.4777C118.248 13.9418 118.9 14.6297 119.392 15.5417C119.885 16.4537 120.132 17.5577 120.132 18.8537V19.2377C120.132 20.5337 119.885 21.6376 119.392 22.5496C118.9 23.4615 118.248 24.1575 117.437 24.6376C116.626 25.1015 115.743 25.3336 114.79 25.3336C114.075 25.3336 113.47 25.2456 112.977 25.0695C112.5 24.9095 112.111 24.7015 111.808 24.4455C111.522 24.1735 111.292 23.9015 111.116 23.6296H110.687V29.7974H107.683ZM113.883 22.6935C114.822 22.6935 115.593 22.3976 116.196 21.8056C116.816 21.1976 117.127 20.3177 117.127 19.1657V18.9257C117.127 17.7737 116.816 16.9017 116.196 16.3097C115.576 15.7017 114.805 15.3977 113.883 15.3977C112.961 15.3977 112.19 15.7017 111.569 16.3097C110.949 16.9017 110.64 17.7737 110.64 18.9257V19.1657C110.64 20.3177 110.949 21.1976 111.569 21.8056C112.19 22.3976 112.961 22.6935 113.883 22.6935Z" fill="white"/>
<path d="M126.731 25.3336C125.188 25.3336 123.924 24.9975 122.938 24.3256C121.953 23.6536 121.356 22.6935 121.149 21.4456L123.916 20.7256C124.028 21.2857 124.21 21.7256 124.465 22.0456C124.735 22.3656 125.061 22.5976 125.443 22.7416C125.84 22.8696 126.269 22.9336 126.731 22.9336C127.431 22.9336 127.947 22.8136 128.28 22.5736C128.615 22.3176 128.782 22.0056 128.782 21.6376C128.782 21.2696 128.623 20.9896 128.305 20.7976C127.986 20.5897 127.478 20.4216 126.779 20.2936L126.11 20.1736C125.283 20.0136 124.529 19.7976 123.845 19.5257C123.16 19.2377 122.612 18.8456 122.199 18.3496C121.786 17.8537 121.579 17.2137 121.579 16.4298C121.579 15.2457 122.008 14.3418 122.867 13.7178C123.725 13.0778 124.855 12.7578 126.254 12.7578C127.573 12.7578 128.671 13.0537 129.545 13.6458C130.42 14.2378 130.991 15.0137 131.262 15.9738L128.472 16.8377C128.345 16.2298 128.083 15.7977 127.685 15.5417C127.302 15.2857 126.826 15.1577 126.254 15.1577C125.681 15.1577 125.244 15.2618 124.942 15.4697C124.64 15.6618 124.489 15.9338 124.489 16.2857C124.489 16.6697 124.648 16.9577 124.965 17.1497C125.283 17.3256 125.713 17.4617 126.254 17.5577L126.921 17.6777C127.812 17.8376 128.615 18.0537 129.33 18.3257C130.062 18.5817 130.634 18.9577 131.048 19.4537C131.476 19.9337 131.692 20.5897 131.692 21.4216C131.692 22.6696 131.239 23.6376 130.332 24.3256C129.442 24.9975 128.241 25.3336 126.731 25.3336Z" fill="white"/>
<path d="M137.761 25.1896C136.838 25.1896 136.027 24.9815 135.327 24.5656C134.643 24.1336 134.112 23.5416 133.729 22.7896C133.348 22.0376 133.157 21.1737 133.157 20.1976V13.0938H136.163V19.9576C136.163 20.8536 136.377 21.5256 136.806 21.9736C137.251 22.4216 137.879 22.6456 138.69 22.6456C139.613 22.6456 140.328 22.3416 140.837 21.7336C141.346 21.1096 141.6 20.2456 141.6 19.1417V13.0938H144.605V24.9975H141.647V23.4376H141.219C141.028 23.8376 140.669 24.2295 140.146 24.6135C139.621 24.9975 138.825 25.1896 137.761 25.1896Z" fill="white"/>
<path d="M146.875 24.9981V13.0943H149.832V14.3903H150.262C150.469 13.9903 150.811 13.6463 151.288 13.3583C151.764 13.0543 152.393 12.9023 153.172 12.9023C154.014 12.9023 154.691 13.0704 155.199 13.4063C155.707 13.7263 156.097 14.1503 156.368 14.6783H156.797C157.068 14.1663 157.449 13.7423 157.942 13.4063C158.435 13.0704 159.134 12.9023 160.04 12.9023C160.772 12.9023 161.432 13.0623 162.02 13.3824C162.624 13.6863 163.102 14.1583 163.451 14.7983C163.817 15.4223 164 16.2142 164 17.1743V24.9981H160.994V17.3902C160.994 16.7343 160.827 16.2463 160.494 15.9263C160.16 15.5903 159.691 15.4223 159.087 15.4223C158.403 15.4223 157.87 15.6462 157.489 16.0943C157.123 16.5262 156.94 17.1502 156.94 17.9662V24.9981H153.935V17.3902C153.935 16.7343 153.768 16.2463 153.434 15.9263C153.1 15.5903 152.631 15.4223 152.027 15.4223C151.343 15.4223 150.81 15.6462 150.429 16.0943C150.063 16.5262 149.88 17.1502 149.88 17.9662V24.9981H146.875Z" fill="white"/>
<path d="M39.7502 16.0001C39.7502 11.7566 38.075 7.68689 35.093 4.6863C32.1111 1.68572 28.0668 5.56465e-07 23.8497 0C19.6327 -5.56463e-07 15.5883 1.68572 12.6064 4.6863C9.62445 7.68689 7.94922 11.7566 7.94922 16.0001H12.9182C14.5648 16.0001 15.8489 14.6116 16.452 13.0698C16.8479 12.0576 17.4488 11.1273 18.228 10.3431C19.719 8.84287 21.7412 8.00002 23.8497 8.00002C25.9582 8.00002 27.9805 8.84287 29.4714 10.3431C30.9624 11.8434 31.7999 13.8783 31.7999 16.0001H39.7502Z" fill="white"/>
<path opacity="0.6" d="M30.5903 22.1229C31.3894 20.1817 31.8008 18.1011 31.8008 16H39.7501C39.7501 24.8366 32.6312 31.9999 23.8496 31.9999C22.4744 31.9999 21.1398 31.8243 19.8672 31.494C20.5873 31.3074 21.295 31.0696 21.985 30.7821C23.9142 29.978 25.667 28.7995 27.1436 27.3137C28.6201 25.828 29.7913 24.0641 30.5903 22.1229Z" fill="white"/>
<path d="M0 16C-2.98719e-07 18.1012 0.411278 20.1818 1.21035 22.123C2.00943 24.0642 3.18065 25.8281 4.65715 27.3138C6.13364 28.7995 7.8865 29.9781 9.81564 30.7822C11.7448 31.5862 13.8124 32.0001 15.9005 32.0001C17.9885 32.0001 20.0562 31.5862 21.9853 30.7822C23.9145 29.9781 25.6673 28.7995 27.1438 27.3138C28.6204 25.8281 29.7915 24.0642 30.5906 22.123C31.3897 20.1818 31.801 18.1012 31.801 16H26.832C25.1855 16 23.9014 17.3885 23.2983 18.9302C23.2811 18.9741 23.2635 19.0178 23.2456 19.0616C22.846 20.0321 22.2604 20.9141 21.5221 21.6569C20.7839 22.3997 19.9074 22.9891 18.9429 23.3911C17.9784 23.7932 16.9446 24.0001 15.9005 24.0001C14.8565 24.0001 13.8226 23.7932 12.8581 23.3911C11.8935 22.9891 11.0171 22.3997 10.2788 21.6569C9.54057 20.9141 8.95496 20.0321 8.55543 19.0616C8.15588 18.0909 7.95025 17.0506 7.95025 16H0Z" fill="white"/>
<path opacity="0.6" d="M0.00195312 16.0001C0.00195312 7.16343 7.12083 0 15.9024 0C17.2773 0 18.6115 0.175595 19.884 0.505727C17.1535 1.21353 14.6347 2.64594 12.6069 4.68631C9.625 7.68687 7.94979 11.7566 7.94979 16.0001H0.00195312Z" fill="white"/>
</g>
<defs>
<clipPath id="clip0_1041_25382">
<rect width="164" height="32" fill="white"/>
</clipPath>
</defs>
</svg>
