<svg width="190" height="32" viewBox="0 0 190 32" fill="none" xmlns="http://www.w3.org/2000/svg">
<path d="M64.3041 8.79123C66.0241 8.79123 67.4469 9.16457 68.5724 9.91124C69.7191 10.6579 70.5791 11.6393 71.1525 12.8553C71.7471 14.0713 72.0444 15.4259 72.0444 16.9193V25.2073H67.5212V17.6873C67.5212 16.8553 67.3938 16.1086 67.139 15.4473C66.9054 14.7646 66.5232 14.2206 65.9923 13.8153C65.4826 13.4099 64.8137 13.2073 63.9855 13.2073C63.1574 13.2073 62.4884 13.4099 61.9788 13.8153C61.4691 14.1993 61.0869 14.7326 60.8321 15.4153C60.5985 16.0766 60.4817 16.8126 60.4817 17.6233V25.2073H55.9586V17.6553C55.9586 16.8233 55.8418 16.0766 55.6082 15.4153C55.3746 14.7326 54.9923 14.1993 54.4615 13.8153C53.9306 13.4099 53.2617 13.2073 52.4547 13.2073C51.6053 13.2073 50.9258 13.4099 50.4161 13.8153C49.9065 14.2206 49.5348 14.7646 49.3013 15.4473C49.0677 16.1086 48.9509 16.8446 48.9509 17.6553V25.2073H44.4277V16.9193C44.4277 15.4473 44.7144 14.1033 45.2878 12.8873C45.8611 11.6499 46.7105 10.6579 47.836 9.91124C48.9827 9.16457 50.4055 8.79123 52.1043 8.79123C53.4634 8.79123 54.6313 9.04724 55.6082 9.55924C56.6062 10.0499 57.3707 10.7432 57.9016 11.6393C58.4537 12.5139 58.7404 13.5379 58.7616 14.7113H57.7423C57.7636 13.5379 58.0609 12.5139 58.6342 11.6393C59.2076 10.7432 59.9827 10.0499 60.9595 9.55924C61.9363 9.04724 63.0512 8.79123 64.3041 8.79123Z" fill="white"/>
<path d="M75.3675 9.36724H79.8907V25.2073H75.3675V9.36724ZM77.6291 6.99922C77.1195 6.99922 76.6417 6.88189 76.1957 6.64722C75.771 6.39122 75.4312 6.04988 75.1764 5.62321C74.9428 5.17521 74.826 4.69521 74.826 4.18321C74.826 3.6712 74.9428 3.20187 75.1764 2.7752C75.4312 2.34853 75.771 2.00719 76.1957 1.75119C76.6417 1.49519 77.1195 1.36719 77.6291 1.36719C78.1388 1.36719 78.6059 1.49519 79.0306 1.75119C79.4554 2.00719 79.7845 2.34853 80.0181 2.7752C80.2729 3.20187 80.4003 3.6712 80.4003 4.18321C80.4003 4.69521 80.2729 5.17521 80.0181 5.62321C79.7845 6.04988 79.4554 6.39122 79.0306 6.64722C78.6059 6.88189 78.1388 6.99922 77.6291 6.99922Z" fill="white"/>
<path d="M83.7713 2.07119H88.2944V25.2073H83.7713V2.07119Z" fill="white"/>
<path d="M99.4042 25.6233C97.7691 25.6233 96.2932 25.2713 94.9766 24.5673C93.6812 23.842 92.6619 22.85 91.9187 21.5913C91.1755 20.3113 90.8038 18.8286 90.8038 17.1433C90.8038 15.6286 91.1436 14.2419 91.8231 12.9833C92.5239 11.7033 93.4901 10.6899 94.7218 9.94324C95.9534 9.17524 97.3762 8.79123 98.9901 8.79123C100.668 8.79123 102.09 9.16457 103.258 9.91124C104.426 10.6366 105.318 11.6073 105.934 12.8233C106.571 14.0393 106.89 15.3726 106.89 16.8233V18.1673H94.4032L95.104 17.0473C95.0615 17.9433 95.2102 18.7433 95.55 19.4473C95.911 20.1513 96.41 20.706 97.0471 21.1113C97.7053 21.4953 98.4804 21.6873 99.3723 21.6873C100.222 21.6873 100.986 21.4846 101.666 21.0793C102.367 20.674 102.897 20.1086 103.258 19.3833L106.73 21.1433C106.051 22.5727 105.074 23.682 103.8 24.4713C102.547 25.2393 101.082 25.6233 99.4042 25.6233ZM95.3588 15.6393H102.398C102.335 15.0846 102.144 14.5939 101.825 14.1673C101.528 13.7193 101.135 13.3779 100.646 13.1433C100.158 12.8873 99.5953 12.7593 98.9582 12.7593C98.2999 12.7593 97.716 12.8873 97.2063 13.1433C96.7179 13.3993 96.3144 13.7513 95.9959 14.1993C95.6986 14.6259 95.4863 15.1059 95.3588 15.6393Z" fill="white"/>
<path d="M115.267 25.6553C113.61 25.6553 112.209 25.3567 111.062 24.7593C109.936 24.1407 109.045 23.2447 108.386 22.0713L111.731 20.1833C112.092 20.8233 112.538 21.2926 113.069 21.5913C113.6 21.8687 114.258 22.0073 115.044 22.0073C115.532 22.0073 115.946 21.954 116.286 21.8473C116.647 21.7193 116.923 21.5486 117.114 21.3353C117.326 21.1006 117.433 20.8233 117.433 20.5033C117.433 20.0766 117.22 19.7673 116.795 19.5753C116.371 19.362 115.829 19.1913 115.171 19.0633C114.534 18.9353 113.844 18.786 113.101 18.6153C112.357 18.4446 111.657 18.1993 110.998 17.8793C110.34 17.5593 109.798 17.1006 109.374 16.5033C108.97 15.8846 108.768 15.0633 108.768 14.0393C108.768 13.0793 109.023 12.2153 109.533 11.4473C110.064 10.6792 110.807 10.0712 111.763 9.62324C112.718 9.17524 113.844 8.95124 115.139 8.95124C116.286 8.95124 117.273 9.11124 118.101 9.43124C118.93 9.75124 119.62 10.1672 120.172 10.6792C120.745 11.1912 121.191 11.7566 121.51 12.3753L118.165 14.2633C117.932 13.6873 117.539 13.2606 116.987 12.9833C116.456 12.7059 115.872 12.5673 115.235 12.5673C114.874 12.5673 114.545 12.6313 114.247 12.7593C113.95 12.8659 113.716 13.0259 113.546 13.2393C113.377 13.4313 113.292 13.6659 113.292 13.9433C113.292 14.3699 113.493 14.7006 113.897 14.9353C114.322 15.1486 114.863 15.3193 115.521 15.4473C116.18 15.5753 116.88 15.7246 117.624 15.8953C118.367 16.0659 119.057 16.3219 119.694 16.6633C120.352 16.9833 120.894 17.442 121.319 18.0393C121.743 18.6366 121.956 19.426 121.956 20.4073C121.956 21.474 121.648 22.402 121.032 23.1913C120.416 23.9593 119.599 24.5673 118.579 25.0153C117.56 25.442 116.456 25.6553 115.267 25.6553Z" fill="white"/>
<path d="M132.083 25.6553C130.576 25.6553 129.312 25.378 128.293 24.8233C127.295 24.2473 126.541 23.458 126.031 22.4553C125.522 21.4313 125.267 20.258 125.267 18.9353V5.33521H129.79V18.8073C129.79 19.682 130.034 20.3646 130.523 20.8553C131.011 21.346 131.669 21.5913 132.498 21.5913C132.965 21.5913 133.464 21.5273 133.995 21.3993C134.526 21.2713 134.982 21.0793 135.364 20.8233V24.8873C134.961 25.122 134.451 25.3033 133.835 25.4313C133.241 25.5807 132.657 25.6553 132.083 25.6553ZM135.364 13.2073H122.368V9.36724H135.364V13.2073Z" fill="white"/>
<path d="M145.082 25.6233C143.468 25.6233 142.014 25.25 140.718 24.5033C139.444 23.7353 138.425 22.722 137.66 21.4633C136.917 20.1833 136.545 18.7753 136.545 17.2393C136.545 15.7033 136.917 14.3059 137.66 13.0473C138.425 11.7886 139.455 10.7859 140.75 10.0392C142.045 9.27124 143.489 8.88723 145.082 8.88723C146.717 8.88723 148.172 9.27124 149.446 10.0392C150.741 10.7859 151.761 11.7993 152.504 13.0793C153.268 14.3379 153.65 15.7246 153.65 17.2393C153.65 18.7753 153.268 20.1833 152.504 21.4633C151.761 22.722 150.741 23.7353 149.446 24.5033C148.151 25.25 146.696 25.6233 145.082 25.6233ZM145.082 21.3673C145.868 21.3673 146.558 21.186 147.152 20.8233C147.768 20.4393 148.246 19.938 148.586 19.3193C148.947 18.7006 149.127 18.018 149.127 17.2713C149.127 16.5246 148.947 15.8419 148.586 15.2233C148.246 14.6046 147.768 14.1139 147.152 13.7513C146.558 13.3673 145.868 13.1753 145.082 13.1753C144.318 13.1753 143.627 13.3673 143.012 13.7513C142.417 14.1139 141.939 14.6046 141.578 15.2233C141.238 15.8419 141.069 16.5246 141.069 17.2713C141.069 18.018 141.238 18.7006 141.578 19.3193C141.939 19.938 142.417 20.4393 143.012 20.8233C143.627 21.186 144.318 21.3673 145.082 21.3673Z" fill="white"/>
<path d="M163.762 13.3353C162.913 13.3353 162.212 13.5486 161.66 13.9753C161.108 14.3806 160.704 14.9246 160.449 15.6073C160.195 16.2686 160.067 17.0153 160.067 17.8473V25.2073H155.544V17.3033C155.544 15.7673 155.841 14.3699 156.436 13.1113C157.052 11.8313 157.965 10.8179 159.175 10.0712C160.386 9.30324 161.915 8.91924 163.762 8.91924C165.61 8.91924 167.139 9.30324 168.349 10.0712C169.581 10.8179 170.504 11.8206 171.12 13.0793C171.736 14.3379 172.044 15.7459 172.044 17.3033V25.2073H167.521V17.8473C167.521 17.0366 167.383 16.2899 167.107 15.6073C166.831 14.9246 166.417 14.3806 165.864 13.9753C165.334 13.5486 164.633 13.3353 163.762 13.3353Z" fill="white"/>
<path d="M182.515 25.6233C180.88 25.6233 179.404 25.2713 178.087 24.5673C176.792 23.842 175.772 22.85 175.029 21.5913C174.286 20.3113 173.914 18.8286 173.914 17.1433C173.914 15.6286 174.254 14.2419 174.934 12.9833C175.634 11.7033 176.601 10.6899 177.832 9.94324C179.064 9.17524 180.487 8.79123 182.101 8.79123C183.778 8.79123 185.201 9.16457 186.369 9.91124C187.537 10.6366 188.429 11.6073 189.045 12.8233C189.682 14.0393 190 15.3726 190 16.8233V18.1673H177.514L178.214 17.0473C178.172 17.9433 178.321 18.7433 178.66 19.4473C179.021 20.1513 179.52 20.706 180.158 21.1113C180.816 21.4953 181.591 21.6873 182.483 21.6873C183.332 21.6873 184.097 21.4846 184.776 21.0793C185.477 20.674 186.008 20.1086 186.369 19.3833L189.841 21.1433C189.161 22.5727 188.184 23.682 186.91 24.4713C185.657 25.2393 184.192 25.6233 182.515 25.6233ZM178.469 15.6393H185.509C185.445 15.0846 185.254 14.5939 184.935 14.1673C184.638 13.7193 184.245 13.3779 183.757 13.1433C183.268 12.8873 182.706 12.7593 182.069 12.7593C181.41 12.7593 180.826 12.8873 180.317 13.1433C179.828 13.3993 179.425 13.7513 179.106 14.1993C178.809 14.6259 178.597 15.1059 178.469 15.6393Z" fill="white"/>
<ellipse cx="7.96327" cy="8.00005" rx="7.96327" ry="8.00005" fill="white"/>
<path d="M31.2312 8.00005C31.2312 12.0775 27.9418 15.378 23.89 15.378C19.8383 15.378 16.5488 12.0775 16.5488 8.00005C16.5488 3.9226 19.8383 0.622067 23.89 0.622067C27.9418 0.622067 31.2312 3.9226 31.2312 8.00005Z" stroke="white" stroke-width="1.24413"/>
<path d="M31.2312 24.0001C31.2312 28.0775 27.9418 31.378 23.89 31.378C19.8383 31.378 16.5488 28.0775 16.5488 24.0001C16.5488 19.9226 19.8383 16.6221 23.89 16.6221C27.9418 16.6221 31.2312 19.9226 31.2312 24.0001Z" stroke="white" stroke-width="1.24413"/>
<ellipse cx="7.96327" cy="24" rx="7.96327" ry="8.00005" fill="white"/>
</svg>
