<svg width="50" height="40" viewBox="0 0 50 40" fill="none" xmlns="http://www.w3.org/2000/svg">
<path d="M8.44156 40C6.38528 40 4.43723 39.3574 2.5974 38.0723C0.865801 36.6801 0 34.3775 0 31.1647C0 27.9518 1.08225 24.3106 3.24675 20.241C5.51948 16.1713 8.49567 12.3695 12.1753 8.83534C15.855 5.30121 19.8052 2.62383 24.026 0.803212L24.513 2.08836C22.132 3.2664 19.697 4.87282 17.2078 6.90763C14.8268 8.94244 12.6623 11.0843 10.7143 13.3333C8.87446 15.5823 7.68398 17.6171 7.14286 19.4377C8.00866 22.008 9.68615 23.9357 12.1753 25.2209C14.6645 26.506 17.3701 27.5234 20.2922 28.2731C19.6429 31.8072 18.1818 34.6452 15.9091 36.7872C13.7446 38.9291 11.2554 40 8.44156 40ZM33.9286 39.1968C31.8723 39.1968 29.9242 38.5542 28.0844 37.2691C26.3528 35.8768 25.487 33.5743 25.487 30.3614C25.487 27.1486 26.5693 23.5609 28.7338 19.5984C31.0065 15.5288 33.9827 11.7269 37.6623 8.19277C41.342 4.55154 45.2922 1.82062 49.513 0L50 1.28514C47.7273 2.46319 45.3463 4.12316 42.8571 6.26507C40.368 8.29987 38.1494 10.4418 36.2013 12.6908C34.3615 14.8327 33.171 16.8139 32.6299 18.6345C33.6039 21.2048 35.2814 23.1325 37.6623 24.4177C40.1515 25.7028 42.8571 26.7738 45.7792 27.6305C45.1299 31.0576 43.6688 33.842 41.3961 35.9839C39.2316 38.1258 36.7424 39.1968 33.9286 39.1968Z" fill="#CAEF45"/>
</svg>
