<svg width="90" height="32" viewBox="0 0 90 32" fill="none" xmlns="http://www.w3.org/2000/svg">
<g clip-path="url(#clip0_1041_27217)">
<path d="M6.96042 30.9726C7.72312 28.996 8.48019 27.035 9.20346 25.1628C10.2118 25.4246 11.1626 25.7698 12.1439 25.905C13.6964 26.1204 15.2578 26.0775 16.728 25.4267C18.1385 24.8023 18.8088 23.613 18.5373 22.2432C18.339 21.2451 17.6416 20.6096 16.7381 20.2843C15.4065 19.805 14.0275 19.4478 12.6632 19.0586C10.579 18.4639 8.46667 17.9506 6.40839 17.2778C4.97762 16.8106 3.73275 15.974 2.67826 14.8879C0.810369 12.9653 0.438594 10.6271 0.791216 8.14167C1.31733 4.42391 3.69894 2.18798 7.21278 1.09749C11.0657 -0.0974244 14.9907 -0.142495 18.8358 1.15355C22.7361 2.4683 24.952 5.16922 25.3374 9.22666C25.3475 9.33219 25.3385 9.43882 25.3385 9.57512C25.1762 9.58722 25.031 9.60811 24.8856 9.60811C22.6887 9.6103 20.4919 9.6158 18.2951 9.59822C18.1205 9.59711 17.8151 9.4619 17.7938 9.34758C17.387 7.24356 15.936 6.29488 13.9149 6.02886C12.5427 5.84858 11.1727 5.90794 9.8997 6.53562C8.61651 7.16771 8.03743 8.30436 8.40921 9.4608C8.69425 10.349 9.42202 10.836 10.2546 11.0998C11.6245 11.5329 13.0271 11.8649 14.4173 12.2398C16.1872 12.7169 17.9864 13.1093 19.7156 13.6996C20.8874 14.0987 22.041 14.6604 23.0605 15.3486C25.7688 17.1767 26.6667 19.85 26.358 22.9379C25.9209 27.2976 23.2126 29.8568 19.1321 31.1419C15.1947 32.3819 11.2167 32.195 7.26573 31.0924C7.17785 31.0682 7.09449 31.0264 6.96042 30.9726Z" fill="black"/>
<path d="M34.4113 16.6689C36.0696 14.8288 37.7257 12.9864 39.3875 11.1484C39.8955 10.5867 40.3192 9.82596 40.9613 9.54235C41.6034 9.25873 42.4698 9.45 43.2382 9.4478C44.928 9.44231 46.6168 9.4456 48.3066 9.4456C48.5083 9.4456 48.7111 9.4456 49.102 9.4456C46.4208 12.2389 43.8543 14.9135 41.2576 17.6188C44.163 22.1335 47.0606 26.6361 50.0011 31.2069C49.7645 31.2223 49.6068 31.2421 49.4502 31.2421C47.0662 31.2443 44.6825 31.2333 42.2985 31.2541C41.902 31.2575 41.7027 31.1157 41.5134 30.7991C39.9395 28.1575 38.3498 25.5248 36.7647 22.8887C36.6622 22.7193 36.5508 22.5556 36.4234 22.3577C35.7406 23.0601 35.0839 23.712 34.4642 24.3969C34.3381 24.5365 34.3076 24.7971 34.3065 25.0015C34.2952 27.0516 34.2998 29.1019 34.2998 31.1981C31.9575 31.1981 29.6447 31.1981 27.2969 31.1981C27.2969 21.0848 27.2969 10.9824 27.2969 0.84375C29.6097 0.84375 31.9092 0.84375 34.2705 0.84375C34.2705 6.0994 34.2705 11.3627 34.2705 16.6261C34.3166 16.6415 34.364 16.6547 34.4113 16.6689Z" fill="black"/>
<path d="M61.7234 13.8856C60.7331 13.8856 59.8374 13.8856 58.8945 13.8856C58.8945 12.4147 58.8945 10.9801 58.8945 9.46422C59.8025 9.46422 60.7262 9.46422 61.7334 9.46422C61.7334 8.69144 61.6941 7.99778 61.7403 7.30854C61.9813 3.67872 63.696 1.76158 67.3586 1.08662C69.2095 0.744746 71.0819 0.705173 72.9825 0.948113C72.9825 2.57065 72.9825 4.1734 72.9825 5.85969C72.3921 5.85969 71.8345 5.8421 71.278 5.86298C69.6591 5.92565 68.8715 6.70064 68.8175 8.26161C68.7757 9.45873 68.7757 9.45873 70.0038 9.45873C70.9771 9.45873 71.9506 9.45873 72.9689 9.45873C72.9689 10.9395 72.9689 12.374 72.9689 13.8724C71.6024 13.8724 70.2437 13.8724 68.8309 13.8724C68.8309 19.6788 68.8309 25.4225 68.8309 31.2057C66.4426 31.2057 64.1094 31.2057 61.7234 31.2057C61.7234 25.4433 61.7234 19.7018 61.7234 13.8856Z" fill="black"/>
<path d="M76.8221 31.2034C76.8221 25.4289 76.8221 19.6874 76.8221 13.8888C75.8182 13.8888 74.8708 13.8888 73.8906 13.8888C73.8906 12.3948 73.8906 10.9591 73.8906 9.45532C74.8539 9.45532 75.8002 9.45532 76.8175 9.45532C76.8175 7.12924 76.8175 4.86914 76.8175 2.58594C79.154 2.58594 81.4196 2.58594 83.7427 2.58594C83.7427 4.85375 83.7427 7.11496 83.7427 9.44434C85.1205 9.44434 86.4431 9.44434 87.7905 9.44434C87.7905 10.9503 87.7905 12.3871 87.7905 13.8832C86.5873 13.8832 85.4101 13.8964 84.2327 13.8756C83.8767 13.8689 83.7067 13.9745 83.5804 14.3065C82.5857 16.9293 81.5627 19.5424 80.5747 22.1674C80.4835 22.4092 80.4992 22.7434 80.5916 22.9885C81.5425 25.5102 82.5192 28.0233 83.4869 30.5384C83.5647 30.7417 83.6356 30.9473 83.728 31.2034C81.4252 31.2034 79.1699 31.2034 76.8221 31.2034Z" fill="black"/>
<path d="M57.9404 31.2151C55.5904 31.2151 53.2708 31.2151 50.9082 31.2151C50.9082 23.9817 50.9082 16.7584 50.9082 9.49219C53.2436 9.49219 55.5757 9.49219 57.9404 9.49219C57.9404 16.7364 57.9404 23.9609 57.9404 31.2151Z" fill="black"/>
<path d="M50.7305 3.61776C50.7305 1.59728 52.3776 -0.0076674 54.4437 2.75545e-05C56.502 0.00772251 58.1728 1.64785 58.1502 3.63864C58.1289 5.62393 56.4851 7.21898 54.4494 7.23108C52.3866 7.24317 50.7317 5.63493 50.7305 3.61776Z" fill="black"/>
<path d="M89.0722 22.555C89.0722 23.9885 87.9096 25.1373 86.4393 25.1538C84.9568 25.1713 83.7536 24.004 83.7559 22.5496C83.758 21.1194 84.932 19.9597 86.3887 19.9454C87.8701 19.9322 89.0722 21.1008 89.0722 22.555Z" fill="black"/>
</g>
<defs>
<clipPath id="clip0_1041_27217">
<rect width="90" height="32" fill="white"/>
</clipPath>
</defs>
</svg>
