<svg width="322" height="6" viewBox="0 0 322 6" fill="none" xmlns="http://www.w3.org/2000/svg">
<path d="M0.900391 3.05469C4.45595 0.388021 8.0115 0.388021 11.5671 3.05469C15.1226 5.72135 18.6782 5.72135 22.2337 3.05469C25.7893 0.388021 29.3448 0.388021 32.9004 3.05469C36.4559 5.72135 40.0115 5.72135 43.5671 3.05469C47.1226 0.388021 50.6782 0.388021 54.2337 3.05469C57.7893 5.72135 61.3448 5.72135 64.9004 3.05469C68.4559 0.388021 72.0115 0.388021 75.5671 3.05469C79.1226 5.72135 82.6782 5.72135 86.2337 3.05469C89.7893 0.388021 93.3448 0.388021 96.9004 3.05469C100.456 5.72135 104.012 5.72135 107.567 3.05469C111.123 0.388021 114.678 0.388021 118.234 3.05469C121.789 5.72135 125.345 5.72135 128.9 3.05469C132.456 0.388021 136.012 0.388021 139.567 3.05469C143.123 5.72135 146.678 5.72135 150.234 3.05469C153.789 0.388021 157.345 0.388021 160.9 3.05469C164.456 5.72135 168.012 5.72135 171.567 3.05469C175.123 0.388021 178.678 0.388021 182.234 3.05469C185.789 5.72135 189.345 5.72135 192.9 3.05469C196.456 0.388021 200.012 0.388021 203.567 3.05469C207.123 5.72135 210.678 5.72135 214.234 3.05469C217.789 0.388021 221.345 0.388021 224.9 3.05469C228.456 5.72135 232.012 5.72135 235.567 3.05469C239.123 0.388021 242.678 0.388021 246.234 3.05469C249.789 5.72135 253.345 5.72135 256.9 3.05469C260.456 0.388021 264.012 0.388021 267.567 3.05469C271.123 5.72135 274.678 5.72135 278.234 3.05469C281.789 0.388021 285.345 0.388021 288.9 3.05469C292.456 5.72135 296.012 5.72135 299.567 3.05469C303.123 0.388021 306.678 0.388021 310.234 3.05469C313.789 5.72135 317.345 5.72135 320.9 3.05469" stroke="white"/>
</svg>
