<svg width="160" height="32" viewBox="0 0 160 32" fill="none" xmlns="http://www.w3.org/2000/svg">
<g opacity="0.5">
<mask id="mask0_1333_17007" style="mask-type:alpha" maskUnits="userSpaceOnUse" x="0" y="0" width="160" height="32">
<path d="M15.9046 0H0V16H15.9046V0Z" fill="#D85A5A"/>
<path d="M15.9046 16H0V32H15.9046V16Z" fill="#D85A5A"/>
<path d="M41.9883 22.5142H52.6507V19.5933H45.5099V5.75781H41.9883V22.5142Z" fill="#27062D"/>
<path d="M59.875 22.7576C63.665 22.7576 66.0237 20.1476 66.0237 16.2776C66.0237 12.3831 63.665 9.78125 59.875 9.78125C56.0852 9.78125 53.7266 12.3831 53.7266 16.2776C53.7266 20.1476 56.0852 22.7576 59.875 22.7576ZM59.8912 20.0576C58.1426 20.0576 57.2482 18.4458 57.2482 16.2531C57.2482 14.0604 58.1426 12.4404 59.8912 12.4404C61.6073 12.4404 62.5021 14.0604 62.5021 16.2531C62.5021 18.4458 61.6073 20.0576 59.8912 20.0576Z" fill="#27062D"/>
<path d="M73.2165 27.4867C76.787 27.4867 79.3245 25.8503 79.3245 22.6349V9.9449H75.8843V12.0558H75.7542C75.2904 11.0331 74.2738 9.78125 72.1836 9.78125C69.4429 9.78125 67.125 11.9249 67.125 16.204C67.125 20.3849 69.3777 22.3322 72.1919 22.3322C74.1844 22.3322 75.2987 21.3258 75.7542 20.2867H75.9005V22.5858C75.9005 24.3122 74.8025 24.9831 73.2979 24.9831C71.7688 24.9831 70.9962 24.3122 70.7115 23.5513L67.5073 23.9849C67.9221 25.9649 69.8495 27.4867 73.2165 27.4867ZM73.2899 19.714C71.5901 19.714 70.6628 18.3558 70.6628 16.1876C70.6628 14.0522 71.5738 12.5549 73.2899 12.5549C74.9733 12.5549 75.9167 13.9867 75.9167 16.1876C75.9167 18.4049 74.9571 19.714 73.2899 19.714Z" fill="#27062D"/>
<path d="M87.039 22.7576C90.8291 22.7576 93.1877 20.1476 93.1877 16.2776C93.1877 12.3831 90.8291 9.78125 87.039 9.78125C83.249 9.78125 80.8906 12.3831 80.8906 16.2776C80.8906 20.1476 83.249 22.7576 87.039 22.7576ZM87.0552 20.0576C85.3067 20.0576 84.4122 18.4458 84.4122 16.2531C84.4122 14.0604 85.3067 12.4404 87.0552 12.4404C88.7713 12.4404 89.6661 14.0604 89.6661 16.2531C89.6661 18.4458 88.7713 20.0576 87.0552 20.0576Z" fill="#27062D"/>
<path d="M94.7551 22.5144H98.2198V9.94715H94.7551V22.5144ZM96.4957 8.32715C97.5285 8.32715 98.3744 7.53352 98.3744 6.55989C98.3744 5.59441 97.5285 4.80078 96.4957 4.80078C95.4708 4.80078 94.625 5.59441 94.625 6.55989C94.625 7.53352 95.4708 8.32715 96.4957 8.32715Z" fill="#27062D"/>
<path d="M100.307 27.2249H103.771V20.4994H103.877C104.357 21.5467 105.406 22.7167 107.423 22.7167C110.27 22.7167 112.49 20.4503 112.49 16.2449C112.49 11.9249 110.172 9.78125 107.431 9.78125C105.341 9.78125 104.341 11.0331 103.877 12.0558H103.723V9.9449H100.307V27.2249ZM103.698 16.2285C103.698 13.9867 104.642 12.5549 106.325 12.5549C108.041 12.5549 108.952 14.0522 108.952 16.2285C108.952 18.4213 108.025 19.9431 106.325 19.9431C104.658 19.9431 103.698 18.4703 103.698 16.2285Z" fill="#27062D"/>
<path d="M124.508 13.5285C124.198 11.2131 122.344 9.78125 119.189 9.78125C115.992 9.78125 113.886 11.2703 113.894 13.6922C113.886 15.574 115.065 16.7931 117.505 17.284L119.669 17.7176C120.758 17.9385 121.255 18.3394 121.271 18.9694C121.255 19.714 120.449 20.2458 119.238 20.2458C118.001 20.2458 117.18 19.714 116.968 18.6913L113.561 18.8713C113.886 21.2767 115.919 22.7576 119.229 22.7576C122.466 22.7576 124.784 21.0967 124.792 18.6176C124.784 16.8012 123.605 15.7131 121.181 15.214L118.92 14.7558C117.757 14.5022 117.326 14.1013 117.334 13.4958C117.326 12.7431 118.172 12.2522 119.245 12.2522C120.449 12.2522 121.165 12.9149 121.336 13.7249L124.508 13.5285Z" fill="#27062D"/>
<path d="M134.296 17.1617C134.305 18.8471 133.158 19.7308 131.913 19.7308C130.604 19.7308 129.758 18.8062 129.75 17.3253V9.94531H126.285V17.9471C126.293 20.8844 128.001 22.6762 130.515 22.6762C132.393 22.6762 133.743 21.7026 134.305 20.2299H134.435V22.5126H137.761V9.94531H134.296V17.1617Z" fill="#27062D"/>
<path d="M139.846 22.5122H143.311V14.9685C143.311 13.5776 144.189 12.6531 145.344 12.6531C146.482 12.6531 147.247 13.4385 147.247 14.674V22.5122H150.606V14.8376C150.606 13.5367 151.346 12.6531 152.607 12.6531C153.713 12.6531 154.542 13.3485 154.542 14.7476V22.5122H157.999V14.0604C157.999 11.3358 156.388 9.78125 154.063 9.78125C152.233 9.78125 150.809 10.7222 150.297 12.1622H150.167C149.768 10.7058 148.491 9.78125 146.775 9.78125C145.092 9.78125 143.815 10.6812 143.294 12.1622H143.148V9.9449H139.846V22.5122Z" fill="#27062D"/>
<path d="M23.8566 16C28.2485 16 31.8089 12.4183 31.8089 8C31.8089 3.58172 28.2485 0 23.8566 0C19.4647 0 15.9043 3.58172 15.9043 8C15.9043 12.4183 19.4647 16 23.8566 16Z" fill="#C65AD8"/>
<path d="M23.8566 32C28.2485 32 31.8089 28.4183 31.8089 24C31.8089 19.5817 28.2485 16 23.8566 16C19.4647 16 15.9043 19.5817 15.9043 24C15.9043 28.4183 19.4647 32 23.8566 32Z" fill="#D85A5A"/>
<path d="M41.9883 22.5142H52.6507V19.5933H45.5099V5.75781H41.9883V22.5142Z" fill="#27062D"/>
<path d="M59.875 22.7576C63.665 22.7576 66.0237 20.1476 66.0237 16.2776C66.0237 12.3831 63.665 9.78125 59.875 9.78125C56.0852 9.78125 53.7266 12.3831 53.7266 16.2776C53.7266 20.1476 56.0852 22.7576 59.875 22.7576ZM59.8912 20.0576C58.1426 20.0576 57.2482 18.4458 57.2482 16.2531C57.2482 14.0604 58.1426 12.4404 59.8912 12.4404C61.6073 12.4404 62.5021 14.0604 62.5021 16.2531C62.5021 18.4458 61.6073 20.0576 59.8912 20.0576Z" fill="#27062D"/>
<path d="M73.2165 27.4867C76.787 27.4867 79.3245 25.8503 79.3245 22.6349V9.9449H75.8843V12.0558H75.7542C75.2904 11.0331 74.2738 9.78125 72.1836 9.78125C69.4429 9.78125 67.125 11.9249 67.125 16.204C67.125 20.3849 69.3777 22.3322 72.1919 22.3322C74.1844 22.3322 75.2987 21.3258 75.7542 20.2867H75.9005V22.5858C75.9005 24.3122 74.8025 24.9831 73.2979 24.9831C71.7688 24.9831 70.9962 24.3122 70.7115 23.5513L67.5073 23.9849C67.9221 25.9649 69.8495 27.4867 73.2165 27.4867ZM73.2899 19.714C71.5901 19.714 70.6628 18.3558 70.6628 16.1876C70.6628 14.0522 71.5738 12.5549 73.2899 12.5549C74.9733 12.5549 75.9167 13.9867 75.9167 16.1876C75.9167 18.4049 74.9571 19.714 73.2899 19.714Z" fill="#27062D"/>
<path d="M87.039 22.7576C90.8291 22.7576 93.1877 20.1476 93.1877 16.2776C93.1877 12.3831 90.8291 9.78125 87.039 9.78125C83.249 9.78125 80.8906 12.3831 80.8906 16.2776C80.8906 20.1476 83.249 22.7576 87.039 22.7576ZM87.0552 20.0576C85.3067 20.0576 84.4122 18.4458 84.4122 16.2531C84.4122 14.0604 85.3067 12.4404 87.0552 12.4404C88.7713 12.4404 89.6661 14.0604 89.6661 16.2531C89.6661 18.4458 88.7713 20.0576 87.0552 20.0576Z" fill="#27062D"/>
<path d="M94.7551 22.5144H98.2198V9.94715H94.7551V22.5144ZM96.4957 8.32715C97.5285 8.32715 98.3744 7.53352 98.3744 6.55989C98.3744 5.59441 97.5285 4.80078 96.4957 4.80078C95.4708 4.80078 94.625 5.59441 94.625 6.55989C94.625 7.53352 95.4708 8.32715 96.4957 8.32715Z" fill="#27062D"/>
<path d="M100.307 27.2249H103.771V20.4994H103.877C104.357 21.5467 105.406 22.7167 107.423 22.7167C110.27 22.7167 112.49 20.4503 112.49 16.2449C112.49 11.9249 110.172 9.78125 107.431 9.78125C105.341 9.78125 104.341 11.0331 103.877 12.0558H103.723V9.9449H100.307V27.2249ZM103.698 16.2285C103.698 13.9867 104.642 12.5549 106.325 12.5549C108.041 12.5549 108.952 14.0522 108.952 16.2285C108.952 18.4213 108.025 19.9431 106.325 19.9431C104.658 19.9431 103.698 18.4703 103.698 16.2285Z" fill="#27062D"/>
<path d="M124.508 13.5285C124.198 11.2131 122.344 9.78125 119.189 9.78125C115.992 9.78125 113.886 11.2703 113.894 13.6922C113.886 15.574 115.065 16.7931 117.505 17.284L119.669 17.7176C120.758 17.9385 121.255 18.3394 121.271 18.9694C121.255 19.714 120.449 20.2458 119.238 20.2458C118.001 20.2458 117.18 19.714 116.968 18.6913L113.561 18.8713C113.886 21.2767 115.919 22.7576 119.229 22.7576C122.466 22.7576 124.784 21.0967 124.792 18.6176C124.784 16.8012 123.605 15.7131 121.181 15.214L118.92 14.7558C117.757 14.5022 117.326 14.1013 117.334 13.4958C117.326 12.7431 118.172 12.2522 119.245 12.2522C120.449 12.2522 121.165 12.9149 121.336 13.7249L124.508 13.5285Z" fill="#27062D"/>
<path d="M134.296 17.1617C134.305 18.8471 133.158 19.7308 131.913 19.7308C130.604 19.7308 129.758 18.8062 129.75 17.3253V9.94531H126.285V17.9471C126.293 20.8844 128.001 22.6762 130.515 22.6762C132.393 22.6762 133.743 21.7026 134.305 20.2299H134.435V22.5126H137.761V9.94531H134.296V17.1617Z" fill="#27062D"/>
<path d="M139.846 22.5122H143.311V14.9685C143.311 13.5776 144.189 12.6531 145.344 12.6531C146.482 12.6531 147.247 13.4385 147.247 14.674V22.5122H150.606V14.8376C150.606 13.5367 151.346 12.6531 152.607 12.6531C153.713 12.6531 154.542 13.3485 154.542 14.7476V22.5122H157.999V14.0604C157.999 11.3358 156.388 9.78125 154.063 9.78125C152.233 9.78125 150.809 10.7222 150.297 12.1622H150.167C149.768 10.7058 148.491 9.78125 146.775 9.78125C145.092 9.78125 143.815 10.6812 143.294 12.1622H143.148V9.9449H139.846V22.5122Z" fill="#27062D"/>
</mask>
<g mask="url(#mask0_1333_17007)">
<rect x="-1000" y="-2" width="1160" height="36" fill="black"/>
</g>
</g>
</svg>
