<svg width="53" height="52" viewBox="0 0 53 52" fill="none" xmlns="http://www.w3.org/2000/svg">
<path fill-rule="evenodd" clip-rule="evenodd" d="M28.2917 47.3679C21.5722 45.7529 15.1013 45.8586 8.28558 45.6651C6.9545 45.6275 5.84788 46.6493 5.80778 47.9461C5.76769 49.2438 6.81815 50.3268 8.14923 50.3652C14.6121 50.5485 20.7623 50.4004 27.145 51.9331C28.436 52.2434 29.743 51.4716 30.0558 50.2115C30.3765 48.9523 29.5827 47.6774 28.2917 47.3679Z" fill="white"/>
<path fill-rule="evenodd" clip-rule="evenodd" d="M41.3114 33.6456C31.0638 22.6892 17.8814 12.366 4.57063 5.15063C3.40794 4.5214 1.94049 4.93125 1.29901 6.0659C0.657528 7.20056 1.07452 8.63297 2.23721 9.2622C15.1069 16.2394 27.8564 26.2233 37.7593 36.8176C38.6573 37.7751 40.1809 37.8417 41.1591 36.9664C42.1374 36.0912 42.2095 34.6031 41.3114 33.6456Z" fill="white"/>
<path fill-rule="evenodd" clip-rule="evenodd" d="M52.5072 30.8698C54.1991 20.8491 51.3125 10.5204 47.2311 1.40868C46.6938 0.219956 45.2746 -0.322313 44.0638 0.197215C42.845 0.717527 42.2917 2.10531 42.8209 3.29403C46.5415 11.5924 49.2999 20.9776 47.7603 30.1042C47.5438 31.3846 48.4338 32.5953 49.7409 32.8061C51.0479 33.0176 52.2907 32.1494 52.5072 30.8698Z" fill="white"/>
</svg>
