<svg width="204" height="40" viewBox="0 0 204 40" fill="none" xmlns="http://www.w3.org/2000/svg">
<g clip-path="url(#clip0_1041_28943)">
<path d="M61.293 31.2496V10.25H65.209V27.6497H74.7025V31.2496H61.293Z" fill="black"/>
<path d="M83.1588 31.6689C81.6952 31.6689 80.3799 31.3689 79.2131 30.7689C78.0461 30.169 77.1264 29.299 76.454 28.159C75.7815 27.019 75.4453 25.649 75.4453 24.0491V23.5691C75.4453 21.9691 75.7815 20.5991 76.454 19.4591C77.1264 18.3192 78.0461 17.4492 79.2131 16.8491C80.3799 16.2492 81.6952 15.9492 83.1588 15.9492C84.6224 15.9492 85.9377 16.2492 87.1046 16.8491C88.2714 17.4492 89.1911 18.3192 89.8637 19.4591C90.5361 20.5991 90.8723 21.9691 90.8723 23.5691V24.0491C90.8723 25.649 90.5361 27.019 89.8637 28.159C89.1911 29.299 88.2714 30.169 87.1046 30.7689C85.9377 31.3689 84.6224 31.6689 83.1588 31.6689ZM83.1588 28.3089C84.3059 28.3089 85.2553 27.9389 86.0069 27.199C86.7584 26.439 87.1343 25.359 87.1343 23.9591V23.6591C87.1343 22.259 86.7584 21.1891 86.0069 20.449C85.2751 19.6891 84.3257 19.3091 83.1588 19.3091C82.0117 19.3091 81.0623 19.6891 80.3107 20.449C79.5591 21.1891 79.1834 22.259 79.1834 23.6591V23.9591C79.1834 25.359 79.5591 26.439 80.3107 27.199C81.0623 27.9389 82.0117 28.3089 83.1588 28.3089Z" fill="black"/>
<path d="M92.2734 23.8691V23.3891C92.2734 21.8291 92.5799 20.4991 93.1931 19.399C93.8062 18.2792 94.6171 17.4292 95.6258 16.8491C96.6543 16.2492 97.7717 15.9492 98.9783 15.9492C100.323 15.9492 101.342 16.1892 102.034 16.6691C102.726 17.1491 103.231 17.6491 103.547 18.1691H104.081V16.3691H107.76V33.8888C107.76 34.9088 107.463 35.7188 106.87 36.3188C106.276 36.9388 105.485 37.2487 104.496 37.2487H94.6468V33.9489H103.191C103.745 33.9489 104.022 33.6488 104.022 33.0488V29.1789H103.488C103.29 29.4989 103.013 29.8289 102.657 30.169C102.301 30.4888 101.826 30.7589 101.233 30.9789C100.64 31.1988 99.8881 31.3089 98.9783 31.3089C97.7717 31.3089 96.6543 31.0189 95.6258 30.4389C94.6171 29.8389 93.8062 28.9889 93.1931 27.8889C92.5799 26.769 92.2734 25.429 92.2734 23.8691ZM100.046 28.0089C101.193 28.0089 102.153 27.6389 102.924 26.899C103.695 26.159 104.081 25.119 104.081 23.7791V23.4791C104.081 22.119 103.695 21.0791 102.924 20.359C102.172 19.6191 101.213 19.2491 100.046 19.2491C98.8991 19.2491 97.9399 19.6191 97.1685 20.359C96.3972 21.0791 96.0115 22.119 96.0115 23.4791V23.7791C96.0115 25.119 96.3972 26.159 97.1685 26.899C97.9399 27.6389 98.8991 28.0089 100.046 28.0089Z" fill="black"/>
<path d="M117.571 31.6689C116.107 31.6689 114.792 31.3689 113.625 30.7689C112.458 30.169 111.539 29.299 110.866 28.159C110.194 27.019 109.857 25.649 109.857 24.0491V23.5691C109.857 21.9691 110.194 20.5991 110.866 19.4591C111.539 18.3192 112.458 17.4492 113.625 16.8491C114.792 16.2492 116.107 15.9492 117.571 15.9492C119.035 15.9492 120.35 16.2492 121.517 16.8491C122.684 17.4492 123.603 18.3192 124.276 19.4591C124.948 20.5991 125.285 21.9691 125.285 23.5691V24.0491C125.285 25.649 124.948 27.019 124.276 28.159C123.603 29.299 122.684 30.169 121.517 30.7689C120.35 31.3689 119.035 31.6689 117.571 31.6689ZM117.571 28.3089C118.718 28.3089 119.668 27.9389 120.419 27.199C121.171 26.439 121.546 25.359 121.546 23.9591V23.6591C121.546 22.259 121.171 21.1891 120.419 20.449C119.687 19.6891 118.738 19.3091 117.571 19.3091C116.424 19.3091 115.475 19.6891 114.723 20.449C113.971 21.1891 113.596 22.259 113.596 23.6591V23.9591C113.596 25.359 113.971 26.439 114.723 27.199C115.475 27.9389 116.424 28.3089 117.571 28.3089Z" fill="black"/>
<path d="M127.401 31.2477V16.368H131.14V31.2477H127.401ZM129.271 14.6281C128.598 14.6281 128.025 14.408 127.549 13.968C127.095 13.5281 126.867 12.948 126.867 12.2281C126.867 11.5081 127.095 10.9281 127.549 10.4881C128.025 10.0481 128.598 9.82812 129.271 9.82812C129.963 9.82812 130.537 10.0481 130.991 10.4881C131.446 10.9281 131.675 11.5081 131.675 12.2281C131.675 12.948 131.446 13.5281 130.991 13.968C130.537 14.408 129.963 14.6281 129.271 14.6281Z" fill="black"/>
<path d="M133.945 37.2487V16.3691H137.624V18.1691H138.158C138.493 17.5892 139.017 17.0791 139.73 16.6391C140.441 16.1792 141.46 15.9492 142.786 15.9492C143.972 15.9492 145.07 16.2492 146.078 16.8491C147.088 17.4292 147.899 18.2891 148.511 19.4291C149.124 20.5691 149.431 21.9491 149.431 23.5691V24.0491C149.431 25.669 149.124 27.0489 148.511 28.1889C147.899 29.3289 147.088 30.1989 146.078 30.7989C145.07 31.3788 143.972 31.6689 142.786 31.6689C141.896 31.6689 141.144 31.5589 140.531 31.3389C139.938 31.1389 139.453 30.8788 139.077 30.5588C138.721 30.2189 138.435 29.8789 138.217 29.5389H137.682V37.2487H133.945ZM141.658 28.3689C142.826 28.3689 143.784 27.999 144.535 27.259C145.307 26.4989 145.693 25.3991 145.693 23.9591V23.6591C145.693 22.2191 145.307 21.1291 144.535 20.3891C143.764 19.6291 142.805 19.2491 141.658 19.2491C140.512 19.2491 139.551 19.6291 138.78 20.3891C138.009 21.1291 137.624 22.2191 137.624 23.6591V23.9591C137.624 25.3991 138.009 26.4989 138.78 27.259C139.551 27.999 140.512 28.3689 141.658 28.3689Z" fill="black"/>
<path d="M157.642 31.6689C155.723 31.6689 154.151 31.2489 152.924 30.4089C151.699 29.5689 150.957 28.3689 150.699 26.809L154.14 25.909C154.279 26.609 154.506 27.1589 154.824 27.559C155.159 27.9589 155.565 28.249 156.04 28.429C156.534 28.589 157.068 28.6689 157.642 28.6689C158.512 28.6689 159.155 28.519 159.569 28.2189C159.985 27.899 160.193 27.5089 160.193 27.0489C160.193 26.5889 159.995 26.239 159.6 25.999C159.203 25.739 158.571 25.529 157.702 25.369L156.87 25.2189C155.841 25.019 154.903 24.749 154.052 24.409C153.201 24.0491 152.519 23.559 152.005 22.939C151.491 22.3191 151.233 21.5191 151.233 20.5392C151.233 19.0591 151.768 17.9292 152.836 17.1491C153.903 16.3492 155.308 15.9492 157.049 15.9492C158.69 15.9492 160.055 16.3191 161.143 17.0592C162.23 17.7992 162.942 18.7691 163.278 19.9692L159.808 21.0491C159.65 20.2892 159.323 19.7491 158.829 19.4291C158.353 19.1091 157.76 18.9491 157.049 18.9491C156.336 18.9491 155.793 19.0792 155.417 19.3391C155.041 19.5792 154.853 19.9191 154.853 20.359C154.853 20.839 155.051 21.1991 155.446 21.4391C155.841 21.659 156.376 21.8291 157.049 21.9491L157.879 22.099C158.987 22.299 159.985 22.5691 160.875 22.9091C161.785 23.2291 162.497 23.699 163.012 24.319C163.545 24.9191 163.813 25.739 163.813 26.779C163.813 28.339 163.249 29.549 162.122 30.4089C161.014 31.2489 159.521 31.6689 157.642 31.6689Z" fill="black"/>
<path d="M171.359 31.487C170.211 31.487 169.203 31.2269 168.332 30.707C167.482 30.167 166.82 29.427 166.344 28.487C165.87 27.547 165.633 26.4671 165.633 25.247V16.3672H169.371V24.947C169.371 26.067 169.638 26.907 170.172 27.467C170.725 28.027 171.507 28.307 172.515 28.307C173.663 28.307 174.553 27.927 175.185 27.167C175.819 26.387 176.135 25.307 176.135 23.9271V16.3672H179.873V31.2469H176.194V29.297H175.661C175.424 29.797 174.977 30.2869 174.326 30.7669C173.673 31.2469 172.684 31.487 171.359 31.487Z" fill="black"/>
<path d="M182.699 31.2486V16.3688H186.378V17.9888H186.912C187.169 17.4888 187.595 17.0589 188.188 16.6989C188.781 16.3188 189.563 16.1289 190.532 16.1289C191.58 16.1289 192.421 16.3389 193.053 16.7588C193.686 17.1589 194.17 17.6888 194.507 18.3489H195.041C195.378 17.7089 195.852 17.1789 196.465 16.7588C197.079 16.3389 197.948 16.1289 199.075 16.1289C199.986 16.1289 200.807 16.3289 201.539 16.7289C202.29 17.1089 202.884 17.6989 203.318 18.4988C203.774 19.2789 204.001 20.2688 204.001 21.4688V31.2486H200.262V21.7388C200.262 20.9188 200.055 20.3089 199.64 19.9088C199.224 19.4889 198.641 19.2789 197.89 19.2789C197.039 19.2789 196.376 19.5588 195.902 20.1188C195.447 20.6588 195.22 21.4388 195.22 22.4587V31.2486H191.481V21.7388C191.481 20.9188 191.274 20.3089 190.858 19.9088C190.442 19.4889 189.86 19.2789 189.107 19.2789C188.257 19.2789 187.594 19.5588 187.12 20.1188C186.664 20.6588 186.438 21.4388 186.438 22.4587V31.2486H182.699Z" fill="black"/>
<path d="M49.446 20.0001C49.446 14.6957 47.3622 9.60861 43.6529 5.85788C39.9437 2.10715 34.9129 6.95581e-07 29.6673 0C24.4217 -6.95579e-07 19.391 2.10715 15.6817 5.85788C11.9725 9.60861 9.88867 14.6957 9.88867 20.0001H16.0696C18.1178 20.0001 19.7151 18.2644 20.4653 16.3372C20.9578 15.072 21.7052 13.9092 22.6745 12.9289C24.5291 11.0536 27.0445 10 29.6673 10C32.2901 10 34.8056 11.0536 36.6602 12.9289C38.5148 14.8043 39.5566 17.3479 39.5566 20.0001H49.446Z" fill="black"/>
<path opacity="0.6" d="M38.0514 27.6536C39.0454 25.2271 39.5571 22.6264 39.5571 20H49.4453C49.4453 31.0457 40.5901 39.9999 29.6666 39.9999C27.956 39.9999 26.2959 39.7804 24.7129 39.3675C25.6086 39.1342 26.489 38.837 27.3473 38.4776C29.747 37.4725 31.9274 35.9993 33.764 34.1421C35.6006 32.2849 37.0576 30.0802 38.0514 27.6536Z" fill="black"/>
<path d="M0 20C-3.71577e-07 22.6265 0.51159 25.2272 1.50556 27.6538C2.49954 30.0803 3.95641 32.2851 5.79304 34.1423C7.62965 35.9993 9.81004 37.4726 12.2097 38.4777C14.6093 39.4828 17.1813 40.0001 19.7787 40.0001C22.376 40.0001 24.9479 39.4828 27.3476 38.4777C29.7473 37.4726 31.9277 35.9993 33.7643 34.1423C35.6009 32.2851 37.0578 30.0803 38.0517 27.6538C39.0457 25.2272 39.5574 22.6265 39.5574 20H33.3764C31.3283 20 29.731 21.7356 28.9808 23.6627C28.9595 23.7176 28.9375 23.7723 28.9152 23.8269C28.4182 25.0401 27.6898 26.1426 26.7714 27.0711C25.8532 27.9997 24.7629 28.7364 23.5631 29.2389C22.3634 29.7415 21.0774 30.0001 19.7787 30.0001C18.48 30.0001 17.194 29.7415 15.9942 29.2389C14.7943 28.7364 13.7042 27.9997 12.7858 27.0711C11.8675 26.1426 11.1391 25.0401 10.6421 23.8269C10.1451 22.6136 9.88933 21.3133 9.88933 20H0Z" fill="black"/>
<path opacity="0.6" d="M0.00195312 20.0001C0.00195312 8.95429 8.85714 0 19.7805 0C21.4908 0 23.1504 0.219493 24.7333 0.632159C21.3368 1.51692 18.2036 3.30743 15.6813 5.85789C11.9721 9.60858 9.88828 14.6957 9.88828 20.0001H0.00195312Z" fill="black"/>
</g>
<defs>
<clipPath id="clip0_1041_28943">
<rect width="204" height="40" fill="white"/>
</clipPath>
</defs>
</svg>
