<svg width="160" height="32" viewBox="0 0 160 32" fill="none" xmlns="http://www.w3.org/2000/svg">
<g opacity="0.5">
<mask id="mask0_1333_16562" style="mask-type:alpha" maskUnits="userSpaceOnUse" x="0" y="0" width="160" height="32">
<g clip-path="url(#clip0_1333_16562)">
<path d="M48.0742 24.2372V7.94922H51.1456V21.445H58.5915V24.2372H48.0742Z" fill="#2F234F"/>
<path d="M65.2217 24.5638C64.0738 24.5638 63.0422 24.3311 62.127 23.8657C61.2117 23.4004 60.4904 22.7256 59.963 21.8414C59.4356 20.9572 59.1719 19.8946 59.1719 18.6536V18.2813C59.1719 17.0403 59.4356 15.9777 59.963 15.0935C60.4904 14.2093 61.2117 13.5345 62.127 13.0691C63.0422 12.6038 64.0738 12.3711 65.2217 12.3711C66.3696 12.3711 67.4012 12.6038 68.3164 13.0691C69.2316 13.5345 69.9529 14.2093 70.4804 15.0935C71.0078 15.9777 71.2715 17.0403 71.2715 18.2813V18.6536C71.2715 19.8946 71.0078 20.9572 70.4804 21.8414C69.9529 22.7256 69.2316 23.4004 68.3164 23.8657C67.4012 24.3311 66.3696 24.5638 65.2217 24.5638ZM65.2217 21.9577C66.1214 21.9577 66.866 21.6707 67.4555 21.0968C68.0449 20.5073 68.3397 19.6696 68.3397 18.5838V18.3511C68.3397 17.2652 68.0449 16.4353 67.4555 15.8613C66.8815 15.2719 66.1369 14.9771 65.2217 14.9771C64.322 14.9771 63.5774 15.2719 62.9879 15.8613C62.3984 16.4353 62.1037 17.2652 62.1037 18.3511V18.5838C62.1037 19.6696 62.3984 20.5073 62.9879 21.0968C63.5774 21.6707 64.322 21.9577 65.2217 21.9577Z" fill="#2F234F"/>
<path d="M72.3711 18.514V18.1417C72.3711 16.9317 72.6115 15.9001 73.0924 15.0469C73.5733 14.1783 74.2093 13.519 75.0004 13.0691C75.8071 12.6038 76.6835 12.3711 77.6298 12.3711C78.6846 12.3711 79.4835 12.5572 80.0264 12.9295C80.5694 13.3018 80.9649 13.6896 81.2131 14.0929H81.632V12.6968H84.5173V26.2856C84.5173 27.0768 84.2846 27.705 83.8192 28.1704C83.3538 28.6513 82.7334 28.8917 81.9577 28.8917H74.2326V26.3322H80.9339C81.3683 26.3322 81.5854 26.0995 81.5854 25.6341V22.6325H81.1666C81.0115 22.8807 80.7943 23.1366 80.5151 23.4004C80.2359 23.6485 79.8636 23.858 79.3982 24.0286C78.9328 24.1992 78.3434 24.2846 77.6298 24.2846C76.6835 24.2846 75.8071 24.0596 75.0004 23.6098C74.2093 23.1444 73.5733 22.4851 73.0924 21.6319C72.6115 20.7633 72.3711 19.7239 72.3711 18.514ZM78.4675 21.725C79.3672 21.725 80.1195 21.438 80.7245 20.8641C81.3295 20.2901 81.632 19.4835 81.632 18.4442V18.2115C81.632 17.1566 81.3295 16.35 80.7245 15.7915C80.135 15.2176 79.3827 14.9306 78.4675 14.9306C77.5677 14.9306 76.8154 15.2176 76.2104 15.7915C75.6054 16.35 75.3029 17.1566 75.3029 18.2115V18.4442C75.3029 19.4835 75.6054 20.2901 76.2104 20.8641C76.8154 21.438 77.5677 21.725 78.4675 21.725Z" fill="#2F234F"/>
<path d="M92.214 24.5638C91.0661 24.5638 90.0345 24.3311 89.1192 23.8657C88.204 23.4004 87.4827 22.7256 86.9553 21.8414C86.4279 20.9572 86.1641 19.8946 86.1641 18.6536V18.2813C86.1641 17.0403 86.4279 15.9777 86.9553 15.0935C87.4827 14.2093 88.204 13.5345 89.1192 13.0691C90.0345 12.6038 91.0661 12.3711 92.214 12.3711C93.3619 12.3711 94.3934 12.6038 95.3087 13.0691C96.2239 13.5345 96.9452 14.2093 97.4727 15.0935C98.0001 15.9777 98.2638 17.0403 98.2638 18.2813V18.6536C98.2638 19.8946 98.0001 20.9572 97.4727 21.8414C96.9452 22.7256 96.2239 23.4004 95.3087 23.8657C94.3934 24.3311 93.3619 24.5638 92.214 24.5638ZM92.214 21.9577C93.1137 21.9577 93.8583 21.6707 94.4477 21.0968C95.0372 20.5073 95.3319 19.6696 95.3319 18.5838V18.3511C95.3319 17.2652 95.0372 16.4353 94.4477 15.8613C93.8738 15.2719 93.1292 14.9771 92.214 14.9771C91.3142 14.9771 90.5697 15.2719 89.9802 15.8613C89.3907 16.4353 89.096 17.2652 89.096 18.3511V18.5838C89.096 19.6696 89.3907 20.5073 89.9802 21.0968C90.5697 21.6707 91.3142 21.9577 92.214 21.9577Z" fill="#2F234F"/>
<path d="M99.9227 24.2387V12.6975H102.855V24.2387H99.9227ZM101.389 11.348C100.861 11.348 100.412 11.1773 100.039 10.836C99.6823 10.4948 99.5039 10.0449 99.5039 9.48648C99.5039 8.92804 99.6823 8.47818 100.039 8.13691C100.412 7.79564 100.861 7.625 101.389 7.625C101.932 7.625 102.382 7.79564 102.738 8.13691C103.095 8.47818 103.274 8.92804 103.274 9.48648C103.274 10.0449 103.095 10.4948 102.738 10.836C102.382 11.1773 101.932 11.348 101.389 11.348Z" fill="#2F234F"/>
<path d="M105.055 28.8917V12.6968H107.94V14.0929H108.359C108.622 13.6431 109.033 13.2475 109.592 12.9062C110.15 12.5495 110.949 12.3711 111.989 12.3711C112.919 12.3711 113.78 12.6038 114.571 13.0691C115.363 13.519 115.999 14.186 116.479 15.0702C116.96 15.9544 117.201 17.0248 117.201 18.2813V18.6536C117.201 19.9101 116.96 20.9804 116.479 21.8646C115.999 22.7488 115.363 23.4236 114.571 23.889C113.78 24.3388 112.919 24.5638 111.989 24.5638C111.291 24.5638 110.701 24.4785 110.22 24.3078C109.755 24.1527 109.375 23.951 109.08 23.7028C108.801 23.4391 108.576 23.1754 108.405 22.9117H107.986V28.8917H105.055ZM111.104 22.0042C112.02 22.0042 112.772 21.7173 113.361 21.1433C113.966 20.5538 114.269 19.7007 114.269 18.5838V18.3511C114.269 17.2342 113.966 16.3888 113.361 15.8148C112.756 15.2253 112.004 14.9306 111.104 14.9306C110.205 14.9306 109.452 15.2253 108.847 15.8148C108.242 16.3888 107.94 17.2342 107.94 18.3511V18.5838C107.94 19.7007 108.242 20.5538 108.847 21.1433C109.452 21.7173 110.205 22.0042 111.104 22.0042Z" fill="#2F234F"/>
<path d="M123.64 24.5638C122.135 24.5638 120.902 24.238 119.94 23.5865C118.979 22.935 118.397 22.0042 118.195 20.7943L120.894 20.0962C121.003 20.6392 121.181 21.0657 121.43 21.376C121.693 21.6862 122.011 21.9112 122.384 22.0508C122.771 22.1749 123.19 22.2369 123.64 22.2369C124.323 22.2369 124.827 22.1206 125.152 21.8879C125.478 21.6397 125.641 21.3372 125.641 20.9804C125.641 20.6236 125.486 20.3522 125.176 20.166C124.865 19.9644 124.369 19.8015 123.687 19.6774L123.035 19.561C122.228 19.4059 121.492 19.1965 120.825 18.9328C120.157 18.6536 119.622 18.2735 119.219 17.7926C118.816 17.3118 118.614 16.6913 118.614 15.9312C118.614 14.7832 119.033 13.9068 119.871 13.3018C120.708 12.6813 121.81 12.3711 123.175 12.3711C124.462 12.3711 125.533 12.658 126.386 13.232C127.239 13.806 127.797 14.5583 128.061 15.4891L125.339 16.3267C125.215 15.7373 124.959 15.3184 124.571 15.0702C124.198 14.822 123.733 14.6979 123.175 14.6979C122.616 14.6979 122.19 14.7988 121.895 15.0004C121.6 15.1866 121.453 15.4503 121.453 15.7915C121.453 16.1638 121.608 16.4431 121.918 16.6292C122.228 16.7998 122.647 16.9317 123.175 17.0248L123.826 17.1411C124.695 17.2962 125.478 17.5057 126.176 17.7694C126.89 18.0176 127.448 18.3821 127.852 18.863C128.27 19.3284 128.48 19.9644 128.48 20.771C128.48 21.981 128.038 22.9195 127.154 23.5865C126.285 24.238 125.114 24.5638 123.64 24.5638Z" fill="#2F234F"/>
<path d="M134.401 24.4227C133.501 24.4227 132.71 24.221 132.027 23.8177C131.36 23.3989 130.841 22.8249 130.468 22.0958C130.096 21.3667 129.91 20.5291 129.91 19.5828V12.6953H132.842V19.3501C132.842 20.2188 133.051 20.8703 133.47 21.3047C133.904 21.739 134.517 21.9562 135.308 21.9562C136.208 21.9562 136.906 21.6615 137.402 21.072C137.899 20.467 138.147 19.6293 138.147 18.559V12.6953H141.079V24.2365H138.193V22.7241H137.775C137.589 23.1119 137.239 23.4919 136.728 23.8642C136.216 24.2365 135.44 24.4227 134.401 24.4227Z" fill="#2F234F"/>
<path d="M143.293 24.239V12.6978H146.178V13.9543H146.597C146.799 13.5665 147.133 13.233 147.598 12.9538C148.063 12.659 148.676 12.5117 149.436 12.5117C150.258 12.5117 150.918 12.6746 151.414 13.0003C151.91 13.3106 152.29 13.7216 152.554 14.2336H152.973C153.237 13.7372 153.609 13.3261 154.09 13.0003C154.571 12.6746 155.253 12.5117 156.137 12.5117C156.851 12.5117 157.495 12.6668 158.069 12.9771C158.658 13.2718 159.124 13.7294 159.465 14.3499C159.822 14.9549 160 15.7227 160 16.6535V24.239H157.068V16.8629C157.068 16.2269 156.905 15.7538 156.58 15.4435C156.254 15.1178 155.796 14.9549 155.207 14.9549C154.54 14.9549 154.02 15.172 153.648 15.6064C153.291 16.0252 153.113 16.6302 153.113 17.4213V24.239H150.181V16.8629C150.181 16.2269 150.018 15.7538 149.692 15.4435C149.366 15.1178 148.909 14.9549 148.319 14.9549C147.652 14.9549 147.132 15.172 146.76 15.6064C146.403 16.0252 146.225 16.6302 146.225 17.4213V24.239H143.293Z" fill="#2F234F"/>
<path d="M38.7812 15.5127C38.7812 11.3985 37.1468 7.45275 34.2376 4.54356C31.3284 1.63437 27.3827 5.39515e-07 23.2685 0C19.1543 -5.39514e-07 15.2086 1.63437 12.2994 4.54356C9.39023 7.45275 7.75586 11.3985 7.75586 15.5127H12.6036C14.21 15.5127 15.4628 14.1665 16.0512 12.6717C16.4375 11.6903 17.0237 10.7884 17.7839 10.0281C19.2385 8.57352 21.2114 7.75634 23.2685 7.75634C25.3256 7.75634 27.2985 8.57352 28.7531 10.0281C30.2077 11.4827 31.0248 13.4556 31.0248 15.5127H38.7812Z" fill="url(#paint0_linear_1333_16562)"/>
<path d="M29.8444 21.4481C30.624 19.566 31.0253 17.5488 31.0253 15.5117H38.7808C38.7808 24.0791 31.8355 31.0243 23.2681 31.0243C21.9264 31.0243 20.6244 30.854 19.3828 30.5338C20.0853 30.3528 20.7758 30.1223 21.449 29.8435C23.3311 29.0639 25.0412 27.9213 26.4817 26.4808C27.9222 25.0403 29.0649 23.3302 29.8444 21.4481Z" fill="#FBCF8E"/>
<path d="M0 15.5117C-2.91433e-07 17.5489 0.401247 19.5661 1.18083 21.4482C1.96042 23.3303 3.10307 25.0404 4.54356 26.4809C5.98404 27.9213 7.69415 29.064 9.57623 29.8436C11.4583 30.6232 13.4755 31.0244 15.5127 31.0244C17.5498 31.0244 19.567 30.6232 21.4491 29.8436C23.3312 29.064 25.0413 27.9213 26.4818 26.4809C27.9223 25.0404 29.0649 23.3303 29.8445 21.4482C30.6241 19.5661 31.0254 17.5489 31.0254 15.5117H26.1776C24.5712 15.5117 23.3184 16.8579 22.73 18.3526C22.7133 18.3952 22.6961 18.4376 22.6786 18.48C22.2888 19.421 21.7175 20.2761 20.9972 20.9963C20.277 21.7165 19.4219 22.2879 18.4809 22.6777C17.5399 23.0675 16.5313 23.2681 15.5127 23.2681C14.4941 23.2681 13.4855 23.0675 12.5445 22.6777C11.6034 22.2879 10.7484 21.7165 10.0281 20.9963C9.30787 20.2761 8.73655 19.421 8.34676 18.48C7.95696 17.5389 7.75634 16.5303 7.75634 15.5117H0Z" fill="url(#paint1_linear_1333_16562)"/>
<path d="M0.00195312 15.5127C0.00195312 6.94524 6.9472 0 15.5146 0C16.856 0 18.1576 0.170246 19.3991 0.490323C16.7352 1.17657 14.2778 2.56535 12.2995 4.54357C9.39029 7.45273 7.75594 11.3985 7.75594 15.5127H0.00195312Z" fill="#73E5E2"/>
</g>
</mask>
<g mask="url(#mask0_1333_16562)">
<rect y="-2" width="1160" height="36" fill="black"/>
</g>
</g>
<defs>
<linearGradient id="paint0_linear_1333_16562" x1="38.7812" y1="7.75634" x2="7.75586" y2="7.75634" gradientUnits="userSpaceOnUse">
<stop stop-color="#73E5E2"/>
<stop offset="1" stop-color="#394F87"/>
</linearGradient>
<linearGradient id="paint1_linear_1333_16562" x1="1.01712e-06" y1="23.2681" x2="31.0254" y2="23.2681" gradientUnits="userSpaceOnUse">
<stop stop-color="#FBDC8E"/>
<stop offset="1" stop-color="#FB958E"/>
</linearGradient>
<clipPath id="clip0_1333_16562">
<rect width="160" height="32" fill="white"/>
</clipPath>
</defs>
</svg>
