<svg width="150" height="36" viewBox="0 0 150 36" fill="none" xmlns="http://www.w3.org/2000/svg">
<g opacity="0.5">
<mask id="mask0_1333_16918" style="mask-type:alpha" maskUnits="userSpaceOnUse" x="0" y="0" width="150" height="36">
<path d="M43.998 25.4228H54.6695V22.2618H47.7909V10.3555H43.998V25.4228Z" fill="#3C2B1F"/>
<path d="M60.9906 23.3131C59.4692 23.3131 58.6763 22.0066 58.6763 20.0468C58.6763 18.087 59.4692 16.7594 60.9906 16.7594C62.512 16.7594 63.3263 18.087 63.3263 20.0468C63.3263 22.0066 62.512 23.3131 60.9906 23.3131ZM61.0121 25.7576C64.5478 25.7576 66.862 23.292 66.862 20.0468C66.862 16.8015 64.5478 14.3359 61.0121 14.3359C57.4978 14.3359 55.1406 16.8015 55.1406 20.0468C55.1406 23.292 57.4978 25.7576 61.0121 25.7576Z" fill="#3C2B1F"/>
<path d="M72.9835 29.1519C74.6121 29.1519 76.0478 28.7937 77.0121 27.9507C77.8906 27.171 78.4692 25.9909 78.4692 24.3683V14.6325H75.1263V15.7915H75.0835C74.4406 14.8854 73.4549 14.3164 71.9978 14.3164C69.2763 14.3164 67.3906 16.5502 67.3906 19.7111C67.3906 23.0196 69.6835 24.8319 72.1478 24.8319C73.4763 24.8319 74.3121 24.3051 74.9549 23.5886H75.0406V24.6633C75.0406 25.9699 74.4192 26.7285 72.9406 26.7285C71.7835 26.7285 71.2049 26.2438 71.0121 25.6748H67.6263C67.9692 27.9297 69.9621 29.1519 72.9835 29.1519ZM72.9621 22.2821C71.6549 22.2821 70.7978 21.2284 70.7978 19.6058C70.7978 17.9621 71.6549 16.9084 72.9621 16.9084C74.4192 16.9084 75.1906 18.1307 75.1906 19.5847C75.1906 21.102 74.4835 22.2821 72.9621 22.2821Z" fill="#3C2B1F"/>
<path d="M85.3422 23.3131C83.8208 23.3131 83.0279 22.0066 83.0279 20.0468C83.0279 18.087 83.8208 16.7594 85.3422 16.7594C86.8636 16.7594 87.6779 18.087 87.6779 20.0468C87.6779 22.0066 86.8636 23.3131 85.3422 23.3131ZM85.3636 25.7576C88.8993 25.7576 91.2132 23.292 91.2132 20.0468C91.2132 16.8015 88.8993 14.3359 85.3636 14.3359C81.8493 14.3359 79.4922 16.8015 79.4922 20.0468C79.4922 23.292 81.8493 25.7576 85.3636 25.7576Z" fill="#3C2B1F"/>
<path d="M92.2344 25.4228H95.7272V14.6333H92.2344V25.4228ZM92.2344 13.1371H95.7272V10.3555H92.2344V13.1371Z" fill="#3C2B1F"/>
<path d="M97.2422 28.9833H100.735V24.3051H100.778C101.464 25.2112 102.471 25.7591 103.885 25.7591C106.756 25.7591 108.664 23.5254 108.664 20.0272C108.664 16.782 106.885 14.3164 103.971 14.3164C102.471 14.3164 101.399 14.9697 100.649 15.939H100.585V14.6325H97.2422V28.9833ZM102.985 23.1039C101.485 23.1039 100.628 21.9027 100.628 20.1537C100.628 18.4046 101.399 17.077 102.921 17.077C104.421 17.077 105.128 18.2992 105.128 20.1537C105.128 21.987 104.314 23.1039 102.985 23.1039Z" fill="#3C2B1F"/>
<path d="M114.351 25.7591C117.223 25.7591 119.344 24.5369 119.344 22.1767C119.344 19.4161 117.073 18.9314 115.144 18.6153C113.751 18.3625 112.508 18.2571 112.508 17.4985C112.508 16.8241 113.173 16.508 114.03 16.508C114.994 16.508 115.658 16.803 115.787 17.7724H119.001C118.83 15.644 117.158 14.3164 114.051 14.3164C111.458 14.3164 109.316 15.4965 109.316 17.7724C109.316 20.3012 111.351 20.8069 113.258 21.123C114.716 21.3759 116.044 21.4813 116.044 22.4506C116.044 23.1461 115.38 23.5254 114.33 23.5254C113.173 23.5254 112.444 22.9986 112.316 21.9238H109.016C109.123 24.3051 111.137 25.7591 114.351 25.7591Z" fill="#3C2B1F"/>
<path d="M124.088 25.7384C125.609 25.7384 126.573 25.1483 127.366 24.0947H127.43V25.4223H130.773V14.6328H127.28V20.6597C127.28 21.9452 126.552 22.8303 125.352 22.8303C124.238 22.8303 123.702 22.177 123.702 20.9969V14.6328H120.23V21.7134C120.23 24.1157 121.559 25.7384 124.088 25.7384Z" fill="#3C2B1F"/>
<path d="M132.293 25.422H135.786V19.374C135.786 18.0885 136.429 17.1824 137.522 17.1824C138.572 17.1824 139.064 17.8567 139.064 19.0157V25.422H142.557V19.374C142.557 18.0885 143.179 17.1824 144.293 17.1824C145.343 17.1824 145.836 17.8567 145.836 19.0157V25.422H149.329V18.4046C149.329 15.9812 148.086 14.3164 145.6 14.3164C144.186 14.3164 143.007 14.9065 142.15 16.213H142.107C141.55 15.054 140.457 14.3164 139.022 14.3164C137.436 14.3164 136.386 15.054 135.7 16.1708H135.636V14.6325H132.293V25.422Z" fill="#3C2B1F"/>
<path d="M22.6872 1.73784L19.1756 0.8125L16.2163 11.6736L13.5446 1.86812L10.0329 2.79347L12.9196 13.3875L5.7297 6.31697L3.15899 8.84504L11.0454 16.6007L1.22415 14.0127L0.283203 17.4661L11.0141 20.2937C10.8913 19.7726 10.8263 19.2296 10.8263 18.6717C10.8263 14.7226 14.0816 11.5212 18.0973 11.5212C22.113 11.5212 25.3684 14.7226 25.3684 18.6717C25.3684 19.226 25.3042 19.7657 25.1829 20.2837L34.9353 22.8535L35.8762 19.4002L25.1026 16.5612L34.9245 13.9731L33.9835 10.5197L23.2104 13.3585L30.4002 6.28794L27.8295 3.75987L20.0525 11.4079L22.6872 1.73784Z" fill="#F97316"/>
<path d="M25.1721 20.3203C24.871 21.5721 24.2354 22.6966 23.3633 23.5975L30.4285 30.5456L32.9992 28.0176L25.1721 20.3203Z" fill="#F97316"/>
<path d="M23.292 23.6719C22.4093 24.5584 21.2939 25.22 20.043 25.561L22.6139 34.9965L26.1255 34.0711L23.292 23.6719Z" fill="#F97316"/>
<path d="M19.9121 25.595C19.3318 25.7417 18.7234 25.8197 18.0966 25.8197C17.425 25.8197 16.7746 25.7301 16.1572 25.5625L13.584 35.0066L17.0956 35.9319L19.9121 25.595Z" fill="#F97316"/>
<path d="M16.0344 25.5264C14.8026 25.1685 13.707 24.4985 12.8423 23.6094L5.75977 30.5745L8.33047 33.1026L16.0344 25.5264Z" fill="#F97316"/>
<path d="M12.7821 23.5492C11.9323 22.6544 11.3133 21.5449 11.0186 20.3125L1.23438 22.8907L2.17531 26.3441L12.7821 23.5492Z" fill="#F97316"/>
</mask>
<g mask="url(#mask0_1333_16918)">
<rect x="-801" width="1160" height="36" fill="black"/>
</g>
</g>
</svg>
