<svg width="150" height="36" viewBox="0 0 150 36" fill="none" xmlns="http://www.w3.org/2000/svg">
<g opacity="0.5">
<mask id="mask0_1333_16740" style="mask-type:alpha" maskUnits="userSpaceOnUse" x="0" y="0" width="150" height="36">
<path d="M45.2461 25.747H55.792V22.586H48.9943V10.6797H45.2461V25.747Z" fill="#2F234F"/>
<path d="M62.039 23.6412C60.5355 23.6412 59.7519 22.3347 59.7519 20.3749C59.7519 18.4151 60.5355 17.0875 62.039 17.0875C63.5425 17.0875 64.3472 18.4151 64.3472 20.3749C64.3472 22.3347 63.5425 23.6412 62.039 23.6412ZM62.0602 26.0857C65.5543 26.0857 67.8413 23.6202 67.8413 20.3749C67.8413 17.1296 65.5543 14.6641 62.0602 14.6641C58.5872 14.6641 56.2578 17.1296 56.2578 20.3749C56.2578 23.6202 58.5872 26.0857 62.0602 26.0857Z" fill="#2F234F"/>
<path d="M73.8903 29.4761C75.4998 29.4761 76.9186 29.1179 77.8715 28.275C78.7398 27.4953 79.3115 26.3152 79.3115 24.6925V14.9567H76.008V16.1157H75.9656C75.3303 15.2096 74.3562 14.6406 72.9162 14.6406C70.2268 14.6406 68.3633 16.8744 68.3633 20.0354C68.3633 23.3438 70.6292 25.1561 73.0645 25.1561C74.3774 25.1561 75.2033 24.6293 75.8386 23.9128H75.9233V24.9876C75.9233 26.2941 75.3092 27.0527 73.848 27.0527C72.7045 27.0527 72.1327 26.568 71.9421 25.9991H68.5962C68.935 28.2539 70.9045 29.4761 73.8903 29.4761ZM73.8692 22.6063C72.5774 22.6063 71.7303 21.5526 71.7303 19.93C71.7303 18.2863 72.5774 17.2326 73.8692 17.2326C75.3092 17.2326 76.0715 18.4549 76.0715 19.9089C76.0715 21.4262 75.3727 22.6063 73.8692 22.6063Z" fill="#2F234F"/>
<path d="M86.1034 23.6412C84.5999 23.6412 83.8164 22.3347 83.8164 20.3749C83.8164 18.4151 84.5999 17.0875 86.1034 17.0875C87.607 17.0875 88.4113 18.4151 88.4113 20.3749C88.4113 22.3347 87.607 23.6412 86.1034 23.6412ZM86.1246 26.0857C89.6184 26.0857 91.9054 23.6202 91.9054 20.3749C91.9054 17.1296 89.6184 14.6641 86.1246 14.6641C82.6517 14.6641 80.3223 17.1296 80.3223 20.3749C80.3223 23.6202 82.6517 26.0857 86.1246 26.0857Z" fill="#2F234F"/>
<path d="M92.9141 25.747H96.3658V14.9575H92.9141V25.747ZM92.9141 13.4613H96.3658V10.6797H92.9141V13.4613Z" fill="#2F234F"/>
<path d="M97.8633 29.3076H101.315V24.6293H101.357C102.035 25.5355 103.03 26.0834 104.428 26.0834C107.266 26.0834 109.15 23.8496 109.15 20.3515C109.15 17.1062 107.393 14.6406 104.513 14.6406C103.03 14.6406 101.972 15.2939 101.23 16.2633H101.167V14.9567H97.8633V29.3076ZM103.539 23.4281C102.056 23.4281 101.209 22.227 101.209 20.4779C101.209 18.7288 101.972 17.4012 103.475 17.4012C104.957 17.4012 105.656 18.6235 105.656 20.4779C105.656 22.3113 104.852 23.4281 103.539 23.4281Z" fill="#2F234F"/>
<path d="M114.769 26.0834C117.607 26.0834 119.703 24.8611 119.703 22.5009C119.703 19.7403 117.458 19.2557 115.553 18.9396C114.176 18.6867 112.948 18.5813 112.948 17.8227C112.948 17.1483 113.604 16.8322 114.451 16.8322C115.404 16.8322 116.061 17.1273 116.188 18.0966H119.364C119.195 15.9682 117.543 14.6406 114.473 14.6406C111.91 14.6406 109.793 15.8207 109.793 18.0966C109.793 20.6254 111.804 21.1312 113.689 21.4473C115.129 21.7001 116.442 21.8055 116.442 22.7749C116.442 23.4703 115.786 23.8496 114.748 23.8496C113.604 23.8496 112.884 23.3228 112.757 22.248H109.496C109.602 24.6293 111.593 26.0834 114.769 26.0834Z" fill="#2F234F"/>
<path d="M124.394 26.0626C125.897 26.0626 126.85 25.4725 127.634 24.4189H127.697V25.7465H131.001V14.957H127.549V20.984C127.549 22.2694 126.829 23.1545 125.643 23.1545C124.542 23.1545 124.013 22.5012 124.013 21.3211V14.957H120.582V22.0376C120.582 24.44 121.895 26.0626 124.394 26.0626Z" fill="#2F234F"/>
<path d="M132.5 25.7462H135.952V19.6982C135.952 18.4127 136.587 17.5066 137.667 17.5066C138.705 17.5066 139.192 18.1809 139.192 19.3399V25.7462H142.644V19.6982C142.644 18.4127 143.258 17.5066 144.359 17.5066C145.396 17.5066 145.884 18.1809 145.884 19.3399V25.7462H149.335V18.7288C149.335 16.3054 148.107 14.6406 145.651 14.6406C144.253 14.6406 143.088 15.2307 142.241 16.5372H142.199C141.648 15.3782 140.568 14.6406 139.149 14.6406C137.582 14.6406 136.545 15.3782 135.867 16.4951H135.804V14.9567H132.5V25.7462Z" fill="#2F234F"/>
<path fill-rule="evenodd" clip-rule="evenodd" d="M17.7369 35.4071C27.4832 35.4071 35.3839 27.5448 35.3839 17.8461C35.3839 8.14747 27.4832 0.285156 17.7369 0.285156C7.99069 0.285156 0.0898438 8.14747 0.0898438 17.8461C0.0898438 27.5448 7.99069 35.4071 17.7369 35.4071ZM20.4607 13.8533C21.9649 12.3563 21.9649 9.92926 20.4607 8.43227C18.9564 6.9353 16.5175 6.9353 15.0131 8.43227C13.5089 9.92926 13.5089 12.3563 15.0131 13.8533L17.7369 16.5637L20.4607 13.8533ZM21.7494 20.5566C23.2537 22.0536 25.6926 22.0536 27.1969 20.5566C28.7012 19.0596 28.7012 16.6326 27.1969 15.1356C25.6926 13.6387 23.2537 13.6387 21.7494 15.1356L19.0256 17.8462L21.7494 20.5566ZM20.4607 27.26C21.9649 25.763 21.9649 23.336 20.4607 21.839L17.7369 19.1286L15.0131 21.839C13.5089 23.336 13.5089 25.763 15.0131 27.26C16.5175 28.757 18.9564 28.757 20.4607 27.26ZM8.27687 20.5566C6.7726 19.0596 6.7726 16.6326 8.27687 15.1356C9.78122 13.6387 12.2201 13.6387 13.7245 15.1356L16.4482 17.8462L13.7245 20.5566C12.2201 22.0536 9.78122 22.0536 8.27687 20.5566Z" fill="#45D2B0"/>
</mask>
<g mask="url(#mask0_1333_16740)">
<rect x="-403" width="1160" height="36" fill="black"/>
</g>
</g>
</svg>
