<svg width="145" height="36" viewBox="0 0 145 36" fill="none" xmlns="http://www.w3.org/2000/svg">
<g opacity="0.5">
<mask id="mask0_1333_16651" style="mask-type:alpha" maskUnits="userSpaceOnUse" x="0" y="0" width="145" height="36">
<path d="M42.2246 25.2822H52.6021V22.1212H45.913V10.2148H42.2246V25.2822Z" fill="#2F234F"/>
<path d="M58.7514 23.1764C57.2719 23.1764 56.5008 21.8699 56.5008 19.91C56.5008 17.9502 57.2719 16.6226 58.7514 16.6226C60.2309 16.6226 61.0228 17.9502 61.0228 19.91C61.0228 21.8699 60.2309 23.1764 58.7514 23.1764ZM58.7722 25.6209C62.2105 25.6209 64.4611 23.1553 64.4611 19.91C64.4611 16.6648 62.2105 14.1992 58.7722 14.1992C55.3547 14.1992 53.0625 16.6648 53.0625 19.91C53.0625 23.1553 55.3547 25.6209 58.7722 25.6209Z" fill="#2F234F"/>
<path d="M70.4115 29.0113C71.9952 29.0113 73.3913 28.653 74.3291 27.8101C75.1834 27.0304 75.7461 25.8503 75.7461 24.2277V14.4919H72.4953V15.6509H72.4536C71.8285 14.7448 70.8699 14.1758 69.4529 14.1758C66.8064 14.1758 64.9727 16.4095 64.9727 19.5705C64.9727 22.879 67.2024 24.6913 69.5988 24.6913C70.8907 24.6913 71.7034 24.1645 72.3286 23.448H72.4119V24.5227C72.4119 25.8292 71.8076 26.5879 70.3698 26.5879C69.2445 26.5879 68.6819 26.1032 68.4943 25.5342H65.2019C65.5353 27.789 67.4733 29.0113 70.4115 29.0113ZM70.3906 22.1414C69.1195 22.1414 68.286 21.0878 68.286 19.4651C68.286 17.8214 69.1195 16.7678 70.3906 16.7678C71.8076 16.7678 72.5578 17.99 72.5578 19.4441C72.5578 20.9613 71.8701 22.1414 70.3906 22.1414Z" fill="#2F234F"/>
<path d="M82.4291 23.1764C80.9496 23.1764 80.1786 21.8699 80.1786 19.91C80.1786 17.9502 80.9496 16.6226 82.4291 16.6226C83.9086 16.6226 84.7005 17.9502 84.7005 19.91C84.7005 21.8699 83.9086 23.1764 82.4291 23.1764ZM82.4499 25.6209C85.8883 25.6209 88.1391 23.1553 88.1391 19.91C88.1391 16.6648 85.8883 14.1992 82.4499 14.1992C79.0325 14.1992 76.7402 16.6648 76.7402 19.91C76.7402 23.1553 79.0325 25.6209 82.4499 25.6209Z" fill="#2F234F"/>
<path d="M89.1328 25.2822H92.5295V14.4927H89.1328V25.2822ZM89.1328 12.9965H92.5295V10.2148H89.1328V12.9965Z" fill="#2F234F"/>
<path d="M94.002 28.8427H97.3986V24.1645H97.4403C98.1071 25.0706 99.0865 25.6185 100.462 25.6185C103.254 25.6185 105.109 23.3848 105.109 19.8866C105.109 16.6413 103.379 14.1758 100.545 14.1758C99.0865 14.1758 98.0446 14.8291 97.3152 15.7984H97.2527V14.4919H94.002V28.8427ZM99.5866 22.9633C98.1279 22.9633 97.2944 21.7621 97.2944 20.0131C97.2944 18.264 98.0446 16.9364 99.5241 16.9364C100.983 16.9364 101.67 18.1586 101.67 20.0131C101.67 21.8464 100.879 22.9633 99.5866 22.9633Z" fill="#2F234F"/>
<path d="M110.638 25.6185C113.43 25.6185 115.493 24.3963 115.493 22.0361C115.493 19.2755 113.284 18.7908 111.409 18.4747C110.054 18.2218 108.846 18.1165 108.846 17.3578C108.846 16.6835 109.492 16.3674 110.325 16.3674C111.263 16.3674 111.909 16.6624 112.034 17.6318H115.16C114.993 15.5034 113.368 14.1758 110.346 14.1758C107.825 14.1758 105.741 15.3559 105.741 17.6318C105.741 20.1606 107.721 20.6663 109.575 20.9824C110.992 21.2353 112.284 21.3407 112.284 22.31C112.284 23.0054 111.638 23.3848 110.617 23.3848C109.492 23.3848 108.783 22.8579 108.658 21.7832H105.449C105.553 24.1645 107.512 25.6185 110.638 25.6185Z" fill="#2F234F"/>
<path d="M120.106 25.5978C121.586 25.5978 122.524 25.0077 123.295 23.954H123.357V25.2817H126.608V14.4922H123.211V20.5191C123.211 21.8046 122.503 22.6897 121.336 22.6897C120.252 22.6897 119.731 22.0364 119.731 20.8563V14.4922H116.355V21.5728C116.355 23.9751 117.647 25.5978 120.106 25.5978Z" fill="#2F234F"/>
<path d="M128.086 25.2813H131.483V19.2333C131.483 17.9479 132.108 17.0417 133.17 17.0417C134.192 17.0417 134.671 17.7161 134.671 18.8751V25.2813H138.068V19.2333C138.068 17.9479 138.672 17.0417 139.755 17.0417C140.777 17.0417 141.256 17.7161 141.256 18.8751V25.2813H144.652V18.264C144.652 15.8406 143.444 14.1758 141.027 14.1758C139.651 14.1758 138.505 14.7658 137.672 16.0724H137.63C137.088 14.9133 136.025 14.1758 134.629 14.1758C133.087 14.1758 132.066 14.9133 131.399 16.0302H131.337V14.4919H128.086V25.2813Z" fill="#2F234F"/>
<path fill-rule="evenodd" clip-rule="evenodd" d="M7.51391 3.41691C6.27172 4.29528 5.14845 5.33379 4.17335 6.50284C8.15807 6.12873 13.2205 6.73961 19.098 9.71148C25.3743 12.8849 30.4283 12.9922 33.9456 12.3061C33.6264 11.3289 33.2246 10.3898 32.7487 9.49697C28.7223 9.92642 23.5605 9.35798 17.5448 6.31633C13.7248 4.3848 10.3575 3.58913 7.51391 3.41691ZM30.3967 6.11145C27.217 2.51878 22.5962 0.257812 17.4531 0.257812C15.9428 0.257812 14.4773 0.452833 13.0803 0.819307C14.9724 1.3414 16.9824 2.10521 19.098 3.17492C23.5023 5.40188 27.3048 6.11892 30.3967 6.11145ZM34.6976 15.7361C30.4483 16.5847 24.5805 16.4104 17.5448 12.8529C10.9672 9.527 5.73198 9.56888 2.20116 10.3624C2.01891 10.4033 1.84095 10.4463 1.66729 10.4911C1.20502 11.5078 0.836016 12.5769 0.571255 13.6871C0.854034 13.6107 1.14624 13.5381 1.44773 13.4703C5.73123 12.5077 11.7835 12.5495 19.098 16.248C25.6757 19.5739 30.9109 19.532 34.4417 18.7385C34.5627 18.7114 34.6819 18.6833 34.7991 18.6543C34.812 18.3775 34.8184 18.0989 34.8184 17.8188C34.8184 17.1141 34.7774 16.4192 34.6976 15.7361ZM34.2321 22.3603C30.0241 23.1043 24.3272 22.8187 17.5448 19.3894C10.9672 16.0635 5.73198 16.1054 2.20116 16.8989C1.41742 17.075 0.71238 17.2895 0.0904346 17.5159C0.0887389 17.6166 0.0878906 17.7176 0.0878906 17.8188C0.0878906 27.5174 7.86258 35.3797 17.4531 35.3797C25.4907 35.3797 32.2529 29.8576 34.2321 22.3603Z" fill="#7F57F1"/>
</mask>
<g mask="url(#mask0_1333_16651)">
<rect x="-209" width="1160" height="36" fill="black"/>
</g>
</g>
</svg>
