<svg width="64" height="64" viewBox="0 0 64 64" fill="none" xmlns="http://www.w3.org/2000/svg">
<circle cx="32" cy="32" r="32" fill="#D8A4FF"/>
<path d="M44.5 41H43.5V21C43.5 20.7348 43.3946 20.4804 43.2071 20.2929C43.0196 20.1054 42.7652 20 42.5 20H35.5C35.2348 20 34.9804 20.1054 34.7929 20.2929C34.6054 20.4804 34.5 20.7348 34.5 21V26H28.5C28.2348 26 27.9804 26.1054 27.7929 26.2929C27.6054 26.4804 27.5 26.7348 27.5 27V32H21.5C21.2348 32 20.9804 32.1054 20.7929 32.2929C20.6054 32.4804 20.5 32.7348 20.5 33V41H19.5C19.2348 41 18.9804 41.1054 18.7929 41.2929C18.6054 41.4804 18.5 41.7348 18.5 42C18.5 42.2652 18.6054 42.5196 18.7929 42.7071C18.9804 42.8946 19.2348 43 19.5 43H44.5C44.7652 43 45.0196 42.8946 45.2071 42.7071C45.3946 42.5196 45.5 42.2652 45.5 42C45.5 41.7348 45.3946 41.4804 45.2071 41.2929C45.0196 41.1054 44.7652 41 44.5 41ZM29.5 28H34.5V41H29.5V28ZM22.5 34H27.5V41H22.5V34Z" fill="black"/>
</svg>
