<svg width="150" height="36" viewBox="0 0 150 36" fill="none" xmlns="http://www.w3.org/2000/svg">
<g opacity="0.5">
<mask id="mask0_1333_16829" style="mask-type:alpha" maskUnits="userSpaceOnUse" x="0" y="0" width="150" height="36">
<path d="M45.7578 24.7079H56.3037V21.547H49.506V9.64062H45.7578V24.7079Z" fill="#340E0E"/>
<path d="M62.5527 22.5983C61.0491 22.5983 60.2656 21.2917 60.2656 19.3319C60.2656 17.3721 61.0491 16.0445 62.5527 16.0445C64.0562 16.0445 64.8609 17.3721 64.8609 19.3319C64.8609 21.2917 64.0562 22.5983 62.5527 22.5983ZM62.5738 25.0428C66.0679 25.0428 68.355 22.5772 68.355 19.3319C68.355 16.0867 66.0679 13.6211 62.5738 13.6211C59.1009 13.6211 56.7715 16.0867 56.7715 19.3319C56.7715 22.5772 59.1009 25.0428 62.5738 25.0428Z" fill="#340E0E"/>
<path d="M74.4021 28.4371C76.0115 28.4371 77.4303 28.0788 78.3832 27.2359C79.2515 26.4562 79.8232 25.2761 79.8232 23.6535V13.9177H76.5197V15.0767H76.4774C75.8421 14.1705 74.8679 13.6016 73.4279 13.6016C70.7385 13.6016 68.875 15.8353 68.875 18.9963C68.875 22.3048 71.1409 24.1171 73.5762 24.1171C74.8891 24.1171 75.715 23.5902 76.3503 22.8738H76.435V23.9485C76.435 25.255 75.8209 26.0137 74.3597 26.0137C73.2162 26.0137 72.6444 25.529 72.4538 24.96H69.1079C69.4468 27.2148 71.4162 28.4371 74.4021 28.4371ZM74.3809 21.5672C73.0891 21.5672 72.2421 20.5136 72.2421 18.8909C72.2421 17.2472 73.0891 16.1936 74.3809 16.1936C75.8209 16.1936 76.5832 17.4158 76.5832 18.8699C76.5832 20.3871 75.8844 21.5672 74.3809 21.5672Z" fill="#340E0E"/>
<path d="M86.6171 22.5983C85.1136 22.5983 84.3301 21.2917 84.3301 19.3319C84.3301 17.3721 85.1136 16.0445 86.6171 16.0445C88.1206 16.0445 88.9254 17.3721 88.9254 19.3319C88.9254 21.2917 88.1206 22.5983 86.6171 22.5983ZM86.6383 25.0428C90.1324 25.0428 92.4195 22.5772 92.4195 19.3319C92.4195 16.0867 90.1324 13.6211 86.6383 13.6211C83.1654 13.6211 80.8359 16.0867 80.8359 19.3319C80.8359 22.5772 83.1654 25.0428 86.6383 25.0428Z" fill="#340E0E"/>
<path d="M93.4258 24.7079H96.8775V13.9185H93.4258V24.7079ZM93.4258 12.4223H96.8775V9.64062H93.4258V12.4223Z" fill="#340E0E"/>
<path d="M98.377 28.2685H101.829V23.5902H101.871C102.549 24.4964 103.544 25.0443 104.942 25.0443C107.779 25.0443 109.664 22.8105 109.664 19.3124C109.664 16.0671 107.906 13.6016 105.026 13.6016C103.544 13.6016 102.485 14.2548 101.744 15.2242H101.68V13.9177H98.377V28.2685ZM104.052 22.3891C102.57 22.3891 101.723 21.1879 101.723 19.4388C101.723 17.6898 102.485 16.3621 103.989 16.3621C105.471 16.3621 106.17 17.5844 106.17 19.4388C106.17 21.2722 105.365 22.3891 104.052 22.3891Z" fill="#340E0E"/>
<path d="M115.285 25.0443C118.122 25.0443 120.219 23.8221 120.219 21.4619C120.219 18.7013 117.974 18.2166 116.068 17.9005C114.692 17.6476 113.463 17.5422 113.463 16.7836C113.463 16.1093 114.12 15.7932 114.967 15.7932C115.92 15.7932 116.576 16.0882 116.703 17.0576H119.88C119.711 14.9292 118.059 13.6016 114.988 13.6016C112.426 13.6016 110.308 14.7817 110.308 17.0576C110.308 19.5863 112.32 20.0921 114.205 20.4082C115.645 20.6611 116.958 20.7664 116.958 21.7358C116.958 22.4312 116.301 22.8105 115.263 22.8105C114.12 22.8105 113.4 22.2837 113.273 21.209H110.012C110.118 23.5902 112.108 25.0443 115.285 25.0443Z" fill="#340E0E"/>
<path d="M124.906 25.0235C126.409 25.0235 127.362 24.4335 128.146 23.3798H128.209V24.7074H131.513V13.918H128.061V19.9449C128.061 21.2304 127.341 22.1154 126.155 22.1154C125.054 22.1154 124.524 21.4622 124.524 20.2821V13.918H121.094V20.9986C121.094 23.4009 122.407 25.0235 124.906 25.0235Z" fill="#340E0E"/>
<path d="M133.016 24.7071H136.467V18.6591C136.467 17.3737 137.103 16.4675 138.183 16.4675C139.22 16.4675 139.707 17.1419 139.707 18.3009V24.7071H143.159V18.6591C143.159 17.3737 143.773 16.4675 144.874 16.4675C145.912 16.4675 146.399 17.1419 146.399 18.3009V24.7071H149.851V17.6898C149.851 15.2663 148.623 13.6016 146.166 13.6016C144.769 13.6016 143.604 14.1916 142.757 15.4981H142.714C142.164 14.3391 141.084 13.6016 139.665 13.6016C138.098 13.6016 137.06 14.3391 136.383 15.456H136.319V13.9177H133.016V24.7071Z" fill="#340E0E"/>
<path fill-rule="evenodd" clip-rule="evenodd" d="M18.2506 35.243C27.9968 35.243 35.8976 27.3807 35.8976 17.682C35.8976 7.98341 27.9968 0.121094 18.2506 0.121094C8.50436 0.121094 0.603516 7.98341 0.603516 17.682C0.603516 27.3807 8.50436 35.243 18.2506 35.243ZM23.7559 8.30173C24.0238 7.3545 23.1001 6.79438 22.2565 7.39248L10.4798 15.7412C9.56488 16.3898 9.70879 17.682 10.696 17.682H13.7971V17.6582H19.841L14.9164 19.3873L12.7453 27.0624C12.4774 28.0096 13.401 28.5698 14.2447 27.9716L26.0214 19.623C26.9363 18.9744 26.7923 17.682 25.8052 17.682H21.1024L23.7559 8.30173Z" fill="#F15757"/>
</mask>
<g mask="url(#mask0_1333_16829)">
<rect x="-602" width="1160" height="36" fill="black"/>
</g>
</g>
</svg>
