<svg width="118" height="28" viewBox="0 0 118 28" fill="none" xmlns="http://www.w3.org/2000/svg">
<path d="M9.98796 28C12.0219 28 13.7773 27.5857 15.2543 26.7572C16.7556 25.9286 17.9178 24.7589 18.741 23.248C19.5643 21.7128 19.9759 19.9095 19.9759 17.8381V0.877284H14.3463V10.8564H14.2374C13.6805 10.0766 12.9299 9.46736 11.9855 9.02872C11.0654 8.59008 10.0485 8.37076 8.93468 8.37076C7.19133 8.37076 5.64168 8.77285 4.28574 9.57702C2.95401 10.3812 1.90074 11.5022 1.12591 12.9399C0.375305 14.3533 0 15.9983 0 17.8747C0 19.8242 0.399518 21.5666 1.19855 23.1018C1.99759 24.6371 3.13561 25.8433 4.61262 26.7206C6.11384 27.5735 7.90562 28 9.98796 28ZM9.98796 23.1018C8.70465 23.1018 7.67559 22.6388 6.90077 21.7128C6.12595 20.7624 5.73853 19.5927 5.73853 18.2037C5.73853 16.839 6.12595 15.6936 6.90077 14.7676C7.67559 13.8172 8.70465 13.342 9.98796 13.342C11.2955 13.342 12.3245 13.8172 13.0751 14.7676C13.85 15.6936 14.2374 16.839 14.2374 18.2037C14.2374 19.5927 13.85 20.7624 13.0751 21.7128C12.3245 22.6388 11.2955 23.1018 9.98796 23.1018Z" fill="white"/>
<path d="M33.3305 28C31.4177 28 29.7591 27.6345 28.3547 26.9034C26.9746 26.148 25.9092 25.1366 25.1586 23.8695C24.408 22.5779 24.0327 21.1523 24.0327 19.5927V8.8094H29.6622V19.4465C29.6622 20.4212 30.0012 21.2742 30.6792 22.0052C31.3814 22.7119 32.2531 23.0653 33.2942 23.0653C34.3112 23.0653 35.1586 22.7119 35.8366 22.0052C36.5388 21.2742 36.8899 20.4212 36.8899 19.4465V8.8094H42.5195V19.5927C42.5195 21.1523 42.1563 22.5779 41.4299 23.8695C40.7035 25.1366 39.6502 26.148 38.27 26.9034C36.8899 27.6345 35.2434 28 33.3305 28Z" fill="white"/>
<path d="M46.7326 27.5614V0.877284H52.3621V27.5614H46.7326Z" fill="white"/>
<path d="M64.0038 28C62.3331 28 60.8682 27.5735 59.6091 26.7206C58.3742 25.8677 57.4057 24.7224 56.7035 23.2846C56.0013 21.8225 55.6502 20.1775 55.6502 18.3499C55.6502 16.4491 56.0497 14.7554 56.8488 13.2689C57.672 11.758 58.8343 10.564 60.3355 9.68668C61.8609 8.8094 63.6648 8.37076 65.7471 8.37076C67.8295 8.37076 69.597 8.8094 71.0498 9.68668C72.5268 10.564 73.6527 11.7459 74.4276 13.2324C75.2266 14.7189 75.6261 16.3882 75.6261 18.2402V27.5614H70.1055V24.564H69.9602C69.4275 25.5387 68.689 26.3551 67.7447 27.0131C66.8004 27.671 65.5534 28 64.0038 28ZM65.6745 23.1018C66.9578 23.1018 67.9747 22.6388 68.7253 21.7128C69.5002 20.7624 69.8876 19.5805 69.8876 18.1671C69.8876 16.8268 69.5002 15.6936 68.7253 14.7676C67.9747 13.8172 66.9578 13.342 65.6745 13.342C64.3428 13.342 63.2895 13.8172 62.5147 14.7676C61.764 15.6936 61.3887 16.8268 61.3887 18.1671C61.3887 19.5561 61.764 20.7258 62.5147 21.6762C63.2895 22.6266 64.3428 23.1018 65.6745 23.1018Z" fill="white"/>
<path d="M79.7893 27.5614V0.877284H85.4189V27.5614H79.7893Z" fill="white"/>
<path d="M89.5786 27.5614V8.8094H95.2445V27.5614H89.5786ZM92.4116 6.68929C91.5157 6.68929 90.7408 6.36031 90.0871 5.70235C89.4333 5.04439 89.1065 4.26458 89.1065 3.36292C89.1065 2.4369 89.4333 1.64491 90.0871 0.986943C90.7408 0.328981 91.5157 0 92.4116 0C93.3317 0 94.1065 0.328981 94.736 0.986943C95.3898 1.64491 95.7167 2.4369 95.7167 3.36292C95.7167 4.26458 95.3898 5.04439 94.736 5.70235C94.1065 6.36031 93.3317 6.68929 92.4116 6.68929Z" fill="white"/>
<path d="M97.9878 27.5614L103.654 19.3734C102.177 18.6179 101.051 17.6188 100.276 16.376C99.5011 15.1088 99.1137 13.6832 99.1137 12.0992V8.8094H104.743V11.8068C104.743 12.6841 104.985 13.4517 105.47 14.1097C105.978 14.7433 106.608 15.1697 107.358 15.389L111.644 8.8094H118L112.625 16.6684C114.271 17.3507 115.53 18.3621 116.402 19.7024C117.298 21.0426 117.746 22.5535 117.746 24.235V27.5614H112.08V24.4178C112.08 23.443 111.753 22.6144 111.099 21.9321C110.445 21.2254 109.671 20.8233 108.775 20.7258L104.307 27.5614H97.9878Z" fill="white"/>
</svg>
