<svg width="20" height="20" viewBox="0 0 20 20" fill="none" xmlns="http://www.w3.org/2000/svg">
<path d="M10.0013 1.66797C12.2655 1.66797 12.548 1.6763 13.4363 1.71797C14.3238 1.75964 14.928 1.8988 15.4596 2.10547C16.0096 2.31714 16.473 2.6038 16.9363 3.0663C17.36 3.48288 17.6879 3.98679 17.8971 4.54297C18.103 5.0738 18.243 5.6788 18.2846 6.5663C18.3238 7.45464 18.3346 7.73714 18.3346 10.0013C18.3346 12.2655 18.3263 12.548 18.2846 13.4363C18.243 14.3238 18.103 14.928 17.8971 15.4596C17.6885 16.0161 17.3606 16.5202 16.9363 16.9363C16.5196 17.3599 16.0157 17.6878 15.4596 17.8971C14.9288 18.103 14.3238 18.243 13.4363 18.2846C12.548 18.3238 12.2655 18.3346 10.0013 18.3346C7.73714 18.3346 7.45464 18.3263 6.5663 18.2846C5.6788 18.243 5.07464 18.103 4.54297 17.8971C3.98657 17.6884 3.48257 17.3604 3.0663 16.9363C2.64247 16.5198 2.31458 16.0159 2.10547 15.4596C1.8988 14.9288 1.75964 14.3238 1.71797 13.4363C1.6788 12.548 1.66797 12.2655 1.66797 10.0013C1.66797 7.73714 1.6763 7.45464 1.71797 6.5663C1.75964 5.67797 1.8988 5.07464 2.10547 4.54297C2.314 3.98645 2.64197 3.4824 3.0663 3.0663C3.48269 2.64233 3.98666 2.31441 4.54297 2.10547C5.07464 1.8988 5.67797 1.75964 6.5663 1.71797C7.45464 1.6788 7.73714 1.66797 10.0013 1.66797ZM10.0013 5.83464C8.89623 5.83464 7.83643 6.27362 7.05502 7.05502C6.27362 7.83643 5.83464 8.89623 5.83464 10.0013C5.83464 11.1064 6.27362 12.1662 7.05502 12.9476C7.83643 13.729 8.89623 14.168 10.0013 14.168C11.1064 14.168 12.1662 13.729 12.9476 12.9476C13.729 12.1662 14.168 11.1064 14.168 10.0013C14.168 8.89623 13.729 7.83643 12.9476 7.05502C12.1662 6.27362 11.1064 5.83464 10.0013 5.83464ZM15.418 5.6263C15.418 5.35004 15.3082 5.08508 15.1129 4.88973C14.9175 4.69438 14.6526 4.58464 14.3763 4.58464C14.1 4.58464 13.8351 4.69438 13.6397 4.88973C13.4444 5.08508 13.3346 5.35004 13.3346 5.6263C13.3346 5.90257 13.4444 6.16752 13.6397 6.36287C13.8351 6.55822 14.1 6.66797 14.3763 6.66797C14.6526 6.66797 14.9175 6.55822 15.1129 6.36287C15.3082 6.16752 15.418 5.90257 15.418 5.6263ZM10.0013 7.5013C10.6643 7.5013 11.3002 7.76469 11.7691 8.23354C12.2379 8.70238 12.5013 9.33826 12.5013 10.0013C12.5013 10.6643 12.2379 11.3002 11.7691 11.7691C11.3002 12.2379 10.6643 12.5013 10.0013 12.5013C9.33826 12.5013 8.70238 12.2379 8.23354 11.7691C7.76469 11.3002 7.5013 10.6643 7.5013 10.0013C7.5013 9.33826 7.76469 8.70238 8.23354 8.23354C8.70238 7.76469 9.33826 7.5013 10.0013 7.5013Z" fill="white"/>
</svg>
