<svg width="20" height="20" viewBox="0 0 20 20" fill="none" xmlns="http://www.w3.org/2000/svg">
<path d="M5.78255 4.1675C5.78233 4.60953 5.60652 5.03336 5.29381 5.34577C4.98109 5.65817 4.55708 5.83355 4.11505 5.83333C3.67302 5.83311 3.24919 5.65731 2.93678 5.34459C2.62438 5.03187 2.449 4.60786 2.44922 4.16583C2.44944 3.72381 2.62525 3.29997 2.93796 2.98757C3.25068 2.67516 3.67469 2.49978 4.11672 2.5C4.55875 2.50022 4.98258 2.67603 5.29499 2.98874C5.60739 3.30146 5.78277 3.72547 5.78255 4.1675ZM5.83255 7.0675H2.49922V17.5008H5.83255V7.0675ZM11.0992 7.0675H7.78255V17.5008H11.0659V12.0258C11.0659 8.97583 15.0409 8.6925 15.0409 12.0258V17.5008H18.3326V10.8925C18.3326 5.75083 12.4492 5.9425 11.0659 8.4675L11.0992 7.0675Z" fill="white"/>
</svg>
