<svg width="40" height="40" viewBox="0 0 40 40" fill="none" xmlns="http://www.w3.org/2000/svg">
<path d="M32.5 14.375H26.875V10C26.875 8.17664 26.1507 6.42795 24.8614 5.13864C23.572 3.84933 21.8234 3.125 20 3.125C18.1766 3.125 16.428 3.84933 15.1386 5.13864C13.8493 6.42795 13.125 8.17664 13.125 10V14.375H7.5C6.83719 14.3758 6.20175 14.6394 5.73307 15.1081C5.26439 15.5767 5.00076 16.2122 5 16.875V34.375C5.00076 35.0378 5.26439 35.6733 5.73307 36.1419C6.20175 36.6106 6.83719 36.8742 7.5 36.875H32.5C33.1628 36.8742 33.7983 36.6106 34.2669 36.1419C34.7356 35.6733 34.9992 35.0378 35 34.375V16.875C34.9992 16.2122 34.7356 15.5767 34.2669 15.1081C33.7983 14.6394 33.1628 14.3758 32.5 14.375ZM19.9991 27.5C19.6282 27.5 19.2657 27.39 18.9574 27.184C18.649 26.978 18.4087 26.6851 18.2668 26.3425C18.1249 25.9999 18.0878 25.6229 18.1601 25.2592C18.2325 24.8955 18.411 24.5614 18.6733 24.2992C18.9355 24.037 19.2696 23.8584 19.6333 23.786C19.997 23.7137 20.374 23.7508 20.7166 23.8927C21.0592 24.0346 21.3521 24.275 21.5581 24.5833C21.7641 24.8916 21.8741 25.2542 21.8741 25.625C21.8741 25.8712 21.8256 26.115 21.7314 26.3425C21.6371 26.57 21.499 26.7767 21.3249 26.9508C21.1508 27.1249 20.9441 27.263 20.7166 27.3573C20.4891 27.4515 20.2453 27.5 19.9991 27.5ZM24.375 14.375H15.625V10C15.625 8.83968 16.0859 7.72688 16.9064 6.90641C17.7269 6.08594 18.8397 5.625 20 5.625C21.1603 5.625 22.2731 6.08594 23.0936 6.90641C23.9141 7.72688 24.375 8.83968 24.375 10V14.375Z" fill="black"/>
</svg>
