<svg width="40" height="40" viewBox="0 0 40 40" fill="none" xmlns="http://www.w3.org/2000/svg">
<path d="M20 3.75C16.7861 3.75 13.6443 4.70305 10.972 6.48862C8.29969 8.27419 6.21689 10.8121 4.98696 13.7814C3.75704 16.7507 3.43524 20.018 4.06225 23.1702C4.68926 26.3224 6.23692 29.2179 8.50952 31.4905C10.7821 33.7631 13.6776 35.3107 16.8298 35.9378C19.982 36.5648 23.2493 36.243 26.2186 35.013C29.1879 33.7831 31.7258 31.7003 33.5114 29.028C35.297 26.3557 36.25 23.2139 36.25 20C36.2451 15.6917 34.5315 11.5613 31.4851 8.5149C28.4387 5.46849 24.3083 3.75488 20 3.75ZM21.875 27.5H21.25V28.75C21.25 29.0815 21.1183 29.3995 20.8839 29.6339C20.6495 29.8683 20.3315 30 20 30C19.6685 30 19.3505 29.8683 19.1161 29.6339C18.8817 29.3995 18.75 29.0815 18.75 28.75V27.5H16.25C15.9185 27.5 15.6005 27.3683 15.3661 27.1339C15.1317 26.8995 15 26.5815 15 26.25C15 25.9185 15.1317 25.6005 15.3661 25.3661C15.6005 25.1317 15.9185 25 16.25 25H21.875C22.3723 25 22.8492 24.8025 23.2008 24.4508C23.5525 24.0992 23.75 23.6223 23.75 23.125C23.75 22.6277 23.5525 22.1508 23.2008 21.7992C22.8492 21.4475 22.3723 21.25 21.875 21.25H18.125C16.9647 21.25 15.8519 20.7891 15.0314 19.9686C14.2109 19.1481 13.75 18.0353 13.75 16.875C13.75 15.7147 14.2109 14.6019 15.0314 13.7814C15.8519 12.9609 16.9647 12.5 18.125 12.5H18.75V11.25C18.75 10.9185 18.8817 10.6005 19.1161 10.3661C19.3505 10.1317 19.6685 10 20 10C20.3315 10 20.6495 10.1317 20.8839 10.3661C21.1183 10.6005 21.25 10.9185 21.25 11.25V12.5H23.75C24.0815 12.5 24.3995 12.6317 24.6339 12.8661C24.8683 13.1005 25 13.4185 25 13.75C25 14.0815 24.8683 14.3995 24.6339 14.6339C24.3995 14.8683 24.0815 15 23.75 15H18.125C17.6277 15 17.1508 15.1975 16.7992 15.5492C16.4475 15.9008 16.25 16.3777 16.25 16.875C16.25 17.3723 16.4475 17.8492 16.7992 18.2008C17.1508 18.5525 17.6277 18.75 18.125 18.75H21.875C23.0353 18.75 24.1481 19.2109 24.9686 20.0314C25.7891 20.8519 26.25 21.9647 26.25 23.125C26.25 24.2853 25.7891 25.3981 24.9686 26.2186C24.1481 27.0391 23.0353 27.5 21.875 27.5Z" fill="black"/>
</svg>
