<svg width="40" height="40" viewBox="0 0 40 40" fill="none" xmlns="http://www.w3.org/2000/svg">
<path d="M32.5 5H28.75V3.75C28.75 3.41848 28.6183 3.10054 28.3839 2.86612C28.1495 2.6317 27.8315 2.5 27.5 2.5C27.1685 2.5 26.8505 2.6317 26.6161 2.86612C26.3817 3.10054 26.25 3.41848 26.25 3.75V5H13.75V3.75C13.75 3.41848 13.6183 3.10054 13.3839 2.86612C13.1495 2.6317 12.8315 2.5 12.5 2.5C12.1685 2.5 11.8505 2.6317 11.6161 2.86612C11.3817 3.10054 11.25 3.41848 11.25 3.75V5H7.5C6.83716 5.00065 6.20166 5.26426 5.73296 5.73296C5.26426 6.20165 5.00065 6.83716 5 7.5V32.5C5.00065 33.1628 5.26426 33.7983 5.73296 34.267C6.20166 34.7357 6.83716 34.9993 7.5 35H32.5C33.1628 34.9993 33.7983 34.7357 34.267 34.267C34.7357 33.7983 34.9993 33.1628 35 32.5V7.5C34.9993 6.83716 34.7357 6.20166 34.267 5.73296C33.7983 5.26426 33.1628 5.00065 32.5 5ZM26.4825 20.9091L19.1909 27.7841C18.9586 28.0032 18.6513 28.1251 18.3319 28.1247C18.0126 28.1243 17.7056 28.0018 17.4738 27.7821L13.5154 24.0321C13.3959 23.9193 13.2999 23.784 13.2328 23.6341C13.1656 23.4841 13.1287 23.3224 13.1242 23.1581C13.1196 22.9939 13.1474 22.8303 13.2061 22.6768C13.2648 22.5234 13.3532 22.383 13.4662 22.2637C13.5792 22.1444 13.7147 22.0486 13.8647 21.9817C14.0148 21.9148 14.1766 21.8781 14.3409 21.8738C14.5051 21.8695 14.6686 21.8976 14.822 21.9565C14.9754 22.0155 15.1156 22.1041 15.2348 22.2173L18.3354 25.1547L24.7676 19.0903C24.887 18.9777 25.0275 18.8897 25.1809 18.8314C25.3343 18.773 25.4977 18.7455 25.6618 18.7503C25.8259 18.7551 25.9874 18.7922 26.1371 18.8595C26.2869 18.9267 26.4219 19.0228 26.5345 19.1422C26.6471 19.2617 26.7351 19.4021 26.7934 19.5555C26.8517 19.7089 26.8793 19.8724 26.8745 20.0364C26.8696 20.2005 26.8325 20.362 26.7653 20.5118C26.698 20.6615 26.602 20.7965 26.4825 20.9091H26.4825ZM32.5 12.5H7.5V7.5H11.25V8.75C11.25 9.08152 11.3817 9.39946 11.6161 9.63388C11.8505 9.8683 12.1685 10 12.5 10C12.8315 10 13.1495 9.8683 13.3839 9.63388C13.6183 9.39946 13.75 9.08152 13.75 8.75V7.5H26.25V8.75C26.25 9.08152 26.3817 9.39946 26.6161 9.63388C26.8505 9.8683 27.1685 10 27.5 10C27.8315 10 28.1495 9.8683 28.3839 9.63388C28.6183 9.39946 28.75 9.08152 28.75 8.75V7.5H32.5V12.5Z" fill="black"/>
</svg>
