<svg width="40" height="40" viewBox="0 0 40 40" fill="none" xmlns="http://www.w3.org/2000/svg">
<path d="M33.717 18.4643C33.67 18.2643 33.5745 18.0789 33.4387 17.9245C33.303 17.7702 33.1314 17.6517 32.939 17.5796L23.9342 14.2028L26.2258 2.74512C26.2791 2.47843 26.244 2.20163 26.1258 1.9567C26.0076 1.71177 25.8127 1.51207 25.5707 1.3879C25.3288 1.26373 25.0529 1.22185 24.785 1.26863C24.5171 1.3154 24.2718 1.44828 24.0862 1.64709L6.58619 20.3971C6.44596 20.5473 6.34494 20.7298 6.29207 20.9284C6.2392 21.127 6.23611 21.3356 6.28307 21.5356C6.33004 21.7357 6.4256 21.9211 6.56131 22.0754C6.69703 22.2298 6.86869 22.3483 7.06112 22.4204L16.0659 25.7972L13.7743 37.2549C13.7209 37.5215 13.756 37.7984 13.8742 38.0433C13.9924 38.2883 14.1873 38.488 14.4293 38.6122C14.6713 38.7363 14.9471 38.7782 15.2151 38.7314C15.483 38.6846 15.7283 38.5517 15.9139 38.3529L33.4139 19.6029C33.5541 19.4526 33.6551 19.2701 33.708 19.0716C33.7609 18.873 33.764 18.6644 33.717 18.4643Z" fill="black"/>
</svg>
