<svg width="40" height="40" viewBox="0 0 40 40" fill="none" xmlns="http://www.w3.org/2000/svg">
<path d="M33.3746 12.8555L24.6352 4.11606C24.6227 4.10355 24.6091 4.09256 24.5961 4.08066C24.5792 4.06517 24.5628 4.04915 24.5451 4.03458C24.5334 4.02496 24.5208 4.01657 24.5087 4.00734C24.4883 3.9917 24.4681 3.97583 24.4467 3.96141C24.437 3.95492 24.4267 3.94951 24.417 3.94333C24.3922 3.92769 24.3674 3.91213 24.3414 3.89816C24.3344 3.89443 24.3271 3.89153 24.3201 3.88794C24.2908 3.87283 24.2612 3.85834 24.2306 3.8456C24.2258 3.84361 24.2208 3.84216 24.216 3.84025C24.1831 3.82705 24.1498 3.8147 24.1156 3.80432C24.1106 3.80279 24.1055 3.80187 24.1006 3.80042C24.0667 3.79058 24.0324 3.7815 23.9973 3.77449C23.9862 3.77227 23.9747 3.77128 23.9635 3.76938C23.9345 3.76434 23.9056 3.75923 23.8761 3.75633C23.8346 3.75211 23.7929 3.75 23.7512 3.75H8.75C8.08719 3.75076 7.45175 4.01439 6.98307 4.48307C6.51439 4.95175 6.25076 5.58719 6.25 6.25V33.75C6.25076 34.4128 6.51439 35.0483 6.98307 35.5169C7.45175 35.9856 8.08719 36.2492 8.75 36.25H31.2512C31.914 36.2492 32.5495 35.9856 33.0182 35.5169C33.4868 35.0483 33.7505 34.4128 33.7512 33.75V13.7742C33.7514 13.766 33.7524 13.7582 33.7524 13.75C33.7526 13.5832 33.7192 13.418 33.6543 13.2644C33.5894 13.1107 33.4942 12.9717 33.3746 12.8555ZM25.0012 27.5H15.0012C14.6697 27.5 14.3518 27.3683 14.1173 27.1339C13.8829 26.8995 13.7512 26.5815 13.7512 26.25C13.7512 25.9185 13.8829 25.6005 14.1173 25.3661C14.3518 25.1317 14.6697 25 15.0012 25H25.0012C25.3327 25 25.6507 25.1317 25.8851 25.3661C26.1195 25.6005 26.2512 25.9185 26.2512 26.25C26.2512 26.5815 26.1195 26.8995 25.8851 27.1339C25.6507 27.3683 25.3327 27.5 25.0012 27.5ZM25.0012 22.5H15.0012C14.6697 22.5 14.3518 22.3683 14.1173 22.1339C13.8829 21.8995 13.7512 21.5815 13.7512 21.25C13.7512 20.9185 13.8829 20.6005 14.1173 20.3661C14.3518 20.1317 14.6697 20 15.0012 20H25.0012C25.3327 20 25.6507 20.1317 25.8851 20.3661C26.1195 20.6005 26.2512 20.9185 26.2512 21.25C26.2512 21.5815 26.1195 21.8995 25.8851 22.1339C25.6507 22.3683 25.3327 22.5 25.0012 22.5ZM23.7512 13.75V6.76773L30.7333 13.75H23.7512Z" fill="black"/>
</svg>
