<svg width="32" height="32" viewBox="0 0 32 32" fill="none" xmlns="http://www.w3.org/2000/svg">
<path d="M29.1875 16.0003V26.0003C29.1842 27.3254 28.6564 28.5952 27.7194 29.5322C26.7824 30.4692 25.5126 30.997 24.1875 31.0003H17C16.7348 31.0003 16.4804 30.8949 16.2929 30.7074C16.1054 30.5199 16 30.2655 16 30.0003C16 29.7351 16.1054 29.4807 16.2929 29.2932C16.4804 29.1056 16.7348 29.0003 17 29.0003H24.1875C24.9821 28.997 25.7433 28.6799 26.3052 28.118C26.8671 27.5561 27.1842 26.7949 27.1875 26.0003V25.8253C26.8668 25.941 26.5284 26.0002 26.1875 26.0003H24.1875C23.3919 26.0003 22.6288 25.6842 22.0662 25.1216C21.5036 24.559 21.1875 23.7959 21.1875 23.0003V18.0003C21.1875 17.2046 21.5036 16.4416 22.0662 15.879C22.6288 15.3164 23.3919 15.0003 24.1875 15.0003H27.1375C26.8868 12.2531 25.613 9.70032 23.5686 7.84812C21.5243 5.99592 18.8586 4.97947 16.1 5.00029H16.0875C13.3273 4.97367 10.6584 5.98812 8.61283 7.84145C6.56722 9.69478 5.29509 12.2509 5.05 15.0003H8C8.79464 15.0036 9.55579 15.3207 10.1177 15.8826C10.6796 16.4445 10.9967 17.2057 11 18.0003V23.0003C10.9967 23.7949 10.6796 24.5561 10.1177 25.118C9.55579 25.6799 8.79464 25.997 8 26.0003H6C5.20536 25.997 4.44421 25.6799 3.88231 25.118C3.32042 24.5561 3.00329 23.7949 3 23.0003V16.0003C2.99996 14.2857 3.33909 12.5881 3.99787 11.0051C4.65665 9.42215 5.62205 7.98514 6.8385 6.77683C8.05494 5.56852 9.49839 4.61278 11.0857 3.96463C12.6731 3.31649 14.373 2.98875 16.0875 3.00029H16.1875C19.6343 3.0036 22.939 4.37431 25.3762 6.81156C27.8135 9.24882 29.1842 12.5535 29.1875 16.0003Z" fill="#0B0B0B"/>
</svg>
