<svg width="268" height="201" viewBox="0 0 268 201" fill="none" xmlns="http://www.w3.org/2000/svg">
<path d="M4.69746 4.0004C4.84967 3.61172 5.24613 3.37981 5.88684 3.30469C6.52756 3.22956 7.48907 3.22504 8.77136 3.29112C10.0656 3.35782 11.0488 3.51663 11.7208 3.76754C12.3933 4.00647 12.7198 4.31768 12.7 4.70117C12.6907 4.88094 12.612 5.00906 12.4639 5.08553C12.3284 5.15064 12.2054 5.20439 12.0951 5.24677C11.9974 5.27778 11.8577 5.30663 11.6761 5.33332C11.5065 5.36063 11.3488 5.38855 11.2032 5.41709C11.0581 5.43365 10.8652 5.44773 10.6242 5.45935C10.3953 5.47159 10.1963 5.48536 10.0273 5.50069C9.85892 5.50402 9.63598 5.51657 9.35849 5.53832C9.08162 5.54808 8.82872 5.55908 8.59979 5.57131C8.37086 5.58355 7.76702 5.64255 6.78828 5.74832L6.78735 5.7663C6.76512 6.19772 6.52039 7.33263 6.05316 9.17102C6.20833 9.19104 6.48965 9.21154 6.89711 9.23254C7.31655 9.25415 7.86337 9.25229 8.53757 9.22696C9.21238 9.18964 9.65166 9.17622 9.85539 9.18672C10.0711 9.19784 10.2481 9.26103 10.3863 9.3763C10.5246 9.49157 10.5903 9.61511 10.5835 9.74694C10.5668 10.0705 10.3603 10.3482 9.96382 10.5802C9.56736 10.8121 9.0778 10.9851 8.49516 11.0993C7.32986 11.3276 6.30918 11.4312 5.4331 11.4101C4.99515 12.9135 4.72527 13.8369 4.62347 14.1801C4.53428 14.5119 4.4397 14.8315 4.33976 15.1388C4.15247 15.7419 3.99291 16.0401 3.86109 16.0333C3.60942 16.0203 3.28239 15.7211 2.87999 15.1356C2.47758 14.5501 2.28349 14.1196 2.29769 13.8439C2.32239 13.3646 2.69443 11.8577 3.41382 9.32339C4.14518 6.78967 4.54582 5.19418 4.61574 4.5369L4.62315 4.3931C4.63118 4.2373 4.65595 4.1064 4.69746 4.0004ZM18.9474 7.97904C19.0588 7.68438 19.2582 7.54446 19.5458 7.55928C19.8335 7.5741 20.1504 7.83676 20.4966 8.34725C20.8547 8.85836 21.0245 9.29368 21.006 9.6532C20.9992 9.78503 20.6782 10.6517 20.0429 12.2531C19.4077 13.8545 18.9159 15.1209 18.5675 16.0522C18.3737 16.5469 18.0792 16.784 17.6837 16.7636C17.444 16.7513 17.2446 16.6569 17.0855 16.4805C16.9389 16.2927 16.8752 16.013 16.8944 15.6415C16.9135 15.27 17.0126 14.7464 17.1916 14.0708C15.8659 15.7808 14.8375 16.617 14.1064 16.5793C13.7229 16.5595 13.2742 16.2901 12.7602 15.7709C12.2469 15.2398 12.0023 14.7406 12.0264 14.2732C12.0856 13.1227 12.4849 11.6713 13.224 9.91906C13.9752 8.16739 14.6384 7.30638 15.2136 7.33603C15.5611 7.35394 15.8587 7.52548 16.1063 7.85065C16.3659 8.17644 16.4861 8.52509 16.4669 8.8966C16.4595 9.04041 16.289 9.43416 15.9555 10.0778C14.9428 12.0083 14.4154 13.381 14.3734 14.1959C14.3697 14.2678 14.3978 14.3053 14.4578 14.3084C14.6375 14.3176 14.9876 14.0533 15.508 13.5154C16.0409 12.9661 16.6402 12.1799 17.3057 11.1568C17.9839 10.1223 18.5311 9.06305 18.9474 7.97904ZM24.7366 2.78009C25.0242 2.79491 25.3821 3.0777 25.8103 3.62847C26.2386 4.17924 26.4403 4.6943 26.4156 5.17367C26.3909 5.65303 26.2749 6.50619 26.0674 7.73314C25.8606 8.94811 25.6605 9.91709 25.467 10.6401C24.2488 14.9271 23.4419 17.0604 23.0465 17.04C22.7828 17.0264 22.4641 16.7997 22.0902 16.3599C21.7289 15.9087 21.5554 15.5453 21.5696 15.2697C21.5709 15.2457 21.7648 14.6308 22.1513 13.4251C22.5379 12.2194 22.9424 10.6662 23.3647 8.76542C23.7997 6.85327 24.0623 5.02236 24.1525 3.27268C24.1704 2.92514 24.3651 2.76094 24.7366 2.78009ZM30.0508 3.05394C30.3384 3.06876 30.6963 3.35156 31.1245 3.90233C31.5528 4.45309 31.7545 4.96816 31.7298 5.44752C31.7051 5.92689 31.5891 6.78005 31.3816 8.007C31.1748 9.22196 30.9747 10.1909 30.7812 10.914C29.563 15.2009 28.7561 17.3342 28.3607 17.3139C28.097 17.3003 27.7783 17.0736 27.4044 16.6337C27.0431 16.1826 26.8696 15.8191 26.8838 15.5435C26.8851 15.5195 27.079 14.9047 27.4655 13.699C27.8521 12.4933 28.2566 10.9401 28.6789 9.03927C29.1139 7.12712 29.3765 5.29621 29.4667 3.54653C29.4846 3.19899 29.6793 3.0348 30.0508 3.05394ZM45.7603 8.92821C46.2157 8.95168 46.6512 9.24448 47.0668 9.80661C47.4825 10.3687 47.6792 10.8655 47.6569 11.297C47.6421 11.5846 47.5089 11.7219 47.2572 11.7089C47.1134 11.7015 46.9064 11.6368 46.6364 11.5147C46.3669 11.3807 46.0884 11.3062 45.8008 11.2914C45.5251 11.2772 45.1067 11.3518 44.5456 11.5151C43.9964 11.6791 43.7138 11.9168 43.6977 12.2284C43.6916 12.3483 43.8444 12.5304 44.1562 12.7748C44.4681 13.0191 44.8096 13.271 45.1807 13.5305C45.5518 13.7899 45.8881 14.1437 46.1894 14.5918C46.4914 15.0279 46.6294 15.4976 46.6034 16.001C46.5781 16.4923 46.187 16.9708 45.43 17.4365C44.685 17.9028 43.8212 18.1106 42.8385 18.0599C41.8678 18.0099 41.0463 17.7453 40.3741 17.2661C39.7019 16.7868 39.3778 16.3135 39.4019 15.8461C39.426 15.3788 39.6297 15.155 40.0132 15.1747C40.169 15.1827 40.3517 15.2522 40.5612 15.3832C41.1425 15.7616 41.8766 15.9737 42.7634 16.0194C43.6622 16.0657 44.1178 15.969 44.1301 15.7293C44.1425 15.4896 43.9823 15.217 43.6496 14.9115C43.3295 14.5946 42.9722 14.2998 42.5777 14.0272C42.1952 13.7551 41.8394 13.4304 41.5104 13.053C41.194 12.6642 41.0448 12.296 41.0627 11.9484C41.096 11.3013 41.7194 10.6305 42.9327 9.93602C44.1467 9.22956 45.0892 8.89362 45.7603 8.92821ZM53.5029 11.454C53.3904 11.7727 53.2231 12.2206 53.0011 12.798C52.7917 13.364 52.5266 14.0773 52.2059 14.9379C51.8972 15.7991 51.7413 16.2597 51.7382 16.3197C51.7357 16.3676 51.8304 16.3965 52.0221 16.4064C52.2258 16.4169 52.706 16.3094 53.4626 16.0841C54.2198 15.8467 54.6643 15.7315 54.7962 15.7383C55.0958 15.7537 55.2351 15.9651 55.2141 16.3726C55.1931 16.7801 54.7663 17.2507 53.9337 17.7846C53.1018 18.3065 52.2484 18.5449 51.3735 18.4998C50.99 18.48 50.5454 18.2468 50.0397 17.8002C49.5341 17.3536 49.2923 16.9146 49.3146 16.4831C49.3331 16.1236 49.5518 15.3779 49.9706 14.2459C50.402 13.1026 50.6947 12.3186 50.8488 11.894C50.3746 12.0018 50.0177 12.0494 49.778 12.0371C49.5383 12.0247 49.295 11.85 49.048 11.5128C48.8016 11.1637 48.6862 10.8393 48.7016 10.5397C48.7214 10.1562 49.6668 9.88052 51.538 9.71259C51.8231 8.6098 51.9867 7.65095 52.0286 6.83603C52.0472 6.47651 52.2362 6.30601 52.5957 6.32454C52.9073 6.34059 53.2929 6.55272 53.7525 6.96091C54.2247 7.35774 54.4512 7.74191 54.4321 8.11342C54.4136 8.47294 54.3094 8.97825 54.1197 9.62935C54.6961 9.63502 55.1342 9.64558 55.4338 9.66102C56.3326 9.70734 56.7715 9.93423 56.7505 10.3417C56.7369 10.6053 56.4615 10.8194 55.9243 10.984C55.3998 11.1372 54.5926 11.2939 53.5029 11.454ZM64.2889 10.3156C64.3763 10.0197 64.5817 9.8801 64.9053 9.89678C65.2289 9.91345 65.5479 10.1342 65.8625 10.5589C66.189 10.9843 66.339 11.4546 66.3125 11.9699C66.297 12.2695 66.1648 12.7374 65.9157 13.3734C65.6666 14.0094 65.4871 14.4628 65.377 14.7335C65.2789 15.0048 65.1336 15.3758 64.9411 15.8465C64.7493 16.3052 64.5709 16.7346 64.4061 17.1347C64.2539 17.5234 64.0407 18.0471 63.7664 18.7058C63.5041 19.3652 63.2623 19.9776 63.0409 20.5429C62.6138 21.6024 62.1155 22.4118 61.546 22.9712C60.9884 23.5313 60.2842 23.7894 59.4333 23.7455C58.5824 23.7017 57.8332 23.4348 57.1855 22.9448C56.5373 22.4668 56.2249 22.0001 56.2484 21.5447C56.2626 21.2691 56.3982 20.9696 56.6551 20.6464C56.9241 20.3238 57.1425 20.1669 57.3102 20.1755C57.49 20.1848 57.7106 20.3343 57.972 20.6242C58.2448 20.9266 58.5239 21.2234 58.8093 21.5144C59.0941 21.8175 59.3503 21.9749 59.578 21.9866C59.7338 21.9947 59.8634 21.9292 59.9666 21.7904C60.0819 21.6521 60.1726 21.5246 60.2387 21.4079C60.3161 21.3037 60.3961 21.1516 60.4785 20.9516C60.5603 20.7636 60.6354 20.5872 60.704 20.4225C60.7726 20.2578 60.8559 20.0398 60.954 19.7685C61.0521 19.4972 61.1367 19.2552 61.2077 19.0426C61.4448 18.406 61.6482 17.8397 61.8179 17.3438C61.3959 17.8387 60.9671 18.2311 60.5316 18.5211C60.0968 18.7991 59.6996 18.9288 59.34 18.9103C58.9925 18.8924 58.5687 18.6062 58.0685 18.0517C57.581 17.4859 57.3536 16.8854 57.3863 16.2502C57.4197 15.6031 57.602 14.7473 57.9332 13.683C58.2764 12.6192 58.6793 11.6787 59.142 10.8615C59.6047 10.0442 59.9978 9.64388 60.3214 9.66056C60.6929 9.6797 61.0321 9.8594 61.339 10.1996C61.6585 10.5285 61.8105 10.8428 61.7951 11.1424C61.7802 11.43 61.6064 11.8896 61.2734 12.5213C60.9524 13.1537 60.6224 13.8456 60.2833 14.5971C59.9441 15.3487 59.7607 15.9941 59.7329 16.5334C59.7292 16.6053 59.7573 16.6428 59.8172 16.6459C59.973 16.6539 60.3174 16.3833 60.8504 15.834C61.3839 15.2727 61.9898 14.4748 62.668 13.4403C63.3587 12.3945 63.899 11.3529 64.2889 10.3156ZM70.2794 5.12703C70.5671 5.14186 70.925 5.42465 71.3532 5.97542C71.7814 6.52619 71.9832 7.04125 71.9585 7.52062C71.9338 7.99998 71.8177 8.85314 71.6103 10.0801C71.4035 11.2951 71.2034 12.264 71.0099 12.987C69.7917 17.274 68.9848 19.4073 68.5893 19.387C68.3257 19.3734 68.0069 19.1467 67.6331 18.7068C67.2718 18.2556 67.0983 17.8922 67.1125 17.6166C67.1137 17.5926 67.3076 16.9778 67.6942 15.7721C68.0807 14.5664 68.4852 13.0131 68.9076 11.1124C69.3426 9.20022 69.6052 7.3693 69.6953 5.61963C69.7132 5.27209 69.9079 5.10789 70.2794 5.12703ZM80.6797 14.0801C80.6494 14.6674 80.2208 15.174 79.3938 15.6C78.5788 16.0266 77.7518 16.2183 76.9129 16.1751C76.074 16.1318 75.388 16.0364 74.8549 15.8888C74.7304 16.2068 74.6598 16.5276 74.6431 16.8511C74.6264 17.1747 74.6683 17.4112 74.7688 17.5606C74.8698 17.6979 75.1361 17.7777 75.5675 17.8C76.4663 17.8463 77.2376 17.8019 77.8814 17.6669C78.5372 17.5325 78.8771 17.4659 78.901 17.4671C79.3924 17.4924 79.6297 17.6669 79.6131 17.9904C79.589 18.4578 79.1766 18.8812 78.3761 19.2605C77.5875 19.6404 76.6838 19.8041 75.6652 19.7516C74.6585 19.6997 73.866 19.3404 73.2875 18.6738C72.709 18.0071 72.442 17.2424 72.4865 16.3795C72.5316 15.5047 72.8302 14.6069 73.3823 13.6861C73.9464 12.7659 74.6283 12.008 75.428 11.4123C76.2284 10.8047 77.006 10.5204 77.761 10.5593C78.528 10.5988 79.2156 11.0127 79.8239 11.8011C80.4327 12.5774 80.718 13.3371 80.6797 14.0801ZM78.6093 13.6851C78.6155 13.5652 78.4986 13.385 78.2587 13.1443C78.0187 12.9036 77.7849 12.7774 77.5572 12.7657C77.3415 12.7546 77.0515 12.9019 76.6873 13.2075C76.3237 13.5012 75.9732 13.8917 75.6356 14.379C75.7429 14.3965 75.8984 14.4105 76.1021 14.421C77.7439 14.5056 78.5797 14.2603 78.6093 13.6851ZM96.4727 15.4167C96.642 15.6297 96.7192 15.88 96.7044 16.1676C96.6895 16.4552 96.5515 16.8026 96.2902 17.2097C95.9535 17.9133 95.6439 18.7925 95.3612 19.8474C95.0785 20.9022 94.807 21.7414 94.5466 22.3648C94.2975 23.0008 94.0294 23.5397 93.7423 23.9815C93.4672 24.424 93.1002 24.7835 92.6413 25.0603C92.1825 25.337 91.6654 25.4606 91.0902 25.431C90.2873 25.3896 89.5818 25.0889 88.9738 24.5288C88.3658 23.9688 88.0717 23.497 88.0915 23.1136C88.1106 22.7421 88.2301 22.4058 88.4499 22.1047C88.669 21.8156 88.8625 21.6753 89.0303 21.684C89.2101 21.6932 89.3729 21.7978 89.5188 21.9975C89.6767 22.1979 89.816 22.4094 89.9367 22.6319C90.0688 22.867 90.2437 23.0863 90.4615 23.2898C90.6794 23.4932 90.9261 23.6021 91.2017 23.6163C91.4774 23.6305 91.7383 23.4637 91.9845 23.1159C92.2307 22.7681 92.4246 22.3876 92.566 21.9743C92.9163 21.0071 93.1382 20.3156 93.2317 19.8998C92.3908 20.3612 91.7127 20.5786 91.1974 20.552C90.6941 20.5261 90.2169 20.2251 89.766 19.6491C89.3157 19.0612 89.1031 18.5215 89.1285 18.0302C89.1544 17.5269 89.3183 16.9105 89.6203 16.1811C89.9348 15.4403 90.321 14.7092 90.7787 13.9878C91.249 13.255 91.8217 12.6356 92.4966 12.1297C93.1835 11.6244 93.8565 11.3887 94.5157 11.4227C94.9591 11.4455 95.3307 11.5788 95.6306 11.8226C95.931 12.0544 96.1436 12.3597 96.2683 12.7386C96.4866 13.3987 96.5747 14.1362 96.5327 14.9512C96.5266 15.071 96.5065 15.2262 96.4727 15.4167ZM91.3442 18.0543C91.3361 18.21 91.398 18.2913 91.5299 18.2981C91.8774 18.316 92.457 18.0275 93.2687 17.4325C94.0804 16.8375 94.6341 16.2352 94.9299 15.6256L94.9475 15.284C94.9876 14.5051 94.9401 14.028 94.805 13.8528C94.7374 13.7652 94.6437 13.7183 94.5238 13.7121C93.9486 13.6825 93.2823 14.255 92.5248 15.4295C91.7674 16.6041 91.3738 17.479 91.3442 18.0543ZM105.053 12.4163C105.164 12.1216 105.363 11.9817 105.651 11.9965C105.939 12.0113 106.255 12.274 106.602 12.7845C106.96 13.2956 107.13 13.7309 107.111 14.0904C107.104 14.2223 106.783 15.0889 106.148 16.6903C105.513 18.2917 105.021 19.5581 104.673 20.4894C104.479 20.9841 104.184 21.2213 103.789 21.2009C103.549 21.1885 103.35 21.0941 103.191 20.9177C103.044 20.7299 102.98 20.4503 102.999 20.0788C103.019 19.7073 103.118 19.1837 103.297 18.508C101.971 20.218 100.943 21.0542 100.211 21.0165C99.828 20.9968 99.3793 20.7273 98.8653 20.2082C98.3519 19.6771 98.1073 19.1778 98.1314 18.7104C98.1907 17.5599 98.5899 16.1086 99.3291 14.3563C100.08 12.6046 100.743 11.7436 101.319 11.7733C101.666 11.7912 101.964 11.9627 102.211 12.2879C102.471 12.6137 102.591 12.9623 102.572 13.3338C102.565 13.4776 102.394 13.8714 102.061 14.5151C101.048 16.4455 100.52 17.8182 100.478 18.6331C100.475 18.705 100.503 18.7425 100.563 18.7456C100.743 18.7549 101.093 18.4905 101.613 17.9526C102.146 17.4033 102.745 16.6171 103.411 15.594C104.089 14.5595 104.636 13.5003 105.053 12.4163ZM109.925 9.96378C109.941 9.6522 110.095 9.34172 110.388 9.03236C110.693 8.71162 110.977 8.55805 111.24 8.57164C111.516 8.58584 111.823 8.92609 112.161 9.59237C112.499 10.2587 112.661 10.7416 112.645 11.0412C112.63 11.3288 112.523 11.5456 112.323 11.6915C112.124 11.8374 111.922 11.9051 111.718 11.8946C111.371 11.8767 110.981 11.6283 110.549 11.1495C110.117 10.6706 109.909 10.2754 109.925 9.96378ZM110.079 12.2247C110.498 12.2463 110.858 12.5051 111.156 13.0012C111.467 13.4978 111.611 13.9679 111.588 14.4113C111.577 14.639 111.325 15.4491 110.832 16.8416C110.353 18.2227 109.877 19.532 109.404 20.7693C109.236 21.2293 108.931 21.4478 108.487 21.425C108.224 21.4114 107.995 21.3035 107.801 21.1012C107.62 20.8876 107.537 20.625 107.553 20.3134C107.57 19.9899 107.761 19.2066 108.125 17.9637C108.502 16.7095 108.791 15.643 108.993 14.7642C109.207 13.874 109.39 13.2286 109.543 12.8279C109.709 12.4159 109.887 12.2148 110.079 12.2247ZM121.192 7.75068C121.479 7.7655 121.843 8.04861 122.283 8.59999C122.724 9.1394 122.933 9.63679 122.909 10.0922C122.898 10.3199 122.639 11.2558 122.134 12.9C121.629 14.5442 121.325 15.5379 121.223 15.8811C120.052 19.9662 119.244 21.9973 118.8 21.9745C118.549 21.9615 118.275 21.7972 117.979 21.4815C117.683 21.1659 117.542 20.8642 117.557 20.5766C117.56 20.5167 117.568 20.4691 117.582 20.4337C116.333 21.3547 115.445 21.8016 114.918 21.7744C114.402 21.7478 113.913 21.4463 113.45 20.8697C113 20.2817 112.786 19.76 112.81 19.3046C112.833 18.8492 112.919 18.349 113.068 17.8039C113.228 17.2474 113.457 16.6644 113.752 16.0548C114.048 15.4452 114.378 14.8795 114.741 14.3575C115.117 13.8241 115.554 13.396 116.051 13.0732C116.561 12.739 117.073 12.5851 117.589 12.6117C118.356 12.6512 118.965 13.0731 119.416 13.8774C120.21 11.0705 120.618 9.1991 120.643 8.2631C120.661 7.90358 120.844 7.73277 121.192 7.75068ZM115.269 19.5034C115.569 19.5189 116.085 19.2872 116.819 18.8083C117.564 18.33 118.131 17.7044 118.52 16.9313C118.513 16.8348 118.517 16.6248 118.534 16.3012C118.551 15.9777 118.459 15.6665 118.258 15.3678C118.057 15.0691 117.867 14.9151 117.687 14.9058C117.327 14.8873 116.97 15.0611 116.615 15.4273C116.271 15.7941 115.99 16.2362 115.771 16.7537C115.306 17.8472 115.059 18.6816 115.029 19.2568C115.024 19.3527 115.033 19.4192 115.055 19.4564C115.09 19.4822 115.161 19.4979 115.269 19.5034ZM131.366 16.6922C131.336 17.2794 130.907 17.786 130.08 18.212C129.265 18.6386 128.438 18.8303 127.599 18.7871C126.76 18.7438 126.074 18.6484 125.541 18.5008C125.417 18.8188 125.346 19.1396 125.33 19.4632C125.313 19.7867 125.355 20.0232 125.455 20.1726C125.556 20.3099 125.822 20.3898 126.254 20.412C127.153 20.4583 127.924 20.4139 128.568 20.2789C129.224 20.1445 129.563 20.0779 129.587 20.0791C130.079 20.1044 130.316 20.2789 130.299 20.6024C130.275 21.0698 129.863 21.4932 129.062 21.8725C128.274 22.2524 127.37 22.4161 126.352 22.3636C125.345 22.3117 124.552 21.9525 123.974 21.2858C123.395 20.6192 123.128 19.8544 123.173 18.9915C123.218 18.1167 123.517 17.2189 124.069 16.2981C124.633 15.3779 125.315 14.62 126.114 14.0243C126.915 13.4167 127.692 13.1324 128.447 13.1713C129.214 13.2108 129.902 13.6247 130.51 14.4131C131.119 15.1895 131.404 15.9491 131.366 16.6922ZM129.296 16.2971C129.302 16.1772 129.185 15.997 128.945 15.7563C128.705 15.5156 128.471 15.3894 128.244 15.3777C128.028 15.3666 127.738 15.5139 127.374 15.8195C127.01 16.1132 126.66 16.5037 126.322 16.991C126.429 17.0085 126.585 17.0225 126.789 17.033C128.43 17.1176 129.266 16.8723 129.296 16.2971ZM142.136 11.6237C142.152 11.3121 142.306 11.0016 142.599 10.6923C142.904 10.3715 143.188 10.218 143.451 10.2316C143.727 10.2458 144.034 10.586 144.372 11.2523C144.71 11.9186 144.872 12.4015 144.856 12.7011C144.841 12.9887 144.734 13.2055 144.534 13.3514C144.335 13.4973 144.133 13.565 143.929 13.5545C143.582 13.5366 143.192 13.2882 142.76 12.8094C142.328 12.3305 142.12 11.9353 142.136 11.6237ZM142.29 13.8846C142.709 13.9062 143.069 14.1651 143.367 14.6611C143.678 15.1578 143.822 15.6278 143.799 16.0712C143.788 16.2989 143.536 17.109 143.043 18.5015C142.564 19.8827 142.088 21.1919 141.615 22.4292C141.447 22.8892 141.142 23.1078 140.698 23.0849C140.435 23.0713 140.206 22.9634 140.012 22.7612C139.831 22.5475 139.748 22.2849 139.764 21.9734C139.781 21.6498 139.972 20.8666 140.336 19.6237C140.713 18.3694 141.002 17.3029 141.204 16.4241C141.418 15.5339 141.601 14.8885 141.754 14.4878C141.92 14.0758 142.098 13.8747 142.29 13.8846ZM152.083 14.3893C152.706 14.4214 153.237 14.7311 153.675 15.3184C154.126 15.8944 154.335 16.5 154.302 17.1351C154.25 18.1538 154.027 19.2117 153.634 20.309C153.254 21.3948 152.85 22.2272 152.424 22.806C152.01 23.3854 151.599 23.6647 151.191 23.6437C150.796 23.6233 150.613 23.3315 150.642 22.7682C150.664 22.3368 150.906 21.4781 151.369 20.1922C151.724 19.1291 151.914 18.3639 151.938 17.8965C151.962 17.4291 151.914 17.1923 151.794 17.1861C151.639 17.1781 151.479 17.248 151.315 17.3957C151.163 17.5441 151.036 17.6758 150.934 17.7907C150.832 17.9056 150.71 18.0555 150.569 18.2404C150.439 18.414 150.323 18.5763 150.219 18.7271C150.128 18.8666 150.004 19.0525 149.848 19.2847C149.704 19.5056 149.587 19.6918 149.495 19.8433C149.403 19.9828 149.286 20.169 149.141 20.4019C147.919 22.4297 146.991 23.4272 146.356 23.3945C146.104 23.3815 145.798 23.1494 145.436 22.6982C145.076 22.2351 144.901 21.9016 144.911 21.6979C144.918 21.566 145.016 21.2887 145.206 20.866C145.409 20.4318 145.552 20.1027 145.636 19.8788C145.732 19.6434 145.811 19.3951 145.872 19.1339C145.946 18.8734 146.008 18.5942 146.06 18.2965C146.112 17.9867 146.148 17.7483 146.169 17.5811C146.201 17.4146 146.239 17.1522 146.281 16.7939C146.469 15.2415 146.604 14.3833 146.684 14.2192C146.777 14.0558 146.871 13.9765 146.967 13.9814C147.422 14.0049 147.85 14.2192 148.25 14.6243C148.65 15.0174 148.842 15.3698 148.826 15.6814C148.788 16.4244 148.541 17.4811 148.086 18.8515C148.935 17.5254 149.7 16.4474 150.379 15.6172C151.071 14.7757 151.639 14.3664 152.083 14.3893ZM165.735 12.2991C165.887 11.9104 166.284 11.6785 166.924 11.6034C167.565 11.5283 168.527 11.5237 169.809 11.5898C171.103 11.6565 172.086 11.8153 172.758 12.0662C173.431 12.3052 173.757 12.6164 173.738 12.9999C173.728 13.1796 173.65 13.3078 173.501 13.3842C173.366 13.4494 173.243 13.5031 173.133 13.5455C173.035 13.5765 172.895 13.6053 172.714 13.632C172.544 13.6593 172.386 13.6873 172.241 13.7158C172.096 13.7324 171.903 13.7464 171.662 13.7581C171.433 13.7703 171.234 13.7841 171.065 13.7994C170.896 13.8027 170.673 13.8153 170.396 13.837C170.119 13.8468 169.866 13.8578 169.637 13.87C169.408 13.8823 168.805 13.9413 167.826 14.047L167.825 14.065C167.803 14.4964 167.558 15.6313 167.091 17.4697C167.246 17.4897 167.527 17.5102 167.935 17.5312C168.354 17.5529 168.901 17.551 169.575 17.5257C170.25 17.4883 170.689 17.4749 170.893 17.4854C171.109 17.4965 171.286 17.5597 171.424 17.675C171.562 17.7903 171.628 17.9138 171.621 18.0456C171.604 18.3692 171.398 18.647 171.001 18.8789C170.605 19.1108 170.115 19.2838 169.533 19.398C168.367 19.6263 167.347 19.7299 166.471 19.7088C166.033 21.2122 165.763 22.1356 165.661 22.4788C165.572 22.8106 165.477 23.1302 165.377 23.4375C165.19 24.0406 165.03 24.3388 164.899 24.332C164.647 24.319 164.32 24.0198 163.917 23.4343C163.515 22.8488 163.321 22.4183 163.335 22.1426C163.36 21.6633 163.732 20.1564 164.451 17.6221C165.183 15.0884 165.583 13.4929 165.653 12.8356L165.661 12.6918C165.669 12.536 165.693 12.4051 165.735 12.2991ZM175.576 13.347C175.592 13.0354 175.746 12.7249 176.038 12.4155C176.343 12.0948 176.628 11.9412 176.891 11.9548C177.167 11.969 177.474 12.3093 177.812 12.9755C178.15 13.6418 178.312 14.1248 178.296 14.4244C178.281 14.712 178.174 14.9288 177.974 15.0747C177.774 15.2206 177.573 15.2883 177.369 15.2778C177.021 15.2599 176.632 15.0115 176.2 14.5326C175.768 14.0538 175.56 13.6585 175.576 13.347ZM175.73 15.6079C176.149 15.6295 176.508 15.8883 176.807 16.3843C177.118 16.881 177.262 17.351 177.239 17.7945C177.228 18.0221 176.975 18.8323 176.483 20.2248C176.003 21.6059 175.527 22.9151 175.055 24.1525C174.887 24.6124 174.582 24.831 174.138 24.8082C173.875 24.7946 173.646 24.6866 173.452 24.4844C173.271 24.2708 173.188 24.0082 173.204 23.6966C173.221 23.373 173.411 22.5898 173.776 21.3469C174.153 20.0927 174.442 19.0261 174.644 18.1473C174.858 17.2572 175.041 16.6118 175.194 16.2111C175.359 15.7991 175.538 15.598 175.73 15.6079ZM185.808 20.0204C185.977 20.2334 186.054 20.4837 186.04 20.7713C186.025 21.0589 185.887 21.4063 185.625 21.8134C185.289 22.517 184.979 23.3962 184.696 24.451C184.414 25.5059 184.142 26.345 183.882 26.9685C183.633 27.6045 183.365 28.1434 183.077 28.5852C182.802 29.0276 182.435 29.3872 181.976 29.664C181.518 29.9407 181.001 30.0643 180.425 30.0346C179.622 29.9933 178.917 29.6926 178.309 29.1325C177.701 28.5725 177.407 28.1007 177.427 27.7172C177.446 27.3457 177.565 27.0094 177.785 26.7084C178.004 26.4192 178.198 26.279 178.365 26.2877C178.545 26.2969 178.708 26.4014 178.854 26.6012C179.012 26.8016 179.151 27.0131 179.272 27.2356C179.404 27.4707 179.579 27.69 179.797 27.8935C180.015 28.0969 180.261 28.2058 180.537 28.22C180.813 28.2342 181.073 28.0674 181.32 27.7196C181.566 27.3718 181.76 26.9913 181.901 26.578C182.251 25.6108 182.473 24.9193 182.567 24.5035C181.726 24.9649 181.048 25.1823 180.533 25.1557C180.029 25.1298 179.552 24.8288 179.101 24.2528C178.651 23.6649 178.438 23.1252 178.464 22.6339C178.49 22.1305 178.653 21.5142 178.955 20.7847C179.27 20.0439 179.656 19.3128 180.114 18.5914C180.584 17.8587 181.157 17.2393 181.832 16.7334C182.519 16.2281 183.192 15.9924 183.851 16.0264C184.294 16.0492 184.666 16.1825 184.966 16.4263C185.266 16.658 185.479 16.9634 185.603 17.3423C185.822 18.0024 185.91 18.7399 185.868 19.5549C185.862 19.6747 185.842 19.8299 185.808 20.0204ZM180.679 22.6579C180.671 22.8137 180.733 22.895 180.865 22.9018C181.213 22.9197 181.792 22.6312 182.604 22.0362C183.416 21.4411 183.969 20.8388 184.265 20.2293L184.283 19.8877C184.323 19.1087 184.275 18.6317 184.14 18.4565C184.073 18.3689 183.979 18.322 183.859 18.3158C183.284 18.2862 182.617 18.8586 181.86 20.0332C181.102 21.2078 180.709 22.0827 180.679 22.6579ZM200.199 16.8688C200.666 16.8929 201.04 17.2246 201.319 17.8638C201.599 18.503 201.725 19.0803 201.699 19.5956C201.672 20.111 201.531 20.8727 201.275 21.8808C201.031 22.8776 200.669 23.8383 200.189 24.7628C199.721 25.6759 199.242 26.1198 198.75 26.0945C198.355 26.0741 198.171 25.7943 198.199 25.255C198.227 24.7157 198.428 23.8429 198.802 22.6366C199.177 21.4303 199.374 20.6354 199.394 20.2519C199.414 19.8684 199.364 19.6736 199.244 19.6674C198.992 19.6544 198.678 19.9146 198.302 20.448C197.926 20.9813 197.469 21.6967 196.93 22.5942C196.403 23.4923 196.073 24.07 195.94 24.3275C195.806 24.585 195.694 24.7895 195.602 24.9409C195.522 25.093 195.429 25.2505 195.325 25.4133C194.909 26.0287 194.399 26.0025 193.797 25.3346C193.49 24.9943 193.343 24.6924 193.357 24.4287C193.359 24.3808 193.479 23.9303 193.715 23.0774C193.964 22.213 194.117 21.2236 194.174 20.1091C194.198 19.6417 194.157 19.4052 194.049 19.3997C193.905 19.3923 193.73 19.5274 193.523 19.8052C193.317 20.0829 192.996 20.5891 192.562 21.3237C192.127 22.0583 191.754 22.6639 191.441 23.1404C190.346 24.8023 189.535 25.6196 189.007 25.5924C188.744 25.5788 188.426 25.3401 188.053 24.8764C187.692 24.4132 187.518 24.0677 187.53 23.84C187.542 23.6004 187.703 23.0439 188.012 22.1707C188.334 21.2861 188.557 20.3423 188.681 19.3393C188.816 18.337 188.929 17.5557 189.018 16.9956C189.119 16.436 189.277 16.1618 189.493 16.1729C189.948 16.1964 190.376 16.4107 190.775 16.8158C191.188 17.2095 191.386 17.5622 191.37 17.8738C191.333 18.5808 191.012 19.8019 190.406 21.537C191.348 19.5789 192.125 18.2611 192.736 17.5837C193.385 16.8842 193.991 16.5489 194.555 16.578C194.866 16.594 195.235 16.9014 195.661 17.5001C196.098 18.0994 196.304 18.6508 196.278 19.1541C196.253 19.6454 196.225 20.0766 196.194 20.4474C196.613 19.5318 197.221 18.698 198.017 17.946C198.813 17.1939 199.54 16.8349 200.199 16.8688ZM210.794 21.5964C211 21.7992 211.099 21.9786 211.091 22.1343C211.083 22.2901 210.994 22.61 210.825 23.0939C210.656 23.5779 210.54 23.9564 210.478 24.2296C210.416 24.4908 210.364 24.6983 210.32 24.8523C210.288 25.0068 210.263 25.1317 210.246 25.227C210.23 25.3103 210.201 25.4169 210.158 25.5469C210.127 25.6774 210.097 25.7841 210.069 25.8667C210.053 25.938 210.025 26.0267 209.983 26.1327C209.954 26.2273 209.92 26.3037 209.881 26.3617C209.843 26.4078 209.798 26.4596 209.747 26.517C209.67 26.6092 209.548 26.6509 209.38 26.6423C209.213 26.6337 209.011 26.4551 208.777 26.1065C208.555 25.7586 208.396 25.3419 208.301 24.8564C207.115 25.9488 206.139 26.4752 205.372 26.4357C204.856 26.4092 204.314 26.0988 203.743 25.5047C203.174 24.8986 202.904 24.3139 202.933 23.7506C202.962 23.1754 203.262 22.3738 203.832 21.3457C204.401 20.3177 205.153 19.3771 206.086 18.524C207.031 17.6715 207.941 17.2678 208.816 17.3129C209.319 17.3388 209.885 17.6624 210.514 18.2836C211.143 18.9048 211.445 19.461 211.419 19.9524C211.395 20.4317 211.186 20.9797 210.794 21.5964ZM205.416 24.167C205.896 24.1917 206.548 23.9009 207.372 23.2945C208.209 22.6768 208.749 21.8755 208.992 20.8907C209.011 20.7475 209.117 20.6689 209.31 20.6548C209.31 19.9698 209.213 19.6224 209.022 19.6125C208.542 19.5878 207.987 19.8716 207.356 20.4639C206.736 21.0568 206.217 21.6969 205.797 22.3842C205.389 23.0721 205.176 23.5839 205.159 23.9194C205.154 24.0153 205.163 24.0818 205.185 24.119C205.219 24.1448 205.297 24.1608 205.416 24.167ZM8.27742 27.5659C8.24369 27.2878 8.17876 27.0321 8.08264 26.7988C7.98652 26.5656 7.86056 26.4449 7.70477 26.4369C7.56096 26.4295 7.4056 26.5296 7.23869 26.7373C7.08376 26.9456 6.92173 27.2917 6.7526 27.7757C6.48538 28.5309 6.21167 29.412 5.93148 30.4189C6.84475 30.4179 7.52907 30.4292 7.98447 30.4526C8.45185 30.4767 8.79568 30.5665 9.01597 30.7221C9.23687 30.8656 9.34239 31.0333 9.33251 31.225C9.31336 31.5965 8.96298 31.8669 8.28138 32.036C7.59977 32.2051 6.61886 32.3529 5.33867 32.4791C4.61039 34.9529 4.11005 36.5012 3.83763 37.124C3.56584 37.7349 3.28613 38.0329 2.99851 38.018C2.77081 38.0063 2.51074 37.8067 2.2183 37.4191C1.93846 37.0202 1.80348 36.7248 1.81336 36.5331C1.82324 36.3413 1.87692 36.1158 1.9744 35.8565C2.39963 34.833 2.73314 33.8409 2.97491 32.88C2.61044 32.9574 2.2844 32.9886 1.99678 32.9738C1.72115 32.9596 1.452 32.8196 1.18933 32.5537C0.927285 32.2758 0.805834 31.9512 0.824979 31.5797C0.847211 31.1482 1.72921 30.8212 3.47098 30.5985C3.93709 28.3155 4.50829 26.6747 5.18457 25.6762C5.86148 24.6657 6.78715 24.1907 7.96159 24.2512C8.52484 24.2803 9.02596 24.5824 9.46493 25.1578C9.9039 25.7331 10.1039 26.3983 10.065 27.1533C10.0397 27.6447 9.94174 28.0301 9.77112 28.3097C9.60112 28.5773 9.39029 28.7047 9.13862 28.6917C8.88696 28.6787 8.6891 28.5544 8.54504 28.3186C8.41296 28.0835 8.32376 27.8326 8.27742 27.5659ZM11.7489 36.6486C12.4108 36.3943 13.004 35.8421 13.5285 34.992C14.0529 34.1418 14.3349 33.3333 14.3744 32.5663C14.4139 31.7993 14.3333 31.2664 14.1324 30.9677C13.6016 31.2407 13.0539 31.8434 12.4892 32.7755C11.9364 33.7083 11.6412 34.5402 11.6035 35.2713C11.5665 35.9903 11.6149 36.4494 11.7489 36.6486ZM9.18547 35.3269C9.26267 33.8289 9.79724 32.4325 10.7892 31.1379C11.7931 29.8438 12.7505 29.2203 13.6613 29.2672C14.5721 29.3141 15.3224 29.6772 15.9122 30.3565C16.5026 31.0238 16.7744 31.8128 16.7274 32.7236C16.6811 33.6224 16.4182 34.5281 15.9386 35.4406C15.459 36.3531 14.8136 37.1009 14.0026 37.6839C13.1921 38.255 12.3434 38.5176 11.4566 38.4719C10.7975 38.438 10.2434 38.115 9.79428 37.5031C9.34518 36.8912 9.14224 36.1658 9.18547 35.3269ZM19.1673 32.615L19.1641 30.5781C19.1987 29.907 19.4257 29.5823 19.8451 29.6039C20.0848 29.6162 20.3139 29.7182 20.5323 29.9097C20.7627 30.1018 20.928 30.3927 21.028 30.7823C21.454 30.4438 21.9123 30.179 22.4027 29.988C22.9058 29.7857 23.3431 29.694 23.7146 29.7132C24.5895 29.7583 25.0161 29.9905 24.9945 30.41C24.9833 30.6257 24.9331 30.7853 24.8436 30.8888C24.7668 30.981 24.7031 31.0498 24.6527 31.0953C24.6143 31.1414 24.539 31.2036 24.4268 31.2819C24.3273 31.3489 24.2526 31.3991 24.2028 31.4326C23.9179 31.5981 23.7137 31.7138 23.5901 31.7795C23.0335 32.0873 22.5512 32.471 22.143 32.9306C21.7354 33.3782 21.4141 34.0165 21.1791 34.8455C20.7845 36.207 20.4138 37.2213 20.0671 37.8883C19.7329 38.544 19.374 38.8619 18.9905 38.8422C18.619 38.823 18.3467 38.6287 18.1735 38.2593C18.0122 37.8906 17.9396 37.5504 17.9557 37.2388C17.9724 36.9152 18.1109 36.4417 18.3713 35.8183C18.6438 35.1955 18.8336 34.6585 18.941 34.2075C19.061 33.745 19.1364 33.2142 19.1673 32.615ZM40.7232 34.0503C40.693 34.6375 40.2643 35.1441 39.4373 35.5701C38.6223 35.9967 37.7953 36.1884 36.9564 36.1452C36.1175 36.102 35.4315 36.0065 34.8984 35.8589C34.7739 36.1769 34.7033 36.4977 34.6866 36.8213C34.6699 37.1448 34.7118 37.3813 34.8123 37.5307C34.9133 37.6681 35.1796 37.7479 35.611 37.7701C36.5098 37.8164 37.2811 37.7721 37.9249 37.637C38.5807 37.5026 38.9206 37.436 38.9446 37.4372C39.4359 37.4625 39.6732 37.637 39.6566 37.9606C39.6325 38.4279 39.2201 38.8513 38.4196 39.2306C37.631 39.6105 36.7273 39.7742 35.7087 39.7217C34.702 39.6698 33.9095 39.3106 33.331 38.6439C32.7526 37.9773 32.4856 37.2125 32.53 36.3497C32.5751 35.4748 32.8737 34.577 33.4258 33.6562C33.9899 32.736 34.6718 31.9781 35.4716 31.3825C36.2719 30.7748 37.0496 30.4905 37.8046 30.5294C38.5715 30.5689 39.2591 30.9829 39.8674 31.7712C40.4762 32.5476 40.7615 33.3073 40.7232 34.0503ZM38.6528 33.6552C38.659 33.5354 38.5421 33.3551 38.3022 33.1144C38.0622 32.8738 37.8284 32.7476 37.6007 32.7358C37.385 32.7247 37.0951 32.872 36.7308 33.1776C36.3672 33.4713 36.0167 33.8618 35.6792 34.3491C35.7864 34.3666 35.9419 34.3806 36.1456 34.3911C37.7874 34.4757 38.6232 34.2304 38.6528 33.6552ZM49.5848 35.318C49.7906 35.5209 49.8895 35.7002 49.8815 35.856C49.8735 36.0118 49.7849 36.3316 49.6158 36.8156C49.4466 37.2995 49.331 37.6781 49.2688 37.9512C49.2073 38.2124 49.1546 38.42 49.1106 38.5739C49.0786 38.7285 49.0541 38.8534 49.0372 38.9486C49.0209 39.0319 48.9914 39.1385 48.9486 39.2685C48.9179 39.3991 48.8883 39.5057 48.8601 39.5884C48.8444 39.6597 48.8158 39.7483 48.7743 39.8543C48.7453 39.9489 48.7114 40.0253 48.6723 40.0834C48.6339 40.1294 48.5892 40.1812 48.5382 40.2387C48.4613 40.3308 48.339 40.3726 48.1712 40.3639C48.0034 40.3553 47.8024 40.1767 47.568 39.8282C47.3456 39.4803 47.1868 39.0636 47.0917 38.578C45.9059 39.6704 44.9295 40.1969 44.1625 40.1574C43.6472 40.1308 43.1045 39.8205 42.5343 39.2263C41.9647 38.6202 41.6945 38.0355 41.7235 37.4723C41.7531 36.897 42.0528 36.0954 42.6225 35.0674C43.1921 34.0393 43.9435 33.0987 44.8767 32.2456C45.8218 31.3931 46.7318 30.9894 47.6066 31.0345C48.1099 31.0605 48.676 31.384 49.3049 32.0052C49.9338 32.6264 50.2355 33.1827 50.2102 33.674C50.1855 34.1534 49.977 34.7014 49.5848 35.318ZM44.2074 37.8887C44.6867 37.9134 45.3386 37.6225 46.1629 37.0161C46.9998 36.3984 47.5397 35.5971 47.7827 34.6123C47.8021 34.4691 47.9083 34.3905 48.1013 34.3764C48.1005 33.6915 48.0043 33.3441 47.8125 33.3342C47.3332 33.3095 46.7778 33.5933 46.1465 34.1856C45.5272 34.7785 45.0075 35.4186 44.5876 36.1059C44.1797 36.7938 43.9671 37.3055 43.9498 37.6411C43.9448 37.737 43.9534 37.8035 43.9755 37.8407C44.0102 37.8665 44.0875 37.8825 44.2074 37.8887ZM57.5962 31.5673C58.0516 31.5908 58.4871 31.8836 58.9027 32.4457C59.3184 33.0079 59.5151 33.5047 59.4928 33.9361C59.478 34.2237 59.3448 34.361 59.0931 34.3481C58.9493 34.3407 58.7423 34.2759 58.4723 34.1539C58.2028 34.0198 57.9243 33.9454 57.6366 33.9306C57.361 33.9163 56.9426 33.9909 56.3815 34.1543C55.8323 34.3182 55.5497 34.556 55.5336 34.8676C55.5275 34.9874 55.6803 35.1695 55.9921 35.4139C56.304 35.6583 56.6455 35.9102 57.0166 36.1696C57.3877 36.4291 57.724 36.7828 58.0253 37.2309C58.3273 37.667 58.4653 38.1368 58.4393 38.6401C58.414 39.1315 58.0229 39.61 57.2659 40.0756C56.5209 40.5419 55.6571 40.7497 54.6744 40.6991C53.7037 40.649 52.8822 40.3844 52.21 39.9052C51.5377 39.426 51.2137 38.9527 51.2378 38.4853C51.2618 38.0179 51.4656 37.7941 51.8491 37.8138C52.0049 37.8219 52.1876 37.8914 52.3971 38.0223C52.9784 38.4007 53.7125 38.6128 54.5993 38.6585C55.4981 38.7048 55.9537 38.6081 55.966 38.3685C55.9784 38.1288 55.8182 37.8562 55.4855 37.5506C55.1654 37.2337 54.8081 36.939 54.4136 36.6663C54.0311 36.3943 53.6753 36.0695 53.3463 35.6921C53.0299 35.3033 52.8806 34.9351 52.8986 34.5876C52.9319 33.9404 53.5552 33.2696 54.7686 32.5752C55.9826 31.8687 56.9251 31.5328 57.5962 31.5673ZM67.4752 32.509C67.5625 32.2131 67.768 32.0735 68.0916 32.0902C68.4151 32.1068 68.7342 32.3276 69.0487 32.7523C69.3753 33.1777 69.5253 33.648 69.4987 34.1633C69.4833 34.4629 69.351 34.9308 69.102 35.5668C68.8529 36.2028 68.6733 36.6562 68.5633 36.9269C68.4652 37.1982 68.3199 37.5692 68.1274 38.0399C67.9355 38.4986 67.7572 38.928 67.5924 39.3281C67.4402 39.7168 67.227 40.2405 66.9527 40.8992C66.6904 41.5586 66.4486 42.171 66.2272 42.7363C65.8001 43.7958 65.3018 44.6052 64.7322 45.1646C64.1747 45.7247 63.4705 45.9828 62.6196 45.9389C61.7687 45.8951 61.0195 45.6282 60.3718 45.1382C59.7236 44.6602 59.4112 44.1935 59.4346 43.7381C59.4488 43.4624 59.5844 43.163 59.8414 42.8398C60.1104 42.5172 60.3287 42.3603 60.4965 42.3689C60.6763 42.3782 60.8969 42.5277 61.1583 42.8176C61.4311 43.12 61.7102 43.4168 61.9956 43.7078C62.2804 44.0109 62.5366 44.1683 62.7643 44.18C62.9201 44.1881 63.0496 44.1226 63.1529 43.9838C63.2682 43.8455 63.3589 43.718 63.425 43.6013C63.5024 43.4971 63.5824 43.345 63.6648 43.145C63.7465 42.957 63.8217 42.7806 63.8903 42.6159C63.9589 42.4512 64.0422 42.2332 64.1403 41.9619C64.2384 41.6906 64.3229 41.4486 64.394 41.236C64.631 40.5994 64.8345 40.0331 65.0042 39.5372C64.5822 40.0321 64.1534 40.4245 63.7179 40.7145C63.283 40.9925 62.8858 41.1222 62.5263 41.1037C62.1788 41.0858 61.7549 40.7996 61.2548 40.2451C60.7673 39.6793 60.5399 39.0788 60.5726 38.4436C60.606 37.7965 60.7882 36.9407 61.1195 35.8764C61.4627 34.8126 61.8656 33.8721 62.3283 33.0548C62.7909 32.2376 63.1841 31.8373 63.5076 31.8539C63.8791 31.8731 64.2183 32.0528 64.5252 32.393C64.8447 32.7219 64.9968 33.0362 64.9813 33.3358C64.9665 33.6234 64.7926 34.083 64.4597 34.7147C64.1387 35.3471 63.8087 36.039 63.4695 36.7905C63.1304 37.5421 62.9469 38.1875 62.9192 38.7268C62.9154 38.7987 62.9436 38.8362 63.0035 38.8393C63.1593 38.8473 63.5037 38.5767 64.0366 38.0274C64.5702 37.4661 65.1761 36.6682 65.8542 35.6337C66.545 34.5879 67.0853 33.5463 67.4752 32.509ZM77.795 39.0608C77.8383 38.2219 78.1495 37.3127 78.7286 36.3332C79.3078 35.3537 80.0414 34.5264 80.9293 33.8512C81.8292 33.1766 82.6926 32.8606 83.5195 32.9032C83.9389 32.9249 84.3562 33.2227 84.7712 33.7968C85.1868 34.359 85.3835 34.8558 85.3613 35.2872C85.3452 35.5988 85.1934 35.7472 84.9057 35.7323C84.7619 35.7249 84.5676 35.6488 84.3227 35.504C84.0778 35.3592 83.8236 35.28 83.5599 35.2665C83.2963 35.2529 82.9071 35.4611 82.3922 35.8912C81.89 36.3099 81.4308 36.8269 81.0146 37.4423C80.611 38.0464 80.3999 38.5281 80.3814 38.8877C80.3628 39.2472 80.4167 39.4843 80.543 39.5989C80.6812 39.7142 81.014 39.7854 81.5413 39.8126C82.0806 39.8404 82.5684 39.8175 83.0048 39.7438C83.4531 39.6708 83.7816 39.5916 83.9903 39.5062C84.2116 39.4095 84.4061 39.3654 84.5739 39.3741C84.9094 39.3914 85.0698 39.5438 85.055 39.8314C85.0278 40.3587 84.5386 40.8743 83.5874 41.378C82.6369 41.8697 81.7002 42.0918 80.7774 42.0442C80.1902 42.014 79.5358 41.6558 78.8141 40.9698C78.1051 40.2724 77.7654 39.636 77.795 39.0608ZM93.7483 33.8629C93.8596 33.5683 94.0591 33.4283 94.3467 33.4432C94.6343 33.458 94.9512 33.7206 95.2974 34.2311C95.6556 34.7423 95.8254 35.1776 95.8069 35.5371C95.8001 35.6689 95.4791 36.5355 94.8438 38.137C94.2085 39.7384 93.7167 41.0048 93.3683 41.9361C93.1746 42.4308 92.88 42.6679 92.4845 42.6475C92.2449 42.6352 92.0455 42.5408 91.8863 42.3644C91.7398 42.1766 91.6761 41.8969 91.6952 41.5254C91.7144 41.1539 91.8135 40.6303 91.9925 39.9546C90.6667 41.6647 89.6383 42.5009 88.9073 42.4632C88.5238 42.4434 88.0751 42.174 87.5611 41.6548C87.0478 41.1237 86.8031 40.6245 86.8272 40.1571C86.8865 39.0066 87.2857 37.5552 88.0249 35.8029C88.776 34.0513 89.4392 33.1903 90.0145 33.2199C90.362 33.2378 90.6596 33.4094 90.9072 33.7345C91.1667 34.0603 91.2869 34.409 91.2678 34.7805C91.2604 34.9243 91.0899 35.318 90.7563 35.9617C89.7436 37.8922 89.2163 39.2649 89.1743 40.0798C89.1706 40.1517 89.1987 40.1892 89.2586 40.1923C89.4384 40.2015 89.7885 39.9372 90.3088 39.3993C90.8418 38.85 91.4411 38.0638 92.1066 37.0407C92.7847 36.0062 93.332 34.9469 93.7483 33.8629ZM102.477 33.8802C102.932 33.9036 103.368 34.1964 103.783 34.7586C104.199 35.3207 104.396 35.8175 104.374 36.2489C104.359 36.5365 104.225 36.6739 103.974 36.6609C103.83 36.6535 103.623 36.5887 103.353 36.4667C103.083 36.3326 102.805 36.2582 102.517 36.2434C102.242 36.2292 101.823 36.3037 101.262 36.4671C100.713 36.631 100.43 36.8688 100.414 37.1804C100.408 37.3002 100.561 37.4823 100.873 37.7267C101.185 37.9711 101.526 38.223 101.897 38.4824C102.268 38.7419 102.605 39.0957 102.906 39.5438C103.208 39.9799 103.346 40.4496 103.32 40.9529C103.295 41.4443 102.904 41.9228 102.147 42.3884C101.402 42.8547 100.538 43.0625 99.5551 43.0119C98.5844 42.9619 97.7629 42.6972 97.0907 42.218C96.4184 41.7388 96.0944 41.2655 96.1184 40.7981C96.1425 40.3307 96.3463 40.1069 96.7298 40.1267C96.8856 40.1347 97.0683 40.2042 97.2778 40.3352C97.8591 40.7136 98.5932 40.9256 99.48 40.9713C100.379 41.0176 100.834 40.921 100.847 40.6813C100.859 40.4416 100.699 40.169 100.366 39.8635C100.046 39.5466 99.6888 39.2518 99.2943 38.9791C98.9118 38.7071 98.556 38.3823 98.227 38.0049C97.9106 37.6161 97.7613 37.2479 97.7792 36.9004C97.8126 36.2533 98.4359 35.5825 99.6493 34.888C100.863 34.1815 101.806 33.8456 102.477 33.8802ZM110.22 36.406C110.107 36.7246 109.94 37.1726 109.718 37.7499C109.508 38.3159 109.243 39.0292 108.922 39.8898C108.614 40.7511 108.458 41.2117 108.455 41.2716C108.452 41.3195 108.547 41.3485 108.739 41.3583C108.942 41.3688 109.423 41.2614 110.179 41.036C110.936 40.7987 111.381 40.6834 111.513 40.6902C111.812 40.7057 111.952 40.9171 111.931 41.3246C111.91 41.732 111.483 42.2027 110.65 42.7365C109.818 43.2584 108.965 43.4968 108.09 43.4517C107.707 43.432 107.262 43.1988 106.756 42.7522C106.251 42.3055 106.009 41.8665 106.031 41.4351C106.05 41.0756 106.268 40.3298 106.687 39.1979C107.119 38.0546 107.411 37.2706 107.565 36.846C107.091 36.9537 106.734 37.0014 106.495 36.9891C106.255 36.9767 106.012 36.8019 105.765 36.4648C105.518 36.1156 105.403 35.7913 105.418 35.4917C105.438 35.1082 106.383 34.8325 108.255 34.6645C108.54 33.5618 108.703 32.6029 108.745 31.788C108.764 31.4285 108.953 31.258 109.312 31.2765C109.624 31.2926 110.009 31.5047 110.469 31.9129C110.941 32.3097 111.168 32.6939 111.149 33.0654C111.13 33.4249 111.026 33.9302 110.836 34.5813C111.413 34.587 111.851 34.5975 112.15 34.613C113.049 34.6593 113.488 34.8862 113.467 35.2936C113.453 35.5573 113.178 35.7714 112.641 35.936C112.116 36.0892 111.309 36.2458 110.22 36.406ZM116.475 42.0454C117.137 41.7911 117.73 41.2389 118.254 40.3888C118.779 39.5386 119.061 38.7301 119.1 37.9631C119.14 37.1961 119.059 36.6632 118.858 36.3645C118.327 36.6376 117.78 37.2402 117.215 38.1723C116.662 39.1051 116.367 39.937 116.329 40.6681C116.292 41.3871 116.341 41.8462 116.475 42.0454ZM113.911 40.7237C113.988 39.2257 114.523 37.8293 115.515 36.5347C116.519 35.2406 117.476 34.6171 118.387 34.664C119.298 34.7109 120.048 35.074 120.638 35.7533C121.228 36.4206 121.5 37.2096 121.453 38.1204C121.407 39.0192 121.144 39.9249 120.664 40.8374C120.185 41.7499 119.539 42.4977 118.728 43.0807C117.918 43.6518 117.069 43.9145 116.182 43.8688C115.523 43.8348 114.969 43.5118 114.52 42.8999C114.071 42.288 113.868 41.5626 113.911 40.7237ZM135.159 35.5463C135.626 35.5704 136 35.9021 136.279 36.5413C136.559 37.1805 136.685 37.7578 136.659 38.2731C136.632 38.7884 136.491 39.5502 136.234 40.5583C135.991 41.5551 135.629 42.5158 135.149 43.4403C134.681 44.3534 134.202 44.7973 133.71 44.772C133.315 44.7516 133.131 44.4718 133.159 43.9325C133.186 43.3932 133.388 42.5204 133.762 41.3141C134.137 40.1078 134.334 39.3129 134.354 38.9294C134.373 38.5459 134.323 38.3511 134.204 38.3449C133.952 38.3319 133.638 38.5921 133.262 39.1255C132.886 39.6588 132.429 40.3742 131.89 41.2717C131.363 42.1698 131.033 42.7475 130.899 43.005C130.766 43.2625 130.653 43.467 130.561 43.6184C130.481 43.7705 130.389 43.928 130.285 44.0908C129.868 44.7062 129.359 44.68 128.757 44.0121C128.45 43.6718 128.303 43.3699 128.317 43.1062C128.319 43.0583 128.439 42.6078 128.675 41.7549C128.924 40.8905 129.077 39.9011 129.134 38.7866C129.158 38.3192 129.116 38.0827 129.008 38.0772C128.865 38.0698 128.689 38.2049 128.483 38.4827C128.276 38.7604 127.956 39.2666 127.521 40.0012C127.087 40.7358 126.713 41.3414 126.401 41.8179C125.306 43.4798 124.494 44.2971 123.967 44.2699C123.703 44.2563 123.385 44.0176 123.013 43.5538C122.652 43.0907 122.478 42.7452 122.489 42.5175C122.502 42.2779 122.663 41.7214 122.972 40.8482C123.294 39.9636 123.517 39.0198 123.64 38.0168C123.776 37.0145 123.889 36.2332 123.978 35.6731C124.078 35.1135 124.237 34.8393 124.453 34.8504C124.908 34.8739 125.335 35.0882 125.735 35.4933C126.147 35.887 126.346 36.2397 126.329 36.5513C126.293 37.2583 125.972 38.4794 125.366 40.2145C126.308 38.2564 127.085 36.9386 127.696 36.2612C128.345 35.5617 128.951 35.2264 129.514 35.2555C129.826 35.2715 130.195 35.5789 130.62 36.1776C131.058 36.7769 131.264 37.3282 131.238 37.8316C131.213 38.3229 131.185 38.754 131.153 39.1249C131.573 38.2093 132.181 37.3755 132.977 36.6234C133.772 35.8714 134.5 35.5124 135.159 35.5463ZM140.206 33.5534C140.222 33.2419 140.376 32.9314 140.669 32.622C140.974 32.3013 141.258 32.1477 141.522 32.1613C141.797 32.1755 142.104 32.5157 142.442 33.182C142.78 33.8483 142.942 34.3313 142.926 34.6309C142.912 34.9185 142.804 35.1353 142.604 35.2812C142.405 35.4271 142.203 35.4948 141.999 35.4843C141.652 35.4664 141.262 35.218 140.83 34.7391C140.398 34.2603 140.19 33.865 140.206 33.5534ZM140.36 35.8144C140.779 35.836 141.139 36.0948 141.437 36.5908C141.748 37.0875 141.892 37.5575 141.87 38.0009C141.858 38.2286 141.606 39.0387 141.113 40.4313C140.634 41.8124 140.158 43.1216 139.685 44.359C139.518 44.8189 139.212 45.0375 138.768 45.0146C138.505 45.0011 138.276 44.8931 138.082 44.6909C137.901 44.4773 137.818 44.2147 137.834 43.9031C137.851 43.5795 138.042 42.7963 138.406 41.5534C138.783 40.2992 139.072 39.2326 139.274 38.3538C139.488 37.4637 139.671 36.8183 139.824 36.4176C139.99 36.0056 140.168 35.8045 140.36 35.8144ZM145.838 43.1079L149.764 43.1661C150.016 43.179 150.234 43.2504 150.42 43.3801C150.606 43.4978 150.693 43.6706 150.681 43.8983C150.652 44.4615 150.097 44.8715 149.014 45.1281C147.932 45.3727 146.6 45.4543 145.018 45.3728C144.443 45.3431 143.911 45.0574 143.422 44.5155C142.933 43.9736 142.697 43.5409 142.714 43.2173C142.731 42.8818 143.058 42.4781 143.696 42.0062C144.333 41.5344 145.022 41.1073 145.762 40.7249C146.516 40.3311 147.208 39.9583 147.839 39.6063C148.47 39.2423 148.789 38.9944 148.796 38.8626C148.803 38.7307 148.483 38.6481 147.836 38.6148C147.188 38.5815 146.659 38.5902 146.248 38.6411C145.837 38.692 145.506 38.711 145.254 38.698C145.002 38.6851 144.725 38.4665 144.423 38.0424C144.121 37.6063 143.976 37.2684 143.988 37.0287C144.005 36.6931 144.318 36.4569 144.926 36.32C145.546 36.1717 146.228 36.1168 146.971 36.155C147.714 36.1933 148.518 36.3369 149.382 36.5857C149.772 36.7139 150.134 37.039 150.467 37.5608C150.813 38.0833 150.979 38.4824 150.964 38.758C150.938 39.2613 150.647 39.781 150.091 40.3171C149.547 40.8418 148.954 41.2739 148.312 41.6133C147.67 41.9527 147.077 42.2646 146.533 42.549C146.003 42.822 145.736 42.9885 145.733 43.0484C145.731 43.0844 145.766 43.1042 145.838 43.1079ZM160.139 41.0152C160.345 41.218 160.444 41.3973 160.436 41.5531C160.427 41.7089 160.339 42.0288 160.17 42.5127C160.001 42.9967 159.885 43.3752 159.823 43.6484C159.761 43.9096 159.709 44.1171 159.665 44.2711C159.633 44.4256 159.608 44.5505 159.591 44.6458C159.575 44.7291 159.545 44.8357 159.503 44.9657C159.472 45.0962 159.442 45.2029 159.414 45.2855C159.398 45.3568 159.37 45.4455 159.328 45.5515C159.299 45.6461 159.265 45.7224 159.226 45.7805C159.188 45.8266 159.143 45.8784 159.092 45.9358C159.015 46.028 158.893 46.0697 158.725 46.0611C158.557 46.0525 158.356 45.8739 158.122 45.5253C157.9 45.1774 157.741 44.7607 157.646 44.2752C156.46 45.3676 155.484 45.894 154.717 45.8545C154.201 45.828 153.659 45.5176 153.088 44.9235C152.519 44.3174 152.248 43.7327 152.278 43.1694C152.307 42.5942 152.607 41.7926 153.176 40.7645C153.746 39.7365 154.498 38.7959 155.431 37.9428C156.376 37.0903 157.286 36.6866 158.161 36.7317C158.664 36.7576 159.23 37.0812 159.859 37.7024C160.488 38.3236 160.79 38.8798 160.764 39.3712C160.74 39.8505 160.531 40.3985 160.139 41.0152ZM154.761 43.5858C155.241 43.6105 155.893 43.3197 156.717 42.7133C157.554 42.0956 158.094 41.2943 158.337 40.3095C158.356 40.1663 158.462 40.0877 158.655 40.0736C158.655 39.3886 158.558 39.0412 158.367 39.0313C157.887 39.0066 157.332 39.2904 156.701 39.8827C156.081 40.4756 155.562 41.1157 155.142 41.803C154.734 42.4909 154.521 43.0027 154.504 43.3382C154.499 43.4341 154.507 43.5006 154.53 43.5378C154.564 43.5636 154.642 43.5796 154.761 43.5858ZM166.962 39.3301C166.85 39.6487 166.683 40.0967 166.461 40.6741C166.251 41.24 165.986 41.9533 165.665 42.814C165.357 43.6752 165.201 44.1358 165.198 44.1957C165.195 44.2437 165.29 44.2726 165.482 44.2824C165.685 44.2929 166.165 44.1855 166.922 43.9602C167.679 43.7228 168.124 43.6075 168.256 43.6143C168.555 43.6298 168.694 43.8412 168.673 44.2487C168.652 44.6561 168.226 45.1268 167.393 45.6607C166.561 46.1825 165.708 46.4209 164.833 46.3758C164.449 46.3561 164.005 46.1229 163.499 45.6763C162.993 45.2297 162.752 44.7906 162.774 44.3592C162.793 43.9997 163.011 43.254 163.43 42.122C163.861 40.9787 164.154 40.1947 164.308 39.7701C163.834 39.8778 163.477 39.9255 163.237 39.9132C162.998 39.9008 162.754 39.7261 162.507 39.3889C162.261 39.0398 162.146 38.7154 162.161 38.4158C162.181 38.0323 163.126 37.7566 164.997 37.5887C165.282 36.4859 165.446 35.527 165.488 34.7121C165.507 34.3526 165.696 34.1821 166.055 34.2006C166.367 34.2167 166.752 34.4288 167.212 34.837C167.684 35.2338 167.911 35.618 167.892 35.9895C167.873 36.349 167.769 36.8543 167.579 37.5054C168.156 37.5111 168.594 37.5217 168.893 37.5371C169.792 37.5834 170.231 37.8103 170.21 38.2178C170.196 38.4814 169.921 38.6955 169.384 38.8601C168.859 39.0133 168.052 39.17 166.962 39.3301ZM172.944 35.2405C172.96 34.9289 173.114 34.6184 173.406 34.3091C173.711 33.9883 173.996 33.8348 174.259 33.8484C174.535 33.8626 174.842 34.2028 175.18 34.8691C175.518 35.5354 175.679 36.0183 175.664 36.3179C175.649 36.6055 175.542 36.8223 175.342 36.9682C175.142 37.1141 174.941 37.1818 174.737 37.1713C174.389 37.1534 174 36.905 173.568 36.4262C173.136 35.9473 172.928 35.5521 172.944 35.2405ZM173.098 37.5014C173.517 37.523 173.876 37.7819 174.175 38.2779C174.486 38.7746 174.63 39.2446 174.607 39.688C174.595 39.9157 174.343 40.7258 173.851 42.1183C173.371 43.4995 172.895 44.8087 172.423 46.046C172.255 46.506 171.949 46.7246 171.506 46.7017C171.242 46.6881 171.014 46.5802 170.82 46.378C170.639 46.1643 170.556 45.9018 170.572 45.5902C170.589 45.2666 170.779 44.4834 171.144 43.2405C171.521 41.9862 171.81 40.9197 172.012 40.0409C172.226 39.1507 172.409 38.5053 172.562 38.1047C172.727 37.6926 172.906 37.4915 173.098 37.5014ZM178.426 45.2379C179.088 44.9836 179.682 44.4314 180.206 43.5813C180.73 42.7312 181.012 41.9226 181.052 41.1556C181.091 40.3886 181.011 39.8558 180.81 39.5571C180.279 39.8301 179.731 40.4327 179.167 41.3649C178.614 42.2977 178.319 43.1296 178.281 43.8606C178.244 44.5797 178.292 45.0388 178.426 45.2379ZM175.863 43.9162C175.94 42.4182 176.475 41.0219 177.467 39.7272C178.471 38.4332 179.428 37.8096 180.339 37.8566C181.25 37.9035 182 38.2666 182.59 38.9458C183.18 39.6131 183.452 40.4021 183.405 41.3129C183.359 42.2117 183.096 43.1174 182.616 44.0299C182.136 44.9425 181.491 45.6902 180.68 46.2733C179.87 46.8443 179.021 47.107 178.134 47.0613C177.475 47.0273 176.921 46.7044 176.472 46.0925C176.023 45.4805 175.82 44.7551 175.863 43.9162ZM191.628 38.4563C192.251 38.4885 192.782 38.7982 193.22 39.3855C193.671 39.9615 193.88 40.567 193.847 41.2022C193.795 42.2209 193.572 43.2788 193.179 44.376C192.799 45.4619 192.396 46.2942 191.969 46.8731C191.555 47.4525 191.144 47.7317 190.736 47.7107C190.341 47.6903 190.158 47.3985 190.187 46.8353C190.209 46.4038 190.451 45.5452 190.914 44.2593C191.269 43.1962 191.459 42.4309 191.483 41.9635C191.507 41.4962 191.459 41.2594 191.34 41.2532C191.184 41.2452 191.024 41.315 190.86 41.4628C190.708 41.6112 190.581 41.7428 190.479 41.8577C190.377 41.9726 190.255 42.1226 190.114 42.3075C189.985 42.4811 189.868 42.6433 189.764 42.7942C189.673 42.9337 189.549 43.1195 189.393 43.3518C189.249 43.5727 189.132 43.7589 189.04 43.9104C188.948 44.0499 188.831 44.236 188.687 44.4689C187.465 46.4967 186.536 47.4943 185.901 47.4615C185.649 47.4486 185.343 47.2165 184.981 46.7653C184.621 46.3021 184.446 45.9687 184.456 45.7649C184.463 45.6331 184.561 45.3558 184.751 44.933C184.954 44.4989 185.097 44.1698 185.181 43.9458C185.277 43.7105 185.356 43.4622 185.417 43.201C185.491 42.9404 185.553 42.6613 185.605 42.3635C185.657 42.0538 185.693 41.8154 185.714 41.6482C185.746 41.4817 185.784 41.2192 185.826 40.861C186.015 39.3086 186.149 38.4504 186.229 38.2863C186.322 38.1228 186.416 38.0436 186.512 38.0485C186.967 38.072 187.395 38.2863 187.795 38.6914C188.195 39.0845 188.387 39.4369 188.371 39.7484C188.333 40.4915 188.086 41.5482 187.631 42.9185C188.48 41.5925 189.245 40.5144 189.924 39.6843C190.617 38.8428 191.184 38.4335 191.628 38.4563Z" fill="#0B0B0B"/>
<path fill-rule="evenodd" clip-rule="evenodd" d="M206.846 62.1238C233.251 111.88 214.312 158.24 181.841 188.459C181.285 188.979 181.308 189.959 181.897 190.645C182.486 191.33 183.418 191.468 183.974 190.948C217.357 159.885 236.496 112.1 209.35 60.9504C208.929 60.1529 208.024 59.7687 207.33 60.0919C206.638 60.4132 206.422 61.3229 206.846 62.1238Z" fill="black"/>
<path fill-rule="evenodd" clip-rule="evenodd" d="M183.356 189.22C184.008 187.465 184.851 185.269 184.939 185.018C187.334 178.202 188.541 171.442 188.79 164.325C188.811 163.748 188.349 163.287 187.76 163.296C187.172 163.306 186.677 163.784 186.656 164.362C186.417 171.262 185.248 177.819 182.924 184.43C182.789 184.816 180.891 189.75 180.582 190.772C180.454 191.191 180.512 191.46 180.531 191.522C180.624 191.856 180.827 192.027 181.011 192.127C181.219 192.238 181.612 192.336 182.123 192.169C182.658 191.991 183.683 191.364 183.954 191.225C188.046 189.144 192.446 186.481 196.977 184.808C201.298 183.213 205.742 182.517 210.134 184.278C210.669 184.493 211.304 184.229 211.551 183.693C211.798 183.157 211.562 182.547 211.028 182.332C206.117 180.364 201.147 181.069 196.319 182.852C191.815 184.515 187.435 187.126 183.356 189.22Z" fill="black"/>
</svg>
