<svg width="28" height="28" viewBox="0 0 28 28" fill="none" xmlns="http://www.w3.org/2000/svg">
<path d="M25.3128 3.86232L22.5903 6.5745L23.1471 7.13138C23.454 7.43702 23.6974 7.80023 23.8635 8.20018C24.0296 8.60012 24.1151 9.02893 24.1151 9.46201C24.1151 9.89508 24.0296 10.3239 23.8635 10.7238C23.6974 11.1238 23.454 11.487 23.1471 11.7926L20.5278 14.412L20.7753 14.6492C20.9302 14.8056 21.0171 15.0169 21.0171 15.237C21.0171 15.4572 20.9302 15.6684 20.7753 15.8248C20.6176 15.9773 20.4068 16.0625 20.1875 16.0625C19.9681 16.0625 19.7573 15.9773 19.5996 15.8248L18.7746 14.9998L12.9996 9.22482L12.1746 8.39982C12.0431 8.23952 11.9759 8.03603 11.986 7.82891C11.9962 7.62179 12.083 7.42586 12.2297 7.27923C12.3763 7.1326 12.5722 7.04575 12.7794 7.03558C12.9865 7.0254 13.19 7.09264 13.3503 7.22419L13.5875 7.47169L16.2068 4.85232C16.5125 4.5455 16.8757 4.30205 17.2756 4.13594C17.6756 3.96983 18.1044 3.88432 18.5375 3.88432C18.9705 3.88432 19.3993 3.96983 19.7993 4.13594C20.1992 4.30205 20.5624 4.5455 20.8681 4.85232L21.425 5.40919L24.1371 2.68669C24.2974 2.55514 24.5009 2.4879 24.708 2.49808C24.9152 2.50825 25.1111 2.5951 25.2577 2.74173C25.4044 2.88836 25.4912 3.08429 25.5014 3.29141C25.5116 3.49853 25.4443 3.70202 25.3128 3.86232V3.86232ZM15.0621 15.0617L13.175 16.9592L11.0403 14.8245L12.9378 12.9373C13.0693 12.777 13.1366 12.5735 13.1264 12.3664C13.1162 12.1593 13.0294 11.9634 12.8827 11.8167C12.7361 11.6701 12.5402 11.5832 12.333 11.5731C12.1259 11.5629 11.9224 11.6301 11.7621 11.7617L9.87495 13.6592L9.22527 12.9992L8.40027 12.1742C8.23997 12.0426 8.03647 11.9754 7.82936 11.9856C7.62224 11.9957 7.42631 12.0826 7.27968 12.2292C7.13305 12.3759 7.0462 12.5718 7.03603 12.7789C7.02585 12.986 7.09308 13.1895 7.22464 13.3498L7.47214 13.587L4.85277 16.2064C4.54595 16.512 4.3025 16.8752 4.13639 17.2752C3.97028 17.6751 3.88477 18.1039 3.88477 18.537C3.88477 18.9701 3.97028 19.3989 4.13639 19.7988C4.3025 20.1988 4.54595 20.562 4.85277 20.8676L5.40964 21.4245L2.68714 24.1367C2.53222 24.2931 2.44531 24.5044 2.44531 24.7245C2.44531 24.9447 2.53222 25.1559 2.68714 25.3123C2.84483 25.4648 3.0556 25.55 3.27495 25.55C3.49431 25.55 3.70508 25.4648 3.86277 25.3123L6.57495 22.5898L7.13183 23.1467C7.43747 23.4535 7.80068 23.697 8.20063 23.8631C8.60057 24.0292 9.02938 24.1147 9.46245 24.1147C9.89552 24.1147 10.3243 24.0292 10.7243 23.8631C11.1242 23.697 11.4874 23.4535 11.7931 23.1467L14.4125 20.5273L14.6496 20.7748C14.8073 20.9273 15.0181 21.0125 15.2375 21.0125C15.4568 21.0125 15.6676 20.9273 15.8253 20.7748C15.9802 20.6184 16.0671 20.4072 16.0671 20.187C16.0671 19.9669 15.9802 19.7556 15.8253 19.5992L15.0003 18.7742L14.3403 18.1245L16.2378 16.2373C16.3693 16.077 16.4366 15.8735 16.4264 15.6664C16.4162 15.4593 16.3294 15.2634 16.1827 15.1167C16.0361 14.9701 15.8402 14.8832 15.633 14.8731C15.4259 14.8629 15.2224 14.9301 15.0621 15.0617V15.0617Z" fill="black"/>
</svg>
