<svg width="32" height="32" viewBox="0 0 32 32" fill="none" xmlns="http://www.w3.org/2000/svg">
<path d="M16.001 18.5005C17.1055 18.5005 18.001 17.6051 18.001 16.5005C18.001 15.3959 17.1055 14.5005 16.001 14.5005C14.8964 14.5005 14.001 15.3959 14.001 16.5005C14.001 17.6051 14.8964 18.5005 16.001 18.5005Z" fill="black"/>
<path d="M27.3205 15.4863L24.0006 8.76691V4.00049C24.0006 3.47006 23.7899 2.96135 23.4148 2.58627C23.0398 2.2112 22.5311 2.00049 22.0006 2.00049H10.0006C9.4702 2.00049 8.96149 2.2112 8.58642 2.58627C8.21134 2.96135 8.00063 3.47006 8.00063 4.00049V8.76691L4.68074 15.4864C4.5175 15.815 4.44815 16.1823 4.48034 16.5479C4.51253 16.9134 4.64501 17.2629 4.86318 17.558L14.098 30.1027C14.1604 30.1875 14.248 30.2504 14.3484 30.2825C14.4487 30.3146 14.5566 30.3142 14.6566 30.2813C14.7567 30.2484 14.8438 30.1848 14.9056 30.0995C14.9674 30.0142 15.0006 29.9116 15.0006 29.8062V20.3739C14.058 20.1305 13.2364 19.5517 12.69 18.7459C12.1436 17.9401 11.9098 16.9627 12.0325 15.9969C12.1552 15.0311 12.6259 14.1432 13.3564 13.4996C14.0869 12.856 15.0271 12.5009 16.0006 12.5009C16.9742 12.5009 17.9144 12.856 18.6449 13.4996C19.3754 14.1432 19.8461 15.0311 19.9687 15.9969C20.0914 16.9627 19.8576 17.9401 19.3112 18.7459C18.7648 19.5517 17.9433 20.1305 17.0006 20.3739V29.8062C17.0006 29.9116 17.0339 30.0142 17.0957 30.0995C17.1574 30.1848 17.2446 30.2484 17.3446 30.2813C17.4447 30.3141 17.5526 30.3146 17.6529 30.2825C17.7532 30.2504 17.8409 30.1875 17.9033 30.1026L27.138 17.5579C27.3562 17.2628 27.4887 16.9133 27.5209 16.5478C27.553 16.1823 27.4837 15.8149 27.3205 15.4863V15.4863ZM22.0006 8.00049H10.0006V4.00049H22.0006V8.00049Z" fill="black"/>
</svg>
