<svg width="32" height="32" viewBox="0 0 32 32" fill="none" xmlns="http://www.w3.org/2000/svg">
<path d="M20 2C18.4215 2.0019 16.8659 2.37698 15.46 3.09462C14.0541 3.81227 12.8377 4.85214 11.9103 6.1294C10.9828 7.40666 10.3705 8.8851 10.1232 10.4441C9.87593 12.0031 10.0008 13.5984 10.4875 15.1L3.28752 22.2875C3.10179 22.478 2.99852 22.734 3.00002 23V28C3.00002 28.2652 3.10537 28.5196 3.29291 28.7071C3.48045 28.8946 3.7348 29 4.00002 29H9.00002C9.26523 29 9.51959 28.8946 9.70712 28.7071C9.89466 28.5196 10 28.2652 10 28V26H12C12.2652 26 12.5196 25.8946 12.7071 25.7071C12.8947 25.5196 13 25.2652 13 25V23H15C15.2661 23.0015 15.522 22.8982 15.7125 22.7125L16.9 21.5125C18.2742 21.958 19.7286 22.1006 21.1631 21.9303C22.5976 21.76 23.9782 21.2809 25.2098 20.526C26.4415 19.7711 27.495 18.7583 28.2978 17.5573C29.1006 16.3564 29.6337 14.9957 29.8603 13.569C30.087 12.1423 30.0019 10.6835 29.6108 9.29283C29.2197 7.90218 28.532 6.61278 27.5949 5.51334C26.6579 4.4139 25.4937 3.53054 24.1826 2.92403C22.8715 2.31753 21.4446 2.00229 20 2ZM22.5 11.5C22.1045 11.5 21.7178 11.3827 21.3889 11.1629C21.06 10.9432 20.8036 10.6308 20.6523 10.2654C20.5009 9.89991 20.4613 9.49778 20.5384 9.10982C20.6156 8.72186 20.8061 8.36549 21.0858 8.08579C21.3655 7.80608 21.7219 7.6156 22.1098 7.53843C22.4978 7.46126 22.8999 7.50087 23.2654 7.65224C23.6308 7.80362 23.9432 8.05996 24.163 8.38886C24.3827 8.71776 24.5 9.10444 24.5 9.5C24.5 10.0304 24.2893 10.5391 23.9142 10.9142C23.5392 11.2893 23.0304 11.5 22.5 11.5Z" fill="#0B0B0B"/>
</svg>
