<svg width="262" height="98" viewBox="0 0 262 98" fill="none" xmlns="http://www.w3.org/2000/svg">
<path d="M7.66374 56.9145C7.58985 56.6736 7.80538 56.3941 8.31032 56.0761C8.81527 55.758 9.38897 55.5005 10.0314 55.3035C10.6739 55.1064 11.2407 55.215 11.7317 55.6293C12.2342 56.04 12.5822 56.5608 12.7757 57.1918C12.9692 57.8228 13.0339 58.9954 12.9697 60.7096C12.9134 62.4087 12.6902 63.3181 12.3002 63.4378C12.1396 63.487 11.9861 63.4776 11.8397 63.4096C11.7083 63.3494 11.6197 63.2448 11.574 63.0957C11.3206 62.2696 11.1877 61.0176 11.1751 59.3395C10.847 60.1933 10.4268 60.9309 9.91452 61.5524C9.41371 62.1704 8.82487 62.5832 8.14798 62.7908C7.48257 62.9949 6.69302 62.9169 5.77934 62.557C4.86565 62.1971 4.30149 61.6672 4.08686 60.9674C3.70687 59.7284 3.65353 58.2448 3.92686 56.5167C4.19667 54.7771 4.73012 53.2015 5.52721 51.7897C6.32431 50.3779 7.22192 49.519 8.22003 49.2129C8.56421 49.1074 9.00254 49.2679 9.53504 49.6945C10.079 50.1176 10.4196 50.5529 10.5568 51.0003C10.6201 51.2068 10.5772 51.3329 10.4281 51.3787C10.4052 51.3857 10.2891 51.3962 10.08 51.4101C9.87091 51.424 9.62295 51.475 9.33613 51.5629C8.56747 51.7987 7.90298 52.4355 7.34268 53.4734C6.77885 54.4998 6.42046 55.6641 6.26752 56.9662C6.11457 58.2682 6.19291 59.4241 6.50254 60.4336C6.59402 60.7319 6.83479 60.8213 7.22486 60.7016C7.76407 60.5363 8.34986 60.093 8.98222 59.3719C9.62605 58.6473 10.0687 57.9216 10.3103 57.1949C10.0614 57.2837 9.75338 57.3845 9.38625 57.4971C9.0306 57.6061 8.67021 57.5974 8.30507 57.4709C7.9514 57.3409 7.73763 57.1554 7.66374 56.9145ZM21.8159 52.5554C21.9883 53.1176 21.7587 53.7403 21.1273 54.4234C20.5073 55.1031 19.7958 55.566 18.9927 55.8123C18.1896 56.0586 17.5124 56.2036 16.9609 56.2472C16.9527 56.5886 16.996 56.9142 17.091 57.224C17.186 57.5337 17.3063 57.7416 17.4518 57.8476C17.5937 57.9421 17.8712 57.9261 18.2842 57.7994C19.1447 57.5355 19.8543 57.23 20.4131 56.8829C20.9833 56.5323 21.2799 56.3535 21.3029 56.3465C21.7732 56.2022 22.0559 56.285 22.1509 56.5947C22.2882 57.0421 22.0455 57.581 21.4229 58.2112C20.8118 58.8379 20.0187 59.3008 19.0435 59.5999C18.0798 59.8955 17.2122 59.8289 16.4406 59.4003C15.669 58.9717 15.1565 58.3444 14.9032 57.5184C14.6464 56.6809 14.6199 55.7351 14.8238 54.681C15.0391 53.6233 15.4207 52.6779 15.9685 51.8447C16.5127 51 17.1462 50.4668 17.869 50.2451C18.6032 50.02 19.391 50.1737 20.2321 50.7065C21.0698 51.2278 21.5977 51.8441 21.8159 52.5554ZM19.7352 52.8923C19.7 52.7776 19.5285 52.6482 19.2207 52.5041C18.913 52.36 18.6501 52.3214 18.4321 52.3882C18.2256 52.4515 18.0035 52.6891 17.7658 53.1009C17.5246 53.5012 17.3287 53.9881 17.1782 54.5614C17.285 54.5412 17.4359 54.5012 17.6309 54.4414C19.2026 53.9593 19.9041 53.443 19.7352 52.8923ZM27.1235 49.6474C27.1268 49.9853 27.1228 50.4635 27.1116 51.0819C27.1084 51.6854 27.1033 52.4463 27.0963 53.3647C27.1008 54.2796 27.1118 54.7658 27.1294 54.8231C27.1434 54.869 27.2423 54.8638 27.4258 54.8075C27.6209 54.7477 28.0353 54.4825 28.6692 54.012C29.2996 53.53 29.6779 53.2696 29.8041 53.2309C30.0909 53.143 30.2941 53.294 30.4137 53.6841C30.5334 54.0742 30.2933 54.6624 29.6935 55.4488C29.0902 56.2238 28.3698 56.7397 27.5323 56.9965C27.1652 57.1091 26.6677 57.042 26.0397 56.7953C25.4118 56.5486 25.0345 56.2187 24.9078 55.8057C24.8023 55.4615 24.7527 54.686 24.7591 53.4791C24.7735 52.2571 24.7804 51.4203 24.7799 50.9686C24.3712 51.232 24.0521 51.3989 23.8227 51.4693C23.5932 51.5397 23.3048 51.4587 22.9574 51.2263C22.6065 50.9825 22.387 50.7172 22.2991 50.4304C22.1865 50.0632 22.9806 49.4808 24.6815 48.683C24.5722 47.5492 24.398 46.5923 24.1587 45.8121C24.0532 45.4679 24.1725 45.2431 24.5167 45.1375C24.8149 45.046 25.2498 45.1135 25.8213 45.3399C26.4008 45.5513 26.745 45.8348 26.8541 46.1904C26.9597 46.5346 27.0346 47.0451 27.079 47.7218C27.6226 47.53 28.0379 47.3901 28.3247 47.3021C29.1851 47.0382 29.6752 47.1013 29.7948 47.4914C29.8722 47.7438 29.6867 48.0392 29.2382 48.3775C28.7976 48.7009 28.0927 49.1242 27.1235 49.6474ZM46.153 45.0916C46.3254 45.6538 46.0959 46.2764 45.4644 46.9596C44.8445 47.6392 44.1329 48.1022 43.3299 48.3485C42.5268 48.5948 41.8495 48.7397 41.2981 48.7833C41.2898 49.1248 41.3332 49.4504 41.4282 49.7601C41.5232 50.0699 41.6434 50.2778 41.7889 50.3838C41.9308 50.4783 42.2083 50.4622 42.6213 50.3356C43.4818 50.0717 44.1914 49.7662 44.7502 49.4191C45.3205 49.0685 45.6171 48.8897 45.64 48.8826C46.1104 48.7384 46.3931 48.8211 46.4881 49.1309C46.6253 49.5783 46.3826 50.1171 45.76 50.7474C45.1489 51.3741 44.3558 51.837 43.3806 52.1361C42.4169 52.4316 41.5493 52.3651 40.7777 51.9365C40.0061 51.5079 39.4937 50.8806 39.2403 50.0545C38.9835 49.2171 38.957 48.2712 39.1609 47.2171C39.3763 46.1595 39.7578 45.2141 40.3056 44.3808C40.8499 43.5361 41.4834 43.003 42.2061 42.7813C42.9404 42.5561 43.7281 42.7099 44.5693 43.2427C45.4069 43.764 45.9348 44.3803 46.153 45.0916ZM44.0723 45.4285C44.0371 45.3137 43.8657 45.1843 43.5579 45.0402C43.2501 44.8961 42.9872 44.8575 42.7692 44.9244C42.5627 44.9877 42.3406 45.2253 42.1029 45.6371C41.8617 46.0374 41.6658 46.5242 41.5153 47.0976C41.6221 47.0774 41.773 47.0374 41.968 46.9775C43.5398 46.4955 44.2412 45.9791 44.0723 45.4285ZM52.246 34.4305C52.5213 34.3461 52.9601 34.4877 53.5623 34.8552C54.1611 35.2113 54.5273 35.6074 54.661 36.0433C54.7278 36.2613 54.805 37.2292 54.8926 38.947C54.9801 40.6649 55.0347 41.7025 55.0564 42.0598C55.3525 46.2993 55.2883 48.4842 54.8638 48.6144C54.6229 48.6882 54.3093 48.6275 53.923 48.4322C53.5368 48.2369 53.3014 48.0015 53.217 47.7262C53.1994 47.6688 53.1911 47.6212 53.192 47.5832C52.3332 48.8758 51.6515 49.5995 51.1467 49.7543C50.6534 49.9056 50.0906 49.7895 49.4584 49.4061C48.8341 49.0076 48.4551 48.5904 48.3214 48.1544C48.1877 47.7185 48.0973 47.219 48.0502 46.6561C48.011 46.0782 48.0261 45.4522 48.0956 44.7782C48.165 44.1043 48.2812 43.4599 48.4441 42.8451C48.6149 42.2153 48.8788 41.6637 49.2357 41.1903C49.6005 40.7018 50.0295 40.382 50.5229 40.2307C51.2571 40.0055 51.9738 40.1936 52.6729 40.7951C52.4585 37.8861 52.2026 35.9877 51.9052 35.0999C51.7997 34.7557 51.9133 34.5326 52.246 34.4305ZM50.7001 47.5002C50.9869 47.4122 51.3931 47.0178 51.9187 46.3169C52.4558 45.6125 52.7746 44.8306 52.8751 43.9714C52.8354 43.8831 52.7681 43.6841 52.6731 43.3744C52.5781 43.0646 52.3852 42.8037 52.0942 42.5917C51.8033 42.3797 51.5717 42.3001 51.3996 42.3529C51.0555 42.4584 50.7791 42.744 50.5704 43.2097C50.3732 43.6718 50.2603 44.1834 50.2315 44.7445C50.1687 45.9311 50.2217 46.7997 50.3906 47.3504C50.4187 47.4422 50.4496 47.5017 50.4831 47.5291C50.5245 47.5415 50.5969 47.5319 50.7001 47.5002ZM57.1952 35.8309C57.1037 35.5326 57.1424 35.1882 57.3113 34.7975C57.4881 34.3918 57.7027 34.1503 57.9551 34.0729C58.219 33.9919 58.6238 34.2067 59.1694 34.7171C59.7151 35.2276 60.0319 35.6262 60.1198 35.913C60.2043 36.1884 60.1776 36.4288 60.0398 36.6342C59.9019 36.8396 59.7355 36.9723 59.5405 37.0321C59.2078 37.1341 58.7566 37.034 58.1869 36.7317C57.6173 36.4295 57.2867 36.1292 57.1952 35.8309ZM58.1131 37.9029C58.5146 37.7797 58.9406 37.9001 59.3911 38.264C59.8531 38.6244 60.1492 39.0168 60.2794 39.4413C60.3462 39.6593 60.3865 40.5067 60.4001 41.9837C60.4217 43.4456 60.4222 44.8387 60.4015 46.1629C60.4011 46.6526 60.1886 46.9625 59.7641 47.0927C59.5117 47.1701 59.2599 47.1469 59.0085 47.0232C58.7652 46.8844 58.5977 46.6659 58.5063 46.3676C58.4113 46.0579 58.3224 45.2567 58.2398 43.9641C58.1652 42.6565 58.0722 41.5554 57.961 40.6607C57.8577 39.751 57.8094 39.0817 57.8159 38.653C57.8305 38.2092 57.9295 37.9592 58.1131 37.9029ZM66.2402 37.6509C66.2434 37.9888 66.2394 38.467 66.2282 39.0854C66.225 39.6889 66.2199 40.4498 66.2129 41.3683C66.2174 42.2832 66.2284 42.7693 66.246 42.8267C66.26 42.8726 66.3589 42.8674 66.5424 42.8111C66.7375 42.7512 67.1519 42.4861 67.7858 42.0155C68.4162 41.5335 68.7945 41.2731 68.9207 41.2344C69.2075 41.1465 69.4107 41.2975 69.5303 41.6876C69.65 42.0777 69.4099 42.6659 68.8101 43.4523C68.2068 44.2273 67.4864 44.7432 66.6489 45C66.2818 45.1126 65.7843 45.0456 65.1563 44.7988C64.5284 44.5521 64.1511 44.2222 64.0244 43.8092C63.9189 43.465 63.8693 42.6895 63.8757 41.4826C63.8901 40.2607 63.897 39.4238 63.8965 38.9721C63.4878 39.2355 63.1687 39.4024 62.9393 39.4728C62.7098 39.5432 62.4214 39.4622 62.074 39.2298C61.7231 38.986 61.5036 38.7207 61.4157 38.4339C61.3031 38.0667 62.0972 37.4843 63.7981 36.6865C63.6888 35.5527 63.5146 34.5958 63.2753 33.8156C63.1698 33.4715 63.2891 33.2466 63.6333 33.141C63.9315 33.0496 64.3664 33.117 64.9379 33.3434C65.5174 33.5548 65.8616 33.8383 65.9707 34.194C66.0763 34.5381 66.1512 35.0486 66.1956 35.7253C66.7393 35.5335 67.1545 35.3936 67.4413 35.3056C68.3017 35.0417 68.7918 35.1048 68.9114 35.4949C68.9888 35.7473 68.8033 36.0427 68.3548 36.3811C67.9142 36.7044 67.2094 37.1277 66.2402 37.6509ZM77.9736 36.1799C78.2364 36.3001 78.3907 36.4348 78.4365 36.584C78.4822 36.7331 78.5084 37.064 78.5149 37.5766C78.5215 38.0892 78.5423 38.4844 78.5774 38.7624C78.6089 39.0289 78.6303 39.2419 78.6416 39.4016C78.6644 39.5578 78.6842 39.6836 78.7008 39.7789C78.714 39.8627 78.7227 39.973 78.727 40.1097C78.7428 40.243 78.7515 40.3533 78.7532 40.4406C78.7628 40.513 78.7662 40.606 78.7635 40.7199C78.7687 40.8187 78.7629 40.902 78.7461 40.97C78.7257 41.0264 78.7014 41.0903 78.6731 41.1618C78.6324 41.2747 78.5318 41.3557 78.3711 41.405C78.2105 41.4543 77.9605 41.3552 77.6211 41.1079C77.2931 40.857 77.0014 40.5197 76.7459 40.096C76.0053 41.5281 75.2678 42.3568 74.5336 42.5819C74.0402 42.7332 73.4241 42.6272 72.6851 42.2639C71.9426 41.8892 71.4886 41.4322 71.3233 40.893C71.1544 40.3423 71.1618 39.4865 71.3455 38.3256C71.5292 37.1648 71.9136 36.0239 72.4986 34.9031C73.0952 33.7788 73.8122 33.0882 74.6497 32.8313C75.1316 32.6836 75.7742 32.794 76.5776 33.1626C77.381 33.5313 77.8548 33.9508 77.9991 34.4212C78.1398 34.8801 78.1313 35.4663 77.9736 36.1799ZM73.7997 40.4347C74.2586 40.294 74.7717 39.7977 75.3389 38.946C75.914 38.0793 76.1474 37.1417 76.0389 36.1331C76.0081 35.9919 76.081 35.8817 76.2576 35.8025C76.0226 35.1591 75.8133 34.8656 75.6298 34.9219C75.1709 35.0626 74.7461 35.5192 74.3554 36.2917C73.9762 37.0607 73.7068 37.8399 73.5473 38.6294C73.3992 39.4154 73.3745 39.9689 73.473 40.2902C73.5011 40.382 73.532 40.4415 73.5655 40.4689C73.6069 40.4813 73.685 40.4699 73.7997 40.4347ZM85.4065 29.5512C85.9343 29.3894 86.523 29.5289 87.1729 29.9697C87.8342 30.407 88.2457 30.8896 88.4076 31.4173C88.5694 31.945 88.639 32.6015 88.6162 33.3867C88.5934 34.1719 88.4833 34.9587 88.2858 35.7473C88.0883 36.5359 87.756 37.2528 87.2886 37.8982C86.8213 38.5436 86.255 38.9683 85.5896 39.1724C84.9356 39.3729 84.0932 39.2862 83.0621 38.912C83.0297 39.6248 82.9389 40.0041 82.7898 40.0499C82.5489 40.1238 82.1833 40.0162 81.693 39.7273C81.2027 39.4383 80.9189 39.1677 80.8415 38.9153C80.7641 38.6629 80.7001 37.7788 80.6494 36.263C80.4974 31.7157 80.1329 28.5013 79.5559 26.6198C79.4503 26.2756 79.5639 26.0525 79.8966 25.9505C80.1605 25.8696 80.5935 26.0129 81.1958 26.3805C81.7945 26.7366 82.1607 27.1326 82.2944 27.5686C82.6076 28.5896 82.8023 30.2683 82.8787 32.6046C83.7608 30.8153 84.6034 29.7975 85.4065 29.5512ZM84.7245 37.2725C85.3555 37.079 85.8467 36.3887 86.198 35.2015C86.5608 34.0108 86.5962 32.9393 86.3042 31.9871C86.2831 31.9182 86.2536 31.8834 86.2156 31.8824C86.1856 31.8665 86.1075 31.8779 85.9813 31.9166C85.3504 32.1101 84.7896 32.6963 84.299 33.6752C83.8199 34.6505 83.4792 35.7905 83.2769 37.0952C83.8748 37.326 84.3574 37.3851 84.7245 37.2725ZM89.9532 22.8663C90.2285 22.7818 90.6616 22.9252 91.2524 23.2963C91.8431 23.6674 92.2089 24.0824 92.3496 24.5413C92.4904 25.0002 92.6731 25.8416 92.8978 27.0655C93.119 28.2779 93.2624 29.2569 93.3279 30.0024C93.6493 34.4476 93.6208 36.7282 93.2422 36.8443C92.9898 36.9217 92.6127 36.8177 92.111 36.5322C91.6172 36.2318 91.3298 35.9497 91.2489 35.6858C91.2419 35.6629 91.2138 35.0188 91.1647 33.7536C91.1155 32.4884 90.9644 30.8905 90.7112 28.9599C90.4659 27.0143 90.0865 25.204 89.5728 23.529C89.4707 23.1962 89.5975 22.9754 89.9532 22.8663ZM102.788 27.7224C102.961 28.2845 102.731 28.9072 102.1 29.5903C101.48 30.27 100.768 30.733 99.9653 30.9793C99.1622 31.2256 98.4849 31.3705 97.9335 31.4141C97.9252 31.7555 97.9686 32.0811 98.0636 32.3909C98.1586 32.7006 98.2788 32.9085 98.4243 33.0145C98.5662 33.1091 98.8437 33.093 99.2567 32.9663C100.117 32.7025 100.827 32.397 101.386 32.0499C101.956 31.6993 102.252 31.5204 102.275 31.5134C102.746 31.3691 103.028 31.4519 103.123 31.7616C103.261 32.2091 103.018 32.7479 102.395 33.3782C101.784 34.0049 100.991 34.4678 100.016 34.7668C99.0523 35.0624 98.1847 34.9959 97.4131 34.5673C96.6415 34.1387 96.1291 33.5113 95.8757 32.6853C95.6189 31.8478 95.5924 30.902 95.7963 29.8479C96.0117 28.7903 96.3932 27.8448 96.941 27.0116C97.4852 26.1669 98.1188 25.6337 98.8415 25.4121C99.5758 25.1869 100.363 25.3407 101.205 25.8735C102.042 26.3948 102.57 27.0111 102.788 27.7224ZM100.708 28.0592C100.673 27.9445 100.501 27.8151 100.193 27.671C99.8855 27.5269 99.6226 27.4883 99.4046 27.5551C99.1981 27.6185 98.976 27.856 98.7383 28.2678C98.4971 28.6682 98.3012 29.155 98.1507 29.7283C98.2575 29.7081 98.4084 29.6681 98.6034 29.6083C100.175 29.1263 100.877 28.6099 100.708 28.0592ZM115.135 17.7604C114.86 17.8449 114.71 18.236 114.685 18.9339C114.661 19.6317 114.695 20.5815 114.787 21.7832C115.822 21.3907 116.838 21.0413 117.836 20.7352C118.696 20.4714 119.223 20.6549 119.417 21.2859C119.501 21.5612 119.537 21.9645 119.524 22.4956C119.508 23.0152 119.471 23.8172 119.415 24.9014C119.37 25.9821 119.35 27.0426 119.355 28.0828C119.359 28.3827 119.312 28.598 119.214 28.7284C119.113 28.8475 118.93 28.9474 118.666 29.0283C118.414 29.1058 118.168 29.0619 117.929 28.8967C117.69 28.7315 117.52 28.4825 117.418 28.1498C117.312 27.8056 117.221 26.9361 117.145 25.5411C117.08 24.1427 117.028 23.2988 116.989 23.0094C116.698 23.1238 116.013 23.4469 114.933 23.9788C115.112 26.6478 115.179 28.3405 115.135 29.0569C115.103 29.7697 114.943 30.1701 114.656 30.2581C114.461 30.3179 114.162 30.2214 113.758 29.9687C113.351 29.7046 113.117 29.475 113.057 29.2799C112.994 29.0734 112.965 28.8374 112.972 28.5718C113.013 27.4796 112.962 26.3093 112.818 25.0607C112.414 25.2598 112.081 25.3997 111.817 25.4807C111.564 25.5581 111.27 25.4978 110.933 25.2999C110.596 25.1019 110.378 24.8423 110.28 24.5211C110.213 24.3031 110.35 24.054 110.691 23.7738C111.043 23.49 111.651 23.1403 112.515 22.7247C112.229 20.4403 112.231 18.7701 112.523 17.7144C112.814 16.6586 113.51 15.9618 114.612 15.624C115.231 15.434 115.999 15.481 116.914 15.7651C117.841 16.0456 118.408 16.5243 118.616 17.2012C118.76 17.6716 118.802 18.073 118.741 18.4056C118.676 18.7267 118.523 18.9242 118.282 18.998C118.041 19.0719 117.763 19.0443 117.447 18.9152C117.128 18.7747 116.84 18.6121 116.582 18.4274C115.858 17.9089 115.376 17.6865 115.135 17.7604ZM120.52 13.4918C120.796 13.4073 121.229 13.5506 121.82 13.9217C122.41 14.2928 122.776 14.7078 122.917 15.1667C123.058 15.6256 123.24 16.467 123.465 17.6909C123.686 18.9034 123.83 19.8823 123.895 20.6279C124.217 25.073 124.188 27.3536 123.809 27.4697C123.557 27.5472 123.18 27.4431 122.678 27.1577C122.184 26.8573 121.897 26.5751 121.816 26.3113C121.809 26.2883 121.781 25.6443 121.732 24.3791C121.683 23.1138 121.532 21.5159 121.278 19.5853C121.033 17.6397 120.654 15.8294 120.14 14.1544C120.038 13.8217 120.165 13.6008 120.52 13.4918ZM133.356 18.3478C133.528 18.91 133.299 19.5326 132.667 20.2158C132.047 20.8955 131.336 21.3584 130.533 21.6047C129.729 21.851 129.052 21.996 128.501 22.0396C128.492 22.381 128.536 22.7066 128.631 23.0164C128.726 23.3261 128.846 23.534 128.992 23.64C129.134 23.7345 129.411 23.7185 129.824 23.5918C130.684 23.3279 131.394 23.0224 131.953 22.6753C132.523 22.3247 132.82 22.1459 132.843 22.1389C133.313 21.9946 133.596 22.0774 133.691 22.3871C133.828 22.8345 133.585 23.3734 132.963 24.0036C132.352 24.6303 131.558 25.0932 130.583 25.3923C129.62 25.6879 128.752 25.6213 127.98 25.1927C127.209 24.7641 126.696 24.1368 126.443 23.3108C126.186 22.4733 126.16 21.5275 126.364 20.4734C126.579 19.4157 126.961 18.4703 127.508 17.6371C128.053 16.7924 128.686 16.2592 129.409 16.0375C130.143 15.8123 130.931 15.9661 131.772 16.4989C132.61 17.0202 133.138 17.6365 133.356 18.3478ZM131.275 18.6847C131.24 18.57 131.068 18.4406 130.761 18.2965C130.453 18.1524 130.19 18.1138 129.972 18.1806C129.765 18.2439 129.543 18.4815 129.306 18.8933C129.064 19.2936 128.869 19.7805 128.718 20.3538C128.825 20.3336 128.976 20.2936 129.171 20.2338C130.742 19.7517 131.444 19.2354 131.275 18.6847ZM139.073 13.0925C139.509 12.9588 140.018 13.0849 140.601 13.471C141.184 13.8571 141.539 14.2567 141.666 14.6697C141.75 14.945 141.672 15.1196 141.431 15.1935C141.293 15.2357 141.077 15.2457 140.781 15.2234C140.482 15.1896 140.195 15.2149 139.919 15.2993C139.656 15.3802 139.288 15.5934 138.816 15.9388C138.356 16.2807 138.172 16.6008 138.264 16.8991C138.299 17.0138 138.505 17.1327 138.881 17.2557C139.258 17.3786 139.665 17.4986 140.103 17.6154C140.54 17.7323 140.977 17.9497 141.413 18.2677C141.846 18.5743 142.137 18.9685 142.284 19.4503C142.429 19.9207 142.225 20.5041 141.673 21.2006C141.132 21.8936 140.391 22.3843 139.451 22.6728C138.521 22.9578 137.659 22.9901 136.863 22.7697C136.068 22.5493 135.601 22.2153 135.464 21.7679C135.327 21.3205 135.442 21.0405 135.809 20.9279C135.958 20.8821 136.154 20.885 136.395 20.9364C137.071 21.0931 137.833 21.0413 138.682 20.781C139.543 20.5171 139.938 20.2704 139.867 20.041C139.797 19.8115 139.553 19.6101 139.136 19.4368C138.727 19.2485 138.29 19.0937 137.826 18.9724C137.374 18.8476 136.929 18.6641 136.49 18.422C136.06 18.1649 135.794 17.87 135.692 17.5372C135.502 16.9177 135.858 16.0742 136.761 15.0066C137.66 13.9275 138.431 13.2895 139.073 13.0925ZM15.023 72.6231C14.8962 72.3733 14.7478 72.1553 14.5777 71.969C14.4076 71.7826 14.2479 71.7124 14.0988 71.7581C13.9611 71.8003 13.8494 71.9476 13.7636 72.1998C13.6892 72.4485 13.6554 72.8292 13.6619 73.3418C13.6691 74.1429 13.7133 75.0644 13.7944 76.1065C14.6522 75.7932 15.2991 75.5697 15.7351 75.436C16.1825 75.2987 16.5363 75.2655 16.7965 75.3364C17.0532 75.3957 17.2097 75.5172 17.266 75.7007C17.3751 76.0564 17.1383 76.4302 16.5556 76.8223C15.973 77.2144 15.1018 77.6887 13.942 78.2452C14.1037 80.8189 14.1631 82.4449 14.1201 83.1234C14.0736 83.7903 13.9127 84.166 13.6373 84.2504C13.4194 84.3173 13.1067 84.2186 12.6993 83.9545C12.2999 83.6753 12.0721 83.4439 12.0158 83.2604C11.9595 83.0768 11.9328 82.8465 11.9357 82.5695C11.9852 81.4623 11.9593 80.4159 11.8579 79.4304C11.5418 79.6277 11.2461 79.7686 10.9708 79.853C10.7069 79.9339 10.4061 79.8944 10.0684 79.7344C9.72708 79.5629 9.50191 79.2994 9.39284 78.9437C9.26617 78.5307 9.98312 77.9217 11.5437 77.1168C11.2009 74.812 11.1764 73.0748 11.4704 71.9052C11.7609 70.7241 12.4683 69.9612 13.5926 69.6164C14.1318 69.451 14.706 69.5636 15.3153 69.9541C15.9246 70.3446 16.3401 70.9013 16.5617 71.6241C16.706 72.0944 16.7458 72.4902 16.6811 72.8112C16.6129 73.1209 16.4583 73.3126 16.2174 73.3865C15.9764 73.4604 15.748 73.4112 15.532 73.239C15.3275 73.0632 15.1578 72.8579 15.023 72.6231ZM21.3916 79.9708C21.9267 79.5054 22.2952 78.7836 22.4973 77.8054C22.6993 76.8272 22.6878 75.9709 22.4626 75.2367C22.2374 74.5024 21.9793 74.0293 21.6884 73.8173C21.283 74.2554 20.9744 75.009 20.7626 76.0781C20.5622 77.1437 20.5693 78.0264 20.784 78.7262C20.9951 79.4146 21.1976 79.8294 21.3916 79.9708ZM18.5308 79.6055C18.091 78.1714 18.1157 76.6765 18.605 75.1206C19.1058 73.5613 19.7922 72.6479 20.6641 72.3805C21.536 72.1131 22.3653 72.1976 23.1518 72.6342C23.9349 73.0593 24.4601 73.7078 24.7275 74.5797C24.9914 75.4401 25.0541 76.3811 24.9155 77.4027C24.7769 78.4242 24.4262 79.3476 23.8635 80.1729C23.2972 80.9867 22.5896 81.5238 21.7406 81.7841C21.1096 81.9776 20.4785 81.8637 19.8472 81.4423C19.2159 81.0208 18.7771 80.4086 18.5308 79.6055ZM26.983 73.6432L26.2834 71.7303C26.0864 71.0878 26.1886 70.705 26.5902 70.5819C26.8196 70.5115 27.0697 70.5289 27.3405 70.6342C27.6227 70.7359 27.8775 70.9527 28.1048 71.2846C28.3893 70.8208 28.7294 70.4153 29.1249 70.0681C29.5285 69.7058 29.908 69.4702 30.2637 69.3611C31.1012 69.1042 31.5815 69.1766 31.7047 69.5781C31.768 69.7846 31.7753 69.9518 31.7267 70.0797C31.686 70.1926 31.6498 70.279 31.6179 70.339C31.5976 70.3955 31.5481 70.4797 31.4695 70.5916C31.3988 70.6886 31.3458 70.7614 31.3105 70.8098C31.0994 71.0629 30.947 71.2414 30.8534 71.3454C30.4357 71.825 30.1136 72.3505 29.8872 72.922C29.6573 73.482 29.5737 74.1917 29.6365 75.0511C29.7313 76.4654 29.7299 77.5453 29.6322 78.2907C29.5424 79.0212 29.3139 79.4427 28.9468 79.5553C28.5912 79.6643 28.2688 79.5749 27.9797 79.287C27.702 78.9956 27.5175 78.7008 27.426 78.4025C27.331 78.0928 27.2992 77.6004 27.3307 76.9255C27.3737 76.2471 27.3685 75.6776 27.3151 75.217C27.2697 74.7414 27.159 74.2168 26.983 73.6432ZM47.5716 68.5151C47.8344 68.6354 47.9887 68.77 48.0344 68.9192C48.0802 69.0683 48.1063 69.3992 48.1129 69.9118C48.1195 70.4244 48.1403 70.8197 48.1753 71.0976C48.2069 71.3641 48.2283 71.5772 48.2396 71.7369C48.2624 71.893 48.2821 72.0188 48.2988 72.1141C48.312 72.1979 48.3207 72.3082 48.325 72.445C48.3407 72.5782 48.3495 72.6885 48.3511 72.7758C48.3608 72.8482 48.3642 72.9413 48.3615 73.0551C48.3667 73.1539 48.3609 73.2373 48.344 73.3052C48.3237 73.3616 48.2994 73.4256 48.2711 73.497C48.2304 73.6099 48.1297 73.691 47.9691 73.7402C47.8085 73.7895 47.5585 73.6904 47.219 73.4431C46.8911 73.1922 46.5993 72.8549 46.3439 72.4312C45.6032 73.8633 44.8658 74.692 44.1315 74.9172C43.6382 75.0685 43.0221 74.9625 42.2831 74.5992C41.5405 74.2244 41.0866 73.7674 40.9212 73.2282C40.7523 72.6775 40.7597 71.8217 40.9434 70.6609C41.1271 69.5 41.5115 68.3591 42.0966 67.2383C42.6932 66.114 43.4102 65.4234 44.2477 65.1665C44.7295 65.0188 45.3722 65.1292 46.1756 65.4978C46.979 65.8665 47.4528 66.286 47.5971 66.7564C47.7378 67.2153 47.7293 67.8015 47.5716 68.5151ZM43.3977 72.7699C43.8566 72.6292 44.3697 72.133 44.9369 71.2812C45.512 70.4145 45.7453 69.4769 45.6369 68.4684C45.6061 68.3272 45.679 68.2169 45.8555 68.1377C45.6206 67.4943 45.4113 67.2008 45.2277 67.2571C44.7688 67.3978 44.344 67.8544 43.9534 68.6269C43.5742 69.3959 43.3048 70.1751 43.1453 70.9646C42.9972 71.7506 42.9724 72.3042 43.071 72.6254C43.0991 72.7172 43.1299 72.7768 43.1634 72.8041C43.2049 72.8165 43.283 72.8051 43.3977 72.7699ZM49.2709 58.3543C49.5462 58.2699 49.9793 58.4132 50.57 58.7843C51.1608 59.1554 51.5266 59.5704 51.6673 60.0293C51.808 60.4882 51.9908 61.3296 52.2155 62.5535C52.4367 63.7659 52.5801 64.7449 52.6456 65.4905C52.967 69.9356 52.9384 72.2162 52.5599 72.3323C52.3075 72.4097 51.9304 72.3057 51.4286 72.0203C50.9349 71.7199 50.6475 71.4377 50.5666 71.1738C50.5595 71.1509 50.5315 70.5068 50.4823 69.2416C50.4332 67.9764 50.282 66.3785 50.0289 64.4479C49.7836 62.5023 49.4041 60.692 48.8904 59.017C48.7884 58.6843 48.9152 58.4634 49.2709 58.3543ZM54.3582 56.7941C54.6336 56.7097 55.0666 56.853 55.6574 57.2241C56.2482 57.5952 56.6139 58.0102 56.7547 58.4691C56.8954 58.928 57.0782 59.7694 57.3029 60.9933C57.5241 62.2057 57.6674 63.1847 57.7329 63.9303C58.0544 68.3754 58.0258 70.656 57.6472 70.7721C57.3948 70.8495 57.0178 70.7455 56.516 70.4601C56.0222 70.1596 55.7349 69.8775 55.654 69.6136C55.6469 69.5907 55.6188 68.9466 55.5697 67.6814C55.5206 66.4162 55.3694 64.8183 55.1162 62.8877C54.871 60.9421 54.4915 59.1318 53.9778 57.4568C53.8758 57.1241 54.0026 56.9032 54.3582 56.7941ZM70.7197 59.2884C70.7229 59.6263 70.719 60.1045 70.7078 60.723C70.7046 61.3264 70.6995 62.0874 70.6925 63.0058C70.6969 63.9207 70.708 64.4068 70.7256 64.4642C70.7396 64.5101 70.8384 64.5049 71.022 64.4486C71.217 64.3888 71.6315 64.1236 72.2654 63.6531C72.8958 63.1711 73.2741 62.9107 73.4003 62.872C73.6871 62.784 73.8903 62.9351 74.0099 63.3252C74.1296 63.7152 73.8895 64.3035 73.2897 65.0899C72.6864 65.8648 71.966 66.3807 71.1285 66.6376C70.7614 66.7502 70.2639 66.6831 69.6359 66.4364C69.008 66.1897 68.6307 65.8598 68.504 65.4468C68.3985 65.1026 68.3489 64.327 68.3553 63.1201C68.3696 61.8982 68.3766 61.0614 68.3761 60.6097C67.9674 60.8731 67.6483 61.04 67.4189 61.1104C67.1894 61.1807 66.901 61.0997 66.5536 60.8674C66.2027 60.6235 65.9832 60.3582 65.8953 60.0714C65.7827 59.7043 66.5768 59.1219 68.2776 58.3241C68.1684 57.1903 67.9942 56.2333 67.7549 55.4532C67.6493 55.109 67.7687 54.8841 68.1128 54.7786C68.4111 54.6871 68.846 54.7546 69.4175 54.9809C69.997 55.1923 70.3412 55.4759 70.4503 55.8315C70.5558 56.1757 70.6308 56.6861 70.6752 57.3629C71.2188 57.171 71.6341 57.0311 71.9209 56.9432C72.7813 56.6793 73.2714 56.7424 73.391 57.1325C73.4684 57.3849 73.2828 57.6802 72.8343 58.0186C72.3938 58.342 71.6889 58.7653 70.7197 59.2884ZM74.81 51.3126C74.6623 50.8307 74.7777 50.5318 75.1563 50.4157C75.466 50.3207 75.9008 50.4697 76.4607 50.8628C77.0206 51.256 77.3568 51.6361 77.4694 52.0032C77.582 52.3703 77.6658 52.9095 77.7207 53.6206C77.7756 54.3318 77.8072 54.9873 77.8155 55.5873C77.8352 56.1837 77.8468 57.0399 77.8502 58.156C77.85 59.2606 77.8542 60.0312 77.8626 60.4679C78.1439 58.7249 78.5515 57.2505 79.0855 56.045C79.631 54.8359 80.1848 54.1452 80.7469 53.9728C81.1026 53.8637 81.6066 54.0543 82.259 54.5445C82.908 55.0233 83.3098 55.5151 83.4646 56.0199C83.6159 56.5132 83.7458 57.2641 83.8543 58.2727C83.9627 59.2812 83.923 60.2975 83.735 61.3216C83.547 62.3458 83.2121 62.9317 82.7303 63.0795C82.3517 63.1956 82.0797 62.9841 81.9143 62.4448C81.7947 62.0548 81.7141 61.3829 81.6727 60.4291C81.6007 59.0077 81.5208 58.1536 81.4328 57.8668C81.3449 57.58 81.255 57.4507 81.1632 57.4788C80.4978 57.6829 79.8622 59.0891 79.2563 61.6973C79.0526 62.5882 78.8579 63.263 78.6722 63.7216C78.4979 64.1767 78.2789 64.4447 78.015 64.5256C77.7512 64.6065 77.3648 64.4928 76.8561 64.1844C76.3587 63.8725 76.0749 63.6018 76.0045 63.3724C75.9307 63.1315 75.8692 62.7675 75.8203 62.2804C75.7828 61.7899 75.7314 61.0902 75.666 60.1814C75.6122 59.2691 75.4734 57.6297 75.2497 55.2633C75.034 52.8819 74.8874 51.565 74.81 51.3126ZM92.8246 53.7895C92.997 54.3516 92.7675 54.9743 92.136 55.6575C91.5161 56.3371 90.8045 56.8001 90.0015 57.0464C89.1984 57.2927 88.5211 57.4376 87.9697 57.4812C87.9614 57.8227 88.0048 58.1482 88.0998 58.458C88.1948 58.7678 88.315 58.9756 88.4605 59.0817C88.6025 59.1762 88.8799 59.1601 89.2929 59.0335C90.1534 58.7696 90.863 58.4641 91.4218 58.117C91.9921 57.7664 92.2887 57.5875 92.3116 57.5805C92.782 57.4362 93.0647 57.519 93.1597 57.8288C93.2969 58.2762 93.0542 58.815 92.4316 59.4453C91.8205 60.072 91.0274 60.5349 90.0522 60.834C89.0885 61.1295 88.2209 61.063 87.4493 60.6344C86.6777 60.2058 86.1653 59.5785 85.912 58.7524C85.6551 57.9149 85.6286 56.9691 85.8325 55.915C86.0479 54.8574 86.4294 53.912 86.9772 53.0787C87.5215 52.234 88.155 51.7008 88.8777 51.4792C89.612 51.254 90.3997 51.4078 91.2409 51.9406C92.0786 52.4619 92.6065 53.0782 92.8246 53.7895ZM90.7439 54.1263C90.7087 54.0116 90.5373 53.8822 90.2295 53.7381C89.9217 53.594 89.6588 53.5554 89.4409 53.6223C89.2343 53.6856 89.0122 53.9232 88.7745 54.335C88.5333 54.7353 88.3374 55.2221 88.1869 55.7954C88.2937 55.7752 88.4446 55.7352 88.6396 55.6754C90.2114 55.1934 90.9128 54.677 90.7439 54.1263ZM108.723 49.7609C108.986 49.8811 109.14 50.0158 109.186 50.165C109.232 50.3141 109.258 50.645 109.264 51.1576C109.271 51.6702 109.292 52.0654 109.327 52.3434C109.358 52.6099 109.38 52.8229 109.391 52.9826C109.414 53.1388 109.434 53.2646 109.45 53.3599C109.463 53.4437 109.472 53.554 109.476 53.6907C109.492 53.824 109.501 53.9343 109.503 54.0216C109.512 54.094 109.516 54.187 109.513 54.3009C109.518 54.3997 109.512 54.483 109.495 54.551C109.475 54.6074 109.451 54.6713 109.422 54.7428C109.382 54.8557 109.281 54.9367 109.12 54.986C108.96 55.0353 108.71 54.9362 108.37 54.6889C108.042 54.438 107.751 54.1007 107.495 53.677C106.755 55.1091 106.017 55.9378 105.283 56.1629C104.79 56.3142 104.173 56.2082 103.434 55.8449C102.692 55.4702 102.238 55.0132 102.073 54.474C101.904 53.9233 101.911 53.0675 102.095 51.9066C102.279 50.7458 102.663 49.6049 103.248 48.4841C103.845 47.3598 104.562 46.6692 105.399 46.4123C105.881 46.2646 106.524 46.375 107.327 46.7436C108.13 47.1123 108.604 47.5318 108.748 48.0021C108.889 48.4611 108.881 49.0473 108.723 49.7609ZM104.549 54.0157C105.008 53.875 105.521 53.3787 106.088 52.527C106.663 51.6603 106.897 50.7227 106.788 49.7141C106.757 49.5729 106.83 49.4627 107.007 49.3835C106.772 48.7401 106.563 48.4466 106.379 48.5029C105.92 48.6436 105.495 49.1002 105.105 49.8727C104.726 50.6417 104.456 51.4209 104.297 52.2104C104.149 52.9963 104.124 53.5499 104.222 53.8712C104.25 53.963 104.281 54.0225 104.315 54.0499C104.356 54.0623 104.434 54.0509 104.549 54.0157ZM114.968 43.4964C115.404 43.3627 115.914 43.4889 116.497 43.8749C117.079 44.261 117.434 44.6606 117.561 45.0736C117.645 45.3489 117.567 45.5235 117.326 45.5974C117.188 45.6396 116.972 45.6496 116.676 45.6273C116.377 45.5935 116.09 45.6188 115.815 45.7032C115.551 45.7842 115.183 45.9973 114.712 46.3427C114.252 46.6846 114.068 47.0047 114.159 47.303C114.194 47.4177 114.4 47.5366 114.777 47.6596C115.153 47.7825 115.56 47.9025 115.998 48.0193C116.435 48.1362 116.872 48.3536 117.309 48.6716C117.742 48.9782 118.032 49.3724 118.18 49.8542C118.324 50.3246 118.12 50.908 117.568 51.6045C117.027 52.2975 116.287 52.7882 115.346 53.0767C114.417 53.3617 113.554 53.394 112.759 53.1736C111.963 52.9532 111.497 52.6192 111.36 52.1718C111.222 51.7244 111.337 51.4444 111.704 51.3318C111.854 51.286 112.049 51.2889 112.291 51.3403C112.966 51.497 113.729 51.4453 114.578 51.1849C115.438 50.921 115.833 50.6743 115.763 50.4449C115.692 50.2154 115.449 50.014 115.031 49.8407C114.622 49.6524 114.186 49.4976 113.722 49.3764C113.269 49.2515 112.824 49.0681 112.386 48.8259C111.955 48.5688 111.689 48.2739 111.587 47.9412C111.397 47.3216 111.753 46.4781 112.656 45.4105C113.555 44.3314 114.326 43.6934 114.968 43.4964ZM123.518 40.8744C123.954 40.7407 124.463 40.8669 125.046 41.253C125.629 41.6391 125.984 42.0386 126.11 42.4516C126.195 42.727 126.116 42.9016 125.875 42.9755C125.738 43.0177 125.521 43.0276 125.226 43.0053C124.927 42.9715 124.639 42.9968 124.364 43.0813C124.1 43.1622 123.733 43.3754 123.261 43.7208C122.801 44.0627 122.617 44.3828 122.708 44.6811C122.744 44.7958 122.949 44.9146 123.326 45.0376C123.703 45.1606 124.11 45.2805 124.547 45.3974C124.985 45.5142 125.422 45.7317 125.858 46.0497C126.291 46.3562 126.581 46.7504 126.729 47.2323C126.873 47.7027 126.669 48.2861 126.117 48.9826C125.577 49.6755 124.836 50.1662 123.895 50.4548C122.966 50.7398 122.104 50.772 121.308 50.5516C120.512 50.3312 120.046 49.9973 119.909 49.5499C119.772 49.1024 119.887 48.8224 120.254 48.7098C120.403 48.6641 120.598 48.6669 120.84 48.7183C121.516 48.8751 122.278 48.8233 123.127 48.5629C123.987 48.299 124.382 48.0524 124.312 47.8229C124.242 47.5935 123.998 47.3921 123.581 47.2188C123.172 47.0305 122.735 46.8757 122.271 46.7544C121.819 46.6296 121.373 46.4461 120.935 46.204C120.505 45.9468 120.238 45.6519 120.136 45.3192C119.946 44.6997 120.303 43.8561 121.205 42.7886C122.105 41.7095 122.875 41.0715 123.518 40.8744ZM135.269 40.7725C135.441 41.3347 135.212 41.9573 134.58 42.6405C133.96 43.3201 133.249 43.7831 132.446 44.0294C131.642 44.2757 130.965 44.4206 130.414 44.4642C130.406 44.8057 130.449 45.1313 130.544 45.441C130.639 45.7508 130.759 45.9587 130.905 46.0647C131.047 46.1592 131.324 46.1431 131.737 46.0165C132.597 45.7526 133.307 45.4471 133.866 45.1C134.436 44.7494 134.733 44.5706 134.756 44.5635C135.226 44.4193 135.509 44.502 135.604 44.8118C135.741 45.2592 135.498 45.798 134.876 46.4283C134.265 47.055 133.472 47.5179 132.496 47.817C131.533 48.1125 130.665 48.046 129.893 47.6174C129.122 47.1888 128.609 46.5615 128.356 45.7355C128.099 44.898 128.073 43.9521 128.277 42.898C128.492 41.8404 128.874 40.895 129.421 40.0617C129.966 39.217 130.599 38.6839 131.322 38.4622C132.056 38.237 132.844 38.3908 133.685 38.9236C134.523 39.4449 135.051 40.0612 135.269 40.7725ZM133.188 41.1094C133.153 40.9946 132.981 40.8652 132.674 40.7211C132.366 40.577 132.103 40.5384 131.885 40.6053C131.678 40.6686 131.456 40.9062 131.219 41.318C130.977 41.7183 130.782 42.2051 130.631 42.7785C130.738 42.7583 130.889 42.7183 131.084 42.6584C132.655 42.1764 133.357 41.6601 133.188 41.1094ZM140.576 37.8644C140.58 38.2023 140.576 38.6805 140.564 39.299C140.561 39.9024 140.556 40.6634 140.549 41.5818C140.554 42.4967 140.565 42.9828 140.582 43.0402C140.596 43.0861 140.695 43.0809 140.879 43.0246C141.074 42.9648 141.488 42.6996 142.122 42.2291C142.752 41.7471 143.131 41.4867 143.257 41.448C143.544 41.36 143.747 41.5111 143.867 41.9011C143.986 42.2912 143.746 42.8795 143.146 43.6659C142.543 44.4408 141.823 44.9567 140.985 45.2136C140.618 45.3262 140.121 45.2591 139.493 45.0124C138.865 44.7656 138.487 44.4358 138.361 44.0228C138.255 43.6786 138.206 42.903 138.212 41.6961C138.226 40.4742 138.233 39.6374 138.233 39.1857C137.824 39.4491 137.505 39.616 137.276 39.6864C137.046 39.7567 136.758 39.6757 136.41 39.4434C136.059 39.1995 135.84 38.9342 135.752 38.6474C135.639 38.2803 136.433 37.6978 138.134 36.9001C138.025 35.7663 137.851 34.8093 137.612 34.0292C137.506 33.685 137.625 33.4601 137.969 33.3546C138.268 33.2631 138.703 33.3306 139.274 33.5569C139.854 33.7683 140.198 34.0519 140.307 34.4075C140.413 34.7517 140.487 35.2621 140.532 35.9389C141.075 35.747 141.491 35.6071 141.778 35.5192C142.638 35.2553 143.128 35.3184 143.248 35.7085C143.325 35.9608 143.14 36.2562 142.691 36.5946C142.25 36.918 141.546 37.3413 140.576 37.8644ZM149.267 32.9776C149.703 32.8439 150.212 32.9701 150.795 33.3562C151.378 33.7423 151.732 34.1418 151.859 34.5549C151.943 34.8302 151.865 35.0048 151.624 35.0787C151.487 35.1209 151.27 35.1309 150.974 35.1085C150.675 35.0747 150.388 35.1001 150.113 35.1845C149.849 35.2654 149.481 35.4786 149.01 35.824C148.55 36.1659 148.366 36.486 148.457 36.7843C148.492 36.899 148.698 37.0179 149.075 37.1408C149.451 37.2638 149.859 37.3837 150.296 37.5006C150.733 37.6175 151.17 37.8349 151.607 38.1529C152.04 38.4595 152.33 38.8536 152.478 39.3355C152.622 39.8059 152.418 40.3893 151.866 41.0858C151.326 41.7787 150.585 42.2695 149.644 42.558C148.715 42.843 147.852 42.8753 147.057 42.6549C146.261 42.4344 145.795 42.1005 145.658 41.6531C145.52 41.2057 145.635 40.9256 146.003 40.8131C146.152 40.7673 146.347 40.7701 146.589 40.8215C147.264 40.9783 148.027 40.9265 148.876 40.6662C149.736 40.4023 150.131 40.1556 150.061 39.9262C149.99 39.6967 149.747 39.4953 149.33 39.322C148.92 39.1337 148.484 38.9789 148.02 38.8576C147.567 38.7328 147.122 38.5493 146.684 38.3072C146.253 38.0501 145.987 37.7551 145.885 37.4224C145.695 36.8029 146.052 35.9594 146.954 34.8918C147.853 33.8127 148.624 33.1747 149.267 32.9776Z" fill="#0B0B0B"/>
<g clip-path="url(#clip0_1297_1386)">
<path fill-rule="evenodd" clip-rule="evenodd" d="M180.489 38.0292C210.697 30.8154 234.777 50.898 248.593 76.3786C248.831 76.8158 249.379 76.9797 249.816 76.7415C250.254 76.5034 250.418 75.955 250.179 75.5178C235.978 49.3228 211.123 28.8578 180.069 36.2742C179.585 36.3887 179.286 36.8758 179.401 37.3619C179.516 37.8459 180.003 38.1446 180.489 38.0292Z" fill="black"/>
<path fill-rule="evenodd" clip-rule="evenodd" d="M249.127 75.4695C247.783 74.6272 246.108 73.5515 245.915 73.435C240.668 70.277 235.212 68.1023 229.25 66.6496C228.766 66.5311 228.277 66.8293 228.158 67.313C228.04 67.7968 228.338 68.2861 228.821 68.4046C234.604 69.8114 239.895 71.9191 244.985 74.983C245.281 75.1614 249.045 77.5819 249.843 78.0141C250.169 78.193 250.409 78.1927 250.466 78.1873C250.768 78.1698 250.956 78.0334 251.08 77.9007C251.218 77.7499 251.386 77.4451 251.355 76.9967C251.32 76.5275 251.009 75.5771 250.95 75.3309C250.071 71.6131 248.765 67.5404 248.325 63.5346C247.905 59.7146 248.273 55.9508 250.706 52.6606C251.002 52.2604 250.916 51.6939 250.516 51.3974C250.115 51.1009 249.549 51.1869 249.252 51.5872C246.533 55.2662 246.061 59.4619 246.53 63.7309C246.968 67.713 248.234 71.7598 249.127 75.4695Z" fill="black"/>
</g>
<defs>
<clipPath id="clip0_1297_1386">
<rect width="65.3585" height="65.3585" fill="white" transform="translate(201.211 97.9199) rotate(-111.743)"/>
</clipPath>
</defs>
</svg>
