<svg width="38" height="38" viewBox="0 0 38 38" fill="none" xmlns="http://www.w3.org/2000/svg">
<path d="M21.375 32.0625H16.625C16.3101 32.0625 16.008 32.1876 15.7853 32.4103C15.5626 32.633 15.4375 32.9351 15.4375 33.25C15.4375 33.5649 15.5626 33.867 15.7853 34.0897C16.008 34.3124 16.3101 34.4375 16.625 34.4375H21.375C21.6899 34.4375 21.992 34.3124 22.2147 34.0897C22.4374 33.867 22.5625 33.5649 22.5625 33.25C22.5625 32.9351 22.4374 32.633 22.2147 32.4103C21.992 32.1876 21.6899 32.0625 21.375 32.0625Z" fill="black"/>
<path d="M32.5954 21.3604L28.1126 15.9721C27.9666 14.1974 27.5667 12.4528 26.9251 10.7917C25.2033 6.30886 22.1603 3.3698 20.4829 2.01901C20.0646 1.67708 19.5415 1.48906 19.0012 1.48636C18.4609 1.48366 17.936 1.66644 17.5142 2.00417C15.822 3.35495 12.7345 6.29401 10.9978 10.7768C10.3317 12.4724 9.92629 14.2591 9.79544 16.076L5.40169 21.3604C5.16863 21.6388 5.00205 21.9666 4.9146 22.319C4.82715 22.6713 4.82113 23.039 4.897 23.394L6.73763 31.6471C6.82422 32.0408 7.0102 32.4058 7.27784 32.7072C7.54548 33.0086 7.88586 33.2365 8.26653 33.369C8.52475 33.4566 8.79545 33.5017 9.0681 33.5026C9.60244 33.4997 10.1202 33.3166 10.5376 32.9831L14.6642 29.6878H23.3329L27.4595 32.9831C27.877 33.3166 28.3947 33.4997 28.929 33.5026C29.2017 33.5017 29.4724 33.4566 29.7306 33.369C30.1113 33.2365 30.4517 33.0086 30.7193 32.7072C30.9869 32.4058 31.1729 32.0408 31.2595 31.6471L33.1001 23.394C33.176 23.039 33.17 22.6713 33.0825 22.319C32.9951 21.9666 32.8285 21.6388 32.5954 21.3604ZM9.05325 31.1276L7.22747 22.8745L9.8845 19.6831C10.2309 22.4638 11.1759 25.3039 12.7197 28.2034L9.05325 31.1276ZM18.9986 16.0315C18.6463 16.0315 18.3019 15.927 18.009 15.7313C17.716 15.5356 17.4877 15.2574 17.3529 14.9319C17.2181 14.6064 17.1828 14.2483 17.2515 13.9028C17.3203 13.5572 17.4899 13.2398 17.739 12.9907C17.9881 12.7416 18.3055 12.572 18.6511 12.5032C18.9966 12.4345 19.3547 12.4698 19.6802 12.6046C20.0057 12.7394 20.2839 12.9677 20.4796 13.2607C20.6753 13.5536 20.7798 13.898 20.7798 14.2503C20.7798 14.7227 20.5921 15.1758 20.2581 15.5098C19.924 15.8438 19.471 16.0315 18.9986 16.0315ZM28.9439 31.1276L25.2626 28.1885C26.8064 25.2643 27.7267 22.3995 28.0533 19.6089L30.7697 22.8745L28.9439 31.1276Z" fill="black"/>
</svg>
