<svg width="26" height="26" viewBox="0 0 26 26" fill="none" xmlns="http://www.w3.org/2000/svg">
<path d="M23.2273 8.93746C23.2275 8.72411 23.1854 8.51285 23.1035 8.31586C23.0216 8.11888 22.9014 7.94008 22.75 7.7898L18.2102 3.24996C17.9042 2.94852 17.492 2.77954 17.0625 2.77954C16.633 2.77954 16.2208 2.94852 15.9148 3.24996L3.72734 15.4375C3.56928 15.5934 3.44485 15.78 3.36172 15.9859L3.33125 16.0671C3.27796 16.2347 3.25056 16.4093 3.25 16.5851V21.125C3.25 21.5559 3.4212 21.9693 3.72595 22.274C4.0307 22.5788 4.44402 22.75 4.875 22.75H9.41484C9.5916 22.751 9.7671 22.7201 9.93281 22.6586L10.0141 22.6382C10.2199 22.5551 10.4066 22.4307 10.5625 22.2726L19.0633 13.7718L19.4086 15.1836L15.6711 18.9211C15.5185 19.0751 15.4329 19.2831 15.4329 19.5C15.4329 19.7168 15.5185 19.9248 15.6711 20.0789C15.8264 20.229 16.034 20.313 16.25 20.313C16.466 20.313 16.6736 20.229 16.8289 20.0789L20.8914 16.0164C20.9867 15.9145 21.0558 15.7911 21.093 15.6567C21.1301 15.5222 21.1341 15.3808 21.1047 15.2445L20.4039 12.4414L22.75 10.0851C22.9014 9.93483 23.0216 9.75604 23.1035 9.55905C23.1854 9.36207 23.2275 9.1508 23.2273 8.93746V8.93746ZM19.5 11.0398L14.9602 6.49996L17.0625 4.39761L21.6023 8.93746L19.5 11.0398Z" fill="black"/>
</svg>
