<svg width="26" height="26" viewBox="0 0 26 26" fill="none" xmlns="http://www.w3.org/2000/svg">
<path d="M21.9375 6.5H17.875V5.6875C17.8723 5.04186 17.6147 4.42342 17.1581 3.96688C16.7016 3.51034 16.0831 3.25267 15.4375 3.25H10.5625C9.91686 3.25267 9.29842 3.51034 8.84188 3.96688C8.38534 4.42342 8.12767 5.04186 8.125 5.6875V6.5H4.0625C3.63152 6.5 3.2182 6.67121 2.91345 6.97595C2.6087 7.2807 2.4375 7.69402 2.4375 8.125V21.125C2.4375 21.556 2.6087 21.9693 2.91345 22.274C3.2182 22.5788 3.63152 22.75 4.0625 22.75H21.9375C22.3685 22.75 22.7818 22.5788 23.0865 22.274C23.3913 21.9693 23.5625 21.556 23.5625 21.125V8.125C23.5625 7.69402 23.3913 7.2807 23.0865 6.97595C22.7818 6.67121 22.3685 6.5 21.9375 6.5V6.5ZM9.75 5.6875C9.75 5.47201 9.8356 5.26535 9.98798 5.11298C10.1403 4.9606 10.347 4.875 10.5625 4.875H15.4375C15.653 4.875 15.8597 4.9606 16.012 5.11298C16.1644 5.26535 16.25 5.47201 16.25 5.6875V6.5H9.75V5.6875ZM21.9375 8.125V12.35C19.1958 13.8447 16.1227 14.627 13 14.625C9.87734 14.627 6.80418 13.8447 4.0625 12.35V8.125H21.9375ZM10.9688 12.1875C10.9688 11.972 11.0544 11.7653 11.2067 11.613C11.3591 11.4606 11.5658 11.375 11.7812 11.375H14.2188C14.4342 11.375 14.6409 11.4606 14.7933 11.613C14.9456 11.7653 15.0312 11.972 15.0312 12.1875C15.0312 12.403 14.9456 12.6097 14.7933 12.762C14.6409 12.9144 14.4342 13 14.2188 13H11.7812C11.5658 13 11.3591 12.9144 11.2067 12.762C11.0544 12.6097 10.9688 12.403 10.9688 12.1875Z" fill="black"/>
</svg>
