<svg width="26" height="26" viewBox="0 0 26 26" fill="none" xmlns="http://www.w3.org/2000/svg">
<path d="M13 2.4375C10.9109 2.4375 8.86879 3.05698 7.13179 4.2176C5.3948 5.37822 4.04098 7.02786 3.24153 8.95791C2.44208 10.8879 2.2329 13.0117 2.64046 15.0606C3.04802 17.1096 4.054 18.9916 5.53119 20.4688C7.00838 21.946 8.89044 22.952 10.9394 23.3595C12.9883 23.7671 15.1121 23.5579 17.0421 22.7585C18.9721 21.959 20.6218 20.6052 21.7824 18.8682C22.943 17.1312 23.5625 15.0891 23.5625 13C23.5571 10.2003 22.4426 7.5168 20.4629 5.53711C18.4832 3.55742 15.7997 2.44287 13 2.4375V2.4375ZM11.1414 12.4211C11.294 12.5751 11.3796 12.7832 11.3796 13C11.3796 13.2168 11.294 13.4249 11.1414 13.5789C10.9861 13.7291 10.7785 13.813 10.5625 13.813C10.3465 13.813 10.1389 13.7291 9.9836 13.5789L8.9375 12.5227L7.89141 13.5789C7.73611 13.7291 7.52853 13.813 7.3125 13.813C7.09648 13.813 6.8889 13.7291 6.7336 13.5789C6.58103 13.4249 6.49543 13.2168 6.49543 13C6.49543 12.7832 6.58103 12.5751 6.7336 12.4211L7.78985 11.375L6.7336 10.3289C6.60403 10.171 6.53782 9.97063 6.54784 9.76665C6.55786 9.56267 6.64339 9.36971 6.7878 9.2253C6.93221 9.08089 7.12517 8.99535 7.32915 8.98534C7.53313 8.97532 7.73354 9.04153 7.89141 9.17109L8.9375 10.2273L9.9836 9.17109C10.1415 9.04153 10.3419 8.97532 10.5459 8.98534C10.7498 8.99535 10.9428 9.08089 11.0872 9.2253C11.2316 9.36971 11.3171 9.56267 11.3272 9.76665C11.3372 9.97063 11.271 10.171 11.1414 10.3289L10.0852 11.375L11.1414 12.4211ZM13 19.5C12.759 19.5 12.5233 19.4285 12.3229 19.2946C12.1225 19.1607 11.9663 18.9703 11.874 18.7476C11.7818 18.5249 11.7576 18.2799 11.8047 18.0435C11.8517 17.8071 11.9678 17.5899 12.1382 17.4195C12.3087 17.249 12.5258 17.1329 12.7622 17.0859C12.9987 17.0389 13.2437 17.063 13.4664 17.1553C13.6891 17.2475 13.8794 17.4037 14.0134 17.6041C14.1473 17.8046 14.2188 18.0402 14.2188 18.2812C14.2188 18.6045 14.0903 18.9145 13.8618 19.143C13.6332 19.3716 13.3232 19.5 13 19.5ZM19.2664 12.4211C19.419 12.5751 19.5046 12.7832 19.5046 13C19.5046 13.2168 19.419 13.4249 19.2664 13.5789C19.1111 13.7291 18.9035 13.813 18.6875 13.813C18.4715 13.813 18.2639 13.7291 18.1086 13.5789L17.0625 12.5227L16.0164 13.5789C15.8611 13.7291 15.6535 13.813 15.4375 13.813C15.2215 13.813 15.0139 13.7291 14.8586 13.5789C14.706 13.4249 14.6204 13.2168 14.6204 13C14.6204 12.7832 14.706 12.5751 14.8586 12.4211L15.9148 11.375L14.8586 10.3289C14.729 10.171 14.6628 9.97063 14.6728 9.76665C14.6829 9.56267 14.7684 9.36971 14.9128 9.2253C15.0572 9.08089 15.2502 8.99535 15.4542 8.98534C15.6581 8.97532 15.8585 9.04153 16.0164 9.17109L17.0625 10.2273L18.1086 9.17109C18.2665 9.04153 18.4669 8.97532 18.6709 8.98534C18.8748 8.99535 19.0678 9.08089 19.2122 9.2253C19.3566 9.36971 19.4421 9.56267 19.4522 9.76665C19.4622 9.97063 19.396 10.171 19.2664 10.3289L18.2102 11.375L19.2664 12.4211Z" fill="black"/>
</svg>
