<svg width="26" height="26" viewBox="0 0 26 26" fill="none" xmlns="http://www.w3.org/2000/svg">
<path d="M15.0312 2.4375H10.9688C9.24567 2.44019 7.59393 3.12587 6.37552 4.34427C5.15712 5.56268 4.47144 7.21442 4.46875 8.9375V17.0625C4.47144 18.7856 5.15712 20.4373 6.37552 21.6557C7.59393 22.8741 9.24567 23.5598 10.9688 23.5625H15.0312C16.7543 23.5598 18.4061 22.8741 19.6245 21.6557C20.8429 20.4373 21.5286 18.7856 21.5312 17.0625V8.9375C21.5286 7.21442 20.8429 5.56268 19.6245 4.34427C18.4061 3.12587 16.7543 2.44019 15.0312 2.4375ZM13.8125 11.375C13.8125 11.5905 13.7269 11.7972 13.5745 11.9495C13.4222 12.1019 13.2155 12.1875 13 12.1875C12.7845 12.1875 12.5778 12.1019 12.4255 11.9495C12.2731 11.7972 12.1875 11.5905 12.1875 11.375V6.5C12.1875 6.28451 12.2731 6.07785 12.4255 5.92548C12.5778 5.7731 12.7845 5.6875 13 5.6875C13.2155 5.6875 13.4222 5.7731 13.5745 5.92548C13.7269 6.07785 13.8125 6.28451 13.8125 6.5V11.375Z" fill="black"/>
</svg>
