<svg width="26" height="26" viewBox="0 0 26 26" fill="none" xmlns="http://www.w3.org/2000/svg">
<path d="M21.125 9.75C21.556 9.75 21.9693 9.57879 22.274 9.27405C22.5788 8.9693 22.75 8.55598 22.75 8.125V4.875C22.75 4.44402 22.5788 4.0307 22.274 3.72595C21.9693 3.4212 21.556 3.25 21.125 3.25H17.875C17.444 3.25 17.0307 3.4212 16.726 3.72595C16.4212 4.0307 16.25 4.44402 16.25 4.875V5.6875H9.75V4.875C9.75 4.44402 9.57879 4.0307 9.27405 3.72595C8.9693 3.4212 8.55598 3.25 8.125 3.25H4.875C4.44402 3.25 4.0307 3.4212 3.72595 3.72595C3.4212 4.0307 3.25 4.44402 3.25 4.875V8.125C3.25 8.55598 3.4212 8.9693 3.72595 9.27405C4.0307 9.57879 4.44402 9.75 4.875 9.75H5.6875V16.25H4.875C4.44402 16.25 4.0307 16.4212 3.72595 16.726C3.4212 17.0307 3.25 17.444 3.25 17.875V21.125C3.25 21.556 3.4212 21.9693 3.72595 22.274C4.0307 22.5788 4.44402 22.75 4.875 22.75H8.125C8.55598 22.75 8.9693 22.5788 9.27405 22.274C9.57879 21.9693 9.75 21.556 9.75 21.125V20.3125H16.25V21.125C16.25 21.556 16.4212 21.9693 16.726 22.274C17.0307 22.5788 17.444 22.75 17.875 22.75H21.125C21.556 22.75 21.9693 22.5788 22.274 22.274C22.5788 21.9693 22.75 21.556 22.75 21.125V17.875C22.75 17.444 22.5788 17.0307 22.274 16.726C21.9693 16.4212 21.556 16.25 21.125 16.25H20.3125V9.75H21.125ZM18.6875 16.25H17.875C17.444 16.25 17.0307 16.4212 16.726 16.726C16.4212 17.0307 16.25 17.444 16.25 17.875V18.6875H9.75V17.875C9.75 17.444 9.57879 17.0307 9.27405 16.726C8.9693 16.4212 8.55598 16.25 8.125 16.25H7.3125V9.75H8.125C8.55598 9.75 8.9693 9.57879 9.27405 9.27405C9.57879 8.9693 9.75 8.55598 9.75 8.125V7.3125H16.25V8.125C16.25 8.55598 16.4212 8.9693 16.726 9.27405C17.0307 9.57879 17.444 9.75 17.875 9.75H18.6875V16.25Z" fill="black"/>
</svg>
