<svg width="26" height="26" viewBox="0 0 26 26" fill="none" xmlns="http://www.w3.org/2000/svg">
<path d="M22.6687 6.94688L21.0437 3.69688C20.9738 3.56311 20.8688 3.45087 20.74 3.37216C20.6112 3.29345 20.4634 3.25122 20.3125 3.25H5.6875C5.53656 3.25122 5.38879 3.29345 5.25998 3.37216C5.13118 3.45087 5.0262 3.56311 4.95625 3.69688L3.33125 6.94688C3.27922 7.06184 3.25156 7.18632 3.25 7.3125V21.125C3.25 21.556 3.4212 21.9693 3.72595 22.274C4.0307 22.5788 4.44402 22.75 4.875 22.75H21.125C21.556 22.75 21.9693 22.5788 22.274 22.274C22.5788 21.9693 22.75 21.556 22.75 21.125V7.3125C22.7484 7.18632 22.7208 7.06184 22.6687 6.94688V6.94688ZM17.0219 15.8133L13.5789 19.2664C13.4236 19.4166 13.216 19.5005 13 19.5005C12.784 19.5005 12.5764 19.4166 12.4211 19.2664L8.97813 15.8133C8.83808 15.6587 8.76284 15.4562 8.76797 15.2477C8.77311 15.0392 8.85822 14.8407 9.0057 14.6932C9.15318 14.5457 9.35173 14.4606 9.56023 14.4555C9.76873 14.4503 9.97122 14.5256 10.1258 14.6656L12.1875 16.7273V10.5625C12.1875 10.347 12.2731 10.1403 12.4255 9.98798C12.5778 9.8356 12.7845 9.75 13 9.75C13.2155 9.75 13.4222 9.8356 13.5745 9.98798C13.7269 10.1403 13.8125 10.347 13.8125 10.5625V16.7273L15.8742 14.6656C16.0288 14.5256 16.2313 14.4503 16.4398 14.4555C16.6483 14.4606 16.8468 14.5457 16.9943 14.6932C17.1418 14.8407 17.2269 15.0392 17.232 15.2477C17.2372 15.4562 17.1619 15.6587 17.0219 15.8133V15.8133ZM5.37266 6.5L6.18516 4.875H19.8148L20.6273 6.5H5.37266Z" fill="black"/>
</svg>
