<svg width="26" height="26" viewBox="0 0 26 26" fill="none" xmlns="http://www.w3.org/2000/svg">
<path d="M24.2433 7.4646C24.0109 7.2706 23.7287 7.14583 23.4288 7.10452C23.1289 7.06322 22.8234 7.10705 22.5472 7.23101L17.4082 9.51616L14.4222 4.13335C14.2795 3.88204 14.0727 3.67305 13.823 3.52765C13.5732 3.38226 13.2894 3.30566 13.0004 3.30566C12.7113 3.30566 12.4275 3.38226 12.1777 3.52765C11.928 3.67305 11.7212 3.88204 11.5785 4.13335L8.59254 9.51616L3.45348 7.23101C3.17673 7.10723 2.87087 7.06335 2.57048 7.10431C2.27009 7.14527 1.98715 7.26945 1.75364 7.4628C1.52014 7.65616 1.34538 7.91098 1.24912 8.19846C1.15286 8.48595 1.13895 8.79462 1.20895 9.0896L3.78863 20.0888C3.83796 20.3018 3.93001 20.5025 4.05919 20.6788C4.18838 20.8551 4.35202 21.0034 4.5402 21.1146C4.79496 21.2671 5.08625 21.3478 5.38317 21.3482C5.5275 21.3479 5.67109 21.3274 5.80973 21.2873C10.5119 19.9872 15.4787 19.9872 20.1808 21.2873C20.6102 21.4001 21.0667 21.338 21.4504 21.1146C21.6397 21.0048 21.8042 20.857 21.9336 20.6804C22.0629 20.5039 22.1543 20.3024 22.2019 20.0888L24.7918 9.0896C24.861 8.79454 24.8463 8.48601 24.7494 8.19886C24.6525 7.9117 24.4772 7.65737 24.2433 7.4646V7.4646ZM17.0629 16.5037C17.0405 16.7039 16.9454 16.889 16.7956 17.0237C16.6459 17.1585 16.4518 17.2337 16.2504 17.2349H16.1691C14.062 17.0216 11.9387 17.0216 9.8316 17.2349C9.61749 17.2577 9.40309 17.1945 9.23551 17.0593C9.06793 16.9241 8.96087 16.7279 8.93785 16.5138C8.91794 16.2987 8.98348 16.0843 9.12031 15.9171C9.25714 15.7498 9.45426 15.6432 9.6691 15.6201C11.8838 15.3865 14.1169 15.3865 16.3316 15.6201C16.5445 15.6432 16.74 15.7484 16.8766 15.9134C17.0131 16.0784 17.08 16.2902 17.0629 16.5037V16.5037Z" fill="black"/>
</svg>
