<svg width="28" height="28" viewBox="0 0 28 28" fill="none" xmlns="http://www.w3.org/2000/svg">
<path d="M15.4984 14.6234L10.9047 19.2172C10.7367 19.3777 10.5136 19.4678 10.2812 19.4688C10.1686 19.469 10.057 19.4467 9.95312 19.4031C9.79183 19.3379 9.65364 19.226 9.55623 19.0819C9.45882 18.9377 9.4066 18.7677 9.40625 18.5938V14.875H2.625C2.39294 14.875 2.17038 14.7828 2.00628 14.6187C1.84219 14.4546 1.75 14.2321 1.75 14C1.75 13.7679 1.84219 13.5454 2.00628 13.3813C2.17038 13.2172 2.39294 13.125 2.625 13.125H9.40625V9.40625C9.4066 9.23226 9.45882 9.06232 9.55623 8.91815C9.65364 8.77398 9.79183 8.66212 9.95312 8.59687C10.1129 8.53342 10.2875 8.51721 10.4562 8.55018C10.6249 8.58314 10.7806 8.66389 10.9047 8.78281L15.4984 13.3766C15.6627 13.5425 15.7549 13.7665 15.7549 14C15.7549 14.2335 15.6627 14.4575 15.4984 14.6234V14.6234ZM21 3.5H14.875C14.6429 3.5 14.4204 3.59219 14.2563 3.75628C14.0922 3.92038 14 4.14294 14 4.375C14 4.60706 14.0922 4.82962 14.2563 4.99372C14.4204 5.15781 14.6429 5.25 14.875 5.25H21V22.75H14.875C14.6429 22.75 14.4204 22.8422 14.2563 23.0063C14.0922 23.1704 14 23.3929 14 23.625C14 23.8571 14.0922 24.0796 14.2563 24.2437C14.4204 24.4078 14.6429 24.5 14.875 24.5H21C21.4641 24.5 21.9092 24.3156 22.2374 23.9874C22.5656 23.6592 22.75 23.2141 22.75 22.75V5.25C22.75 4.78587 22.5656 4.34075 22.2374 4.01256C21.9092 3.68437 21.4641 3.5 21 3.5V3.5Z" fill="black"/>
</svg>
