<svg width="32" height="32" viewBox="0 0 32 32" fill="none" xmlns="http://www.w3.org/2000/svg">
<path d="M26.9745 14.7752C26.9374 14.6141 26.8609 14.4646 26.7518 14.3402C26.6427 14.2159 26.5045 14.1206 26.3495 14.0627L19.1495 11.3627L20.9745 2.20024C21.0165 1.988 20.9894 1.7679 20.8972 1.5722C20.8049 1.37649 20.6524 1.21547 20.462 1.11274C20.2698 1.01046 20.049 0.974614 19.8343 1.01079C19.6195 1.04696 19.4227 1.15312 19.2745 1.31274L5.27454 16.3127C5.15983 16.4318 5.07682 16.5777 5.03314 16.7371C4.98947 16.8965 4.98651 17.0644 5.02454 17.2252C5.06368 17.3855 5.14093 17.534 5.24974 17.6581C5.35855 17.7821 5.49571 17.8781 5.64954 17.9377L12.8495 20.6377L11.0245 29.8002C10.9826 30.0125 11.0097 30.2326 11.1019 30.4283C11.1941 30.624 11.3466 30.785 11.537 30.8877C11.6806 30.9602 11.8388 30.9986 11.9995 31.0002C12.1354 31.0008 12.2699 30.9734 12.3946 30.9196C12.5194 30.8658 12.6317 30.7869 12.7245 30.6877L26.7245 15.6877C26.8393 15.5687 26.9223 15.4228 26.9659 15.2634C27.0096 15.104 27.0126 14.9361 26.9745 14.7752Z" fill="#0B0B0B"/>
</svg>
