<svg width="252" height="80" viewBox="0 0 252 80" fill="none" xmlns="http://www.w3.org/2000/svg">
<rect width="252" height="80" rx="8" fill="white"/>
<g clip-path="url(#clip0_1041_23982)">
<path d="M85.293 51.2496V30.25H89.209V47.6497H98.7025V51.2496H85.293Z" fill="black"/>
<path d="M107.157 51.6689C105.694 51.6689 104.378 51.3689 103.212 50.7689C102.045 50.169 101.125 49.299 100.452 48.159C99.7801 47.019 99.4438 45.649 99.4438 44.0491V43.5691C99.4438 41.9691 99.7801 40.5991 100.452 39.4591C101.125 38.3192 102.045 37.4492 103.212 36.8491C104.378 36.2492 105.694 35.9492 107.157 35.9492C108.621 35.9492 109.936 36.2492 111.103 36.8491C112.27 37.4492 113.19 38.3192 113.862 39.4591C114.535 40.5991 114.871 41.9691 114.871 43.5691V44.0491C114.871 45.649 114.535 47.019 113.862 48.159C113.19 49.299 112.27 50.169 111.103 50.7689C109.936 51.3689 108.621 51.6689 107.157 51.6689ZM107.157 48.3089C108.304 48.3089 109.254 47.9389 110.005 47.199C110.757 46.439 111.133 45.359 111.133 43.9591V43.6591C111.133 42.259 110.757 41.1891 110.005 40.449C109.274 39.6891 108.324 39.3091 107.157 39.3091C106.01 39.3091 105.061 39.6891 104.309 40.449C103.558 41.1891 103.182 42.259 103.182 43.6591V43.9591C103.182 45.359 103.558 46.439 104.309 47.199C105.061 47.9389 106.01 48.3089 107.157 48.3089Z" fill="black"/>
<path d="M116.274 43.8691V43.3891C116.274 41.8291 116.581 40.4991 117.194 39.399C117.807 38.2792 118.618 37.4292 119.627 36.8491C120.655 36.2492 121.773 35.9492 122.979 35.9492C124.324 35.9492 125.343 36.1892 126.035 36.6691C126.727 37.1491 127.232 37.6491 127.548 38.1691H128.082V36.3691H131.761V53.8888C131.761 54.9088 131.464 55.7188 130.871 56.3188C130.277 56.9388 129.486 57.2487 128.497 57.2487H118.648V53.9489H127.192C127.746 53.9489 128.023 53.6488 128.023 53.0488V49.1789H127.489C127.291 49.4989 127.014 49.8289 126.658 50.169C126.302 50.4888 125.827 50.7589 125.234 50.9789C124.641 51.1988 123.889 51.3089 122.979 51.3089C121.773 51.3089 120.655 51.0189 119.627 50.4389C118.618 49.8389 117.807 48.9889 117.194 47.8889C116.581 46.769 116.274 45.429 116.274 43.8691ZM124.047 48.0089C125.194 48.0089 126.154 47.6389 126.925 46.899C127.696 46.159 128.082 45.119 128.082 43.7791V43.4791C128.082 42.119 127.696 41.0791 126.925 40.359C126.173 39.6191 125.214 39.2491 124.047 39.2491C122.9 39.2491 121.941 39.6191 121.17 40.359C120.398 41.0791 120.012 42.119 120.012 43.4791V43.7791C120.012 45.119 120.398 46.159 121.17 46.899C121.941 47.6389 122.9 48.0089 124.047 48.0089Z" fill="black"/>
<path d="M141.572 51.6689C140.108 51.6689 138.793 51.3689 137.626 50.7689C136.459 50.169 135.539 49.299 134.867 48.159C134.194 47.019 133.858 45.649 133.858 44.0491V43.5691C133.858 41.9691 134.194 40.5991 134.867 39.4591C135.539 38.3192 136.459 37.4492 137.626 36.8491C138.793 36.2492 140.108 35.9492 141.572 35.9492C143.035 35.9492 144.35 36.2492 145.517 36.8491C146.684 37.4492 147.604 38.3192 148.276 39.4591C148.949 40.5991 149.285 41.9691 149.285 43.5691V44.0491C149.285 45.649 148.949 47.019 148.276 48.159C147.604 49.299 146.684 50.169 145.517 50.7689C144.35 51.3689 143.035 51.6689 141.572 51.6689ZM141.572 48.3089C142.719 48.3089 143.668 47.9389 144.42 47.199C145.171 46.439 145.547 45.359 145.547 43.9591V43.6591C145.547 42.259 145.171 41.1891 144.42 40.449C143.688 39.6891 142.738 39.3091 141.572 39.3091C140.424 39.3091 139.475 39.6891 138.723 40.449C137.972 41.1891 137.596 42.259 137.596 43.6591V43.9591C137.596 45.359 137.972 46.439 138.723 47.199C139.475 47.9389 140.424 48.3089 141.572 48.3089Z" fill="black"/>
<path d="M151.4 51.2477V36.368H155.139V51.2477H151.4ZM153.27 34.6281C152.597 34.6281 152.024 34.408 151.548 33.968C151.094 33.5281 150.866 32.948 150.866 32.2281C150.866 31.5081 151.094 30.9281 151.548 30.4881C152.024 30.0481 152.597 29.8281 153.27 29.8281C153.962 29.8281 154.536 30.0481 154.99 30.4881C155.445 30.9281 155.674 31.5081 155.674 32.2281C155.674 32.948 155.445 33.5281 154.99 33.968C154.536 34.408 153.962 34.6281 153.27 34.6281Z" fill="black"/>
<path d="M157.946 57.2487V36.3691H161.625V38.1691H162.159C162.494 37.5892 163.018 37.0791 163.731 36.6391C164.442 36.1792 165.461 35.9492 166.787 35.9492C167.973 35.9492 169.071 36.2492 170.079 36.8491C171.089 37.4292 171.9 38.2891 172.512 39.4291C173.125 40.5691 173.432 41.9491 173.432 43.5691V44.0491C173.432 45.669 173.125 47.0489 172.512 48.1889C171.9 49.3289 171.089 50.1989 170.079 50.7989C169.071 51.3788 167.973 51.6689 166.787 51.6689C165.897 51.6689 165.145 51.5589 164.532 51.3389C163.939 51.1389 163.454 50.8788 163.078 50.5588C162.722 50.2189 162.436 49.8789 162.218 49.5389H161.683V57.2487H157.946ZM165.659 48.3689C166.827 48.3689 167.785 47.999 168.536 47.259C169.308 46.4989 169.694 45.3991 169.694 43.9591V43.6591C169.694 42.2191 169.308 41.1291 168.536 40.3891C167.765 39.6291 166.806 39.2491 165.659 39.2491C164.513 39.2491 163.552 39.6291 162.781 40.3891C162.01 41.1291 161.625 42.2191 161.625 43.6591V43.9591C161.625 45.3991 162.01 46.4989 162.781 47.259C163.552 47.999 164.513 48.3689 165.659 48.3689Z" fill="black"/>
<path d="M181.641 51.6689C179.722 51.6689 178.15 51.2489 176.924 50.4089C175.698 49.5689 174.956 48.3689 174.699 46.809L178.14 45.909C178.279 46.609 178.506 47.1589 178.823 47.559C179.159 47.9589 179.564 48.249 180.04 48.429C180.533 48.589 181.067 48.6689 181.641 48.6689C182.512 48.6689 183.155 48.519 183.569 48.2189C183.985 47.899 184.192 47.5089 184.192 47.0489C184.192 46.5889 183.995 46.239 183.6 45.999C183.203 45.739 182.571 45.529 181.701 45.369L180.87 45.2189C179.841 45.019 178.902 44.749 178.052 44.409C177.2 44.0491 176.518 43.559 176.004 42.939C175.491 42.3191 175.233 41.5191 175.233 40.5392C175.233 39.0591 175.767 37.9292 176.836 37.1491C177.903 36.3492 179.308 35.9492 181.048 35.9492C182.689 35.9492 184.055 36.3191 185.142 37.0592C186.23 37.7992 186.941 38.7691 187.278 39.9692L183.807 41.0491C183.649 40.2892 183.323 39.7491 182.828 39.4291C182.353 39.1091 181.76 38.9491 181.048 38.9491C180.336 38.9491 179.792 39.0792 179.416 39.3391C179.04 39.5792 178.853 39.9191 178.853 40.359C178.853 40.839 179.05 41.1991 179.446 41.4391C179.841 41.659 180.375 41.8291 181.048 41.9491L181.878 42.099C182.986 42.299 183.985 42.5691 184.875 42.9091C185.785 43.2291 186.496 43.699 187.011 44.319C187.544 44.9191 187.812 45.739 187.812 46.779C187.812 48.339 187.249 49.549 186.121 50.4089C185.013 51.2489 183.52 51.6689 181.641 51.6689Z" fill="black"/>
<path d="M195.36 51.4909C194.212 51.4909 193.204 51.2308 192.333 50.7109C191.483 50.1709 190.821 49.4309 190.345 48.4909C189.871 47.5509 189.634 46.471 189.634 45.2509V36.3711H193.372V44.9509C193.372 46.0709 193.639 46.9109 194.173 47.4709C194.726 48.0309 195.508 48.3109 196.516 48.3109C197.664 48.3109 198.554 47.931 199.186 47.1709C199.82 46.3909 200.136 45.3109 200.136 43.931V36.3711H203.874V51.2508H200.195V49.3009H199.662C199.425 49.8009 198.978 50.2908 198.327 50.7708C197.674 51.2508 196.685 51.4909 195.36 51.4909Z" fill="black"/>
<path d="M206.699 51.2486V36.3688H210.377V37.9888H210.911C211.169 37.4888 211.595 37.0589 212.188 36.6989C212.78 36.3188 213.562 36.1289 214.531 36.1289C215.579 36.1289 216.421 36.3389 217.053 36.7588C217.685 37.1589 218.17 37.6888 218.506 38.3489H219.041C219.377 37.7089 219.852 37.1789 220.465 36.7588C221.078 36.3389 221.948 36.1289 223.075 36.1289C223.985 36.1289 224.806 36.3289 225.538 36.7289C226.289 37.1089 226.883 37.6989 227.318 38.4988C227.773 39.2789 228 40.2688 228 41.4688V51.2486H224.262V41.7388C224.262 40.9188 224.054 40.3089 223.64 39.9088C223.224 39.4889 222.64 39.2789 221.889 39.2789C221.039 39.2789 220.376 39.5588 219.901 40.1188C219.446 40.6588 219.219 41.4388 219.219 42.4587V51.2486H215.481V41.7388C215.481 40.9188 215.273 40.3089 214.857 39.9088C214.442 39.4889 213.859 39.2789 213.107 39.2789C212.256 39.2789 211.593 39.5588 211.119 40.1188C210.664 40.6588 210.437 41.4388 210.437 42.4587V51.2486H206.699Z" fill="black"/>
<path d="M73.4455 40.0001C73.4455 34.6957 71.3617 29.6086 67.6525 25.8579C63.9432 22.1071 58.9125 20 53.6669 20C48.4212 20 43.3905 22.1071 39.6812 25.8579C35.972 29.6086 33.8882 34.6957 33.8882 40.0001H40.0691C42.1173 40.0001 43.7146 38.2644 44.4648 36.3372C44.9573 35.072 45.7047 33.9092 46.674 32.9289C48.5286 31.0536 51.044 30 53.6669 30C56.2897 30 58.8051 31.0536 60.6597 32.9289C62.5143 34.8043 63.5561 37.3479 63.5561 40.0001H73.4455Z" fill="black"/>
<path opacity="0.6" d="M62.0519 47.6536C63.0459 45.2271 63.5576 42.6264 63.5576 40H73.4458C73.4458 51.0457 64.5906 59.9999 53.6671 59.9999C51.9565 59.9999 50.2964 59.7804 48.7134 59.3675C49.6091 59.1342 50.4895 58.837 51.3478 58.4776C53.7475 57.4724 55.9278 55.9993 57.7645 54.1421C59.6011 52.2849 61.0581 50.0802 62.0519 47.6536Z" fill="black"/>
<path d="M24 40C24 42.6265 24.5116 45.2272 25.5056 47.6538C26.4995 50.0803 27.9564 52.2851 29.793 54.1423C31.6297 55.9993 33.81 57.4726 36.2097 58.4777C38.6093 59.4828 41.1813 60.0001 43.7787 60.0001C46.376 60.0001 48.9479 59.4828 51.3476 58.4777C53.7473 57.4726 55.9277 55.9993 57.7643 54.1423C59.6009 52.2851 61.0577 50.0803 62.0517 47.6538C63.0457 45.2272 63.5574 42.6265 63.5574 40H57.3764C55.3283 40 53.731 41.7356 52.9808 43.6627C52.9595 43.7176 52.9375 43.7723 52.9152 43.8269C52.4182 45.0401 51.6898 46.1426 50.7714 47.0711C49.8532 47.9997 48.7629 48.7364 47.5631 49.2389C46.3634 49.7415 45.0774 50.0001 43.7787 50.0001C42.48 50.0001 41.194 49.7415 39.9942 49.2389C38.7943 48.7364 37.7042 47.9997 36.7858 47.0711C35.8675 46.1426 35.1391 45.0401 34.6421 43.8269C34.1451 42.6136 33.8893 41.3133 33.8893 40H24Z" fill="black"/>
<path opacity="0.6" d="M24.002 40.0001C24.002 28.9543 32.8571 20 43.7805 20C45.4908 20 47.1504 20.2195 48.7333 20.6322C45.3368 21.5169 42.2036 23.3074 39.6813 25.8579C35.9721 29.6086 33.8883 34.6957 33.8883 40.0001H24.002Z" fill="black"/>
</g>
<defs>
<clipPath id="clip0_1041_23982">
<rect width="204" height="40" fill="white" transform="translate(24 20)"/>
</clipPath>
</defs>
</svg>
