<svg width="218" height="80" viewBox="0 0 218 80" fill="none" xmlns="http://www.w3.org/2000/svg">
<rect width="218" height="80" rx="8" fill="white"/>
<g clip-path="url(#clip0_1041_24078)">
<path d="M75.4346 47.9999H87.4469V44.3999H79.704V30.8398H75.4346V47.9999Z" fill="black"/>
<path d="M94.5636 45.599C92.851 45.599 91.9585 44.111 91.9585 41.879C91.9585 39.647 92.851 38.135 94.5636 38.135C96.2762 38.135 97.1928 39.647 97.1928 41.879C97.1928 44.111 96.2762 45.599 94.5636 45.599ZM94.5877 48.383C98.5677 48.383 101.173 45.575 101.173 41.879C101.173 38.183 98.5677 35.375 94.5877 35.375C90.6318 35.375 87.9785 38.183 87.9785 41.879C87.9785 45.575 90.6318 48.383 94.5877 48.383Z" fill="black"/>
<path d="M108.062 52.2476C109.895 52.2476 111.512 51.8396 112.597 50.8796C113.586 49.9916 114.237 48.6476 114.237 46.7996V35.7116H110.474V37.0316H110.426C109.702 35.9996 108.593 35.3516 106.953 35.3516C103.889 35.3516 101.767 37.8956 101.767 41.4956C101.767 45.2636 104.348 47.3276 107.122 47.3276C108.617 47.3276 109.558 46.7276 110.281 45.9116H110.378V47.1356C110.378 48.6236 109.678 49.4876 108.014 49.4876C106.711 49.4876 106.06 48.9356 105.843 48.2876H102.032C102.418 50.8556 104.661 52.2476 108.062 52.2476ZM108.038 44.4236C106.567 44.4236 105.602 43.2236 105.602 41.3756C105.602 39.5036 106.567 38.3036 108.038 38.3036C109.678 38.3036 110.547 39.6956 110.547 41.3516C110.547 43.0796 109.751 44.4236 108.038 44.4236Z" fill="black"/>
<path d="M121.974 45.599C120.262 45.599 119.369 44.111 119.369 41.879C119.369 39.647 120.262 38.135 121.974 38.135C123.687 38.135 124.603 39.647 124.603 41.879C124.603 44.111 123.687 45.599 121.974 45.599ZM121.998 48.383C125.978 48.383 128.583 45.575 128.583 41.879C128.583 38.183 125.978 35.375 121.998 35.375C118.042 35.375 115.389 38.183 115.389 41.879C115.389 45.575 118.042 48.383 121.998 48.383Z" fill="black"/>
<path d="M129.731 47.9999H133.663V35.7118H129.731V47.9999ZM129.731 34.0078H133.663V30.8398H129.731V34.0078Z" fill="black"/>
<path d="M135.369 52.0556H139.301V46.7276H139.349C140.121 47.7596 141.255 48.3836 142.847 48.3836C146.079 48.3836 148.226 45.8396 148.226 41.8556C148.226 38.1596 146.224 35.3516 142.943 35.3516C141.255 35.3516 140.049 36.0956 139.204 37.1996H139.132V35.7116H135.369V52.0556ZM141.834 45.3596C140.145 45.3596 139.18 43.9916 139.18 41.9996C139.18 40.0076 140.049 38.4956 141.761 38.4956C143.45 38.4956 144.246 39.8876 144.246 41.9996C144.246 44.0876 143.329 45.3596 141.834 45.3596Z" fill="black"/>
<path d="M154.627 48.3836C157.859 48.3836 160.247 46.9916 160.247 44.3036C160.247 41.1596 157.691 40.6076 155.52 40.2476C153.952 39.9596 152.553 39.8396 152.553 38.9756C152.553 38.2076 153.301 37.8476 154.265 37.8476C155.351 37.8476 156.099 38.1836 156.243 39.2876H159.862C159.669 36.8636 157.787 35.3516 154.29 35.3516C151.371 35.3516 148.959 36.6956 148.959 39.2876C148.959 42.1676 151.25 42.7436 153.397 43.1036C155.037 43.3916 156.533 43.5116 156.533 44.6156C156.533 45.4076 155.785 45.8396 154.603 45.8396C153.301 45.8396 152.48 45.2396 152.336 44.0156H148.621C148.742 46.7276 151.009 48.3836 154.627 48.3836Z" fill="black"/>
<path d="M165.588 48.3589C167.301 48.3589 168.386 47.6869 169.278 46.4869H169.351V47.9989H173.114V35.7109H169.182V42.5749C169.182 44.0389 168.362 45.0469 167.011 45.0469C165.757 45.0469 165.154 44.3029 165.154 42.9589V35.7109H161.246V43.7749C161.246 46.5109 162.742 48.3589 165.588 48.3589Z" fill="black"/>
<path d="M174.824 47.9996H178.755V41.1116C178.755 39.6476 179.479 38.6156 180.709 38.6156C181.891 38.6156 182.446 39.3836 182.446 40.7036V47.9996H186.378V41.1116C186.378 39.6476 187.077 38.6156 188.332 38.6156C189.514 38.6156 190.068 39.3836 190.068 40.7036V47.9996H194V40.0076C194 37.2476 192.601 35.3516 189.803 35.3516C188.211 35.3516 186.884 36.0236 185.919 37.5116H185.871C185.244 36.1916 184.014 35.3516 182.398 35.3516C180.613 35.3516 179.431 36.1916 178.659 37.4636H178.587V35.7116H174.824V47.9996Z" fill="black"/>
<path fill-rule="evenodd" clip-rule="evenodd" d="M44.101 60C55.2025 60 64.202 51.0457 64.202 40C64.202 28.9543 55.2025 20 44.101 20C32.9995 20 24 28.9543 24 40C24 51.0457 32.9995 60 44.101 60ZM50.3718 29.3168C50.677 28.2381 49.6249 27.6001 48.6639 28.2813L35.2496 37.7896C34.2075 38.5283 34.3714 40 35.4959 40H39.0282V39.9728H45.9126L40.3031 41.9421L37.8302 50.6832C37.525 51.762 38.5771 52.3999 39.5381 51.7187L52.9524 42.2105C53.9945 41.4718 53.8305 40 52.7061 40H47.3494L50.3718 29.3168Z" fill="black"/>
</g>
<defs>
<clipPath id="clip0_1041_24078">
<rect width="170" height="40" fill="white" transform="translate(24 20)"/>
</clipPath>
</defs>
</svg>
