<svg width="244" height="80" viewBox="0 0 244 80" fill="none" xmlns="http://www.w3.org/2000/svg">
<rect width="244" height="80" rx="8" fill="white"/>
<path d="M43.7299 20H24V40H43.7299V20Z" fill="black"/>
<path opacity="0.6" d="M43.7299 40H24V60H43.7299V40Z" fill="black"/>
<path d="M76.0869 48.1408H89.3138V44.4896H80.4555V27.1953H76.0869V48.1408Z" fill="black"/>
<path d="M98.2756 48.447C102.977 48.447 105.903 45.1845 105.903 40.347C105.903 35.4788 102.977 32.2266 98.2756 32.2266C93.5744 32.2266 90.6484 35.4788 90.6484 40.347C90.6484 45.1845 93.5744 48.447 98.2756 48.447ZM98.2957 45.072C96.1266 45.072 95.017 43.0572 95.017 40.3164C95.017 37.5754 96.1266 35.5504 98.2957 35.5504C100.425 35.5504 101.535 37.5754 101.535 40.3164C101.535 43.0572 100.425 45.072 98.2957 45.072Z" fill="black"/>
<path d="M114.827 54.3584C119.256 54.3584 122.404 52.3129 122.404 48.2936V32.4311H118.137V35.0698H117.975C117.4 33.7914 116.139 32.2266 113.546 32.2266C110.146 32.2266 107.271 34.9061 107.271 40.255C107.271 45.4811 110.065 47.9152 113.556 47.9152C116.028 47.9152 117.41 46.6572 117.975 45.3584H118.157V48.2322C118.157 50.3902 116.795 51.2288 114.928 51.2288C113.031 51.2288 112.073 50.3902 111.72 49.4391L107.745 49.9811C108.259 52.4561 110.65 54.3584 114.827 54.3584ZM114.918 44.6425C112.809 44.6425 111.659 42.9448 111.659 40.2345C111.659 37.5652 112.789 35.6936 114.918 35.6936C117.006 35.6936 118.177 37.4834 118.177 40.2345C118.177 43.0061 116.986 44.6425 114.918 44.6425Z" fill="black"/>
<path d="M131.974 48.447C136.675 48.447 139.601 45.1845 139.601 40.347C139.601 35.4788 136.675 32.2266 131.974 32.2266C127.272 32.2266 124.347 35.4788 124.347 40.347C124.347 45.1845 127.272 48.447 131.974 48.447ZM131.994 45.072C129.825 45.072 128.715 43.0572 128.715 40.3164C128.715 37.5754 129.825 35.5504 131.994 35.5504C134.123 35.5504 135.233 37.5754 135.233 40.3164C135.233 43.0572 134.123 45.072 131.994 45.072Z" fill="black"/>
<path d="M141.543 48.142H145.841V32.433H141.543V48.142ZM143.702 30.408C144.984 30.408 146.033 29.4159 146.033 28.1989C146.033 26.992 144.984 26 143.702 26C142.431 26 141.382 26.992 141.382 28.1989C141.382 29.4159 142.431 30.408 143.702 30.408Z" fill="black"/>
<path d="M148.432 54.0311H152.73V45.6243H152.861C153.456 46.9334 154.757 48.3959 157.26 48.3959C160.791 48.3959 163.545 45.5629 163.545 40.3061C163.545 34.9061 160.67 32.2266 157.27 32.2266C154.677 32.2266 153.436 33.7914 152.861 35.0698H152.669V32.4311H148.432V54.0311ZM152.639 40.2857C152.639 37.4834 153.809 35.6936 155.898 35.6936C158.027 35.6936 159.156 37.5652 159.156 40.2857C159.156 43.0266 158.006 44.9288 155.898 44.9288C153.829 44.9288 152.639 43.0879 152.639 40.2857Z" fill="black"/>
<path d="M178.452 36.9107C178.069 34.0164 175.768 32.2266 171.854 32.2266C167.889 32.2266 165.276 34.0879 165.286 37.1152C165.276 39.4675 166.739 40.9914 169.765 41.605L172.449 42.147C173.801 42.4232 174.417 42.9243 174.437 43.7118C174.417 44.6425 173.417 45.3072 171.914 45.3072C170.381 45.3072 169.362 44.6425 169.099 43.3641L164.872 43.5891C165.276 46.5959 167.798 48.447 171.904 48.447C175.92 48.447 178.795 46.3709 178.805 43.272C178.795 41.0016 177.332 39.6414 174.325 39.0175L171.521 38.4448C170.078 38.1277 169.543 37.6266 169.554 36.8698C169.543 35.9288 170.593 35.3152 171.924 35.3152C173.417 35.3152 174.305 36.1436 174.517 37.1561L178.452 36.9107Z" fill="black"/>
<path d="M190.597 41.454C190.607 43.5609 189.184 44.6654 187.641 44.6654C186.017 44.6654 184.967 43.5097 184.957 41.6586V32.4336H180.659V42.4359C180.669 46.1074 182.788 48.3472 185.906 48.3472C188.236 48.3472 189.911 47.1302 190.607 45.2893H190.769V48.1427H194.895V32.4336H190.597V41.454Z" fill="black"/>
<path d="M197.48 48.1402H201.779V38.7107C201.779 36.972 202.868 35.8164 204.301 35.8164C205.713 35.8164 206.662 36.7982 206.662 38.3425V48.1402H210.829V38.547C210.829 36.9209 211.747 35.8164 213.311 35.8164C214.683 35.8164 215.712 36.6857 215.712 38.4345V48.1402H220V37.5754C220 34.1698 218.002 32.2266 215.117 32.2266C212.846 32.2266 211.081 33.4027 210.445 35.2027H210.284C209.79 33.3822 208.205 32.2266 206.077 32.2266C203.988 32.2266 202.404 33.3516 201.758 35.2027H201.577V32.4311H197.48V48.1402Z" fill="black"/>
<path opacity="0.6" d="M53.5949 40C59.0432 40 63.4598 35.5228 63.4598 30C63.4598 24.4772 59.0432 20 53.5949 20C48.1467 20 43.73 24.4772 43.73 30C43.73 35.5228 48.1467 40 53.5949 40Z" fill="black"/>
<path d="M53.5949 60C59.0432 60 63.4598 55.5228 63.4598 50C63.4598 44.4772 59.0432 40 53.5949 40C48.1467 40 43.73 44.4772 43.73 50C43.73 55.5228 48.1467 60 53.5949 60Z" fill="black"/>
<path d="M76.0869 48.1408H89.3138V44.4896H80.4555V27.1953H76.0869V48.1408Z" fill="black"/>
<path d="M98.2756 48.447C102.977 48.447 105.903 45.1845 105.903 40.347C105.903 35.4788 102.977 32.2266 98.2756 32.2266C93.5744 32.2266 90.6484 35.4788 90.6484 40.347C90.6484 45.1845 93.5744 48.447 98.2756 48.447ZM98.2957 45.072C96.1266 45.072 95.017 43.0572 95.017 40.3164C95.017 37.5754 96.1266 35.5504 98.2957 35.5504C100.425 35.5504 101.535 37.5754 101.535 40.3164C101.535 43.0572 100.425 45.072 98.2957 45.072Z" fill="black"/>
<path d="M114.827 54.3584C119.256 54.3584 122.404 52.3129 122.404 48.2936V32.4311H118.137V35.0698H117.975C117.4 33.7914 116.139 32.2266 113.546 32.2266C110.146 32.2266 107.271 34.9061 107.271 40.255C107.271 45.4811 110.065 47.9152 113.556 47.9152C116.028 47.9152 117.41 46.6572 117.975 45.3584H118.157V48.2322C118.157 50.3902 116.795 51.2288 114.928 51.2288C113.031 51.2288 112.073 50.3902 111.72 49.4391L107.745 49.9811C108.259 52.4561 110.65 54.3584 114.827 54.3584ZM114.918 44.6425C112.809 44.6425 111.659 42.9448 111.659 40.2345C111.659 37.5652 112.789 35.6936 114.918 35.6936C117.006 35.6936 118.177 37.4834 118.177 40.2345C118.177 43.0061 116.986 44.6425 114.918 44.6425Z" fill="black"/>
<path d="M131.974 48.447C136.675 48.447 139.601 45.1845 139.601 40.347C139.601 35.4788 136.675 32.2266 131.974 32.2266C127.272 32.2266 124.347 35.4788 124.347 40.347C124.347 45.1845 127.272 48.447 131.974 48.447ZM131.994 45.072C129.825 45.072 128.715 43.0572 128.715 40.3164C128.715 37.5754 129.825 35.5504 131.994 35.5504C134.123 35.5504 135.233 37.5754 135.233 40.3164C135.233 43.0572 134.123 45.072 131.994 45.072Z" fill="black"/>
<path d="M141.543 48.142H145.841V32.433H141.543V48.142ZM143.702 30.408C144.984 30.408 146.033 29.4159 146.033 28.1989C146.033 26.992 144.984 26 143.702 26C142.431 26 141.382 26.992 141.382 28.1989C141.382 29.4159 142.431 30.408 143.702 30.408Z" fill="black"/>
<path d="M148.432 54.0311H152.73V45.6243H152.861C153.456 46.9334 154.757 48.3959 157.26 48.3959C160.791 48.3959 163.545 45.5629 163.545 40.3061C163.545 34.9061 160.67 32.2266 157.27 32.2266C154.677 32.2266 153.436 33.7914 152.861 35.0698H152.669V32.4311H148.432V54.0311ZM152.639 40.2857C152.639 37.4834 153.809 35.6936 155.898 35.6936C158.027 35.6936 159.156 37.5652 159.156 40.2857C159.156 43.0266 158.006 44.9288 155.898 44.9288C153.829 44.9288 152.639 43.0879 152.639 40.2857Z" fill="black"/>
<path d="M178.452 36.9107C178.069 34.0164 175.768 32.2266 171.854 32.2266C167.889 32.2266 165.276 34.0879 165.286 37.1152C165.276 39.4675 166.739 40.9914 169.765 41.605L172.449 42.147C173.801 42.4232 174.417 42.9243 174.437 43.7118C174.417 44.6425 173.417 45.3072 171.914 45.3072C170.381 45.3072 169.362 44.6425 169.099 43.3641L164.872 43.5891C165.276 46.5959 167.798 48.447 171.904 48.447C175.92 48.447 178.795 46.3709 178.805 43.272C178.795 41.0016 177.332 39.6414 174.325 39.0175L171.521 38.4448C170.078 38.1277 169.543 37.6266 169.554 36.8698C169.543 35.9288 170.593 35.3152 171.924 35.3152C173.417 35.3152 174.305 36.1436 174.517 37.1561L178.452 36.9107Z" fill="black"/>
<path d="M190.597 41.454C190.607 43.5609 189.184 44.6654 187.641 44.6654C186.017 44.6654 184.967 43.5097 184.957 41.6586V32.4336H180.659V42.4359C180.669 46.1074 182.788 48.3472 185.906 48.3472C188.236 48.3472 189.911 47.1302 190.607 45.2893H190.769V48.1427H194.895V32.4336H190.597V41.454Z" fill="black"/>
<path d="M197.48 48.1402H201.779V38.7107C201.779 36.972 202.868 35.8164 204.301 35.8164C205.713 35.8164 206.662 36.7982 206.662 38.3425V48.1402H210.829V38.547C210.829 36.9209 211.747 35.8164 213.311 35.8164C214.683 35.8164 215.712 36.6857 215.712 38.4345V48.1402H220V37.5754C220 34.1698 218.002 32.2266 215.117 32.2266C212.846 32.2266 211.081 33.4027 210.445 35.2027H210.284C209.79 33.3822 208.205 32.2266 206.077 32.2266C203.988 32.2266 202.404 33.3516 201.758 35.2027H201.577V32.4311H197.48V48.1402Z" fill="black"/>
</svg>
