<svg width="216" height="80" viewBox="0 0 216 80" fill="none" xmlns="http://www.w3.org/2000/svg">
<rect width="216" height="80" rx="8" fill="white"/>
<path d="M73.2739 48.0272H85.3025V44.4272H77.5491V30.8672H73.2739V48.0272Z" fill="black"/>
<path d="M92.4289 45.6303C90.714 45.6303 89.8203 44.1423 89.8203 41.9103C89.8203 39.6783 90.714 38.1663 92.4289 38.1663C94.1438 38.1663 95.0617 39.6783 95.0617 41.9103C95.0617 44.1423 94.1438 45.6303 92.4289 45.6303ZM92.4531 48.4143C96.4385 48.4143 99.0471 45.6063 99.0471 41.9103C99.0471 38.2143 96.4385 35.4062 92.4531 35.4062C88.4919 35.4062 85.835 38.2143 85.835 41.9103C85.835 45.6063 88.4919 48.4143 92.4531 48.4143Z" fill="black"/>
<path d="M105.945 52.2788C107.781 52.2788 109.399 51.8708 110.486 50.9108C111.476 50.0228 112.129 48.6788 112.129 46.8308V35.7428H108.361V37.0628H108.312C107.588 36.0308 106.477 35.3828 104.834 35.3828C101.767 35.3828 99.6411 37.9268 99.6411 41.5268C99.6411 45.2948 102.226 47.3588 105.003 47.3588C106.501 47.3588 107.443 46.7588 108.167 45.9428H108.264V47.1668C108.264 48.6548 107.564 49.5188 105.897 49.5188C104.593 49.5188 103.94 48.9668 103.723 48.3188H99.9068C100.293 50.8868 102.54 52.2788 105.945 52.2788ZM105.921 44.4548C104.448 44.4548 103.482 43.2548 103.482 41.4068C103.482 39.5348 104.448 38.3348 105.921 38.3348C107.564 38.3348 108.433 39.7268 108.433 41.3828C108.433 43.1108 107.636 44.4548 105.921 44.4548Z" fill="black"/>
<path d="M119.876 45.6303C118.161 45.6303 117.268 44.1423 117.268 41.9103C117.268 39.6783 118.161 38.1663 119.876 38.1663C121.591 38.1663 122.509 39.6783 122.509 41.9103C122.509 44.1423 121.591 45.6303 119.876 45.6303ZM119.9 48.4143C123.886 48.4143 126.494 45.6063 126.494 41.9103C126.494 38.2143 123.886 35.4062 119.9 35.4062C115.939 35.4062 113.282 38.2143 113.282 41.9103C113.282 45.6063 115.939 48.4143 119.9 48.4143Z" fill="black"/>
<path d="M127.645 48.0272H131.582V35.7392H127.645V48.0272ZM127.645 34.0352H131.582V30.8672H127.645V34.0352Z" fill="black"/>
<path d="M133.289 52.0868H137.226V46.7588H137.274C138.047 47.7908 139.183 48.4148 140.777 48.4148C144.013 48.4148 146.163 45.8708 146.163 41.8868C146.163 38.1908 144.158 35.3828 140.873 35.3828C139.183 35.3828 137.975 36.1268 137.13 37.2308H137.057V35.7428H133.289V52.0868ZM139.762 45.3908C138.072 45.3908 137.105 44.0228 137.105 42.0308C137.105 40.0388 137.975 38.5268 139.69 38.5268C141.381 38.5268 142.178 39.9188 142.178 42.0308C142.178 44.1188 141.26 45.3908 139.762 45.3908Z" fill="black"/>
<path d="M152.573 48.4148C155.809 48.4148 158.201 47.0228 158.201 44.3348C158.201 41.1908 155.64 40.6388 153.467 40.2788C151.897 39.9908 150.496 39.8708 150.496 39.0068C150.496 38.2388 151.244 37.8788 152.211 37.8788C153.297 37.8788 154.046 38.2148 154.191 39.3188H157.814C157.621 36.8948 155.737 35.3828 152.235 35.3828C149.312 35.3828 146.897 36.7268 146.897 39.3188C146.897 42.1988 149.191 42.7748 151.341 43.1348C152.983 43.4228 154.481 43.5428 154.481 44.6468C154.481 45.4388 153.732 45.8708 152.549 45.8708C151.244 45.8708 150.423 45.2708 150.278 44.0468H146.559C146.679 46.7588 148.95 48.4148 152.573 48.4148Z" fill="black"/>
<path d="M163.549 48.3902C165.264 48.3902 166.351 47.7182 167.244 46.5182H167.317V48.0302H171.085V35.7422H167.148V42.6062C167.148 44.0702 166.327 45.0782 164.974 45.0782C163.718 45.0782 163.114 44.3342 163.114 42.9902V35.7422H159.201V43.8062C159.201 46.5422 160.699 48.3902 163.549 48.3902Z" fill="black"/>
<path d="M172.798 48.0308H176.735V41.1428C176.735 39.6788 177.46 38.6468 178.691 38.6468C179.875 38.6468 180.43 39.4148 180.43 40.7348V48.0308H184.367V41.1428C184.367 39.6788 185.068 38.6468 186.324 38.6468C187.507 38.6468 188.063 39.4148 188.063 40.7348V48.0308H192V40.0388C192 37.2788 190.599 35.3828 187.797 35.3828C186.203 35.3828 184.875 36.0548 183.909 37.5428H183.86C183.232 36.2228 182 35.3828 180.382 35.3828C178.595 35.3828 177.411 36.2228 176.638 37.4948H176.566V35.7428H172.798V48.0308Z" fill="black"/>
<path d="M49.2533 21.0539L45.2951 20L41.9594 32.3696L38.948 21.2022L34.9897 22.2561L38.2434 34.3216L30.1392 26.269L27.2415 29.1482L36.1308 37.981L25.0606 35.0336L24 38.9666L36.0956 42.187C35.9571 41.5935 35.8839 40.9751 35.8839 40.3397C35.8839 35.8421 39.5532 32.1961 44.0796 32.1961C48.606 32.1961 52.2754 35.8421 52.2754 40.3397C52.2754 40.971 52.203 41.5856 52.0663 42.1756L63.0589 45.1023L64.1195 41.1693L51.9758 37.9361L63.0468 34.9885L61.9861 31.0555L49.8429 34.2885L57.9471 26.2359L55.0495 23.3567L46.2835 32.067L49.2533 21.0539Z" fill="black"/>
<path d="M52.0555 42.2227C51.7161 43.6483 50.9997 44.929 50.0166 45.9551L57.9803 53.8682L60.8779 50.989L52.0555 42.2227Z" fill="black"/>
<path d="M49.9361 46.0352C48.9412 47.0449 47.6839 47.7984 46.2739 48.1867L49.1718 58.9327L53.13 57.8788L49.9361 46.0352Z" fill="black"/>
<path d="M46.1261 48.2284C45.4719 48.3955 44.7862 48.4843 44.0796 48.4843C43.3226 48.4843 42.5896 48.3823 41.8936 48.1914L38.9932 58.9472L42.9514 60.001L46.1261 48.2284Z" fill="black"/>
<path d="M41.7537 48.1521C40.3652 47.7445 39.1303 46.9814 38.1557 45.9688L30.1724 53.9013L33.07 56.7805L41.7537 48.1521Z" fill="black"/>
<path d="M38.0891 45.8971C37.1312 44.8781 36.4334 43.6145 36.1013 42.2109L25.0728 45.1472L26.1334 49.0802L38.0891 45.8971Z" fill="black"/>
</svg>
